<svg width="100" height="100" viewBox="0 0 100 100" fill="none" xmlns="http://www.w3.org/2000/svg">
<rect x="5.68182" y="5.68182" width="88.6364" height="88.6364" rx="17.0455" stroke="black" stroke-width="11.3636"/>
<path fill-rule="evenodd" clip-rule="evenodd" d="M77.8348 26.0068H54.0179L52.5022 26.6564L49.6875 29.4278L46.8728 26.6564L45.3571 26.0068H21.5402L19.375 28.172V71.4756L21.5402 73.6408H44.4478L48.1719 77.3216H51.2031L54.9272 73.6408H77.8348L80 71.4756V28.172L77.8348 26.0068ZM47.5223 70.6961L46.7429 69.96L45.3571 69.3104H23.7054V30.3372H44.4478L47.6522 33.5417L47.5223 70.6961ZM75.6696 69.3104H54.0179L52.5022 69.96L51.896 70.5229V33.3684L54.9272 30.3372H75.6696V69.3104ZM41.0268 38.9979H28.0357V43.3283H41.0268V38.9979ZM41.0268 56.3193H28.0357V60.6497H41.0268V56.3193ZM28.0357 47.6586H41.0268V51.989H28.0357V47.6586ZM71.3393 38.9979H58.3482V43.3283H71.3393V38.9979ZM58.3482 47.6586H71.3393V51.989H58.3482V47.6586ZM58.3482 56.3193H71.3393V60.6497H58.3482V56.3193Z" fill="black"/>
</svg>
