<svg id="レイヤー_1" data-name="レイヤー 1" xmlns="http://www.w3.org/2000/svg" viewBox="0 0 512 512"><defs><style>.cls-1{fill:#00abd8;}.cls-2{fill:#fff;}</style></defs><title>feature_2</title><path class="cls-1" d="M393.67,127c-1.78-9.1-13.07-6.44-17.25-12.69,0,0,0,0,0,0,.13-3.53-5.47-3.91-5.89-.23q-1.85,15.88-3.67,31.76a12.84,12.84,0,0,0-4.63-1.46c-6-.68-11.27,2.77-11.84,7.71s3.8,9.54,9.78,10.22,11.28-2.75,11.83-7.73a7.56,7.56,0,0,0-.09-2.28,3.09,3.09,0,0,0,.27-.95q1.2-10.47,2.41-20.93a14.23,14.23,0,0,0,3.2,1.57c3.08,1.11,7,1.18,8.89,4.22a58,58,0,0,1-4.8,8.56c-2.07,3.2,2.76,6.62,4.85,3.42C390.69,141.9,395.16,134.62,393.67,127Zm-8.83.85c-3.08-1.13-7-1.15-8.91-4.23a3.12,3.12,0,0,0-.51-.62c.06-.44.11-.89.16-1.33,2.39,1.47,5.2,2.15,8.2,3.08,2.79.86,4,2.58,4.26,4.69A14.93,14.93,0,0,0,384.84,127.8Z"/><path class="cls-1" d="M143.34,216a16.3,16.3,0,0,0-6.16,2.42q-2.62-14.88-5.24-29.75c-.59-3.39-5.65-2.59-5.44.62l-.06.08c-3.57,6.08-13.93,4.08-15.23,12.64-1.08,7.17,3.65,13.82,7.66,19.31,2.1,2.86,6.3-.73,4.2-3.57-3-4.1-10.56-13.82-3.91-17.86,3-1.79,6-2.29,8.48-3.91q2.42,13.74,4.84,27.47a3,3,0,0,0,.34.91,6,6,0,0,0,0,2c.82,4.57,6.85,7.31,13.45,6.14s11.31-5.8,10.51-10.35S149.94,214.8,143.34,216Z"/><path class="cls-1" d="M355.19,270c0-5.79-.09-12.56-.14-18.88,0-5.58-.08-10.78-.11-14.69,0-1.95,0-3.58-.05-4.78,0-.6,0-1.08,0-1.46v-.51c0-.17,0-.24,0-.62h0c-.66-5.93-1.74-17.33-9.91-27.32a42.91,42.91,0,0,0-17.8-12.58A66.3,66.3,0,0,0,315,185.76,29.7,29.7,0,0,0,319.53,170a30,30,0,0,0-52-20.34A30,30,0,0,0,220,185.81a62.72,62.72,0,0,0-14.93,4.47,40.3,40.3,0,0,0-20.5,20c-3.41,7.39-4.11,14.48-4.59,18.78v0c0,.42,0,.49-.05.7,0,1.32-.07,5.16-.11,10.49-.07,8-.13,18.93-.18,27.94v1.91c-20.34,17.31-44.84,35.32-45.66,64.09-1,33.89,25.6,57.54,56.73,61.4,26.82,3.34,45.32,4.34,76.77,4.34s49.94-1,76.77-4.34c31.12-3.86,57.69-27.51,56.74-61.4C400.15,305.35,375.55,287.34,355.19,270Zm-12.33-39.68v0ZM274.61,177c.2-.81.34-1.57.46-2.29v0l0-.21c0-.31.1-.6.14-.91v0a30.18,30.18,0,0,0,.23-3.57,29.55,29.55,0,0,0-.17-3.13h0v-.14l-.09-.52a23.18,23.18,0,0,0-.37-2.36v0l0-.19-.11-.37c-.19-.81-.39-1.62-.63-2.38v-.09a18,18,0,1,1,26.33,23.51c-1.2,0-2.4-.07-3.64-.07H278.58a17.92,17.92,0,0,1-4.56-5.1c.07-.24.16-.47.24-.74a.43.43,0,0,0,0-.12c.11-.38.22-.75.31-1.14,0-.05,0-.08,0-.13Zm56.61,65.86c-3.94-8.51,4.71-32.37-37-32.37H240.71c-41.71,0-33,23.86-37,32.37-2.64,5.71-6.89,11-12,16.21,0-4.08.05-8.22.08-12.05,0-4.64.06-8.83.09-11.93,0-1.54,0-2.81,0-3.72,0-.45,0-.8,0-1v-.2c.58-5.61,1.61-13.46,6.62-20a29.45,29.45,0,0,1,11.52-8.93c5.44-2.51,12.85-4.38,22.95-4.84a6,6,0,0,0,2.9-11.1,18,18,0,1,1,26-22.51l.06.11c.06.15.1.28.16.41a19.36,19.36,0,0,1,.9,2.92l0,.08,0,.09a1.43,1.43,0,0,0,0,.16,18.81,18.81,0,0,1,.35,3.47,17.85,17.85,0,0,1-.15,2.08l-.12.8v0c-.08.5-.17.94-.26,1.35v0l-.21.77c-.12.39-.25.8-.4,1.22l-.34.85a18.18,18.18,0,0,1-6.87,8.1s0,0-.05.05a4,4,0,0,0-.61.47c-.11.1-.23.18-.32.28s-.28.31-.42.47-.23.28-.33.41-.18.34-.28.5-.2.35-.28.51-.1.34-.16.51a4.76,4.76,0,0,0-.19.61c0,.14,0,.28,0,.43a6.53,6.53,0,0,0-.08.76v.07c0,.11,0,.24,0,.37a3.72,3.72,0,0,0,.08.74,4.56,4.56,0,0,0,.13.53,5.76,5.76,0,0,0,.18.59c.09.21.2.39.3.59s.13.28.21.41,0,0,.05.06a4.82,4.82,0,0,0,.41.51c.11.14.22.29.34.42s.26.21.39.33a5,5,0,0,0,.5.41c.14.09.3.16.44.26s.37.21.58.29a3.52,3.52,0,0,0,.52.17c.19.06.37.14.58.19s.3,0,.46.05a5.87,5.87,0,0,0,.72.08h38.45c1.74,0,3.42.06,5.11.14,8.83.41,15.64,1.9,20.82,3.95a32.74,32.74,0,0,1,10.6,6.52,27.88,27.88,0,0,1,7.42,12,55.15,55.15,0,0,1,2.16,11.38c0,.1,0,.39,0,.83.07,3.77.15,16.09.24,27.94C338,253.82,333.82,248.55,331.22,242.89Z"/><path class="cls-2" d="M275.69,343.41l.38,4.67v.57c0,4.09-4.75,6-9.51,6s-9.51-1.9-9.51-6v-.57l.47-4.67H238.59c-3.33,0-5-3.9-5-7.8,0-3.71,1.62-7.32,5-7.32h20c.09-2.38.19-4.57.19-6.85H238.59c-2.85,0-4.28-2.67-4.28-5.33s1.43-5.33,4.28-5.33h12.75l-15.6-23.59a4.92,4.92,0,0,1-.86-2.66c0-3.43,4.19-6.19,7.8-6.19a5.23,5.23,0,0,1,4.66,2.38l19.22,28.73,19.22-28.73a5.18,5.18,0,0,1,4.56-2.28c3.71,0,7.9,2.76,7.9,6.09a4.92,4.92,0,0,1-.86,2.66l-15.6,23.59h13c2.86,0,4.28,2.67,4.28,5.33s-1.42,5.33-4.28,5.33H274.36c0,2.19.1,4.47.19,6.85h20.26c3.33,0,4.95,3.71,4.95,7.51s-1.71,7.61-4.95,7.61Z"/></svg>