<svg id="レイヤー_1" data-name="レイヤー 1" xmlns="http://www.w3.org/2000/svg" viewBox="0 0 512 512"><defs><style>.cls-1{fill:#00abd8;}</style></defs><title>feature_3</title><path class="cls-1" d="M336,281.43l-.05,0h0l-.09,0a83.9,83.9,0,0,1-6.3,14.79c-.07.11-.13.23-.19.34-1.11,2-2.31,3.93-3.56,5.82-.3.45-.59.9-.9,1.35-1.05,1.51-2.16,2.95-3.29,4.38-.48.61-.94,1.23-1.44,1.82-1,1.24-2.14,2.4-3.24,3.57-1.34,1.42-2.73,2.78-4.16,4.1-.84.78-1.65,1.57-2.52,2.31s-2.08,1.66-3.12,2.47c-.86.66-1.71,1.33-2.59,2s-2,1.39-3.05,2.06-2.13,1.36-3.21,2c-.9.53-1.8,1-2.71,1.54-1.44.78-2.9,1.51-4.38,2.21-.61.29-1.23.59-1.85.87a84.11,84.11,0,0,1-111.59-44.83l15.51-1,11-.62-.07-.06h.14l-55.09-48.63-.16-.14h0l-.08-.06-28.47,32.23-20.39,23h.1l-.09.1,28.3-1.76a131.84,131.84,0,0,0,126.94,96.66c55.71,0,107.22-35.65,125.37-90.4.18-.54.41-1.05.59-1.6h0l0-.09Z"/><path class="cls-1" d="M175.05,230.29l.13,0h0l.1,0a83.47,83.47,0,0,1,6.3-14.79l.18-.32c1.1-2,2.31-3.94,3.56-5.84.3-.45.59-.9.9-1.33,1.05-1.52,2.16-3,3.3-4.4.48-.61.94-1.23,1.43-1.81,1-1.24,2.15-2.42,3.26-3.59,1.32-1.4,2.69-2.74,4.1-4,.85-.79,1.68-1.6,2.57-2.36s2.05-1.64,3.1-2.45c.86-.67,1.72-1.34,2.61-2s2-1.38,3-2,2.14-1.38,3.23-2q1.34-.79,2.7-1.53,2.16-1.17,4.39-2.22c.61-.28,1.22-.59,1.83-.86a84.14,84.14,0,0,1,111.6,44.82l-15.5,1-11,.61.07.07h-.14l55.33,48.83,28.69-32.49L411,218.87h-.1l.09-.1-28.3,1.76a131.77,131.77,0,0,0-96-92.94c-63.61-15.46-128.8,18.56-153.23,78.16-.07.16-.13.33-.19.49-1.26,3.1-2.44,6.26-3.47,9.5,0,0,0,.08,0,.12h0a.94.94,0,0,0,0,.09Z"/><path class="cls-1" d="M234.26,263.71a35.26,35.26,0,0,1,.15-5.24,113.47,113.47,0,0,1,1.76-14,65.48,65.48,0,0,1,5.07-16.22,51.71,51.71,0,0,1,7.57-11.58A48.62,48.62,0,0,1,254,211.5a1,1,0,0,1,1.49-.05A43.51,43.51,0,0,1,267.23,226c3.18,6.21,4.85,13,6.29,19.77A78.51,78.51,0,0,1,275.33,263c0,.71-.11.81-.78.57a57.6,57.6,0,0,0-15-3.14,61.63,61.63,0,0,0-23.62,2.79c-.49.15-1,.33-1.45.49-.05,0-.11,0-.21,0"/><path class="cls-1" d="M251.51,208.4a55.07,55.07,0,0,0-9,9.79,59.27,59.27,0,0,0-9.36,20.75,115.87,115.87,0,0,0-3,19.41c-.12,1.74-.23,3.48-.36,5.34-4.92-3.14-10.36-3.86-15.95-3.66s-11,.61-15.81,3.68c-.48-29.3,24-54.47,53.49-55.31"/><path class="cls-1" d="M258.3,208.41c28.68.8,53.62,25.2,53.36,55.29a24.14,24.14,0,0,0-3-1.56,35.73,35.73,0,0,0-10.84-2A37.44,37.44,0,0,0,286,261a20.19,20.19,0,0,0-5.31,2.17c-.64.38-.75.28-.76-.42a101.19,101.19,0,0,0-6.53-33.45,47.8,47.8,0,0,0-15.05-20.9"/><path class="cls-1" d="M252.77,289.29c0-5.33-.06-10.65,0-16,.05-3.18.06-6.37.06-9.55,0-.6.18-.77.78-.75,1.2,0,2.4.05,3.59,0,.66,0,.73.24.73.77,0,5.32.07,10.64.08,16,0,8.78,0,17.56,0,26.34a12.56,12.56,0,0,1-2.83,8.43,11.39,11.39,0,0,1-10.93,3.93,10.27,10.27,0,0,1-8.51-7.06,16.91,16.91,0,0,1-1-5.63,4.55,4.55,0,0,1,.86-2.8,2.11,2.11,0,0,1,3.38-.15,4.46,4.46,0,0,1,1,2.82c.11,2.18.59,4.22,2.41,5.73,3.06,2.53,9.24,1.45,10.13-3.86a13.89,13.89,0,0,0,.2-2.32c0-5.29,0-10.58,0-15.87"/><rect class="cls-1" x="252.85" y="202.47" width="5.19" height="3.46" rx="0.47"/></svg>