<svg id="レイヤー_1" data-name="レイヤー 1" xmlns="http://www.w3.org/2000/svg" viewBox="0 0 512 512"><defs><style>.cls-1,.cls-3{fill:#f4f4f3;}.cls-1{stroke:#00abd8;stroke-width:4.08px;}.cls-1,.cls-6,.cls-7{stroke-miterlimit:10;}.cls-2{fill:#afdeec;}.cls-4{fill:#00abd8;}.cls-5,.cls-6,.cls-7{fill:#fff;}.cls-6,.cls-7{stroke:#fff;}.cls-6{stroke-width:1.89px;}.cls-7{stroke-width:1.83px;}</style></defs><title>feature_1</title><g id="icon"><g id="地図ベース-4"><path id="地図ベース-5" class="cls-1" d="M107.3,377.66l90.73,16,121.91-16,85.06,16-14.18-181-82.22-13.3-104.9,16-85.06-16Z"/><g id="Clip"><path id="草-2" class="cls-2" d="M138.49,220.66l65.21,10.65,107.74-16L371,228.64l8.5,141L317.11,359,198,377.67l-65.21-16Z"/><path id="道-2" class="cls-3" d="M375.68,297.75l-63.74-10.4-57.2,19.28v63.05H243.39V310.45l-39,13.15.07.46-.38-.13L162.79,373l-10.12-3.3,41.83-49.07-66.62-23.16,4.21-9.88,32.16,12.07,2.61-76,11.31-.68-2.77,80.85,25.6,9.61,76.71-25.2L228,224.34l8.19-7.36,52.64,67.62,23.57-7.75v0l.05-.27,65.21,10.64Z"/></g></g></g><path class="cls-4" d="M233,241.08c0,25-20.82,45.8-45.8,45.8S142,266.05,142,241.08A45.15,45.15,0,0,1,187.2,195.9C212.18,195.9,233,216.1,233,241.08Z"/><path class="cls-4" d="M219.86,209.53c7.07,7.13,11.22,16.12,12.34,21.76a6.25,6.25,0,0,0,.12.74c.5,2.85,3,20.27-7.56,35a38.72,38.72,0,0,1-6.07,7c-1.06,1-3.54,3.47-8.5,8.67-.37.37-4.21,4.71-4.27,4.71h0a55.15,55.15,0,0,0-4.28,5.7,58.93,58.93,0,0,0-4.46,8.43c-3.59,8.49-4.59,19.59-4.77,21.51-.68,7.81-2.85,31.73-4.59,31.73s-4.4-25.91-5-31.24c-.37-3.59-1.3-13.32-5.14-22.37a45.89,45.89,0,0,0-3.72-7.31,54.47,54.47,0,0,0-7.12-9.36c-2.79-2.73-5.15-5.08-11.1-10.54Z"/><path class="cls-5" d="M200.87,248.15a71.05,71.05,0,0,1-11.8-.67,8.33,8.33,0,0,1-1.43-.38,8.41,8.41,0,0,1-1.44.38,71.05,71.05,0,0,1-11.8.67,1.53,1.53,0,0,1-1.3-.72,12.52,12.52,0,0,0-2.44-2.64,10.5,10.5,0,0,0-6.78-2.53h-.32c-5.89,0-8.11,3.09-8.13,3.12a1.53,1.53,0,0,1-2.17.4,1.58,1.58,0,0,1-.64-1.31v-4.06c0-8.64,3.83-16.79,10.78-23a37,37,0,0,1,24.24-9.27h0a37,37,0,0,1,24.23,9.27c6.95,6.18,10.78,14.33,10.78,23v4.08a1.57,1.57,0,0,1-.77,1.4,1.51,1.51,0,0,1-2-.5c-.16-.21-2.35-3.13-8.14-3.13h-.32a10.5,10.5,0,0,0-6.78,2.53,12.52,12.52,0,0,0-2.44,2.64A1.53,1.53,0,0,1,200.87,248.15Zm-37.28-9h.31a14.44,14.44,0,0,1,11.31,5.92,76.05,76.05,0,0,0,9.55-.47l-5.68-5.71a6.39,6.39,0,0,1-1.8-3.28A6.24,6.24,0,0,1,179,230a6.17,6.17,0,0,1,8.66-.08,6.16,6.16,0,0,1,8.65.08,6.24,6.24,0,0,1,1.7,5.6,6.32,6.32,0,0,1-1.8,3.28l-5.68,5.71a76.19,76.19,0,0,0,9.55.47,14.44,14.44,0,0,1,11.31-5.92h.31a15.26,15.26,0,0,1,7.87,2v-.8a27.78,27.78,0,0,0-9.74-20.77,33.06,33.06,0,0,0-44.35,0,27.78,27.78,0,0,0-9.74,20.77v.8A14.85,14.85,0,0,1,163.59,239.16Zm19.85-7.9a3.13,3.13,0,0,0-2.21,5.34l6.52,6.53,6.52-6.53a3.06,3.06,0,0,0,.92-2.21,3.1,3.1,0,0,0-.92-2.22,3.14,3.14,0,0,0-4.43,0l-1,1a1.55,1.55,0,0,1-2.18,0l-1-1A3.12,3.12,0,0,0,183.44,231.26Z"/><path class="cls-6" d="M200.87,248.15a71.05,71.05,0,0,1-11.8-.67,8.33,8.33,0,0,1-1.43-.38,8.41,8.41,0,0,1-1.44.38,71.05,71.05,0,0,1-11.8.67,1.53,1.53,0,0,1-1.3-.72,12.52,12.52,0,0,0-2.44-2.64,10.5,10.5,0,0,0-6.78-2.53h-.32c-5.89,0-8.11,3.09-8.13,3.12a1.53,1.53,0,0,1-2.17.4,1.58,1.58,0,0,1-.64-1.31v-4.06c0-8.64,3.83-16.79,10.78-23a37,37,0,0,1,24.24-9.27h0a37,37,0,0,1,24.23,9.27c6.95,6.18,10.78,14.33,10.78,23v4.08a1.57,1.57,0,0,1-.77,1.4,1.51,1.51,0,0,1-2-.5c-.16-.21-2.35-3.13-8.14-3.13h-.32a10.5,10.5,0,0,0-6.78,2.53,12.52,12.52,0,0,0-2.44,2.64A1.53,1.53,0,0,1,200.87,248.15Zm-37.28-9h.31a14.44,14.44,0,0,1,11.31,5.92,76.05,76.05,0,0,0,9.55-.47l-5.68-5.71a6.39,6.39,0,0,1-1.8-3.28A6.24,6.24,0,0,1,179,230a6.17,6.17,0,0,1,8.66-.08,6.16,6.16,0,0,1,8.65.08,6.24,6.24,0,0,1,1.7,5.6,6.32,6.32,0,0,1-1.8,3.28l-5.68,5.71a76.19,76.19,0,0,0,9.55.47,14.44,14.44,0,0,1,11.31-5.92h.31a15.26,15.26,0,0,1,7.87,2v-.8a27.78,27.78,0,0,0-9.74-20.77,33.06,33.06,0,0,0-44.35,0,27.78,27.78,0,0,0-9.74,20.77v.8A14.85,14.85,0,0,1,163.59,239.16Zm19.85-7.9a3.13,3.13,0,0,0-2.21,5.34l6.52,6.53,6.52-6.53a3.06,3.06,0,0,0,.92-2.21,3.1,3.1,0,0,0-.92-2.22,3.14,3.14,0,0,0-4.43,0l-1,1a1.55,1.55,0,0,1-2.18,0l-1-1A3.12,3.12,0,0,0,183.44,231.26Z"/><path class="cls-7" d="M196.24,276.62c-3.28,0-5.53-.67-7.08-2.11s-2.25-3.52-2.25-6.56V249.26a1.41,1.41,0,0,1,1.41-1.41h.1s1.41.73,1.2,1.51l.33,16.87V268c0,4.4,1.61,5.87,6.37,5.85a1.41,1.41,0,1,1-.07,2.82Z"/><path class="cls-4" d="M346.66,161.21c0,25-20.82,45.8-45.79,45.8s-45.18-20.83-45.18-45.8A45.14,45.14,0,0,1,300.87,116C325.84,116,346.66,136.23,346.66,161.21Z"/><path class="cls-4" d="M333.53,129.66c7.06,7.13,11.21,16.12,12.33,21.76a6.25,6.25,0,0,0,.12.74c.5,2.85,3,20.27-7.56,35a38.72,38.72,0,0,1-6.07,7c-1.05,1-3.53,3.47-8.49,8.67-.37.37-4.22,4.71-4.28,4.71h0a55.24,55.24,0,0,0-4.27,5.7,58.41,58.41,0,0,0-4.47,8.43c-3.59,8.49-4.58,19.59-4.77,21.51-.68,7.81-2.85,31.73-4.58,31.73s-4.4-25.91-5-31.24c-.37-3.59-1.3-13.32-5.15-22.37a46.23,46.23,0,0,0-3.71-7.31,55,55,0,0,0-7.13-9.36c-2.79-2.73-5.14-5.08-11.09-10.54Z"/><path class="cls-5" d="M314.53,168.28a71,71,0,0,1-11.79-.67,8.17,8.17,0,0,1-1.44-.38,8.17,8.17,0,0,1-1.44.38,71,71,0,0,1-11.79.67,1.53,1.53,0,0,1-1.31-.72,12.29,12.29,0,0,0-2.43-2.64,10.53,10.53,0,0,0-6.79-2.53h-.31c-5.9,0-8.12,3.09-8.14,3.12a1.53,1.53,0,0,1-2.17.4,1.58,1.58,0,0,1-.64-1.31v-4.06c0-8.64,3.83-16.79,10.78-23a37,37,0,0,1,24.24-9.27h0a37,37,0,0,1,24.24,9.27c6.95,6.18,10.77,14.33,10.77,23v4.08a1.57,1.57,0,0,1-.77,1.4,1.52,1.52,0,0,1-2-.5c-.15-.21-2.35-3.13-8.14-3.13h-.31a10.51,10.51,0,0,0-6.79,2.53,12.86,12.86,0,0,0-2.44,2.64A1.53,1.53,0,0,1,314.53,168.28Zm-37.28-9h.32a14.44,14.44,0,0,1,11.3,5.92,75.92,75.92,0,0,0,9.55-.47L292.75,159a6.4,6.4,0,0,1-1.81-3.28,6.24,6.24,0,0,1,1.7-5.6,6.17,6.17,0,0,1,8.66-.08,6.18,6.18,0,0,1,10.35,5.68,6.32,6.32,0,0,1-1.8,3.28l-5.68,5.71a76.26,76.26,0,0,0,9.56.47,14.42,14.42,0,0,1,11.3-5.92h.31a15.27,15.27,0,0,1,7.88,2v-.8a27.78,27.78,0,0,0-9.74-20.77,33.07,33.07,0,0,0-44.36,0,27.78,27.78,0,0,0-9.74,20.77v.8A14.88,14.88,0,0,1,277.25,159.29Zm19.86-7.9a3.13,3.13,0,0,0-2.22,5.34l6.52,6.53,6.53-6.53a3.09,3.09,0,0,0,.91-2.21,3.13,3.13,0,0,0-5.34-2.22l-1,1a1.53,1.53,0,0,1-2.17,0l-1-1A3.11,3.11,0,0,0,297.11,151.39Z"/><path class="cls-6" d="M314.53,168.28a71,71,0,0,1-11.79-.67,8.17,8.17,0,0,1-1.44-.38,8.17,8.17,0,0,1-1.44.38,71,71,0,0,1-11.79.67,1.53,1.53,0,0,1-1.31-.72,12.29,12.29,0,0,0-2.43-2.64,10.53,10.53,0,0,0-6.79-2.53h-.31c-5.9,0-8.12,3.09-8.14,3.12a1.53,1.53,0,0,1-2.17.4,1.58,1.58,0,0,1-.64-1.31v-4.06c0-8.64,3.83-16.79,10.78-23a37,37,0,0,1,24.24-9.27h0a37,37,0,0,1,24.24,9.27c6.95,6.18,10.77,14.33,10.77,23v4.08a1.57,1.57,0,0,1-.77,1.4,1.52,1.52,0,0,1-2-.5c-.15-.21-2.35-3.13-8.14-3.13h-.31a10.51,10.51,0,0,0-6.79,2.53,12.86,12.86,0,0,0-2.44,2.64A1.53,1.53,0,0,1,314.53,168.28Zm-37.28-9h.32a14.44,14.44,0,0,1,11.3,5.92,75.92,75.92,0,0,0,9.55-.47L292.75,159a6.4,6.4,0,0,1-1.81-3.28,6.24,6.24,0,0,1,1.7-5.6,6.17,6.17,0,0,1,8.66-.08,6.18,6.18,0,0,1,10.35,5.68,6.32,6.32,0,0,1-1.8,3.28l-5.68,5.71a76.26,76.26,0,0,0,9.56.47,14.42,14.42,0,0,1,11.3-5.92h.31a15.27,15.27,0,0,1,7.88,2v-.8a27.78,27.78,0,0,0-9.74-20.77,33.07,33.07,0,0,0-44.36,0,27.78,27.78,0,0,0-9.74,20.77v.8A14.88,14.88,0,0,1,277.25,159.29Zm19.86-7.9a3.13,3.13,0,0,0-2.22,5.34l6.52,6.53,6.53-6.53a3.09,3.09,0,0,0,.91-2.21,3.13,3.13,0,0,0-5.34-2.22l-1,1a1.53,1.53,0,0,1-2.17,0l-1-1A3.11,3.11,0,0,0,297.11,151.39Z"/><path class="cls-7" d="M309.91,196.75c-3.29,0-5.54-.67-7.08-2.11s-2.26-3.52-2.26-6.56V169.39A1.41,1.41,0,0,1,302,168h.1s1.41.73,1.2,1.51l.34,16.87v1.72c0,4.4,1.6,5.87,6.36,5.85a1.41,1.41,0,1,1-.06,2.82Z"/></svg>