<svg xmlns="http://www.w3.org/2000/svg" viewBox="0 0 192.35 40.07"><defs><style>.cls-1{fill:#fff;}</style></defs><title>aikasa</title><g id="レイヤー_2" data-name="レイヤー 2"><g id="レイヤー_1-2" data-name="レイヤー 1"><g id="logo_text" data-name="logo text"><path id="パス_8" data-name="パス 8" class="cls-1" d="M17.8,21.42c1.05,0,6.39.36,6.39-1V13.11H0V8.74H29V22.51c0,1.19-.09,3.56-1,3.81s-8.85.06-10,.06ZM14.61,32a5.38,5.38,0,0,1-1.44,4,5.34,5.34,0,0,1-4,1.47h-9V33H7.26a2.55,2.55,0,0,0,1.85-.71,2.67,2.67,0,0,0,.7-1.88V14.89h4.8Z"/><path id="パス_9" data-name="パス 9" class="cls-1" d="M42.58,22.91a4.24,4.24,0,0,0,2-.4A10.92,10.92,0,0,0,46.47,21L58.06,10.42a6.55,6.55,0,0,1,2.29-1.35A23.67,23.67,0,0,1,65,8.67l1,4.6a27.12,27.12,0,0,0-3.82.24,3.15,3.15,0,0,0-1.44.71l-3,2.72V37.47H53V21.27l-4.63,4.2a8.74,8.74,0,0,1-2.12,1.61,16.35,16.35,0,0,1-4.62.47Z"/><path id="パス_10" data-name="パス 10" class="cls-1" d="M106.37,32a5.46,5.46,0,0,1-1.45,4,5.37,5.37,0,0,1-4,1.48H93.77V33H99a2.7,2.7,0,0,0,1.85-.93,2.1,2.1,0,0,0,.7-1.66v-13H90.24L87.15,32.7c-.63,3.18-2.45,4.77-5.48,4.77H78.21v-4.7h1.85c1.41,0,2.29-.87,2.62-2.59l2.59-12.77h-7V13.05h7.92L87.29,8.2h4.94l-1.15,4.85h15.29Z"/><path id="パス_11" data-name="パス 11" class="cls-1" d="M145.68,19.32h-5.61l0,12.7a5.38,5.38,0,0,1-1.44,4,5.32,5.32,0,0,1-4,1.48h-14V33.1h12a2.53,2.53,0,0,0,2.62-2.43V19.32H125.18v7.53h-4.8V19.32h-5.24V14.89h5.24V8.19h4.8v6.7h10.15V8.19h4.74v6.7h5.61Z"/></g><path class="cls-1" d="M186.16,5.33a20.82,20.82,0,0,0-27.82,0,17.61,17.61,0,0,0-6.18,13.2v2.38a.9.9,0,0,0,.39.73.87.87,0,0,0,1.22-.25s1.29-1.8,4.67-1.8h.18a6,6,0,0,1,3.89,1.46,6.93,6.93,0,0,1,1.4,1.51.89.89,0,0,0,.75.42,40.35,40.35,0,0,0,6.77-.39,1.67,1.67,0,0,1,1.65,0,40.29,40.29,0,0,0,6.77.39.92.92,0,0,0,.75-.41,6.76,6.76,0,0,1,1.4-1.52,6,6,0,0,1,3.89-1.46h.18c3.32,0,4.58,1.68,4.67,1.8a.87.87,0,0,0,1,.37.9.9,0,0,0,.63-.86V18.53A17.6,17.6,0,0,0,186.16,5.33ZM172.25,20.12l-3.73-3.73a1.84,1.84,0,0,1-.52-1.27,1.79,1.79,0,0,1,1.79-1.79h0a1.8,1.8,0,0,1,1.26.52l.58.58a.88.88,0,0,0,1.24,0l.58-.58A1.79,1.79,0,0,1,176,16.39ZM190.59,19a8.85,8.85,0,0,0-4.52-1.15h-.18a8.32,8.32,0,0,0-6.5,3.39A42,42,0,0,1,173.9,21l3.33-3.32a3.55,3.55,0,0,0-5-5.07,3.55,3.55,0,0,0-5,5.07L170.61,21a42,42,0,0,1-5.49.27,8.32,8.32,0,0,0-6.5-3.39h-.18A8.56,8.56,0,0,0,153.91,19v-.46a15.86,15.86,0,0,1,5.6-11.89,19.06,19.06,0,0,1,25.48,0,15.86,15.86,0,0,1,5.6,11.89Z"/><path class="cls-1" d="M176.55,38.34c-2.59,0-3.46-.87-3.46-3.45v-11a.84.84,0,0,0-.84-.83h0a.83.83,0,0,0-.83.83v11a4.41,4.41,0,0,0,0,1.45A4.46,4.46,0,0,0,176.54,40h.06a.85.85,0,0,0,.81-.87A.84.84,0,0,0,176.55,38.34Z"/></g></g></svg>