<svg xmlns="http://www.w3.org/2000/svg" xmlns:xlink="http://www.w3.org/1999/xlink" viewBox="0 0 151.71 40.06"><defs><style>.cls-1{fill:none;}.cls-2{fill:#fff;}.cls-3{clip-path:url(#clip-path);}.cls-4{clip-path:url(#clip-path-2);}</style><clipPath id="clip-path" transform="translate(0 0)"><path class="cls-1" d="M132.26,14.41l.58-.58a1.79,1.79,0,1,1,2.53,2.54h0l-3.73,3.72-3.73-3.72a1.79,1.79,0,0,1,2.53-2.54l.58.58a.88.88,0,0,0,1.24,0m-18.94,4.1a15.84,15.84,0,0,1,5.59-11.87,19,19,0,0,1,25.45,0A15.8,15.8,0,0,1,150,18.51V19a8.69,8.69,0,0,0-4.51-1.15h-.18a8.3,8.3,0,0,0-6.49,3.38,41.82,41.82,0,0,1-5.48-.27l3.32-3.32a6.09,6.09,0,1,0-9.94,0L130,20.93a42,42,0,0,1-5.49.27A8.3,8.3,0,0,0,118,17.82h-.17A8.42,8.42,0,0,0,113.32,19ZM131.64,0a21.2,21.2,0,0,0-13.9,5.33,17.57,17.57,0,0,0-6.18,13.18v2.37a.87.87,0,0,0,.88.88.89.89,0,0,0,.73-.39s1.28-1.8,4.66-1.8H118A6,6,0,0,1,121.9,21a7.21,7.21,0,0,1,1.4,1.52.88.88,0,0,0,.75.41,41.31,41.31,0,0,0,6.76-.38,1.67,1.67,0,0,1,1.65,0,41.31,41.31,0,0,0,6.76.38.88.88,0,0,0,.75-.41,7.21,7.21,0,0,1,1.4-1.52,6,6,0,0,1,3.89-1.45h.18c3.31,0,4.57,1.67,4.66,1.8a.88.88,0,0,0,1.61-.49V18.51a17.61,17.61,0,0,0-6.18-13.19A21.24,21.24,0,0,0,131.63,0h0"/></clipPath><clipPath id="clip-path-2" transform="translate(0 0)"><path class="cls-1" d="M131.63,23a.83.83,0,0,0-.83.83h0v11A4.44,4.44,0,0,0,135.92,40a.83.83,0,1,0,0-1.66c-2.58,0-3.45-.87-3.45-3.46v-11a.82.82,0,0,0-.82-.83Z"/></clipPath></defs><title>icon</title><g id="レイヤー_2" data-name="レイヤー 2"><g id="レイヤー_1-2" data-name="レイヤー 1"><path id="パス_99" data-name="パス 99" class="cls-2" d="M12.44,20.7c.74,0,4.47.25,4.47-.69V14.89H0V11.84H20.27v9.63c0,.83-.07,2.48-.73,2.66s-6.19,0-7,0Zm-2.22,7.37a3.82,3.82,0,0,1-1,2.79,3.74,3.74,0,0,1-2.8,1H.11V28.77h5a1.75,1.75,0,0,0,1.29-.49A1.84,1.84,0,0,0,6.85,27V16.13h3.36Z" transform="translate(0 0)"/><path id="パス_100" data-name="パス 100" class="cls-2" d="M29.76,21.75a3.1,3.1,0,0,0,1.41-.28,8,8,0,0,0,1.32-1.06l8.1-7.4a4.45,4.45,0,0,1,1.6-.94,15.54,15.54,0,0,1,3.27-.28L46.19,15a18.41,18.41,0,0,0-2.67.17,2.17,2.17,0,0,0-1,.49l-2.11,1.9V31.91H37V20.59L33.8,23.53a5.78,5.78,0,0,1-1.48,1.12,11,11,0,0,1-3.23.33Z" transform="translate(0 0)"/><path id="パス_101" data-name="パス 101" class="cls-2" d="M74.36,28.1a3.81,3.81,0,0,1-1,2.77,3.77,3.77,0,0,1-2.77,1h-5v-3.1h3.69a1.9,1.9,0,0,0,1.29-.65A1.47,1.47,0,0,0,71,27V17.89H63.08L60.92,28.58c-.44,2.22-1.71,3.34-3.82,3.34H54.68V28.63H56c1,0,1.6-.6,1.83-1.81l1.81-8.93H54.68V14.84h5.54l.8-3.39h3.45l-.8,3.39H74.36Z" transform="translate(0 0)"/><path id="パス_102" data-name="パス 102" class="cls-2" d="M101.84,19.23H97.92l0,8.88a3.53,3.53,0,0,1-3.78,3.81H84.39V28.86h8.38a1.75,1.75,0,0,0,1.83-1.69.49.49,0,0,0,0-.12V19.23h-7.1v5.26H84.15V19.23H80.49v-3.1h3.66V11.45h3.36v4.68h7.1V11.45h3.31v4.68h3.92Z" transform="translate(0 0)"/><path id="パス_103" data-name="パス 103" class="cls-2" d="M132.26,14.41l.58-.58a1.79,1.79,0,1,1,2.53,2.54h0l-3.73,3.72-3.73-3.72a1.79,1.79,0,0,1,2.53-2.54l.58.58a.88.88,0,0,0,1.24,0m-18.94,4.1a15.84,15.84,0,0,1,5.59-11.87,19,19,0,0,1,25.45,0A15.8,15.8,0,0,1,150,18.51V19a8.69,8.69,0,0,0-4.51-1.15h-.18a8.3,8.3,0,0,0-6.49,3.38,41.82,41.82,0,0,1-5.48-.27l3.32-3.32a6.09,6.09,0,1,0-9.94,0L130,20.93a42,42,0,0,1-5.49.27A8.3,8.3,0,0,0,118,17.82h-.17A8.42,8.42,0,0,0,113.32,19ZM131.64,0a21.2,21.2,0,0,0-13.9,5.33,17.57,17.57,0,0,0-6.18,13.18v2.37a.87.87,0,0,0,.88.88.89.89,0,0,0,.73-.39s1.28-1.8,4.66-1.8H118A6,6,0,0,1,121.9,21a7.21,7.21,0,0,1,1.4,1.52.88.88,0,0,0,.75.41,41.31,41.31,0,0,0,6.76-.38,1.67,1.67,0,0,1,1.65,0,41.31,41.31,0,0,0,6.76.38.88.88,0,0,0,.75-.41,7.21,7.21,0,0,1,1.4-1.52,6,6,0,0,1,3.89-1.45h.18c3.31,0,4.57,1.67,4.66,1.8a.88.88,0,0,0,1.61-.49V18.51a17.61,17.61,0,0,0-6.18-13.19A21.24,21.24,0,0,0,131.63,0h0" transform="translate(0 0)"/><g class="cls-3"><g id="グループ_34" data-name="グループ 34"><rect id="長方形_18" data-name="長方形 18" class="cls-2" x="111.56" width="40.15" height="22.95"/></g></g><path id="パス_105" data-name="パス 105" class="cls-2" d="M131.63,23a.83.83,0,0,0-.83.83h0v11A4.44,4.44,0,0,0,135.92,40a.83.83,0,1,0,0-1.66c-2.58,0-3.45-.87-3.45-3.46v-11a.82.82,0,0,0-.82-.83Z" transform="translate(0 0)"/><g class="cls-4"><g id="グループ_36" data-name="グループ 36"><rect id="長方形_19" data-name="長方形 19" class="cls-2" x="130.8" y="23.03" width="5.95" height="16.97"/></g></g><path id="パス_107" data-name="パス 107" class="cls-2" d="M132.26,14.41l.58-.58a1.79,1.79,0,1,1,2.53,2.54h0l-3.73,3.72-3.73-3.72a1.79,1.79,0,0,1,2.53-2.54l.58.58a.88.88,0,0,0,1.24,0m-18.94,4.1a15.84,15.84,0,0,1,5.59-11.87,19,19,0,0,1,25.45,0A15.8,15.8,0,0,1,150,18.51V19a8.69,8.69,0,0,0-4.51-1.15h-.18a8.3,8.3,0,0,0-6.49,3.38,41.82,41.82,0,0,1-5.48-.27l3.32-3.32a6.09,6.09,0,1,0-9.94,0L130,20.93a42,42,0,0,1-5.49.27A8.3,8.3,0,0,0,118,17.82h-.17A8.42,8.42,0,0,0,113.32,19ZM131.64,0a21.2,21.2,0,0,0-13.9,5.33,17.57,17.57,0,0,0-6.18,13.18v2.37a.87.87,0,0,0,.88.88.89.89,0,0,0,.73-.39s1.28-1.8,4.66-1.8H118A6,6,0,0,1,121.9,21a7.21,7.21,0,0,1,1.4,1.52.88.88,0,0,0,.75.41,41.31,41.31,0,0,0,6.76-.38,1.67,1.67,0,0,1,1.65,0,41.31,41.31,0,0,0,6.76.38.88.88,0,0,0,.75-.41,7.21,7.21,0,0,1,1.4-1.52,6,6,0,0,1,3.89-1.45h.18c3.31,0,4.57,1.67,4.66,1.8a.88.88,0,0,0,1.61-.49V18.51a17.61,17.61,0,0,0-6.18-13.19A21.24,21.24,0,0,0,131.63,0h0" transform="translate(0 0)"/><g class="cls-3"><g id="グループ_38" data-name="グループ 38"><rect id="長方形_20" data-name="長方形 20" class="cls-2" x="111.56" width="40.15" height="22.95"/></g></g><path id="パス_109" data-name="パス 109" class="cls-2" d="M135.92,40a4.45,4.45,0,0,1-5.11-5.12v-11a.83.83,0,0,1,.83-.83h0a.83.83,0,0,1,.83.83h0v11c0,2.59.87,3.46,3.45,3.46a.83.83,0,1,1,0,1.66" transform="translate(0 0)"/></g></g></svg>