<svg xmlns="http://www.w3.org/2000/svg" width="180" height="45" viewBox="0 .025 180 45"><path fill="#36C" d="M28.576 10.84c-2 0-3.898.3-5.697 1-3 1.1-5.598 2.898-7.598 5.297-2.4 3-3.898 6.698-3.898 10.797 0 4.098 1.5 7.896 3.898 10.795.6.1 1.3.2 1.9.2 2.1 0 3.998-.602 5.697-1.602-3.2-1.898-5.298-5.396-5.298-9.395s2.1-7.498 5.297-9.397c1.698-1 3.597-1.6 5.696-1.6.7 0 1.3.1 1.9.2 5.197.9 9.096 5.4 9.096 10.798 0 5.396-3.898 9.895-9.097 10.795-2 2.396-4.598 4.296-7.596 5.296 1.798.6 3.697 1 5.696 1 9.396 0 17.093-7.697 17.093-17.092 0-9.497-7.698-17.095-17.094-17.095z"/><path fill="#6CF" d="M30.475 17.037c-.6-.1-1.3-.2-1.9-.2-2.098 0-3.997.6-5.696 1.6 3.197 1.9 5.297 5.398 5.297 9.396s-2.1 7.496-5.298 9.396c-1.7 1-3.6 1.6-5.7 1.6-.698 0-1.298-.1-1.898-.2-5.198-.9-9.096-5.398-9.096-10.796s3.898-9.896 9.096-10.796c2-2.398 4.598-4.298 7.597-5.297-1.8-.6-3.7-1-5.7-1C7.786 10.84.09 18.44.09 27.936c0 9.395 7.696 17.092 17.09 17.092 2 0 3.9-.3 5.7-1 2.998-1.1 5.596-2.9 7.595-5.297 2.4-3 3.898-6.697 3.898-10.795-.1-4.1-1.5-7.9-3.898-10.898z"/><path fill="#3C6" d="M37.673 1.144c-.6-1.6-5.098-1.5-9.996.4-1.9.7-3.5 1.5-4.798 2.398-1.3-.9-3-1.7-4.8-2.398-4.897-1.8-9.395-2-9.995-.4-.6 1.6 2.898 4.398 7.796 6.297 2.7 1 5.5 1.5 6.998 1.5s4.498-.6 6.997-1.5c4.9-1.798 8.397-4.697 7.798-6.296z"/><g><g fill="#36C"><path d="M89.45 14.638h14.594v3.298H89.45z"/><path d="M109.84 23.634h5.1v-3.298h-5.198V14.64h-3.4v5.696H87.65v3.298h8.196V36.23c-1 .1-2 .2-2.897.2v-9.797h-3.4v9.996c-.7 0-1.3.1-1.9.1v3.598c5.1-.1 14.395-.9 18.293-2.2V34.83c-1.5.4-3.998.7-6.6 1v-5.3h5.1v-3.497h-5.1v-3.5h6.998c.402 11.996 3 15.994 8.897 17.493v-3.598c-3.397-1.2-5.097-3.997-5.396-13.794zM56.165 17.937h7.796v2.9h-2.997c-3.798 0-4.798 1.498-4.798 4.397v15.194h26.49V25.233c0-2.9-1.2-4.398-4.8-4.398h-3.5v-2.9h8.298V14.64H56.165v3.3zm5.297 6.198h2.5v2.3c0 2.897-2.4 4.196-4.198 4.797v-5.497c0-1.1.4-1.6 1.698-1.6zm-1.7 12.993V34.53c4.4-1.1 7.697-4.2 7.697-8.197v-2.198h3.498v5.697c0 2.298.9 3.398 3 3.398h5.097v3.897H59.763zm17.593-12.993c1.2 0 1.7.5 1.7 1.6v4.198h-3.5c-.898 0-1.1-.1-1.1-1v-4.698h2.9v-.1zm-6.397-3.3h-3.5v-2.9h3.5v2.9z"/><path d="M112.14 14.638h2.8v4.298h-2.8zM123.035 30.83h-2.5l.6 4.4h2.5M141.927 29.232h5.398v-3.198h-5.7v-4.1h5.2v-3.2h-5.2v-4.497h-3.196v4.498h-1.7c.1-.8.2-1.6.2-2.5v-1.298h-3.2v1.3c0 3.597-.298 4.397-1.398 5.097v3.5c1.7-.3 2.9-1.3 3.6-2.9h2.6v4h-5.7v3.196h5.298c-.8 3.998-2.798 7.098-5.298 7.996v3.6c3.4-.9 5.898-3.998 7.397-7.696 1.397 3.698 3.897 6.897 7.395 7.696v-3.6c-2.7-.897-5-4.095-5.698-7.894zM128.533 35.23h2.598l.6-4.4h-2.498"/><path d="M129.933 16.038c-1-1.8-1.7-1.9-3.498-1.9-1.8 0-2.5.1-3.5 1.9-.6 1.2-1.6 2-2.8 2.5v3.698c.602-.2 1.2-.4 1.8-.7v2.2h2.7v2.3h-4.1v3.198h4.1v7.697c-1.4.1-2.8.1-4.1.1v3.5c4 0 8.198-.4 11.397-.9v-3.2c-1.3.2-2.7.3-4.198.4V29.33h3.998v-3.298h-3.998v-2.2h2.7v-2.8c.498.3.998.5 1.598.6v-3.498c-1-.3-1.6-1-2.1-2.098zm-6.497 4.597c.898-.7 1.6-1.5 2-2.3.3-.6.498-.898 1-.898.598 0 .697.3.998.9.398.7 1.2 1.6 2.198 2.298h-6.196zM175.913 16.538l1.398-2.3h-3.897l-1.3 2.3h-4.498l-1.3-2.3h-3.897l1.4 2.3h-3.5v2.898h7.497l-.898 1.6h-.9c-3.798 0-4.598 1.398-4.598 4.297V35.53h17.09V25.232c0-2.9-.998-4.298-4.596-4.298h-3.5l.9-1.6h8.396v-2.898h-3.798v.1zm-11.097 10.794h10.495v1.8h-10.494v-1.8zm0 5.6v-1.9h10.495v1.9h-10.494zm10.496-8.098v.4h-10.495v-.4c0-1.1.5-1.4 1.7-1.4h6.996c1.3.1 1.8.4 1.8 1.4zM158.82 16.538l-6.198-1.9v3.398l6.197 1.9"/><path d="M158.92 32.43v-8.897h-6.197v3.3h2.897v6.497c-.2 1.5-.898 3.3-2.897 3.798v3.6c2.2-.5 3.798-1.7 4.797-3.5 1.1 1.8 3.4 3.2 8.197 3.2h14.194v-3.3h-13.894c-5.597.1-7.096-1.6-7.096-4.697z"/></g></g></svg>