<?xml version="1.0" encoding="utf-8"?>
<!-- Generator: Adobe Illustrator 15.0.2, SVG Export Plug-In . SVG Version: 6.00 Build 0)  -->
<!DOCTYPE svg PUBLIC "-//W3C//DTD SVG 1.0//EN" "http://www.w3.org/TR/2001/REC-SVG-20010904/DTD/svg10.dtd">
<svg version="1.0" id="レイヤー_1" xmlns="http://www.w3.org/2000/svg" xmlns:xlink="http://www.w3.org/1999/xlink" x="0px"
	 y="0px" width="1322.934px" height="584.971px" viewBox="0 0 1322.934 584.971" enable-background="new 0 0 1322.934 584.971"
	 xml:space="preserve">
<g>
	<path fill="#004EA2" d="M194.217,399.391c-65.666-10.833-80.416-121.417-80.416-121.417L71.717,391.391h-54.5l77.6-211.09
		c0,0,57.382,9.438,82.391,115.438l38.51-103.348h54.5L194.217,399.391z"/>
	<g>
		<g>
			<polygon fill="#004EA2" points="333.958,233.891 348.717,192.891 296.717,192.891 281.958,233.891 			"/>
			<polygon fill="#004EA2" points="276.557,248.891 224.717,392.891 276.717,392.891 328.557,248.891 			"/>
		</g>
	</g>
	<path fill="#004EA2" d="M315.883,346.558c43.313,20.688,53.168,3.166,53.168,3.166c6.5-11.524-6.5-15.5-6.5-15.5
		c-37.668-14.333-28.834-46-28.834-46c21.166-73.167,112.5-35.465,112.5-35.465l-13,38.632c-43.313-20.688-52.25-5-52.25-5
		c-4.75,11,10.75,17.25,10.75,17.25c40.75,16,27,49,27,49c-25.5,69.5-118.5,34-118.5,34L315.883,346.558z"/>
	<path fill="#004EA2" d="M549.342,253.016c-15.538-0.509-32.221,10.8-41.33,18.11l28.705-79.735h-44l-72,200h44l13.5-37.754v0.002
		c0,0,20-58.998,43.08-57.748c11.236,0.608,12.819,8.512,10.939,17.656l-7.729,20.975c0,0.002,0.005-0.131,0.004-0.131h0.004
		l-20.799,57h44l33-90h-0.253C588.743,266.264,571.797,253.752,549.342,253.016z"/>
	<path fill="#004EA2" d="M742.007,286.391h35.95l13.76-36h-36.613l15.946-43.833l-48.999,12.447l-11.334,31.386h-27l-13.76,36h27.76
		l-21.827,60.443l0.001-0.001c0,0-13.978,42.912,26.949,47.219c0,0,19.627,1.839,44.627-4.161l14.25-41.5
		c-35.714,14.906-41.708,4.875-40.13-5.871C722.425,336.183,742.007,286.391,742.007,286.391z"/>
	<path fill="#004EA2" d="M897.717,335.391c0,0,42-80-33.25-88.5s-130.916,124.621-51.75,145.5c33.5,8.835,57.5-3,57.5-3
		l18.375-40.375c-88.542,28.542-73.875-13.625-73.875-13.625H897.717z M852.217,283.557c21,0,16.5,20.833,16.5,20.833h-45
		C823.717,304.391,831.217,283.557,852.217,283.557z"/>
	<g>
		<g>
			<polygon fill="#004EA2" points="679.958,233.891 694.717,192.891 642.717,192.891 627.958,233.891 			"/>
			<polygon fill="#004EA2" points="622.557,248.891 570.717,392.891 622.717,392.891 674.557,248.891 			"/>
		</g>
	</g>
	<path fill="#004EA2" d="M987.007,286.391h35.95l13.76-36h-36.613l15.946-43.833l-48.999,12.447l-11.334,31.386h-27l-13.76,36h27.76
		l-21.827,60.443l0.001-0.001c0,0-13.978,42.912,26.949,47.219c0,0,19.627,1.839,44.627-4.161l14.25-41.5
		c-35.714,14.906-41.708,4.875-40.13-5.871C967.425,336.183,987.007,286.391,987.007,286.391z"/>
	<path fill="#004EA2" d="M1021.883,346.558c43.313,20.688,53.168,3.166,53.168,3.166c6.5-11.524-6.5-15.5-6.5-15.5
		c-37.668-14.333-28.834-46-28.834-46c21.166-73.167,112.5-35.465,112.5-35.465l-13,38.632c-43.313-20.688-52.25-5-52.25-5
		c-4.75,11,10.75,17.25,10.75,17.25c40.75,16,27,49,27,49c-25.5,69.5-118.5,34-118.5,34L1021.883,346.558z"/>
	<path fill="#004EA2" d="M1288.717,249.391h-26h-5l-29.75,79.25c0,0-9.75,21.75-26.5,21.75s-12-12-12-12l32.75-89h-47.5
		c0,0-33.682,89.688-34.5,95.5s-10.75,49.427,34.75,49.427c31.964,0,42.842-21.447,42.866-21.496l-7.116,19.569h43l52-143H1288.717z
		"/>
	<path fill="#F5A100" d="M215.717,191.391c-39.439-115.445-134.75-116-134.75-116l20.75-59.5c0,0,84.666-1.333,140,102.667
		L215.717,191.391z"/>
	<path fill="#E83820" d="M71.967,392.89c43.75,111.501,138.25,108.001,138.25,108.001l-23.5,62.5c0,0-82,3.5-140.75-97.667
		L71.967,392.89z"/>
</g>
</svg>
