<?xml version="1.0" encoding="utf-8"?>
<!-- Generator: Adobe Illustrator 24.2.0, SVG Export Plug-In . SVG Version: 6.00 Build 0)  -->
<svg version="1.1" id="レイヤー_1" xmlns="http://www.w3.org/2000/svg" xmlns:xlink="http://www.w3.org/1999/xlink" x="0px"
	 y="0px" viewBox="0 0 944 1072.8" style="enable-background:new 0 0 944 1072.8;" xml:space="preserve">
<style type="text/css">
	
		.st0{fill-rule:evenodd;clip-rule:evenodd;fill:#FFFFFF;stroke:#FFFFFF;stroke-width:0.97;stroke-linecap:round;stroke-linejoin:round;}
	.st1{fill:#03ABD8;}
	.st2{fill:#FFFFFF;}
	
		.st3{fill-rule:evenodd;clip-rule:evenodd;fill:#03ABD8;stroke:#FFFFFF;stroke-width:0.97;stroke-linecap:round;stroke-linejoin:round;}
	.st4{fill:none;stroke:#32487B;stroke-width:2;stroke-linecap:round;stroke-linejoin:round;}
	.st5{fill:#03ABD8;stroke:#32487B;stroke-width:2;stroke-linecap:round;stroke-linejoin:round;}
	.st6{fill:none;stroke:#040000;stroke-width:0.93;stroke-linecap:round;stroke-linejoin:round;}
</style>
<g id="レイヤー_2_1_">
	<g id="レイヤー_1-2">
		<path class="st0" d="M609.1,301.3c0,0,4.8-8,5.6-11.2s2.7-7.2,0-9.3s-3.5-1.5-7.5-5.6s-4.2-3-5.6-5.6c-1-2.2-3.2-3.7-5.6-3.7
			c-2.2-0.1-1.9-7.5-1.9-7.5c1.9-1.4,3.2-3.3,3.7-5.6c0.6-3.4,0-22.4,0-22.4c1.8-0.9,3.7-1.5,5.6-1.9c2.5-0.2,5-0.2,7.5,0l3.7-5.6
			c0,0,3.9-5.7,5.6-3.7c0.9,1.1,2.3,1.8,3.7,1.9l5.6-11.2c0,0,5.3-2.3,5.6-3.7c0.1-1.9,0.1-3.7,0-5.6c0,0-5.6-5-5.6-7.5
			s-3.7-11.2-3.7-11.2s2.6-4.5,3.7-3.7s7.5,0,7.5,0l7.5,7.5c1.3,2.3,3.3,4.3,5.6,5.6c3.5,1.8,13.1-1.9,13.1-1.9s5.7-0.5,7.5,1.9
			s8.6,2.3,9.3,0s8-12,9.3-13.1s1.9-11.2,1.9-11.2s-4-7.1-3.7-9.3s-3.7-11.2-3.7-11.2s4.3-6.3,5.6-7.5s11.2-5.6,11.2-5.6
			s4.4-9.8,3.7-11.2s-3.7-21.1-1.9-22.4s4.7-6,5.6-7.5s1.9-14.9,1.9-14.9V60.7c0,0-6.5-16.3-9.3-22.4s-3.5-8.1-3.7-11.2
			s5.6-11.2,5.6-11.2l1.9-9.3l3.8,1.9h7.5l3.7-7.5c0,0,3.9,7.4,5.6,9.3s8.4,6.7,11.2,9.3s13.1,20.9,16.8,26.1s7.3,12.2,9.3,14.9
			s17.4,21,20.5,22.4s14.9,13.1,14.9,13.1s14,4.9,14.9,7.5s7.6,3.9,7.5,5.6s1.9,5.6,1.9,5.6l9.3,1.9c0,0,2.3,1.7,3.7,0
			s5.6-3.7,5.6-3.7l5.6,3.7l-1.9,5.6c0,0,5.1,5.9,5.6,3.7s3.7-9.3,3.7-9.3s5,8,5.6,9.3s10.8,6.3,13.1,5.6s11.2-1.9,11.2-1.9l13.1-13
			c0,0,9.6-4.3,9.3-5.6s11.2-11.2,11.2-11.2s2.9,1.7,1.9,3.7s-7.5,14.9-7.5,14.9l-3.7,11.2l-7.5,11.2l1.9,5.6l5.6,7.5l3.7,3.7
			l5.6,3.7l-7.5,1.9l1.9,7.5l1.9,5.6l3.7,5.6l3.7,1.9l11.2-9.3h9.3l1.9,3.7L932,182l-3.7,9.3c0,0-8.2,1.4-13,1.9
			c-3.2,0.3-6.3,1-9.3,1.9l-3.7,5.6c0,0-9.4,4.7-11.2,5.6s-5.6-3.7-5.6-3.7s-5.4-0.7-3.7,3.7s2.4,3,0,3.7s-14.3,2.8-18.7,0
			s-5.6-5.6-5.6-5.6s-11,2.3-13.1,3.7s-13.3,10.6-16.8,13.1S802.1,249,801.3,251s-1.9,14.9-1.9,14.9v13l-5.6,3.7v5.6
			c0,0-16.9-15.4-16.8-16.6s-18.4-4.7-24.7-10s-13.3-8.5-16.3-10.7s-13.1-5.6-13.1-5.6l-7.5-7.5c0,0-13.3-3.7-14.9-3.7
			s-9.8,4.2-13.1,5.6s-11.7,4.7-13,7.5s-7.5,7.5-7.5,7.5l-1.9,3.7c-1.5-2.7-3.4-5.2-5.6-7.5c-3.4-3.3-4.2-5.7-5.6-7.5
			s-3.7-5.6-3.7-5.6s-8.1-1.5-9.3,0s-5.6-1.9-5.6-1.9l-9.4,11.2c0,0-3.3,7.9-1.9,11.2c1.5,3.3,3.8,4.6,5.6,7.5s6.1,4.8,7.5,5.6
			s6,2.4,7.5,1.9s9.3,3.7,9.3,3.7c2,2.4,3.9,4.9,5.6,7.5c1.5,2.2,3.4,4.1,5.6,5.6l7.5,3.7c0,0,3.6,8.6,0,9.3s-8.8,5.5-11.2,3.7
			s-11.2-7.5-11.2-7.5l-3.7-3.7l-5.6,5.6c0,0-8.1,7.6-9.3,7.5s2.7,7.6,1.9,9.3s-13,7.5-13,7.5l-3.7,3.7l-7.5-3.7
			c0,0-3.9-5.6-3.7-7.5s-1.4-8.6,0-9.3S609.1,301.3,609.1,301.3z"/>
		<path class="st0" d="M601.7,387.1c0,0,6.3-11.2,7.5-9.3s11.2-1.9,11.2-1.9l1.9-7.5c0,0,3.5-4.2,3.7-5.6s1.9-7.5,1.9-7.5l-3.8-7.5
			c1.3-1.8,2.6-3.7,3.7-5.6c0.7-1.4,5.6,3.7,5.6,3.7l7.5-3.7l1.9,7.5c0,0,1.5,7,1.9,9.3s0,13,0,13h9.3l3.8-11.2l7.5,1.9l7.5,5.6
			c0,0,4,0.7,3.7-3.7c0-3.2,0.6-6.4,1.9-9.3l3.7-9.3l-3.7-5.6c0,0-9.7,2.9-11.2,3.7s-10.3,0.6-11.2,1.9s-3.7-5.6-3.7-5.6l1.9-7.5
			l5.6-11.2h5.6l5.6,1.9l5.6,9.3h3.7l9.3-5.6l-1.9,18.6c0,0-2.2,18.8-1.9,22.4s2.4,12.8,3.7,14.9s3.2,3.8,3.7,5.6s7.5,9.3,7.5,9.3
			l3.7,3.7l-3.7,3.7l-9.3,1.9l-7,1.4l-11.1,6.9c0,0-5,0.1-6.2,1.1s-9,2.7-9,2.7l2-8.5l3.3-7.3c0,0-5.8,1.6-5.6,0
			c0.2-1.9-1.9-5.6-1.9-5.6l-8.1,7.6c-1.5-1-3.2-1.7-5-2c-2.5-0.3-5.6,1.9-5.6,1.9l-5.6-5.6l-9.3,3.7c-1.7-0.6-3.5-1-5.3-1.3
			c-1.6-0.1-7.7-2.4-7.7-2.4l-1.7,6.1l-3.9-6.1l-1.9-7.5l-3.7-1.9L601.7,387.1z"/>
		<path class="st0" d="M698.6,512l-5.6-1.9l-1.9,9.3c0,0-4.1,6.1-4.5,6.1c-1,0.2-5.2-0.7-6.2-1s-6.2,2.3-6.2,2.3
			c0.2-0.1-1-1.7-1.3-2.4c-1.5-3.7-3.4-7.1-3.4-7.1c-0.9,0-1.8,0-2.7,0.2c-1.7,0.2-6.5,0.6-7.5,0c-1.3-1.2-2.6-2.4-3.7-3.7l-1.9-1.9
			l-1.3-1.3l-0.5-6.1l-1.9-3.7c0,0,1.6-5.6,1-6.9l-1-4.3l-3.7-5.6c-0.6-1.7-0.8-3.6-0.5-5.4s1.8-6.4,1.8-6.4s0-4.7,0.6-5
			c1.3-1.2,2.6-2.4,3.7-3.7l1.4-4.9c-0.9-1.3-1.4-2.8-1.4-4.4c-0.1-3.5,1.2-5.1,1.9-7.5c0.5-1.8,1.5-2.8,1.5-4
			c0.2-1.6,0.3-3.1,0.3-4.7c-0.1-2,0.4-3.7-0.2-5.8c-0.2-0.8,0-3.6,0.7-3.6s0.8-4.4,0.8-4.4c0.4-1.2,0.6-2.4,0.7-3.6
			c0-1.1,1.9-1.9,1.9-1.9l7.5-1.9c0,0,8.1-0.9,7.5-1.9s7.9-4.9,7.9-4.9l5.3-1.8l7.8-1.6l5-1l3.7-3.7c0,0,10.3,9.6,9.3,11.2
			s0.9,6.5,0,7.5s-0.9,8.4,0,7.5s0,1.9,0,1.9s3.7,5.6,5.6,9.3s1.9,15.1,1.9,18.6s2.2,5.9,1.9,7.5s1.9,6.2,1.9,5.6s-0.6,0-1.9,1.9
			s-2.5,4.7-1.9,5.6s-0.3,2.2-1.9,3.7c-1.4,1.5-2.1,3.6-1.9,5.6c0.5,1.3,1.1,2.6,1.9,3.7c0.3,0.6,0.6,1.9-1.9,3.7s-1.5,4.3-1.9,5.6
			s2.2,3.7,0,3.7c-1.5,0-2.8,0.7-3.7,1.9c-0.6,0.6,0.3,4.4-1.9,3.7s-5.3-0.3-5.6,1.9s-3.7,3.7-3.7,3.7L698.6,512z"/>
		<path class="st0" d="M592.3,437.4c0,0,3.1,1.3,5.6,0s7.8-4.3,7.5-7.5s0.9-5,1.9-7.5c0.8-2.4,1.4-4.9,1.9-7.5v-3.7l-1.9-5.6
			l1.9-5.6l5.6,1.9l7.5,1.9l6.7-2.7l2.6-1l5.6,5.6l5.6-1.9c0,0,6.2,2.8,5.6,1.9s3.4-2.5,3.7-3.7s3.7-3.7,3.7-3.7l1.9,5.6h5.6
			c0,0-1,2.3-1.5,3.3c-0.7,1.3-2.3,4.1-2.3,4.1l-1.5,8.3l-0.3,2.9c-0.9,0.9-1.9,9.3-1.9,9.3v9.3c0,0-1.3,5.9-1.9,5.6
			s-1.5,3.7-1.9,5.6s1.3,6.6,1.3,6.6c-0.9,1.9-1.7,3.8-2.4,5.8c0,0.6-2,2.9-2.7,2.6s0.9,3.7,0,3.7s-0.6,5.3-1.9,5.6s0,7.5,0,7.5
			s3.7,4.7,3.7,5.6s1.2,7.6,1.2,7.6l-1.2,3.6l1.9,3.7l0.5,5.6l-7.2,4.7c-0.2,1-0.9,1.9-1.7,2.4c-2,1-6.8,2.8-6.5,2.2
			s-5.6-2.8-5.6-3.7s-3.7-7.5-3.7-7.5l-7.5-1.9l-6-0.5c-0.9,0-4.6-2.2-5.2-3.2s-5.6-0.5-5.6-0.5l-1.9-1.4l-1.9-1.9v-5.6
			c0-1.2,2.8-7.8,3.7-7.5s4.3-3.1,3.7-3.7s1.9-9.3,1.9-9.3v-11.2c0,0,1.9-4,1.9-5.6s-1.9-5.6-1.9-5.6l-3.7-5.6l-3.7-1.9
			c0,0-5.9-0.6-5.6,0s0,3.7,0,3.7h-5.6l-1.9-1.9V441L592.3,437.4z"/>
		<path class="st0" d="M640.4,536.2c0,0-4.6,3.1-3.3,7.6c0.3,1.2,3.7,3.7,3.7,3.7l-1.6,4.7c0,0-0.9,1.8-1.5,2.1s-2.2,1.4-3.1,4.7
			c-1,3.8-1,9.3-1.3,10.8s0.2,3.6-1.4,5.1c-1.5,1.5-3.2,2.8-5.1,3.7c-1.4,0.7-4.3,0.3-4.7,2.4c-0.5,2.5,0.3,5.6,0,5.6h8.8
			c1.1,0.5,2.1,1,3.1,1.7c1,1,2.4,1.6,3.8,1.8c3.4,0.5,3-0.6,5.4,0.2c1.9,0.7,1.3-0.9,1.8,1.8c0.4,1.7,1,3.3,1.8,4.9l1.3,2.7l6.8-6
			l4.3-1.5v-9.3c0-0.9,2.5-12.4,1.9-13.1s2.8-8.7,3.7-9.3l5.6-3.7l5.6-3.7h5.6c0,0,0.6-3.1,3.7,0s9.3,11.2,9.3,11.2s2.8-1.5,1.9-3.7
			s-5.6-8.4-5.6-9.3s1.5-1.3,1.9-3.7c0.2-2.5,0.2-5,0-7.5l-1.9-1.9c0,0,2.8-3.4,1.9-3.7s2.2-0.9,1.9-1.9c-0.6-1.3-1.2-2.5-1.9-3.7
			c0,0,4-5.6,3.7-5.6s3.7-3.4,3.7-3.7c-0.2-1.2-0.2-2.5,0-3.7c0.3-1.3-1.6-3.2-1.6-3.2l-3.8-1.7l-2.1-0.2l-1,5.1
			c0.3,1.3,0,2.6-0.7,3.7c-1.3,1.9-3.2,5.1-3.7,5.6c-1.2,0.5-2.5,0.5-3.7,0c-1.9-1-5.6,0-5.6,0l-3.8,1.9l-3-5.5l-1.7-4l-10.2,0.2
			c0,0-2.1-3.3-3.1-3s-3.1-4.5-4.4-4.2c-1,0.4-1.9,1.1-2.6,2c0,0-4.5,2.7-4.9,3.3c-1,1.6-6,4.4-7,3.8s1.4,1.8,1.4,1.8s4,6.5,3.7,7.5
			c-0.2,1.2-0.2,2.5,0,3.7L640.4,536.2z"/>
		<path class="st0" d="M581.1,543.8c-0.3-0.9-1.9-7.1,1.9-9.3s7.2-1.5,7.5-3.7s4.3-5.6,3.7-7.5s1.9-6.2,1.9-7.5c0.4-2.5,1-5,1.9-7.5
			c0.3-0.6,1.9-9.3,1.9-9.3s1.6,2.8,3.7,3.3c1.6,0.2,3.2,0.2,4.7,0l4.7,3.5l8.8,1l6.1,1.5l3.7,7.5l5.6,3.7l3.7,5.6l1.9,3.7
			c0,0-0.5,6.5-1.4,6.8s-3.9,3.1-4.2,4.4c-0.2,1.2-0.2,2.5,0,3.7c0-0.6,3.7,3.7,3.7,3.7L639,553l-3.7,3.7c0,0-2.2,8.1-1.9,7.5
			s0,5.6,0,5.6v3.7l-4.7,4.2l-3.7,1.9c0.4-0.2-2.7,0.1-2.7,1.4v16.8c0,0-3.7,3.1-3.7,3.7s-5.3,3.1-5.6,1.9s-9.3-5.6-9.3-5.6h-11.2
			c0,0-5.3-2.8-5.6-3.7s-1.9-9.3-1.9-9.3l1.9-7.5l2.5-4.2c1.1-1,2.2-1.9,3.4-2.7c1.5-0.6,5.4-3.7,5.4-3.7s2.1-3.7,1.8-4.3
			s-1.9-5.6-1.9-5.6h-5.6c0,0-1.1-5-1.9-5.6c-1.1-0.9-2.1-1.9-3.1-2.9l-2.6-2.3C584.8,546,581.5,544.7,581.1,543.8z"/>
		<path class="st0" d="M562.5,624c0,0,4.6-1.4,6.5-1.7c1.3-0.2,9.2-3.2,8.6-2.8s4.4-2,4.4-2s-1.9-4.6,0.1-8.4
			c0.6-1.2,2.7-5.6,2.7-5.6s1.9-2.3,2.3-3.2c0.8-1.4,3.3-3.3,3.3-2.4c0,0.6,7.5,0,7.5,0h5.6c0,0,7,3.3,7.5,3.7
			c2,2.2,3.4,2.2,4.9,1.6c2-0.8,5.2-4.3,5.2-4.3l1.1-1.3v-10.9h9.3l5.6,3.7h7.5l1.9,5.6l1.9,3.7l3.2-2.8l4.4-3.5l3.6-1.2
			c0,0,5.3,8.1,5.6,9.3s0,10.6,0,11.2s2.8,14.6,1.9,18.7s-0.9,12.1-1.9,13.1s0.9,8.4,0,9.3s-5.9,9.6-7.5,9.3s-5.3,4.3-5.6,3.7
			s-5.6-3.7-5.6-3.7h-5.6l-5.6,5.6l-3.7,1.9c-1.3-1.2-2.6-2.4-3.7-3.7c-1.5-1.9-5.6-7.5-5.6-7.5c-1.3-1.2-2.6-2.4-3.7-3.7
			c-1.3-1.5-5.9-7.8-5.6-7.5l0,0c0,0-3.5-4-5.6-3.8s-9,1.3-9.3,1.9s-1.5,4.7-5.6,5.6s-10.3,4.3-11.2,5.6s-7.5,3.7-7.5,3.7
			s-4.3,1.2-4.9,1c-2-0.8-6.3-4.7-6.3-4.7l-1.9-7.5l0.2-7l-2.1-6.1l3.7-3.7l0.4-3.1L562.5,624z"/>
		<path class="st0" d="M573.7,704.2c0,0-2.8-3.4-1.9-5.6s1.3-9,1.9-9.3s0-3.7,0-3.7l-5-6.2v-3.7l1.3-3.2v-5.6v-4.7l7.4-2.8
			c0,0,8.1-5.3,9.3-5.6s6.4-2.1,7-2.4c1-0.8,2-1.7,2.9-2.6l1.3-2.5l9.3-1.9l2.6,1l12.3,14c0,0-0.5,1-0.2,4.5c0.3,4.5,0,6.7-1.6,8.6
			c-0.5,0.5-1.9,1.9-1.9,1.9v9.3c0,0,1.4,7.1,1.3,9c-0.3,2-0.8,3.9-1.3,5.9c0,0-5.9,1.6-7.5,1.9c-1.9,0.3-5.3,2.4-7.5,3.7
			c-0.9,0.6-4.7,4.1-5.9,4.7c-0.6,0.3,0,0-1.5,0.9s-7.4,2.9-7.5,3.7c0,0.6-1.6-1.6-3.2-2.7c-2.4-1.7-5.1-2.7-8-2.9
			C576.8,707.9,573.7,704.2,573.7,704.2z"/>
		<path class="st0" d="M544.7,664.6c1.2-1.8,2.3-3.7,3.1-5.7c0.9-2.5,0.8-2.8,4.6-4.3c2.5-1,8.3-4.1,8.3-4.1l1.2,4.7l1.2,2.8
			l6.8,5.1c0,0,0.6,6.8,0,9.3s-1.6,4.4-1.3,5.9c0.5,1.3,1.2,2.6,2.2,3.6l2.9,4.2c0,0-0.3,6.4-1.1,8.3c-0.5,1.3-2.1,5.7-0.2,7.8
			c1.5,1.7,3.7,3.8,4,4.9s2.8,0.7,2.8,0.7l7.7,4c0,0-8.3,1.3-9.6,1.6s-3.7,1.3-5.6,0s-5.9-3.6-7.5-3.7c-2.8-0.3-2.7-0.4-7.5-1.9
			c-0.8,1.8-1.7,3.6-2.7,5.3c-0.9,1.3-2.3,7.5-4.8,7.7c-2,0.3-3.9,0.9-5.6,1.9c-0.9,0.3-6.5,2.8-7.5,3.7s-5.6,1.9-5.6,1.9
			s-4-2.5-3.7-3.7s-0.6-6-0.3-6.6s-1.5-3-1.5-3.3s1.2-6.8,1.8-8.7s-0.6-4.7,0-5.6s-3.7-3.7-3.7-3.7l-2.3,3.8
			c-1.2-0.4-2.4-1.1-3.3-1.9c-1.9-1.5-4.7-3.7-5.6-5.6c-0.3-0.6,1.9-9.3,1.9-9.3s7.2-4.7,7.5-5.6s8.1-4,7.5-3.7s2.5,0.4,3.1-0.2
			s3.9-1.1,3.9-1.1l2.4-3.3l3.1-2.5L544.7,664.6z"/>
		<path class="st1" d="M639,698.6c0,0-0.3,14,0,14.9s0.9,6.5,1.9,7.5s1.9,5.6,1.9,5.6s3.1,7.5,3.7,7.5s4,8.4,5.6,9.3
			c1.8,1.4,3.5,2.9,5.1,4.5l-8.8-6.4l-8.7-6.9l-4.3-2.5c0,0-4.5,2.1-6.8,5.1c-1.3,1.7-10.3,1.2-11.8,0.5s-13.4-3.1-13.1-3.7
			s-2.5-3-3.7-5.6c-0.8-1.7-5.6-5.6-5.6-5.6s-6.2-0.6-5.6-1.9s0-3.7,0-3.7v-3.7c0-0.9,10.2-5.2,10.2-5.2s3.7-3.3,3-2.7
			c-0.9,0.7,3.8-1.8,4.5-2.8s6.7-2.3,6.7-2.3l5.5-1.9l1-3.9v-5.2c-0.6-2.5-0.9-5.1-1-7.7c0-3.4-0.9-7.1,0-7.5s3.3-2.9,3.7-5.6
			c0.2-1.4,0-9.3,0-9.3s5.9,8.1,6.6,8.6c1,0.7,2,1.6,2.7,2.6c1.9-0.7,3.6-1.7,5-3.2c2.4-2.5,4.3-4.3,5.2-4.3s4.3-0.6,4.7,0
			s5.6,3.7,5.6,3.7s0,7.2-1.9,9.3s-5.3,8.1-5.6,9.3s-0.9,7.8-1.9,7.5S639,698.6,639,698.6z"/>
		<path class="st0" d="M573.7,564.3c0.3,0.6,0.9-8.7,1.9-9.3s0.9-4.6,0.9-4.6l4.7-6.6c1.9,1.1,3.8,2.4,5.6,3.7
			c2.4,2,4.3,4.6,5.2,7.6c0.6,2.1,1.5,1.9,3.3,1.7c0.9-0.1,1.7-0.1,2.6,0l1.9,5.6c0,0-2.5,6.2-5.6,7.5s-5.6,4-5.6,3.7
			s-2.4,6.2-2.7,7c-1.5,4.3-0.6,6.5-0.6,6.5s0.5,6.1,1.4,7s5.7,3.6,4.7,3.3s-6.9,4.8-6.6,6.1s-4.3,7.1-3.7,9.3s1.9,5.3,0,5.6
			s-11.1,3.8-11.1,3.8s-7.8,1.3-7.5,1.9s0.6,8.4,0,9.3s-3.9,2.7-3.8,3.7c0.5,2.8,0.6,3.7,1.9,5.6s0,6.8,0,7.5s-1.3,1.3-1.9,1.9
			s-9.3,3.7-9.3,3.7l-3.7,7.5c0,0,0,0.9-3.7,3.7s-5.3,4-5.6,5.6s-8.1,2.2-7.5,1.9s-0.8-2.6-0.6-5.1c-0.1-0.6-0.3-1.1-0.6-1.6
			c-1.1-1.3-2-2.8-2.5-4.5c-0.9-2.8-1.9-3.1-1.9-5.6s-0.3-4.7-1.9-3.7s-6.8,1.9-7.5,3.7s-4.2,4.2-5.6,5.6c-2.7,2.6-4.4,6-5.6,5.6
			s-5.6-2.5-5.6-1.9s-3.7,2.6-3.7,1.9s-1.9-3.7-1.9-3.7l-3.7-1.9l-1.9-1.9l-4.3,5.2l-5,7.8c-0.8-1.1-1.4-2.4-1.9-3.7
			c-0.9-2.7-1.3-5.6-1-8.5l-2.8-2.7l-1.9-1.9c0,0,5.9-3.1,7.5-3.7s10.9-2.5,11.2-3.7s5.6-5.6,5.6-5.6l5.6-1.9c0.9-0.3,8.1,1.5,9.3,0
			s3.7-5.9,7.5-9.3c3.8-3.4,9-3.7,9.3-5.6c0.3-2.9,1.6-5.5,3.7-7.5c3.1-3.1,4-6.5,5.6-7.5s2.5-5,1.9-5.6s1.9-11.2,1.9-11.2
			s7.5-5.9,11.2-7.5s8.4-0.6,11.2-3.7s7.8-5,9.3-7.5c1.1-1.8,3.9-4.9,3.7-5.6C573.1,569.3,573.4,563.7,573.7,564.3z"/>
		<path class="st0" d="M504.7,575.5c0,0,5.6-3.7,5.6-5.6s3.4-4,3.7-5.6s3.7-5.6,3.7-5.6s1.5,7.8,0,11.2s-2.2,7.5-1.9,7.5
			s1.9,1.3,1.9,1.9s5.3-2.8,5.6-1.9s0,5.6,0,5.6s-3.1,0.3-3.7,1.9s-1.3,5.3-3.7,7.5s-6.2,6.2-7.5,5.6s-5.6-1.8-5.6-1.8
			s3.4-3.7,3.7-5.6s0.9-1.5,1.9-3.7s-0.3-6.2,0-5.6s-3.7,3.7-3.7,3.7s-0.9,1.9-1.9,0s2.5-5.6,1.9-5.6S504.7,575.5,504.7,575.5z"/>
		<path class="st1" d="M531.7,728.4c0.9,0,6.6-2.8,8.4-3.7s6.8-4,7.5-3.7s2.2,1.3,3.7-1.9l3.7-7.5c0.9-1.9,0.6-4,1.9-3.7
			s9.3,1.8,10.2,2.7s4.7,3.3,6,3.5c3.4,0.3,5.5-0.4,8.4-0.9c0.7-0.1,3.8-1.3,4.4-1l2.7,1.4v7.5c0,0-0.4,1.4,2.4,1.4
			c3.7,0,5.5,3.1,4.8,3.8s-0.9,2,0.3,4.2s4,6.7,3.3,7.7s1.1,4.8,0.4,5.4s-7.4-0.9-8.8-0.3c-4.4,1.8-7.8-1.4-10.9,1.1
			c-2.3,2-5.5,2.4-8.2,1c-2.2-0.9-6.8-4.7-9.3-5.6s-8.6-3.7-9.3-3.7c-3.6,0-6.2,3.1-5.6,1.9l-2.5,1.5c1.1-0.1-5.9,0.6-8.7-1.5
			c-1.4-1.1-2.6-2.4-3.7-3.7C532.7,734,530.8,728.4,531.7,728.4z"/>
		<path class="st2" d="M642.7,750.8c0,0-7.2,7.8-9.3,9.3s-3.4,5-3.7,5.6s-0.9,4,0,5.6s0.6,13.4,0,13s-0.3,1.9-3.7,3.7
			s-12.7,3.7-13,3.7s-3.4,2.5-5.6,5.6s-3.7,5.6-3.7,5.6l-3.7,3.7l-5.6-3.7c0,0-2.3-3.3-1.9-3.7c0.8-0.8,2.5-0.9,3.7-1.9
			s2.8-5,1.9-9.3s-1.2-3.4,0-5.6c0.8-1.1,0.8-2.6,0-3.7c0,0-4.3-1.5-3.7-1.9s2.2-2.5,3.7-3.7s2.8-5,3.7-5.6c2-1.1,3.8-2.3,5.6-3.7
			c2.2-1.9,6.2-3.1,5.6-5.6s-5.6-5.6-5.6-5.6h-3.7l-1.9,3.7l-1.9-9.3c-0.3-1.5,0.8-4.6,0.2-4.3s-1-8-1-8l0.3,1.5
			c-0.3-1.9-1.2-3.7-2.6-5l-1.7-4.5l1.8-1.7l6.7,8.9c0,0,8.7,2.8,10.9,3.1c1.1,0.2,2.9,1.8,6,1.1s5.2,1.3,7.3-0.5s7.5-5.6,7.5-5.6
			l3.8,1.9c-0.6-0.3,9,7.8,9.3,7.5s7.5,5.6,7.5,5.6v1.9H654c-1.9,0-7.1,2.8-7.5,1.9S642.7,750.8,642.7,750.8z"/>
		<path class="st1" d="M546.3,738.5c0,0,4.8-3,6.8-2.6c3.2,0.9,6.3,2.2,9.3,3.7c1.2,0.8,5.6,3.4,6.2,3.8c1.5,0.9,3.1,1.8,4.7,2.6
			c1.4,0.7,2.9-0.4,4-0.8s3-1,3.7-1.9s7,1.6,9.3,0s5.6,0,5.6,0h3.7c0,0-0.2,5.4,0.7,7.3s-4.5,3.9-4.5,3.9c-0.5,0.7-1.2,1.3-1.9,1.9
			c-0.7,0.4-0.3,7.8-1.9,7.1s-1.3-2.8-4.3-4.3c-1.7-0.8-3.4-1.8-5.1-2.8c0,0-7.6,0.6-7.5,0s0.2,2-0.7,2.8s-0.1,2.2-3,1
			s-2.7-0.4-7.5-1.9s-7.1-3.9-7.5-5.6s-1.3,0.3-3.7-1.9s-2.7-0.9-3.6-3c-0.8-1.7-3.8-4.5-3.8-4.5L546.3,738.5z"/>
		<path class="st1" d="M555,762l1.9-5.6l-0.4-4.4c0,0,1.1,3.8,8.6,6.6c1.7,0.3,3.3,0.5,5,0.6l3.8,1.8l1.7-4.6c0,0,5.6,0,6.3,0.4
			s2.6-0.9,4.9,1.5l3.8,3l1.8,2.6c0,0-4.8,0.9-5.6,1.9s-3.3,4.4-1.9,5.6s1.3,6.2,1.9,7.5s3.7,3.7,3.7,3.7c-1,0.1-1.8,0.9-1.9,1.9
			c-0.2,1.8-0.4,5.2-1.9,5.6s-3.7-3.7-3.7-3.7c-0.7-1.8-1.3-3.7-1.9-5.6c-0.3-1.6-3.7-3.7-3.7-3.7c-1.2,0.1-2.5,0.1-3.7,0
			c-0.7-0.3-5.7,0.2-7.5,1.9s-6.6,2.4-7.5,3.7s-1.9,5.6-1.9,5.6l-3.7,1.9c0,0-3.7-0.6-3.7-3.7s-1.7-6.7-0.3-9c0.9-1.2,1-2.8,0.3-4.1
			c0,0-1-2.8-2.3-3.1s-2.8-2.5-2.8-2.5l5.2-3.7L555,762z"/>
		<path class="st0" d="M476.7,674.3c0,0,3.9-4.7,3.7-5.6s5.6-7.5,5.6-7.5s6.5,4.3,6.9,6.1c0.7,2.9,3.4-0.9,6,0.4
			c1.4,0.5,2.8,0.8,4.3,1l5.9-6.2c1.7-0.8,3.2-2.2,4.1-3.9c1.5-3.4,7.5-4.4,7.5-4.4s2.6-1.5,2.4,0.7c-0.2,2.6,1.3,6.4,1.3,6.4
			s0.9,4.3,2.6,5.6s1.3,4.4,1.9,5.6s1.5,2.3,0,1.9s-5.8,2.6-8,4.3c-3.5,2.9-5.5,3.5-6.9,5s-0.5,3-1.4,6.2s-0.3,2.4,0.5,4.5
			s5.3,4.7,5.3,4.7s3.5,2.1,3.1,1.3s0.7-3.1,1.9-3.7c1.6-0.8,3.7,3.7,3.7,3.7v7.5c0,0-1.1,3.7-1.9,5.6s1.3,0.6,1.6,4.6
			c0.3,4.7,0.3,7.1,0.3,7.1l4.1,3.2l0.5,2.3c0,0,1.3,2.7-1.4,3.5c-3.2,1.1-4.6,2.2-7-0.3s-1.7-2.4-3.7-1.9s-2-0.4-3.7,0
			s-3.8,1-3.8,1s0-0.7-4.2,2.1c-3.9,2.6-3.2,2.5-3.2,2.5s0,4.7-1.9,7.5c-2.3,3.4-1.4,1.6-1.2,5.6c0.2,3.5-0.2,7-1.1,10.4
			c-1.1,2.8-2,5.6-2.7,8.4c-0.7,3-0.8,2.4-6,4.3c-2.8,1-2.3,3.6-5.2,5.8c-2.5,2-5.4,3.2-7,4.4c-1.8,1.4-7.8-1.7-8.5-1.7
			s-2.3,1.4-3.7,1.9s-3.7-4.5-3.7-4.5s0.6-5.4,1.8-6.6c5.6-5.6,5.6-3.5,2.9-8.6c-0.9-1.8-6.9-2.8-5.5-5.1s2.9-4.2,0.8-6.8
			c-0.9-1.1-2-0.6-3.2-4s-1.4-3.4-4.3-5.3c-1.7-1.1-2.5-3.1-1.9-5c0-0.9,0.1-1.8,0.4-2.6c0.6-1.5,1.6-0.5,4.3-2
			c2.1-1.3,4.1-2.9,6-4.5c0,0,2.3-3.5,1.9-5c-0.2-0.9-2.5-2.3-2.5-2.3s-1,0.4-1.2-2.5c-0.1-1.8,1.1-2.8,2.2-6s1-4.9,1.9-5.6
			s2.5-2.3,1.9-3.7s-1.9-3.7-1.9-3.7l-1.2-2.4l3.1-5.8l5.6-4.8c0.6-1.8,1-3.6,1.3-5.4C476.3,680.6,476.7,674.3,476.7,674.3z"/>
		<path class="st0" d="M511.9,776.4c0,0,0.2,5.4,2.1,8s4.6,1.9,5.6,1.9s2-10,1.9-11.2s4.2-4.9,3.7-5.6s1.1,3.3,1.9,3.7
			c1.9,0.5,3.9,1,5.9,1.3c0,0,1.1-2,1.6-3.2s5.6,0,5.6,0l8.7-0.3c0,0-5.5-2.7-4.5-3.7c1.6-1.5,3.6-2.8,5.7-3.6
			c7.2-2.1,4.7-2.5,6.2-5.2c0.3-0.6,0.3-6.5,0.3-6.5s-4.8-1-6.4-3.2c-1.3-1.9-2.8-3.7-4.4-5.4c0,0,1.1-5.1,0.2-4.6
			c-2.5,1.6-9.6-1-9.6-1l-3.9-4.2l-6.7,2.3l-2.5-1.9c-0.6-1.5-2.2-2.3-3.7-1.9c-1.8,0.4-3.8,0.4-5.6,0l-7.5,3.7
			c-1,0-1.9,0.8-1.9,1.9c-0.5,4.3-0.9,5.6-1.9,7.5c-0.4,0.7-2,2.7-1.9,3.7s0,3,0.8,3.7s3.2,3.6,3.2,3.6s-1.8,4.1-0.2,7.7
			s2.3,9.8,2.9,10.7C508.3,776.2,510.2,777,511.9,776.4z"/>
		<path class="st0" d="M424.4,668.7l0.2-5.1c0,0,0.3-1.2,3.5-4.2c2-1.8,4.8-2.5,7.5-1.9l-1.9,7.5c-0.2,1.2-0.2,2.5,0,3.7
			c0.3,1.9,4.1,4.2,5.6,5.6s5.2,2.3,7.5,1.9c2.3-0.4,4.3-1.7,5.6-3.7c1.5-2.2,3.6-2.8,3.7-5.6s-0.5-4.7,1.9-5.6c2-1,3.9-2.3,5.6-3.7
			h5.6c0,0,2.4,3,3.7,3.7c0.9,0.5,0.8,4.1,0.8,4.1c-0.3,1.8,0.1,3.7,1.1,5.2c1.3,1.6,1.9,3.6,1.9,5.6c0,6.1-1.9,11.3-2.6,11.8
			s-5.4,4.3-6.2,6.8s-1,4-4.2,3.8s-6.2,0.1-8.1-1.4c-2-1.4-4.4-2.2-6.8-2.4c-2.3-0.3-6.4-1.4-6.9-0.3s-1.8,1.2-1.9,2.1
			c-1,3.7-2.7,7.3-5.1,10.3c-1.7,2-2.3,2.1-4.7-0.9c-1.1-1.4-2.4-2.6-3.7-3.7c0,0-5.6,6.3-5.6,5.6s-0.4-7.3-0.5-8
			c-0.6-6.8-1.7-12.4-1.4-14.3s1.2-5.2,1.2-5.2c0.7-0.8,1.7-4.8,1.7-4.8l2.6-2L424.4,668.7z"/>
		<path class="st0" d="M467.5,763.7c2.1,3.2,3.7,4.4,1.7,5.8s-2.1,2.3-3,3.3c-1.3,1.5-2.1,4.3-2.4,6.1s-0.5,1.1-3.1,2.2
			c-4,1.7-2.8,1.2-5.6,0.9c-1.8-0.2-1-1.5-4.5-1.4s-6.4,3.5-7.6,2.5c-1.3-1.3-2.5-2.8-3.6-4.3c-1.9-2.5-3.5-7-5.6-7.5
			s-8.3,0.8-10,1.8c-1.9,1.1-4-0.1-4.9,1.9c-0.8,1.8-5,2.8-4.3,5.4c1.5,5.9-1.3,7.7-1.3,7.7c-1.3-0.5-2.6-1.1-3.7-1.9
			c-1.5-1-2.7-2.3-3.7-3.7c0,0-2.9-3.3-3.7-1.9c-1.1,1.4-2.3,2.7-3.7,3.7c0,0-3.2-5.5-1.9-7.5s4.1-3.8,3.7-5.6s0.5-3.4,0-4.6
			s-2-1.3-1.8-2.8c0.1-0.9-0.2-1.9-0.7-2.6c0,0-2.4-1.5-3-3s-1.9-5.6-1.9-5.6s-0.9-2.8,0.7-4.5c0.7-0.7,1.1-1.2,3-3
			c2.2-2.2,2-3,6-2.5s4,1.2,6.5,0.3c2-0.8,4.1-1.4,6.2-1.5c3.5-0.4,4.9-0.6,5.6-1.9s2.7-1.7,1.9-3.7c-1.1-2-2.3-3.9-3.7-5.6
			c0,0-3.7-1.9-2.9-2.2s-1.5-5-0.8-5.3l2.2-0.8c0,0,2-3.7,1.5-4.8s1.9-9.3,1.9-9.3l5.6-5.6c1.1,1.4,2.3,2.6,3.6,3.7
			c1.3,1.1,1.4,4.3,3.7,1.9s2.6-2.4,3.7-5.6c1.5-4.2,2.7-6.5,3.7-7.5s5.6,0,5.6,0c2.5,0.4,5,1,7.5,1.9c1.8,0.8,3.7,1.5,5.6,1.9
			s6.3-0.5,6.3-0.5l3.5,6.8l-1.4,2.3c-1.2,0.2-2,1.3-1.8,2.5c0.1,2.2,0,2.7-1.4,4.9s-2.4,5-1.5,6.4c1,1.2,2.1,2.3,3.3,3.3l-1.4,4.1
			c0,0-0.7,1.6-3.7,3.7c-2.2,1.4-4.6,2.4-7.1,3l-0.4,2.7c-0.4,2.7,0.4,4.4,1.9,5.6s2.9,1.5,3.7,3.7s0.8,3,3.1,4.9
			c1.8,1.2,2.3,3.6,1.1,5.4c0,0.1-0.1,0.1-0.1,0.2c0,0-2.5,2.8-0.3,3.7L467.5,763.7z"/>
		<path class="st0" d="M389,706c0,0,10.5-8.2,11.2-9.3s5-6.3,5.6-7.5s4.8-11.2,5.6-11.2s1.9-3.7,3.7-7.5s4.3-4.4,3.7-5.6
			s-1.9-9.3-1.9-9.3c0.2-1.2,0.2-2.5,0-3.7c-0.4-1.9-4.4-6.6-3.7-7.5s1.7-6.2,1.9-7.5s2.2-6.1,1.9-5.6c-0.1,0.1-0.1,0.2-0.1,0.1
			s0.6-0.9,3.9-2c4.1-1.4,4-0.7,7.5-1.9s5.3-2.8,7.5-3.7s6.9-4.8,9.3-5.6s4.6-2.6,5.6-1.9s3.7,3.7,3.7,3.7s0.1,2.6-1.9,3.7
			s-5.6,3.7-5.6,3.7c0.2,1.2,0.2,2.5,0,3.7c-0.9,1.6-2.2,2.9-3.7,3.7c-1.2,0.6-3.7,0-3.7,0s0.6,2.8-1.9,3.7
			c-1.6,0.8-2.9,2.1-3.7,3.7h-5.6l-1.9,1.9l-1.9,3.7l1.9,1.9c0,0,6.5,1,5.6,0s0-3.7,0-3.7l3.7,1.9v3.7l1.9,3.7l-1.9,1.9H432
			c0,0-3.8,0.9-5.6,3.7s-1.5,3.6-1.9,5.6c-0.2,2.2-0.2,4.4,0,6.7l-1.8,0.8c-0.8,0.4-4.2,9.7-3.7,11.2s1.8,20.6,1.8,20.6
			c0,1-0.1,2-0.3,3c-0.3,0.9-2.1,6.3-1.6,7.3s0,5.2,0,5.2l-3.7,1.3c0,0-4.1,1.6-5.6-1.9s-1.9-3.7-1.9-3.7s-11.5-0.9-11.2,0
			s-2.3-0.1-3.7-1.9c-1.4-1.8-2.6-3.6-3.7-5.6L389,706z"/>
		<path class="st0" d="M474.8,795.5c0,2.7,0.7-11,1.6-11c2.1,0,4.2-0.7,5.9-2l5.6-3.7c0,0,3.1-5.3,5.6-5.6s3.2-0.3,3.7-1.9
			c0.7-1.8,1.3-3.7,1.9-5.6c0.5-1.9,1.1-3.8,1.9-5.6c0,0,0.7-7.7,1.4-7s2.6,2.8,2,4.5c-1.5,4.6,0.4,5.8,1,8.1s1.4,6.1,1.6,6.9
			c0.5,1.9,1.6,3.2,2.4,3.5c1.4,0.5,2.5-0.7,2.8,0.7c0.3,1.4,0.2,6.3,1.3,6.8s0.4,1.7,2.7,2.3c1.9,0.5,2.2,1.2,3.9-0.5
			c1.4-1.5,1.5-10.5,1.5-10.5l3.7-5.6c0,0,0.1,2.7,1.9,3.7s2.4,0.7,5,1.1c1.5,0.3,1.7-2.2,2.5-3s4.9,0.1,5.6,0s4.7,0.5,5.6,0
			c1-0.3,2.1-0.4,3.1-0.3c0,0,1.7,4.5,0.6,5.9c-0.8,1.1-1.1,2.5-0.8,3.8c0.1,1.1,0.9,6.2,0.9,6.2l1.6,2.2c0,0,2.1,0.9,3.9,8.3
			c0.3,1.2,3.7,5.6,3.7,5.6s-0.8,5.1-1.9,5.6s-2.7,3.2-3.7,3.7s-1.9,4.5-3.7,5.6s-1.9,1.5-3.7,3.7s-4.6,6.6-5.6,5.6s-6.1-5-5.6-5.6
			s-2.8-6.5-1.9-7.5s1.7-8.5,1.9-9.3s1.9-5.6,1.9-5.6l3.7-1.9v-5.6c0,0,3.4-1.5-1.9-1.9s-11.2,0-11.2,0s-3.8,0.6-3.7,1.9
			s-3.1,0.8-1.9,3.7s-1.9,5.6-1.9,5.6l-7.5,1.8l-1.9,3.7c0,0,0.6,1-1.9,3.7s-5.6,3.6-5.6,7.5s3.4,6.3,1.9,7.5s-4.6-1.5-5.6-1.9
			s-9-1-11.2-1.9s-4.9,2.6-7.5,1.9s-5.9-1.3-7.5-1.9c-1.3-0.5-2.5-1.1-3.7-1.9c0,0-2.1-1.9-1.9-3.7c0.1-1.2,0.1-2.5,0-3.7
			c0,0-5,0.1-3.7,1.9s-0.5,9.7-1.9,7.5c-1-1.7-1.8-3.5-2.4-5.4l0.9-8.3c0,0,2.2-0.5,7-3.2s7.5-4.5,7.5-5.6S474.8,794.8,474.8,795.5z
			"/>
		<path class="st3" d="M418.8,795.5c0,0-0.9,0.3-1.9-1.9s-4.6-5.8-3.7-5.6s1.9-2.8,1.9-3.7s-1-5.2,0.1-6s1.6-1.9,3.6-3.3
			c2.2-1.5,5.2-2.1,5.6-1.9s3.7-1.9,3.7-1.9s2.8-0.6,3.7,0s2.5-0.3,3.5,1.2s5.6,9.7,6.3,9.3s0.9,2.3,3.3,0.7s6-1.9,7.5-1.9
			s2.7,2,3.7,1.9s6.7-1.9,7.5-2.7s2.8,5.2,3.7,4.5c1.1-0.9,2.4-1.6,3.7-1.9c1.1-0.1,5.3,2,5.3,2l-0.5,1.1c-0.4,4.8-0.3,3.7-0.4,4.8
			c-0.4,4.7-0.3,4.9-0.7,9.2c0,0.4-2.5,1.7-3.6,2.6c-2.5,2-4.1,2.8-5.4,3.7s-6,1.5-5.9,2.6c0.2,1.2,0.2,2.5,0,3.7
			c-0.4,1.8-1,4.1,0,5.6s2.3,4.1,2.3,4.1s-5.9-1.2-7.9-0.4s-6.9,2.9-9.3,3.7c-3.1,0.8-6.2,1.4-9.3,1.9c0,0,0.6-2.8,1.9-3.7
			s8.7-3,9.3-3.7s3.8,0.4,3.7-1.9s2.3-2.3,0-3.7c-1.5-1-2.7-2.3-3.7-3.7c0,0-4.1,1-3.7,1.9s-0.4,4.8-3.7,3.7s-7.5,0.2-7.5-1.9
			s-1.5-6.2-1.9-5.6c-0.5,0.7-1.2,1.3-1.9,1.9c-0.6,1.2-0.6,2.6,0,3.7c1,2,4.6,1.7,3.7,3.7s-3.4,2.3-3.7,1.9s-3.6-2.3-3.7-3.7
			s-2.1-4.4-1.9-5.6s2.6-2.8,1.9-3.7s-4.3-5.1-3.7-5.6s1.5-0.2,1.9-1.9c0.4-1.3,1-2.6,1.9-3.7L418.8,795.5z"/>
		<path class="st0" d="M409.5,808.6c0,0-3.9,4.5-3.7,5.6s0.7,4.7,0,5.6s-0.9,3.3,0,3.7s1.4,1,3.7,3.7s2.6,1.3,5.6,3.7
			s4.3,3.7,5.6,3.7s6.2,0.5,5.6,1.9s1,1.8,0,3.7s-4.5,4.5-3.7,5.6s0.2,3.9,0,3.7s-2.4-1.1-3.7-1.9s-5.3-3.2-5.6-1.9
			s-4.7,4.1-7.5,5.6s-4.5,0.2-7.5,1.9s-5.4,2.2-5.6,3.7s-2.1,3.3-1.9,3.7c0.2,1.9,0.2,3.7,0,5.6c-0.1,0.8,0.2,5.7-1.9,5.6
			s-5.5,0.5-5.6,1.9s-2.6,3.2-3.7,5.6s-1.3,4.9-1.9,5.6s0,3.7,0,3.7c-1.2,0.6-2.5,1-3.7,1.5c-0.9,0,0.7-2.4-2.4-5.4
			c-3.5-3.5-4.8-2.8-5.1-3.5c-0.8-1.5,0-2.3,0-3.7s2.9-5,3.7-5.6c1.8-1.2,1.2,0.5,3.7-1.9c2.1-2,2.1-3.8,3.7-3.7s3.9-1,3.7-1.9
			s-3.3-8.4-1.9-9.3s4.3-3,3.7-3.7c-0.8-1.1-1.5-2.4-1.9-3.7c-0.7-1.8-1.4-3.7-1.9-5.6c-0.2-1.5-0.3-4.4,0.6-4s7.4,0.1,6.8-1.6
			s1.2-2.7,0-3.7s-5.4-3.1-6.2-3.5c-1-0.6-3.9-0.3-3.1-2.1c2.6-6.4,0.8-5.8,1.9-5.6c-0.8-0.2-3.6-2.7-3.3-3.3s-0.7-2.4-0.4-4.1
			c0.4-2.5,3.4-4.5,4-4.7c1.5-0.7,3.7-0.9,4.8-1.6c0.4-0.3-1.1-2.8,5.7-1.2c2.6,0.6,7.2-6.5,7.2-6.5c0.6-0.9,0.9-1.9,1.1-3
			c0-1.9,0.8-4,0.9-5.1s0.5-5.9,0.7-5.7s-0.6-1.5-1.4-1.7s4.1-4.3,4.1-4.3l1.1,0.4l4.4,4.7c0,0,0.7,0,3.3,2.1c3,2.4,3,2.9,3,2.9
			s1.9,2.6,2.4,3.4s0,3.7,0,3.7s-3,2.2-3.7,1.9s-1.3,0.8-1.9,1.9S409.5,808.6,409.5,808.6z"/>
		<path class="st0" d="M379.7,715.3c0.1-1.4,0.8-2.8,1.9-3.7c1.8-1.7,7.5-5.6,7.5-5.6c-0.2,1.2-0.2,2.5,0,3.7c0.4,1.6,2.3,4,3.7,5.6
			c2.5,2.7,2.5,1.7,5.6,1.9s7.5,0,7.5,0c1.1-0.3,2.3,0.3,2.7,1.4c0.7,1.5,1.7,3,2.9,4.2h3.7l0.8,5.3l3.7,3.3c0.4,1.1,1.1,2.1,2,2.8
			c1.3,0.8,0.6,3,0.6,3c-0.1,1.8-1.4,3.3-3.2,3.7c-2.8,0.6-5.7,1.1-8.6,1.4c0,0-3.1,1.9-4.6,1.1s-7-1-7.5,0s-4.5,3.6-3.7,3.7
			c0.1,0,0.2,0,0.2,0s-1.6-0.2-2,1.9c-0.5,2.5,1.3,7.8,0.3,5.1c-0.4-1-5.2-3.6-5.5-4.8s-4.1,1.5-4.1,1.5s2.2,3,1.9,3.7
			c-1.2,2.4-3.2,4.4-5.6,5.6c-2.7,1.2-6,0.7-5.6,1.9s-0.6,0.8-1.9,1.9c-1.4,1.1-2.7,2.3-3.7,3.7c-1.1,1.4-2.3,2.7-3.7,3.7
			c-1.3,1-2.2,2.6-2.6,2s-5.9,3.3-6.7,1.7s-1-4.4-3.7-3.7s-3.7,0-3.7,0l-3.7-3.7c0,0-2.8-3.1-2.1-4.3c0.8-1.5-1.3-1.9,0.3-3.1
			s4.6,4.1,5.6,3.7s3.3-4.6,3.7-3.7s5.6,1.9,5.6,1.9s-1.4,0.8,1.9-1.9s4-1.1,5.6-1.9s-1.7-3.8,1.9-3.7s5.1,1.7,5.6,0s-1.2-7.9,0-7.5
			s5.4,0.4,5.6,1.9s1,5.8,1.9,1.9s1.9-6,1.9-7.5s-3.2-4.7-3.7-5.6s-3.4,1.7-3.7-1.9s-0.6-4-1.9-5.6s-2.6-2.7,0-3.7s4.3-1.1,5.6-3.7
			S379.7,715.3,379.7,715.3z"/>
		<path class="st0" d="M312.1,772.6c0,0,0.8-0.8,2.7-2.8s5.6-3,5.2-5.9s-0.6-4.1-2.6-3.2c-1.9,1-3.7,2.1-5.5,3.4l-1.2-3.9
			c0,0,0.5-6.5,0.1-6.4s-0.6-1.4,1.4-2s5-1,7.8-2.8s3.9-0.9,5.6-1.9s5.6-3.7,5.6-3.7c0,1.5,0.7,2.9,1.9,3.7c2.1,1.5,5.7,2.4,3.7,3.7
			s-5.6-1.5-5.6,1.9s-1.5,6.2,0,7.5s2.8,2.9,3.7,1.9s3-2.9,3.7-3.7s3.7,0,3.7,0c-0.5,1-0.7,2.2-0.4,3.3c0.3,0.8-0.6,3.1,2.7,6.5
			c1.5,1.5,1.3,2.7,3.3,3.3s4.5,0,5.6,0s2.3,4.1,2.3,4.1l7-2.3v3.3l-1.8,4.2l3.7,1.9c0.2,1.6,0.3,3.2,0.1,4.8
			c-0.3,4.7-2.2,6.7-2.3,7.8c-0.1,1.7,1.1,0.9,2.2,2.3c0.7,0.9-0.9,2,0,3.7s0,5.6,0,5.6c1.4,0.3,2.8,0.9,4,1.6
			c4,2.4-0.4,0.4,1.2,1.2l9,0.9c0,0-2.5,1.7-2.9,3.8s2,5.3-1.9,3.7s-7.7,2.2-9.3,1.9c-1.4-0.1-2.8-0.8-3.7-1.9
			c-1.1-1.3-2.8-1.4-3.7-5.6c-0.5-2.8-1.8-5.4-3.7-7.5c-0.7-0.9-1.7-1.6-2.8-1.8c-1.5,0.2-3.1,0.2-4.6-0.1c-1.4-0.5-5.5-5.3-6.8-6.1
			c-0.9-0.6,0.1-3.4-0.7-5.1c-0.7-1.7-2.1-3-3.7-3.7c-1.8-0.9-3.6-1.5-5.6-1.9c-0.9-0.1-0.5-0.6-2.7-1.4c-1.9-0.6-3.7-1.4-5.5-2.3
			c-3.4-2.1-6.4-4.7-8.9-7.8L312.1,772.6z"/>
		<path class="st0" d="M357.3,831c0,0,0.1-0.9,0.3-2.3c0.3-2.3,0.2-4.7-0.3-7c-0.5-2.2-0.6-4.6-0.3-6.8l0.3-2.5c0,0,1.4,4.8,4.5,6.3
			c4,2,3.7,1.1,5.8,0.2c1.3-0.6,2.7-1,4.1-1.3c0,0,4.3-0.3,4.8,0.8c0.2,0.5,0.5,1.1,0.9,1.5c1.6,1.8,2.5,1.8,2.5,1.8l-1.7,6.7
			c0,0,0.3,0.3,1.9,0.7c3.2,0.7,7.6,4.3,7.6,4.3l-0.4,3.2c0,0-0.8,1.8-3.7,1.9c-2.6,0.1-3.8-1.4-3.7,1.9s1.2,4.5,1.3,5.8
			s2,4.7,2,4.7c0.4,0.8,0.3,1.7-0.4,2.3c-1.1,0.9-3.3,1.7-3.2,3.5s2.2,6.8,2.2,8c0.1,1.6-4,0.3-5.2,2.4c-1.8,3.1-4.5,4.8-6,5.1
			c-1.3,0.2-3.4,4.5-3.4,4.5l-9.6-0.8c0,0-3-0.7-3.7-1.9s-1.3-3.4-1.9-7.5s-2.8-8.4-1.9-9.3c1.9-1.9,2.2-3.8,3.6-4.2
			c3.5-0.9,5.8-1.4,5.8-1.4s-4-6-3.7-7.5s0.7-3.2,0.7-3.2c0.7-0.9,1.2-1.9,1.6-2.9C358.1,836.8,357.3,831,357.3,831z"/>
		<path class="st0" d="M325.6,844c2,0.1,4-0.6,5.6-1.9c2.5-2.1,3.7-1.3,5.6-5.6s3.8-2.6,3.7-5.6s0.1-5.6,0-7.5s0-5.6,0-5.6
			s-1.2-3.4-0.6-5.9c0.5-1.7,0.7-3.5,0.6-5.3c-0.2-1.1,0.2-2.9,0-5c-0.2-1.8-0.8-3.4-1.6-5l1.6,0.6c0,0,4.1,5.8,5.6,5.6
			c1.9-0.1,3.7-0.1,5.6,0c0,0,4,4,4.6,6c0.4,2.2,0.6,4.5,0.6,6.8c-0.2,1.6-0.1,3.2,0.1,4.7c0.4,1.4,0.8,1.3,0.6,4s-0.5,5.2-0.4,6.5
			s0.5,6.9,0.5,6.9l-2.4,4.3c0,0-6.6,0-7.5,0c-1.1,0.1-2.2,0.2-3.3,0.5c0,0-3.5,3.1-4.9,3c-1,0-4.2,0.4-4.2,0.4
			c-1.8,0.2-3.6,0.2-5.4,0c-2.7-0.5-4.7,1.2-5.5,1.6s-2.9-1.8-2.9-1.8L325.6,844z"/>
		<path class="st0" d="M333,883.2c0,0,4.5,2.4,5.6,3.7s-0.7,6.5,0,7.5s5.1,2.6,5.6,3.7s2.8,4.2,3.7,3.7s0.8,1.7,3.7,1.9
			s6.7,1.8,7.5,1.9s1.4,0.1,3.7-1.9s3.9-1.6,5.6-3.7s2.9-1.4,3.7-3.7c0.7-2.4,1.2-4.9,1.5-7.4l-2-4l-5.3-3.9l0.1-4.3
			c0,0-10.7-0.3-12.6-2.2c-0.7-0.8-1.2-1.8-1.3-2.8l-1.1-5.7l-1.5-5.3l-0.6-3c0.9-1,1.7-2.1,2.3-3.2c1.2-2.2,7.4-2.7,7.4-2.7
			c-0.5-0.9-1.1-1.8-1.7-2.7c-3.2-4.4-2-6.6-2-6.6l-6.5-0.3c-3.1,0.1-5.9,1.5-7.9,3.9c0,0-2.9-0.4-4.2,0.1s-9.3,0-9.3,0l-5.6,3.7
			c0,0,1.1,3.9,1.9,3.7s0.5,0.7,1.9,1.9s4.7,3.8,3.7,3.7s-3.7,1.9-3.7,1.9s-1.4,2.7,0,3.7s1.9,3.7,1.9,3.7c-1.2,0.7-2.4,1.4-3.7,1.9
			c-1.4,0.4-2-0.6-1.9,1.9s3.8,4.9,3.7,5.6s4,2.5,3.7,3.7S333,883.2,333,883.2z"/>
		<path class="st3" d="M282.7,758.2c0,0,2.9-5.1,3.7-5.6s3.8,1.2,3.7,0s17,0.5,16.8,0s3.4-0.9,3.7,0s0,6.2,0,7.5s0.5,4.8,1.9,3.7
			s5.6-3.7,5.6-3.7c1.2,0.9,1.9,2.3,1.9,3.7c0,1,0.3,2.2-1.9,3.7s-4.6,2.6-4.7,3.6s-2.9,1.2-0.9,3.8s3.8,4.7,5.6,5.6s3.4,2.3,5.6,3
			c1.9,0.6,4.1,1.9,5.6,2.5s4.7,1.3,5.6,1.9c1.4,1.1,2.7,2.3,3.7,3.7c0.7,1.1,0,2.1,0,3.7s1.9,5.6,1.9,5.6c-0.1,1.9-0.1,3.7,0,5.6
			c0.3,1.8-0.8,7.7-1.9,9.3s-0.8,3-3.7,3.7s-7-0.2-7.5,1.9s-4.3,4.3-5.6,3.7s-4.6-1-5.6-1.9s-3.8-1-5.6-3.7c-1.6-2.1-3.5-4-5.6-5.6
			h-7.5c0,0-10.8,0.9-13.1,1.9s-4,4.2-5.6,1.9c-1.4-2.4-2.7-4.9-3.7-7.5c0,0-1.8-2.7-2-8.3c-0.1-2.4,0.8-5.5,3.9-8.5
			c2.7-2.6,5.3-5.7,5.6-7.5c0.5-2.6,0-4.7,1.1-6.6c0.8-1.4,2.1-1.6,3-3.5c1-2.2,2.2-4-0.4-6.7c-2.4-2.4-5.1-5-4.8-6.1
			S282.7,758.2,282.7,758.2z"/>
		<path class="st0" d="M297.6,845.9c1.1-1.9,2.4-3.8,3.7-5.6c1.6-2.1,3.5-4,5.6-5.6c2.3-1.8,7.5-5.6,7.5-5.6l3.7-1.9
			c0,0-3.2,4.1-3.7,5.6s-3.7,5.6-3.7,5.6v3.7c0,1.4,0.2,2.8,1.9,3.7s1.9,3.7,1.9,3.7c-1.3,0.4-2.6,1-3.7,1.9c-1.8,1.3-4.3,1-3.7,1.9
			s-2.7,3.2-3.7,1.9s-3.7-5.6-3.7-5.6h-1.9v-3.7L297.6,845.9L297.6,845.9z"/>
		<path class="st0" d="M217.4,765.7c0,0,10,1.9,11.2,0s1.9-1.9,1.9-1.9h11.2c0,0,0.5,1.6,3.7,1.9s8.3,1.2,9.3,0s-1.2-3.5,1.9-3.7
			c3-0.3,5.2,2.2,7.5,1.9s5.2-0.5,7.5-1.9s6.2-5.6,7.5-5.6s6.2-2.2,6.2-2.2c-1,1.9-1.8,3.9-2.5,6c-0.4,1.2-2.1,3.6,0,5.6
			s5.6,5.6,5.6,5.6s-1.3,4.8-1.9,5.6s-3,2.5-3.7,3.7s-4.3,1.9-7.5,3.7s-7.1,1.4-7.5,0s-1.1-4.5-3.7-5.6s-6.4-4.2-5.6-3.7
			c0,0-3,1.5-3.7,1.9s-2.8,3.2-3.7,3.7s-5.6,0.8-5.6,0s-0.8-4.5-3.7-3.7s-4-0.2-5.6,1.9s-2.8,1.1-5.6,3.7c-1.6,1.6-3.5,2.8-5.6,3.7
			c-0.7,1-1.4,2-2.1,3c-1.2,1-2.4,1.9-3.7,2.8c-0.2,0.8-0.9,1.4-1.6,1.6c-2,0.8-10.1-0.3-9.3,0s-0.1-1.4,0-3.7s0.6-2.4,3.7-5.6
			s5.6-2.4,5.6-5.6s-0.7-3.7,0-5.6S217.4,765.7,217.4,765.7z"/>
		<path class="st1" d="M230.1,834.7l-4.2-8.6c0,0-0.7-1.3-2.9-5.4c-2.6-4.8-1.5-6.6-1.6-8.3s-2.1-4.8-2.1-4.8s-2-4.5-1.9-5.6
			c0.2-2.5,0.2-5,0-7.5l7.5-7.5c1.3-0.5,2.6-1.1,3.7-1.9c2.9-2,8-5.9,8.7-6.3c1.4-0.6,2.9-1,4.4-1.1c2.7-0.5,4,4,4,4h4.8l3.9-3.7
			l4.1-2.2l3.6,2.7c1.4,0.6,2.7,1.5,3.9,2.4c0.8,1.3,1.5,2.7,1.9,4.2c0.3,1.1,1.6,1.5,3.3,1.2c2.8-0.6,5.4-1.7,7.9-3l4.2-2.5
			c0,2.3-0.4,6.2-0.4,6.2s-2.7,4.7-3.7,5.5c-2.4,2.1-4.3,4.6-5.6,7.5c0,0-0.8,1.3,0,5s1.2,5,1.9,6.2s-0.3-0.3,1,2.3s2.7,5.2,2.7,5.2
			s-3.9-1.9-5.6,0s-3.8,4-5.6,5.6s-3,1.9-5.6,3.7s-6.1,4.8-5.6,5.6s-1.1,3.8-5.6,3.7s-9.3,0-9.3,0l-1.9-3.7l-1.9,3.7l-4.1-0.9
			L230.1,834.7z"/>
		<path class="st0" d="M127.8,822.8c0,0,5.6-2.2,7.6-4.8s9.5-11.7,11.2-13.1s5.4-5.4,7.5-7.5c1.7-1.5,3.6-2.7,5.6-3.7l3.7-1.9
			c0,0,6.6-6.4,7.5-7.5s4.3-2.9,5.6-3.7c1.2-0.7,2.5-1.3,3.7-1.9c0.8-0.4-1.1-6.7,0-7.5s3.9-3.2,3.7-3.7s7.5-3.7,7.5-3.7
			s3.1-3.9,5.6-3.7s6.4,2.3,7.5,0s14.9,0,14.9,0l-1.9,5.6c0.3,2.3,0.3,4.6,0.1,6.9c-0.8,4.2,1.2,5.8-0.9,8.3
			c-1.6,1.9-5.1,3.7-5.7,4.3c-1.1,1.2-2,2.4-2.8,3.8c0,0,0.5,4.2-0.2,4.3c-2.6,0.5-9.2,0.2-11.1,0.5c-3,0.5-5.1-1.3-5.6,0
			c-1,2-2.3,3.9-3.7,5.6c-1.1,1.4-1.4,0.1-3.4,1.7s-1.8,2.3-1.8,2.3s5,2.5,4.2,4.3c-0.2,0.5-7,4.2-7,4.2c-1.8,1.1-3.9,1.9-6,2.3
			c-3.5,0.7-9.1-1.6-11.2-1.1c-1.1,0.3-3-0.3-4.6,1.2s-3.3,2.5-3.9,3.4s-0.9,0.1-1.6,2.2c-1.3,3.7,0,4.8-1.2,6.4
			c-1.4,1.9-3.2,3.1-4.9,5.7c-1.4,2.2,0,6.2-1.4,8.4c-1.2,1.9-2.2,5.2-3.7,5.6c-2,0.5-10.5-0.4-10.5-0.4s-3.6-0.9-2.5-2.3
			c0.7-1,1.3-2.1,1.8-3.3c-0.7-0.4-1.3-0.8-1.8-1.4c-1.2-1.1-2.1-2.4-2.8-3.8c-1.1-2.5-1.5-4.7-0.5-5.8S127.8,822.8,127.8,822.8z"/>
		<path class="st0" d="M153.8,852.8c0,0,5-4.1,5.8-5.1s5.6-5.6,5.6-5.6h3.7l3.7,3.7c0,0-1.1,7.3,0,7.5s4,2.2,5.6,1.9s8-3.6,7.5-3.7
			h-0.2c0,0,0.8-0.1,2-1.8c1.5-2.1,6.2-4.6,5.6-3.7s-1-0.9,1.9,0s6.4,0.5,7.5,0s2.8-3,3.7-3.7c0.7-0.6,1.3-1.2,1.9-1.9
			c0,0,4.7-1.7,5.6-1.9s2.3,0.4,3.7,1.9s2.1,2.6,3.7,1.9s4.3-3.2,5.6-3.7s3.7-4.4,3.7-4.4l-3.2-5.9c-1-1.4-1.8-3-2.4-4.6
			c-0.4-1.2-1.7-2.3-1.9-3.7c-0.4-3.5-1.4-1.8-1.9-5.6c-0.1-0.8,0.6-2,0-3.7c-1.4-4.2-2.5-4.5-3.1-6.2c-0.7-1.6-0.9-3.3-0.6-5
			c0.1-1.9,0.1-3.7,0-5.6h-8.6l-2.3-0.5l-12.3,0.5c0,0-1.8-1.4-3,0s-2.4,4.9-3.7,5.6s-6.3,2.8-5.6,3.7s6.8,3.9,3.7,5.6
			c-2.4,1.4-4.9,2.6-7.5,3.7c-2,0.8-5.5,2.6-7.5,1.9c-1.7-0.6-3.5-1-5.4-1.3l-6.6,0.3c0,0-1.5,1.4-2.7,2.3c-1.6,1.1-2.9,2.5-3.9,4.2
			s-0.6,7.1-1.9,7.5s-2.6,2.8-3.7,3.7s-1,4.4-1.2,6.2c-0.2,2-0.4,1.5-0.2,3.4c0.3,2.7,5.4,3.8,5.1,5.4s-0.8,3.6,0,5.6
			c0.3,1.2,1.6,2,2.8,1.7C153.4,853.1,153.6,853,153.8,852.8z"/>
		<path class="st0" d="M81.2,853.4c0,0-5-7.6-3.7-7.5s3.6,1.1,5.6-1.9s2.6-6.5,3.7-5.6c2.4,1.4,4.9,2.6,7.5,3.7c0,0,0.7,4.4,3.7,1.8
			s3.5-2.4,5.6-3.7s4.2-4.5,5.6-5.6s2.7-2.3,3.8-3.7c0,0,3.7-0.4,3.7-1.9s-0.6-3,1.9-5.6s7.9-1.1,7.5-1.9s2,0.2,1.9,1.9
			s-4.1,4.8-3.7,7.5c0.3,2,0.9,3.9,1.9,5.6c0.6,1.3,4,1.9,3.7,3.7s-2.8,1.7-1.9,3.7s7.5,1.9,7.5,1.9l6-0.2l3.4-5.4
			c0.5,0.7,1.2,1.3,1.9,1.9c1,0.7,3.6,2.8,3.7,3.7s-0.7,5.1,0,5.6c0.5,0.4,0.8,2,1.9,1.9s1.6-1.1,2,0.5c0.5,2.2,1,2-0.1,5.1
			s2.4,3.5,1.9,5.6s1.9,4.8,0,5.6s-3.1,0.9-3.7,1.9s-3.1,2.5-1.9,3.7s4.9,3.8,3.7,3.7s-7.5-3.7-7.5-3.7l-5.6-1.9
			c0,0,0.1,0.1-3.7-3.7s-7.7-4.5-9.3-5.6s-3-1.4-3.7,0s-2.2,0.6-3.7,1.9s-9.3,0-9.3,0s1.1,3.3,0,3.7s-5.6-3.7-5.6-3.7v3.7
			c-0.4,0.8-1,1.5-1.9,1.9c-1.4,0.7-5.3,2.2-7.5,0s-1.4-2.5-3.7-3.7s-2.7-3.7-3.7-3.7s-0.5,1.3-1.9,1.9s-4,0.3-3.7,1.9
			s1.1,3.1,0,3.7s-3.5-2.8-3.7-3.7c-0.2-2-0.9-3.9-1.9-5.6c-1.6-2.4-1.6-2.9,0-3.7S80.9,853.2,81.2,853.4z"/>
		<path class="st0" d="M148.4,911.2l9.3-7.5l7.5-1.9c0,0,4.2-4.5,3.7-3.7s2.2-3.6,3.7-3.7c2-0.1,4-0.7,5.6-1.9
			c1.9-1.4,5.7-1.4,5.6-3.7s-1.3-12.8,0-13s4,0.4,3.7-1.9s1.9-5,1.9-5.6s3.7-1.9,3.7-1.9l3.7-7.5c0,0,0.2,0.3,1.9,1.9
			s7.3,8.2,7.5,9.3c0.8,2.3,3.1,3.9,5.6,3.7c3.5-0.2,6.5-4.1,7.5-3.7s7.8,2.3,9.3,1.9s7.5-5.6,7.5-5.6l3.5,1.8
			c1.2,5.8,1.7,5.7,2.6,8.5c0.6,1.8-5.1,1-5.1,1c-3.5-0.2-7.1,0.3-10.5,1.3c-4.3,1.4-8.8,2.2-13.3,2.4c-2.4,0.1-1.8,1.2-3.4,3.7
			c-1.9,3.1-4,7.6-4.4,9.6c-0.4,1.8-1.2,3.4-2.4,4.7c-2,2.6-3.3,2.8-4.3,4.3c-0.8,1.5-2.5,2.3-4.2,2c-1.1-0.2-2.2-0.3-3.2-0.1
			c0.4,1.7,0.9,3.5,1.6,5.2c0.6,1.3,1.4,4.3,0.3,6s-3.6,0.8-4.3,2.3s-1,1.1-2.3,3.3s-5.4,3.3-6.5,3.7s-1.5,5.3-0.9,6.5
			c0.8,1.7,4.3,0.1,4.6,1.1S182,941,182,941s-4.6,1-7.5,0s-5.6-5.6-5.6-5.6c-0.4-0.6-0.4-1.3,0-1.9c0.6-1-1.9-5.6-1.9-5.6l1.9-3.7
			l3.7-3.7l-1.9-3.7c0,0-3,4.6-3.7,1.9c-0.5-1.9-1.1-3.8-1.9-5.6v-3.7l1.9-3.7h-1.9c0,0-2.3-1.8-3.7,0s-4.7,6.2-5.6,5.6
			s-5.6,1.9-5.6,1.9L148.4,911.2z"/>
		<path class="st0" d="M183.8,952.2h-5.6l3.7-5.6V941c0,0,0.8-1.8,1.2-3.2c0.2-0.8,0.7-4.3,0.7-4.3s-5.1,0.3-5-1.5
			c0.1-2,0.1-6.4,1.3-6s5.6-1.9,5.6-1.9s2-4.6,3.7-5.6s2.5-1,3.7-1.9s0.2-6.1,0-5.6s-1.9-5.6-1.9-5.6h5.6l3.7-3.7l3.7-3.7l1.9-5.6
			c0,0,3-6,3.7-7.5s2.1-3.9,3.7-3.7s10.5-1.1,11.2-1.9s11.2-1.9,11.2-1.9h5.6c0,0,4.6,0.2,5.6,1.9s7.5,5.6,7.5,5.6l3.7-3.7h3.7
			c0,0-0.4,6.2,1.9,7.5s6,0.7,5.6,1.9s-0.4,4-0.5,6.1s-1.1,2.8,2.8,2.8c2.4,0,4.8,0.1,7.2,0.4c0,0-2.9,3.8-3.9,5.6s-2.8,6-3.7,7.5
			s-2.1,4.4-1.9,5.6s-1.9,1.9-1.9,1.9s-1.1,0.7-3.7-3.7s-0.9-4.5-3.7-7.5s-4.8-2.7-5.6-3.7s-1.9-4-5.6-3.7c-2.6,0-5.2-0.6-7.5-1.9
			c0,0-5.4,2.3-5.6,1.9s-3.2,0.3-5.6,1.9s-4,2.7-3.7,3.7s-1.1,0.9-1.9,1.9s-7.5,1.9-7.5,1.9s-1.3,2.7-1.9,3.7c-0.3,0.6-0.6,0-0.5,0
			c0.3,0.6,0.4,1.2,0.5,1.8c0.8,3.4,0.1,4.8-1.9,7.5s-4.6,3.9-5.6,5.6s-1.7-0.8-1.9,1.9s1,5.3-1.9,5.6s-4.2,1.9-3.7,3.7
			s0.6,2.8,0,3.7c-0.5,0.7-1.1,1.4-1.9,1.9c0,0-1.3,2.7,0,3.7s7.4,5.2,5.6,5.6s-10.1-1.6-9.3-1.9c0,0-2.9,0.4-3.7,1.9s-5.6,0-5.6,0
			L183.8,952.2z"/>
		<path class="st0" d="M236.1,851.5c0,0,6.6-0.8,7.5-1.9s5.6-2.6,7.5-5.6s2.2,0.1,5.6,0c3.4-0.1,5.9,1.9,7.5,0
			c0.9-1.1,2.3-1.8,3.7-1.9c0,0,6.8,4.8,7.5,5.6s4.1,3.5,5.6,3.7c1.9,0.5,3.8,1.1,5.6,1.9l-1.9,5.6c-1.1-1.3-2.3-2.5-3.6-3.6
			c-0.6-0.5-7,1.4-9,1.6c-3.3,0.2-3.9-0.2-5.4,2.3c-0.7,1.2-1.6,2.4-2.6,3.4l-4.9-1.3l-2-1.2l-7.4,0.9c-1,1.1-2.1,2.1-3.4,2.8
			c-1.6,0.9-5.5,2.9-5.5,2.9l-1.1,1.4l-3.7-1.9c0,0-2.3-3.6,0-5.6s4.5-5.7,3.7-5.6S236.1,851.5,236.1,851.5z"/>
		<path class="st0" d="M295.7,857.1c-0.7,2.1-5.4,5.4-3.7,7.5s2.6,2.2,3.7,3.7s1.6,4.3,1.9,5.6s1,5.7,1.9,5.6s1.9,1.9,1.9,1.9
			s-7.8,1.3-9.3,3.7s-1.6,5.2-3.7,5.6s-4.5,3.1-5.6,3.7s-2.8,6-3.7,5.6s-9.9-0.4-9.9-0.4c0-1.5,0-1.5,0-4.9c0-1.5,0.1-3,0.4-4.4
			c0,0-4.8-0.8-5.5-1.4c-1.1-1-1.6-6.8-1.9-6.9c-1.2-0.5-2.4-0.7-3.7-0.6c0,0-3,4-3.7,3.7s-5.7-3.3-6.6-4.6
			c-0.7-0.8-1.5-1.5-2.4-2.1l-3.6-1.4l-2.7-8.7c1.8-1.5,3.8-2.7,5.9-3.8c3.6-1.8,3.4-3.5,5.6-3.7s6.7-1.2,7.5,0s4.7,1.8,5.6,1.9
			s3.7-5.6,3.7-5.6c1.2,0.1,2.5,0.1,3.7,0c1.4-0.5,9.3-1.9,9.3-1.9l3.7,3.7l1.9-5.6l1.9-1.9l7.5,3.7
			C295.7,855.2,296.4,855,295.7,857.1z"/>
		<path class="st1" d="M32.8,901.9c-0.4-1.2-0.4-2.5,0-3.7c0.6-2.4,7.5-5.6,7.5-5.6s3.5,6.9,5.6,5.6s2.8-3.8,3.7-5.6
			c0.5-1.2,0.5-2.5,0-3.7l3.7-5.6c0,0-0.7-0.6,0-1.9s-0.7-2.3,3.7-3.7s5.9,1.4,7.5,0c1.3-1.2,2.6-2.4,3.7-3.7c1-1.2,6.1-1.3,7.5,0
			s4.9,3.5,5.6,1.9s1.2-0.8,1.9,0s1.3,5.6,1.9,7.5s2,3.3,3.7,5.6s1.1,5.7,3.7,5.6c1.5-0.1,2.9,0.6,3.7,1.9c0,1.4-0.2,2.8-0.5,4.2
			c-0.4,1,0.7,1.7-3.4,1.5s-5.3-0.7-6.5,0.2s-2,4-4.5,5.3s-4.1,2.6-4.3,4.1s1.1,2.3,0.6,3.3s-2.1,2.5-2,4.1s1.4,2.6,2,3.3
			s0.4,7.3,0,9.3c-0.2,0.7-5.9,0-7.5-1.9s-3.4-3.3-3.7-1.9s-5.7,0.7-7.5,3.7s-6.3,8.2-5.6,9.3s-1.9-5.6-1.9-5.6s-2.4-4.4-1.9-5.6
			s-1.9-1.8-1.9-1.8l-1.9-1.9c0.5-1.3,1.1-2.5,1.9-3.7c0.6-0.8,2.2-3.8,3.7-3.7s1,0.1,3.7-1.9s3.3-1.3,3.7-3.7s-1.9-5.6-1.9-5.6
			s-2.3-1.4-3.7,0s-3.7,3.7-3.7,3.7l-3.7-3.7l-1.9-1.9c0,0-4-2.7-3.7-1.9s-1.9,1.9-1.9,1.9l-3.7,1.9c0,0-2.5-0.9-1.9-1.9
			S32.8,901.9,32.8,901.9z"/>
		<path class="st0" d="M107.3,898.1c0,0,7.3-2.2,7.5-3.7s2.4-6.1,3.7-5.6s5.2,2.7,5.6,3.7c0.7,1.8,1.4,3.7,1.9,5.6
			c0.3,1.5-0.6,4.4,0,5.6s2.9,4.3,0,5.6c-1.8,0.8-3.7,1.4-5.6,1.9c0,0-0.4,1.8-1.9,1.9s-5.3,4.8-3.7,5.6c1.8,0.8,3.7,1.4,5.6,1.9
			l5.6-1.9c0.6,0.7,1.2,1.3,1.9,1.9c0.9,0.7,3,1,3.7,0s0.2-5,1.9-3.7s3.6,3,3.7,3.7s-3.6,3.4-3.7,5.6s-0.4,2.8,1.9,3.7
			s3-1.5,3.7,1.9s-1.4,3.2,0,5.6s2.5,4.9,3.7,5.6s1.5,0.9,1.9,1.9s-2.6,4.9-3.7,5.6c-1,0.6-2.1,1.1-3.2,1.6
			c-1.5,0.6-3.2,0.2-4.3-0.9c-0.8-1.1-1.4-2.8-2.3-2.4c-1.8,1.1-3.5,2.3-5.1,3.5c-3.1,0.4-6.3,1.1-9.3,1.9c-2,0.7-1.9-0.1-3.2-1.8
			c-0.5-0.7-2.4-4.5-2.4-3.8s-3.7,3.7-3.7,3.7s-3-0.8-3.7-1.9s-0.4,0.1-1.9-3.7c-1.6-4.3-3-3.1-3.7-7.5s1.1-5.6-1.9-9.3
			c-1.6-2.1-2.1-5.3-3-5.5c-2.1-0.2-4.2-0.2-6.3-0.1c0,0-2-3.2-1.9-0.6c0.4,2.7,1,5.4,1.9,8c0,0,3.1,0.4,2.1,1.1s-6.5,6-7.7,4.5
			s-3.7-5.6-3.7-5.6v-9.3c0,0-2.5-2.1-1.9-3.7s2-4.9,2-4.9s-2.3-2.3,1-4.7c4.3-3.1,1.5-0.6,4.6-3.5c1.9-1.8,2.9-4.2,4.1-4
			s7,0.2,7,0.2l1.2-0.6l0.6-5h7.5L107.3,898.1z"/>
		<path class="st0" d="M14.1,914.9c1.2,0,3.4,0.9,3.7-1.9s-2.6-5.2-1.9-5.6c0.8-0.4-2.5-1,0-3.7s5.5-6.4,5.6-5.6s4.5,0.8,3.7,1.9
			s1.3,4.5,1.9,5.6s0.3,3.3,1.9,1.9c1-0.9,2.2-1.4,3.5-1.4c0.6,0.7,1.3,1.2,2.2,1.5c1.2,0.4,4.6-2.4,4.6-2.4l1.4-1.5
			c0,0,4.6,2.1,5.2,3.8c0.7,1.7,2.1,3,3.7,3.7c0.9,0.2,4.3-4.1,4.3-4.1s3.2,0.4,4.2,2.2s0.8,2,0.8,3.8s-2.7,2.4-4.5,4.1
			s-4.1,1.4-5.4,3.4s-2.2,3.5-2.2,3.5s-0.2,1.7-1.4,2.2s-0.9-0.2-2.3-0.4c-1.1-0.3-2-0.9-2.9-1.6c0,0,0.3,0-1.9,1.9
			s-3.9-0.6-3.7,1.9s-1.3,2.8,0,3.7s3,1.3,3.7,3.7s0,3.7,0,3.7c-1.4-1.3-3.2-2.1-5.1-2c-2.9,0.3-1.9,0.7-4.2-1.7
			c-1.6-1.6-2.9-3.5-3.7-5.6c-0.7-1.5-2.3-4-2.3-4c-1.4-0.2-2.8-0.6-4.2-1.1c-2.7-1.2-5.2-5.4-5.2-5.4S12.9,915,14.1,914.9z"/>
		<path class="st0" d="M36.5,946.6c1.2-0.6,6.8,0.4,9.3,1.9s2.5,3.2,3.7,3.7s1.6,3.9,0,5.6s-9.3,5.6-9.3,5.6s-6.8,0.5-5.6-1.9
			s4.1-1.5,3.7-3.7c-0.4-1.9-1.1-3.8-1.9-5.6c0,0-1-2.5-1.9-1.9s-0.2,2.9-3.7,3.7s-5.2,0.8-5.6,1.9s-4.8,7.4-5.6,7.5
			s-5.4,7.4-5.6,3.7s1.8-5.1,1.9-7.5s1.7-4.8,0-7.5s-4.2-4-5.6-5.6s-6.6-5.3-5.6-5.6s3.7-5.6,3.7-5.6v-3.7c0,0,2.8,3,3.7,3.7
			s-0.4,0.4,1.9,3.7s4.5,4.6,3.7,5.6s1.6,0.7,1.9,1.9s2.6,2.9,3.7,1.9s5.3-0.1,3.7-3.7s-4.5-4.3-3.7-5.6s-1.9-3.7-1.9-3.7
			s-0.9-3.6-3.7-3.7s-3.7-1.9-3.7-1.9c-1.2-0.8-2.4-1.4-3.7-1.8c-1.3-0.5-2.6-1.1-3.7-1.9c0,0-0.7,1-1.9,0s-4.2-3-3.8-3.8
			c0.8-1.8,1.5-3.7,1.9-5.6c0-0.9,1.9-5.6,1.9-5.6l3.7,1.9l5.6,1.9c0,0-1.6,3.5,0,5.6c1.1,1.4,2.3,2.7,3.7,3.7l3.7,1.3
			c0.7-0.1,1.4,0.1,1.9,0.6c0.8,0.8,1.5,3.1,2.4,5.4s5.1,5.8,5.1,5.8c1.2-0.1,2.5-0.1,3.7,0c1.3,0.5,2.5,1.2,3.7,1.9
			c-0.4,0.5-0.4,1.3,0,1.9C39,942.2,35.3,947.2,36.5,946.6z"/>
		<path class="st0" d="M57,982.1c0,0,0.4,3.6-1.9,5.6s-5,1.5-5.6,3.7s-1.9,5.6-1.9,5.6c4.4,0.5,4.1,0.7,7.5,0c1.9-0.4,3.8-1,5.6-1.9
			c1.7-0.8,2.7,1.2,3.7,1.9c0.6,0.3-0.9,0.5,3.7,1.9c3,0.9,6.6,3.7,9.3,1.9s2-4.1,5.6-4.3s5.2-0.8,6.2-1.6s3.1-5.1,3.1-5.1
			s-0.8-3.8-0.9-5.2s-0.7-2.8-1.6-6.3c-0.6-2-1.7-3.9-3-5.6c-0.7-1-2-3.5-2-3.5l4.7-4.5c0,0,1.8-1.8,4-4.1s2.2-3.3,3.1-4.9
			s3.2-5.2,3.2-5.2l1.9-3.7l-1.9-3.7c0,0-2.1-2.8-1.9-3.7c0.2-1.9,0.2-3.7,0-5.6c-0.1-2.4-0.8-1.9-1.9-3.7s-2-5.5-3.7-5.6
			c-2.1-0.1-5.3,0.9-5.6,0s-1.9-1.9-1.9-1.9l1.9,9.3c0,0,3.4-0.2,1.8,1.6s-3,2.1-4.3,3c-1,0.7-2,1.8-2.6,1.3
			c-3.3-2.8-3.3-5.8-4.2-5.9c-1.6,0-3.3-0.1-4.9-0.4c-1-0.1-1.9-0.7-2.6-1.5c-1.2-1.1-1.5-3.1-2.9-2.4c-1.4,0.8-2.8,1.4-4.4,1.9
			c-1.2,0.3-3.5,1.3-4.2,2.8s-0.6,0.2-2.8,4.1c-2.4,4.3-2.6,4.3-2.5,4.8c0.8,2.4,1.8,3.3,3.7,5.6s2,2.7,3.7,3.7s2.7,1.8,1.9,3.7
			s-0.4,4.3-1.9,5.6s-9.3,5.6-9.3,5.6s7.2,1.8,9.3,0s5.9-4.9,5.6-3.7c-0.3,1.4-0.9,2.7-1.9,3.7c-1.3,1.4-3.7,2.2-3.7,3.7
			s-1.2,4-1.9,5.6S57,982.1,57,982.1z"/>
		<path class="st0" d="M42.1,976.5c0.1-1.4,0.7-2.8,1.9-3.7c1.1-0.9,2.4-1.5,3.7-1.9h5.6v3.7c0,0-2.8,3-3.7,3.7s-5.6,1.9-5.6,1.9
			L42.1,976.5z"/>
		<path class="st0" d="M27.1,978.3c-0.4-2.1,0.3-4.2,1.9-5.6c1.7-1.4,3.6-2.7,5.6-3.7c0.6,0.3,1.3,0.3,1.9,0
			c0.8-0.6,1.2,0.4,1.9,1.9s2.3,3.7,1.9,5.6s-1.9,5.6-1.9,5.6s-0.9,3.8-1.9,3.7s-2.2,1.8-3.7,3.7s-5.6,3.7-5.6,3.7s-2.5-2.8-1.9-3.7
			s1.9-5.6,1.9-5.6L27.1,978.3L27.1,978.3z"/>
		<path class="st0" d="M111.1,1023.1c0,0,2.2,8.1,0,9.3s-4.2,2.7-3.7,3.7s0.6,3.1,0,5.6s0.8,4.4-1.9,5.6s-9-2.3-9-2.3
			c-0.3-1.7-0.4-3.4-0.4-5.1c0-2,0-9.3,0-9.3l-9-4.2c0,0,0.4-0.4-0.5-2.1s-4.4-3.5-4.4-3.5l-4.8,0.4l1.9-5.6l-6.7-7.7l-1.6-5.2
			l-2.8-3.9l3.7,1.9l4.8,0.4l4.5-4.1c1.4-1.3,5.7,0.4,7.5-1.9s4.6-4.9,3.7-7.5s-3-13.2-3.7-13S85,969,85,969
			c1.2-1.3,2.4-2.6,3.7-3.7c1.1-0.8,5.5-4.7,5.6-5.6s3.3-4.9,3.7-5.6c1-1.8,1.9-3.7,1.9-3.7l1.9-3.7c0,0,2.8,5.1,3.8,5
			s1.6,1.2,2.6,0.3c1.1-1.1,2.1-2.2,3-3.4l3.7,5.8c0,0,9.5-2.3,11.2-2s5.2-4.2,5.6-3.7s2.5,3.7,3.7,3.7c1.9,0,4-1.2,3.4-0.5
			c-1.1,1.4-4.1,7.7-5.3,7.9s-3.1,2.6-3.7,3.7s-3,5.8-3.7,5.6s1.1,3.1,0,3.7s-5.4,6.7-5.6,9.3s-1.4,3.4-1.9,7.5s-4.2,8.4-3.7,11.2
			s-1.4,3.1-1.9,5.6S111.1,1023.1,111.1,1023.1z"/>
		<path class="st0" d="M38.3,1056.7c-0.6-0.4-1.2-6.3-1.9-7.5c-1.2-1.3-2.4-2.6-3.7-3.7c0,0-0.8-2.5,1.9-1.9l7.5,1.9
			c0,0-1.3-3.2,0-5.6s3.4-1.6,3.7-3.7c0.2-1.9,0.2-3.7,0-5.6c0-0.8-3.9-4.7-3.7-5.6s-2.3-3-3.7-3.7s-3.7-3.7-3.7-3.7
			s3.4-2.3,3.7-3.7s0.7-4.8,0-5.6s-1.9-1.9-1.9-1.9v-3.7l-1.9-3.7c1.2,0.4,2.5,0.4,3.7,0c1.8-0.7,4.4-2,5.6-1.9
			c1.2,0.1,2.5,0.1,3.7,0l4.7,0.5l5.8-1.2c0,0,3.6-2.1,4.5-1.1c1.6,1.6,3.5,2.9,5.6,3.7c0.9,1.1,1.7,2.2,2.5,3.4
			c1,1.5,0.1,1.5,1.3,4c0.8,2.1,2.1,4,3.7,5.6c1.7,1.5,3.7,3.7,3.7,3.7l-1.9,5.6c0,0,5-1.1,5.6,0s3.3,2.5,3.7,3.7
			c0.8,2.3,1.4,1.8,2.8,2.6c0.9,0.6,1.9,1,2.9,1.3l3.6,1.7v7.5c0,0-0.2,5.4,0.4,7c0.3,0.8-4.8-1.4-6-1.4s-3.8,0.9-3.7,1.9
			s0,3.7,0,3.7s3.4,1.2,3.7,1.9c0.5,1.2,0,7.5,0,7.5c-0.6,0.1-1.2,0.1-1.9,0c-1.8-0.1-1.4-0.4-3.7,1.9s-3.2,3.9-5.6,5.6
			s-3.7,0-3.7,0l-3.7,1.9l-3.7,3.7c0,0-2.7,0.6-3.7,0c-0.8-0.4,4.1-8.2,3.7-7.5l-0.1,0.1c0.7-1.2,1.4-2.5,1.9-3.8
			c0.2-0.9,1.9-5.6,1.9-5.6v-7.5c-0.9-1.1-1.5-2.4-1.9-3.7c-0.3-1.9-0.3-3.7,0-5.6h-7.4v-5.6h5.6c0.4,0.8,1,1.5,1.9,1.9
			c1.3,0.4,1.9-1.9,1.9-1.9l1.9-3.7c0,0-2.9,0.6-3.7-1.9s-3.7-3.7-3.7-3.7l-3.7,1.9c0,0-2.2,8.2-1.9,9.3s-1.9,3.7-1.9,3.7
			s-2.7-0.8-1.9,1.9s1.5,4.7,1.9,5.6s-2.2,1.6,0,3.7s0.5,5.5,1.9,5.6s4,1.1,3.7,1.9s1.3,2.5,0,3.7s-6.5,2.5-7.5,1.9
			s-1.9-3.7-1.9-3.7s-0.4-4.6-1.9-3.7S44,1057,44,1057S39,1057.1,38.3,1056.7z"/>
		<path class="st0" d="M792.1,838l7.5-1.9l1.9-3.7l3.7-3.7l-7.5-5.7h5.6c0,0,4.6,4.6,5.6,3.7s5.6-3.7,5.6-3.7l3.7-7.5l3.7-5.6
			c0,0,3.1,1.7,3.7,3.7s-1.5,6.4-1.9,7.5s0,5-1.9,5.6s-4.6,4.3-5.6,3.7s-4.4,0.7-5.6,1.9l-5.6,5.6c0,0-0.9,1.2-3.7,1.9
			s-1.6,0.2-1.9,1.9s1.9,3.7,1.9,3.7s-6.2,0.6-5.6,1.9s-1.9,7.5-1.9,7.5l3.7,1.9l-3.7,3.8h-3.7l-3.7-3.7l3.7-5.6l1.9-3.7l-1.9-5.6
			L792.1,838z"/>
		<path class="st4" d="M609.1,301.3c0,0,4.8-8,5.6-11.2s2.7-7.2,0-9.3s-3.5-1.5-7.5-5.6s-4.2-3-5.6-5.6c-1-2.2-3.2-3.7-5.6-3.7
			c-2.2-0.1-1.9-7.5-1.9-7.5c1.9-1.4,3.2-3.3,3.7-5.6c0.6-3.4,0-22.4,0-22.4c1.8-0.9,3.7-1.5,5.6-1.9c2.5-0.2,5-0.2,7.5,0l3.7-5.6
			c0,0,3.9-5.7,5.6-3.7c0.9,1.1,2.3,1.8,3.7,1.9l5.6-11.2c0,0,5.3-2.3,5.6-3.7c0.1-1.9,0.1-3.7,0-5.6c0,0-5.6-5-5.6-7.5
			s-3.7-11.2-3.7-11.2s2.6-4.5,3.7-3.7s7.5,0,7.5,0l7.5,7.5c1.3,2.3,3.3,4.3,5.6,5.6c3.5,1.8,13.1-1.9,13.1-1.9s5.7-0.5,7.5,1.9
			s8.6,2.3,9.3,0s8-12,9.3-13.1s1.9-11.2,1.9-11.2s-4-7.1-3.7-9.3s-3.7-11.2-3.7-11.2s4.3-6.3,5.6-7.5s11.2-5.6,11.2-5.6
			s4.4-9.8,3.7-11.2s-3.7-21.1-1.9-22.4s4.7-6,5.6-7.5s1.9-14.9,1.9-14.9V60.7c0,0-6.5-16.3-9.3-22.4s-3.5-8.1-3.7-11.2
			s5.6-11.2,5.6-11.2l1.9-9.3l3.8,1.9h7.5l3.7-7.5c0,0,3.9,7.4,5.6,9.3s8.4,6.7,11.2,9.3s13.1,20.9,16.8,26.1s7.3,12.2,9.3,14.9
			s17.4,21,20.5,22.4s14.9,13.1,14.9,13.1s14,4.9,14.9,7.5s7.6,3.9,7.5,5.6s1.9,5.6,1.9,5.6l9.3,1.9c0,0,2.3,1.7,3.7,0
			s5.6-3.7,5.6-3.7l5.6,3.7l-1.9,5.6c0,0,5.1,5.9,5.6,3.7s3.7-9.3,3.7-9.3s5,8,5.6,9.3s10.8,6.3,13.1,5.6s11.2-1.9,11.2-1.9l13.1-13
			c0,0,9.6-4.3,9.3-5.6s11.2-11.2,11.2-11.2s2.9,1.7,1.9,3.7s-7.5,14.9-7.5,14.9l-3.7,11.2l-7.5,11.2l1.9,5.6l5.6,7.5l3.7,3.7
			l5.6,3.7l-7.5,1.9l1.9,7.5l1.9,5.6l3.7,5.6l3.7,1.9l11.2-9.3h9.3l1.9,3.7L932,182l-3.7,9.3c0,0-8.2,1.4-13,1.9
			c-3.2,0.3-6.3,1-9.3,1.9l-3.7,5.6c0,0-9.4,4.7-11.2,5.6s-5.6-3.7-5.6-3.7s-5.4-0.7-3.7,3.7s2.4,3,0,3.7s-14.3,2.8-18.7,0
			s-5.6-5.6-5.6-5.6s-11,2.3-13.1,3.7s-13.3,10.6-16.8,13.1S802.1,249,801.3,251s-1.9,14.9-1.9,14.9v13l-5.6,3.7v5.6
			c0,0-16.9-15.4-16.8-16.6s-18.4-4.7-24.7-10s-13.3-8.5-16.3-10.7s-13.1-5.6-13.1-5.6l-7.5-7.5c0,0-13.3-3.7-14.9-3.7
			s-9.8,4.2-13.1,5.6s-11.7,4.7-13,7.5s-7.5,7.5-7.5,7.5l-1.9,3.7c-1.5-2.7-3.4-5.2-5.6-7.5c-3.4-3.3-4.2-5.7-5.6-7.5
			s-3.7-5.6-3.7-5.6s-8.1-1.5-9.3,0s-5.6-1.9-5.6-1.9l-9.4,11.2c0,0-3.3,7.9-1.9,11.2c1.5,3.3,3.8,4.6,5.6,7.5s6.1,4.8,7.5,5.6
			s6,2.4,7.5,1.9s9.3,3.7,9.3,3.7c2,2.4,3.9,4.9,5.6,7.5c1.5,2.2,3.4,4.1,5.6,5.6l7.5,3.7c0,0,3.6,8.6,0,9.3s-8.8,5.5-11.2,3.7
			s-11.2-7.5-11.2-7.5l-3.7-3.7l-5.6,5.6c0,0-8.1,7.6-9.3,7.5s2.7,7.6,1.9,9.3s-13,7.5-13,7.5l-3.7,3.7l-7.5-3.7
			c0,0-3.9-5.6-3.7-7.5s-1.4-8.6,0-9.3S609.1,301.3,609.1,301.3z"/>
		<path class="st4" d="M601.7,387.1c0,0,6.3-11.2,7.5-9.3s11.2-1.9,11.2-1.9l1.9-7.5c0,0,3.5-4.2,3.7-5.6s1.9-7.5,1.9-7.5l-3.8-7.5
			c1.3-1.8,2.6-3.7,3.7-5.6c0.7-1.4,5.6,3.7,5.6,3.7l7.5-3.7l1.9,7.5c0,0,1.5,7,1.9,9.3s0,13,0,13h9.3l3.8-11.2l7.5,1.9l7.5,5.6
			c0,0,4,0.7,3.7-3.7c0-3.2,0.6-6.4,1.9-9.3l3.7-9.3l-3.7-5.6c0,0-9.7,2.9-11.2,3.7s-10.3,0.6-11.2,1.9s-3.7-5.6-3.7-5.6l1.9-7.5
			l5.6-11.2h5.6l5.6,1.9l5.6,9.3h3.7l9.3-5.6l-1.9,18.6c0,0-2.2,18.8-1.9,22.4s2.4,12.8,3.7,14.9s3.2,3.8,3.7,5.6s7.5,9.3,7.5,9.3
			l3.7,3.7l-3.7,3.7l-9.3,1.9l-7,1.4l-11.1,6.9c0,0-5,0.1-6.2,1.1s-9,2.7-9,2.7l2-8.5l3.3-7.3c0,0-5.8,1.6-5.6,0
			c0.2-1.9-1.9-5.6-1.9-5.6l-8.1,7.6c-1.5-1-3.2-1.7-5-2c-2.5-0.3-5.6,1.9-5.6,1.9l-5.6-5.6l-9.3,3.7c-1.7-0.6-3.5-1-5.3-1.3
			c-1.6-0.1-7.7-2.4-7.7-2.4l-1.7,6.1l-3.9-6.1l-1.9-7.5l-3.7-1.9L601.7,387.1z"/>
		<path class="st4" d="M698.6,512l-5.6-1.9l-1.9,9.3c0,0-4.1,6.1-4.5,6.1c-1,0.2-5.2-0.7-6.2-1s-6.2,2.3-6.2,2.3
			c0.2-0.1-1-1.7-1.3-2.4c-1.5-3.7-3.4-7.1-3.4-7.1c-0.9,0-1.8,0-2.7,0.2c-1.7,0.2-6.5,0.6-7.5,0c-1.3-1.2-2.6-2.4-3.7-3.7l-1.9-1.9
			l-1.3-1.3l-0.5-6.1l-1.9-3.7c0,0,1.6-5.6,1-6.9l-1-4.3l-3.7-5.6c-0.6-1.7-0.8-3.6-0.5-5.4s1.8-6.4,1.8-6.4s0-4.7,0.6-5
			c1.3-1.2,2.6-2.4,3.7-3.7l1.4-4.9c-0.9-1.3-1.4-2.8-1.4-4.4c-0.1-3.5,1.2-5.1,1.9-7.5c0.5-1.8,1.5-2.8,1.5-4
			c0.2-1.6,0.3-3.1,0.3-4.7c-0.1-2,0.4-3.7-0.2-5.8c-0.2-0.8,0-3.6,0.7-3.6s0.8-4.4,0.8-4.4c0.4-1.2,0.6-2.4,0.7-3.6
			c0-1.1,1.9-1.9,1.9-1.9l7.5-1.9c0,0,8.1-0.9,7.5-1.9s7.9-4.9,7.9-4.9l5.3-1.8l7.8-1.6l5-1l3.7-3.7c0,0,10.3,9.6,9.3,11.2
			s0.9,6.5,0,7.5s-0.9,8.4,0,7.5s0,1.9,0,1.9s3.7,5.6,5.6,9.3s1.9,15.1,1.9,18.6s2.2,5.9,1.9,7.5s1.9,6.2,1.9,5.6s-0.6,0-1.9,1.9
			s-2.5,4.7-1.9,5.6s-0.3,2.2-1.9,3.7c-1.4,1.5-2.1,3.6-1.9,5.6c0.5,1.3,1.1,2.6,1.9,3.7c0.3,0.6,0.6,1.9-1.9,3.7s-1.5,4.3-1.9,5.6
			s2.2,3.7,0,3.7c-1.5,0-2.8,0.7-3.7,1.9c-0.6,0.6,0.3,4.4-1.9,3.7s-5.3-0.3-5.6,1.9s-3.7,3.7-3.7,3.7L698.6,512z"/>
		<path class="st4" d="M592.3,437.4c0,0,3.1,1.3,5.6,0s7.8-4.3,7.5-7.5s0.9-5,1.9-7.5c0.8-2.4,1.4-4.9,1.9-7.5v-3.7l-1.9-5.6
			l1.9-5.6l5.6,1.9l7.5,1.9l6.7-2.7l2.6-1l5.6,5.6l5.6-1.9c0,0,6.2,2.8,5.6,1.9s3.4-2.5,3.7-3.7s3.7-3.7,3.7-3.7l1.9,5.6h5.6
			c0,0-1,2.3-1.5,3.3c-0.7,1.3-2.3,4.1-2.3,4.1l-1.5,8.3l-0.3,2.9c-0.9,0.9-1.9,9.3-1.9,9.3v9.3c0,0-1.3,5.9-1.9,5.6
			s-1.5,3.7-1.9,5.6s1.3,6.6,1.3,6.6c-0.9,1.9-1.7,3.8-2.4,5.8c0,0.6-2,2.9-2.7,2.6s0.9,3.7,0,3.7s-0.6,5.3-1.9,5.6s0,7.5,0,7.5
			s3.7,4.7,3.7,5.6s1.2,7.6,1.2,7.6l-1.2,3.6l1.9,3.7l0.5,5.6l-7.2,4.7c-0.2,1-0.9,1.9-1.7,2.4c-2,1-6.8,2.8-6.5,2.2
			s-5.6-2.8-5.6-3.7s-3.7-7.5-3.7-7.5l-7.5-1.9l-6-0.5c-0.9,0-4.6-2.2-5.2-3.2s-5.6-0.5-5.6-0.5l-1.9-1.4l-1.9-1.9v-5.6
			c0-1.2,2.8-7.8,3.7-7.5s4.3-3.1,3.7-3.7s1.9-9.3,1.9-9.3v-11.2c0,0,1.9-4,1.9-5.6s-1.9-5.6-1.9-5.6l-3.7-5.6l-3.7-1.9
			c0,0-5.9-0.6-5.6,0s0,3.7,0,3.7h-5.6l-1.9-1.9V441L592.3,437.4z"/>
		<path class="st4" d="M640.4,536.2c0,0-4.6,3.1-3.3,7.6c0.3,1.2,3.7,3.7,3.7,3.7l-1.6,4.7c0,0-0.9,1.8-1.5,2.1s-2.2,1.4-3.1,4.7
			c-1,3.8-1,9.3-1.3,10.8s0.2,3.6-1.4,5.1c-1.5,1.5-3.2,2.8-5.1,3.7c-1.4,0.7-4.3,0.3-4.7,2.4c-0.5,2.5,0.3,5.6,0,5.6h8.8
			c1.1,0.5,2.1,1,3.1,1.7c1,1,2.4,1.6,3.8,1.8c3.4,0.5,3-0.6,5.4,0.2c1.9,0.7,1.3-0.9,1.8,1.8c0.4,1.7,1,3.3,1.8,4.9l1.3,2.7l6.8-6
			l4.3-1.5v-9.3c0-0.9,2.5-12.4,1.9-13.1s2.8-8.7,3.7-9.3l5.6-3.7l5.6-3.7h5.6c0,0,0.6-3.1,3.7,0s9.3,11.2,9.3,11.2s2.8-1.5,1.9-3.7
			s-5.6-8.4-5.6-9.3s1.5-1.3,1.9-3.7c0.2-2.5,0.2-5,0-7.5l-1.9-1.9c0,0,2.8-3.4,1.9-3.7s2.2-0.9,1.9-1.9c-0.6-1.3-1.2-2.5-1.9-3.7
			c0,0,4-5.6,3.7-5.6s3.7-3.4,3.7-3.7c-0.2-1.2-0.2-2.5,0-3.7c0.3-1.3-1.6-3.2-1.6-3.2l-3.8-1.7l-2.1-0.2l-1,5.1
			c0.3,1.3,0,2.6-0.7,3.7c-1.3,1.9-3.2,5.1-3.7,5.6c-1.2,0.5-2.5,0.5-3.7,0c-1.9-1-5.6,0-5.6,0l-3.8,1.9l-3-5.5l-1.7-4l-10.2,0.2
			c0,0-2.1-3.3-3.1-3s-3.1-4.5-4.4-4.2c-1,0.4-1.9,1.1-2.6,2c0,0-4.5,2.7-4.9,3.3c-1,1.6-6,4.4-7,3.8s1.4,1.8,1.4,1.8s4,6.5,3.7,7.5
			c-0.2,1.2-0.2,2.5,0,3.7L640.4,536.2z"/>
		<path class="st4" d="M581.1,543.8c-0.3-0.9-1.9-7.1,1.9-9.3s7.2-1.5,7.5-3.7s4.3-5.6,3.7-7.5s1.9-6.2,1.9-7.5c0.4-2.5,1-5,1.9-7.5
			c0.3-0.6,1.9-9.3,1.9-9.3s1.6,2.8,3.7,3.3c1.6,0.2,3.2,0.2,4.7,0l4.7,3.5l8.8,1l6.1,1.5l3.7,7.5l5.6,3.7l3.7,5.6l1.9,3.7
			c0,0-0.5,6.5-1.4,6.8s-3.9,3.1-4.2,4.4c-0.2,1.2-0.2,2.5,0,3.7c0-0.6,3.7,3.7,3.7,3.7L639,553l-3.7,3.7c0,0-2.2,8.1-1.9,7.5
			s0,5.6,0,5.6v3.7l-4.7,4.2l-3.7,1.9c0.4-0.2-2.7,0.1-2.7,1.4v16.8c0,0-3.7,3.1-3.7,3.7s-5.3,3.1-5.6,1.9s-9.3-5.6-9.3-5.6h-11.2
			c0,0-5.3-2.8-5.6-3.7s-1.9-9.3-1.9-9.3l1.9-7.5l2.5-4.2c1.1-1,2.2-1.9,3.4-2.7c1.5-0.6,5.4-3.7,5.4-3.7s2.1-3.7,1.8-4.3
			s-1.9-5.6-1.9-5.6h-5.6c0,0-1.1-5-1.9-5.6c-1.1-0.9-2.1-1.9-3.1-2.9l-2.6-2.3C584.8,546,581.5,544.7,581.1,543.8z"/>
		<path class="st4" d="M562.5,624c0,0,4.6-1.4,6.5-1.7c1.3-0.2,9.2-3.2,8.6-2.8s4.4-2,4.4-2s-1.9-4.6,0.1-8.4
			c0.6-1.2,2.7-5.6,2.7-5.6s1.9-2.3,2.3-3.2c0.8-1.4,3.3-3.3,3.3-2.4c0,0.6,7.5,0,7.5,0h5.6c0,0,7,3.3,7.5,3.7
			c2,2.2,3.4,2.2,4.9,1.6c2-0.8,5.2-4.3,5.2-4.3l1.1-1.3v-10.9h9.3l5.6,3.7h7.5l1.9,5.6l1.9,3.7l3.2-2.8l4.4-3.5l3.6-1.2
			c0,0,5.3,8.1,5.6,9.3s0,10.6,0,11.2s2.8,14.6,1.9,18.7s-0.9,12.1-1.9,13.1s0.9,8.4,0,9.3s-5.9,9.6-7.5,9.3s-5.3,4.3-5.6,3.7
			s-5.6-3.7-5.6-3.7h-5.6l-5.6,5.6l-3.7,1.9c-1.3-1.2-2.6-2.4-3.7-3.7c-1.5-1.9-5.6-7.5-5.6-7.5c-1.3-1.2-2.6-2.4-3.7-3.7
			c-1.3-1.5-5.9-7.8-5.6-7.5l0,0c0,0-3.5-4-5.6-3.8s-9,1.3-9.3,1.9s-1.5,4.7-5.6,5.6s-10.3,4.3-11.2,5.6s-7.5,3.7-7.5,3.7
			s-4.3,1.2-4.9,1c-2-0.8-6.3-4.7-6.3-4.7l-1.9-7.5l0.2-7l-2.1-6.1l3.7-3.7l0.4-3.1L562.5,624z"/>
		<path class="st4" d="M573.7,704.2c0,0-2.8-3.4-1.9-5.6s1.3-9,1.9-9.3s0-3.7,0-3.7l-5-6.2v-3.7l1.3-3.2v-5.6v-4.7l7.4-2.8
			c0,0,8.1-5.3,9.3-5.6s6.4-2.1,7-2.4c1-0.8,2-1.7,2.9-2.6l1.3-2.5l9.3-1.9l2.6,1l12.3,14c0,0-0.5,1-0.2,4.5c0.3,4.5,0,6.7-1.6,8.6
			c-0.5,0.5-1.9,1.9-1.9,1.9v9.3c0,0,1.4,7.1,1.3,9c-0.3,2-0.8,3.9-1.3,5.9c0,0-5.9,1.6-7.5,1.9c-1.9,0.3-5.3,2.4-7.5,3.7
			c-0.9,0.6-4.7,4.1-5.9,4.7c-0.6,0.3,0,0-1.5,0.9s-7.4,2.9-7.5,3.7c0,0.6-1.6-1.6-3.2-2.7c-2.4-1.7-5.1-2.7-8-2.9
			C576.8,707.9,573.7,704.2,573.7,704.2z"/>
		<path class="st4" d="M544.7,664.6c1.2-1.8,2.3-3.7,3.1-5.7c0.9-2.5,0.8-2.8,4.6-4.3c2.5-1,8.3-4.1,8.3-4.1l1.2,4.7l1.2,2.8
			l6.8,5.1c0,0,0.6,6.8,0,9.3s-1.6,4.4-1.3,5.9c0.5,1.3,1.2,2.6,2.2,3.6l2.9,4.2c0,0-0.3,6.4-1.1,8.3c-0.5,1.3-2.1,5.7-0.2,7.8
			c1.5,1.7,3.7,3.8,4,4.9s2.8,0.7,2.8,0.7l7.7,4c0,0-8.3,1.3-9.6,1.6s-3.7,1.3-5.6,0s-5.9-3.6-7.5-3.7c-2.8-0.3-2.7-0.4-7.5-1.9
			c-0.8,1.8-1.7,3.6-2.7,5.3c-0.9,1.3-2.3,7.5-4.8,7.7c-2,0.3-3.9,0.9-5.6,1.9c-0.9,0.3-6.5,2.8-7.5,3.7s-5.6,1.9-5.6,1.9
			s-4-2.5-3.7-3.7s-0.6-6-0.3-6.6s-1.5-3-1.5-3.3s1.2-6.8,1.8-8.7s-0.6-4.7,0-5.6s-3.7-3.7-3.7-3.7l-2.3,3.8
			c-1.2-0.4-2.4-1.1-3.3-1.9c-1.9-1.5-4.7-3.7-5.6-5.6c-0.3-0.6,1.9-9.3,1.9-9.3s7.2-4.7,7.5-5.6s8.1-4,7.5-3.7s2.5,0.4,3.1-0.2
			s3.9-1.1,3.9-1.1l2.4-3.3l3.1-2.5L544.7,664.6z"/>
		<path class="st4" d="M639,698.6c0,0-0.3,14,0,14.9s0.9,6.5,1.9,7.5s1.9,5.6,1.9,5.6s3.1,7.5,3.7,7.5s4,8.4,5.6,9.3
			c1.8,1.4,3.5,2.9,5.1,4.5l-8.8-6.4l-8.7-6.9l-4.3-2.5c0,0-4.5,2.1-6.8,5.1c-1.3,1.7-10.3,1.2-11.8,0.5s-13.4-3.1-13.1-3.7
			s-2.5-3-3.7-5.6c-0.8-1.7-5.6-5.6-5.6-5.6s-6.2-0.6-5.6-1.9s0-3.7,0-3.7v-3.7c0-0.9,10.2-5.2,10.2-5.2s3.7-3.3,3-2.7
			c-0.9,0.7,3.8-1.8,4.5-2.8s6.7-2.3,6.7-2.3l5.5-1.9l1-3.9v-5.2c-0.6-2.5-0.9-5.1-1-7.7c0-3.4-0.9-7.1,0-7.5s3.3-2.9,3.7-5.6
			c0.2-1.4,0-9.3,0-9.3s5.9,8.1,6.6,8.6c1,0.7,2,1.6,2.7,2.6c1.9-0.7,3.6-1.7,5-3.2c2.4-2.5,4.3-4.3,5.2-4.3s4.3-0.6,4.7,0
			s5.6,3.7,5.6,3.7s0,7.2-1.9,9.3s-5.3,8.1-5.6,9.3s-0.9,7.8-1.9,7.5S639,698.6,639,698.6z"/>
		<path class="st4" d="M573.7,564.3c0.3,0.6,0.9-8.7,1.9-9.3s0.9-4.6,0.9-4.6l4.7-6.6c1.9,1.1,3.8,2.4,5.6,3.7
			c2.4,2,4.3,4.6,5.2,7.6c0.6,2.1,1.5,1.9,3.3,1.7c0.9-0.1,1.7-0.1,2.6,0l1.9,5.6c0,0-2.5,6.2-5.6,7.5s-5.6,4-5.6,3.7
			s-2.4,6.2-2.7,7c-1.5,4.3-0.6,6.5-0.6,6.5s0.5,6.1,1.4,7s5.7,3.6,4.7,3.3s-6.9,4.8-6.6,6.1s-4.3,7.1-3.7,9.3s1.9,5.3,0,5.6
			s-11.1,3.8-11.1,3.8s-7.8,1.3-7.5,1.9s0.6,8.4,0,9.3s-3.9,2.7-3.8,3.7c0.5,2.8,0.6,3.7,1.9,5.6s0,6.8,0,7.5s-1.3,1.3-1.9,1.9
			s-9.3,3.7-9.3,3.7l-3.7,7.5c0,0,0,0.9-3.7,3.7s-5.3,4-5.6,5.6s-8.1,2.2-7.5,1.9s-0.8-2.6-0.6-5.1c-0.1-0.6-0.3-1.1-0.6-1.6
			c-1.1-1.3-2-2.8-2.5-4.5c-0.9-2.8-1.9-3.1-1.9-5.6s-0.3-4.7-1.9-3.7s-6.8,1.9-7.5,3.7s-4.2,4.2-5.6,5.6c-2.7,2.6-4.4,6-5.6,5.6
			s-5.6-2.5-5.6-1.9s-3.7,2.6-3.7,1.9s-1.9-3.7-1.9-3.7l-3.7-1.9l-1.9-1.9l-4.3,5.2l-5,7.8c-0.8-1.1-1.4-2.4-1.9-3.7
			c-0.9-2.7-1.3-5.6-1-8.5l-2.8-2.7l-1.9-1.9c0,0,5.9-3.1,7.5-3.7s10.9-2.5,11.2-3.7s5.6-5.6,5.6-5.6l5.6-1.9c0.9-0.3,8.1,1.5,9.3,0
			s3.7-5.9,7.5-9.3c3.8-3.4,9-3.7,9.3-5.6c0.3-2.9,1.6-5.5,3.7-7.5c3.1-3.1,4-6.5,5.6-7.5s2.5-5,1.9-5.6s1.9-11.2,1.9-11.2
			s7.5-5.9,11.2-7.5s8.4-0.6,11.2-3.7s7.8-5,9.3-7.5c1.1-1.8,3.9-4.9,3.7-5.6C573.1,569.3,573.4,563.7,573.7,564.3z"/>
		<path class="st4" d="M504.7,575.5c0,0,5.6-3.7,5.6-5.6s3.4-4,3.7-5.6s3.7-5.6,3.7-5.6s1.5,7.8,0,11.2s-2.2,7.5-1.9,7.5
			s1.9,1.3,1.9,1.9s5.3-2.8,5.6-1.9s0,5.6,0,5.6s-3.1,0.3-3.7,1.9s-1.3,5.3-3.7,7.5s-6.2,6.2-7.5,5.6s-5.6-1.8-5.6-1.8
			s3.4-3.7,3.7-5.6s0.9-1.5,1.9-3.7s-0.3-6.2,0-5.6s-3.7,3.7-3.7,3.7s-0.9,1.9-1.9,0s2.5-5.6,1.9-5.6S504.7,575.5,504.7,575.5z"/>
		<path class="st4" d="M531.7,728.4c0.9,0,6.6-2.8,8.4-3.7s6.8-4,7.5-3.7s2.2,1.3,3.7-1.9l3.7-7.5c0.9-1.9,0.6-4,1.9-3.7
			s9.3,1.8,10.2,2.7s4.7,3.3,6,3.5c3.4,0.3,5.5-0.4,8.4-0.9c0.7-0.1,3.8-1.3,4.4-1l2.7,1.4v7.5c0,0-0.4,1.4,2.4,1.4
			c3.7,0,5.5,3.1,4.8,3.8s-0.9,2,0.3,4.2s4,6.7,3.3,7.7s1.1,4.8,0.4,5.4s-7.4-0.9-8.8-0.3c-4.4,1.8-7.8-1.4-10.9,1.1
			c-2.3,2-5.5,2.4-8.2,1c-2.2-0.9-6.8-4.7-9.3-5.6s-8.6-3.7-9.3-3.7c-3.6,0-6.2,3.1-5.6,1.9l-2.5,1.5c1.1-0.1-5.9,0.6-8.7-1.5
			c-1.4-1.1-2.6-2.4-3.7-3.7C532.7,734,530.8,728.4,531.7,728.4z"/>
		<path class="st4" d="M642.7,750.8c0,0-7.2,7.8-9.3,9.3s-3.4,5-3.7,5.6s-0.9,4,0,5.6s0.6,13.4,0,13s-0.3,1.9-3.7,3.7
			s-12.7,3.7-13,3.7s-3.4,2.5-5.6,5.6s-3.7,5.6-3.7,5.6l-3.7,3.7l-5.6-3.7c0,0-2.3-3.3-1.9-3.7c0.8-0.8,2.5-0.9,3.7-1.9
			s2.8-5,1.9-9.3s-1.2-3.4,0-5.6c0.8-1.1,0.8-2.6,0-3.7c0,0-4.3-1.5-3.7-1.9s2.2-2.5,3.7-3.7s2.8-5,3.7-5.6c2-1.1,3.8-2.3,5.6-3.7
			c2.2-1.9,6.2-3.1,5.6-5.6s-5.6-5.6-5.6-5.6h-3.7l-1.9,3.7l-1.9-9.3c-0.3-1.5,0.8-4.6,0.2-4.3s-1-8-1-8l0.3,1.5
			c-0.3-1.9-1.2-3.7-2.6-5l-1.7-4.5l1.8-1.7l6.7,8.9c0,0,8.7,2.8,10.9,3.1c1.1,0.2,2.9,1.8,6,1.1s5.2,1.3,7.3-0.5s7.5-5.6,7.5-5.6
			l3.8,1.9c-0.6-0.3,9,7.8,9.3,7.5s7.5,5.6,7.5,5.6v1.9H654c-1.9,0-7.1,2.8-7.5,1.9S642.7,750.8,642.7,750.8z"/>
		<path class="st4" d="M546.3,738.5c0,0,4.8-3,6.8-2.6c3.2,0.9,6.3,2.2,9.3,3.7c1.2,0.8,5.6,3.4,6.2,3.8c1.5,0.9,3.1,1.8,4.7,2.6
			c1.4,0.7,2.9-0.4,4-0.8s3-1,3.7-1.9s7,1.6,9.3,0s5.6,0,5.6,0h3.7c0,0-0.2,5.4,0.7,7.3s-4.5,3.9-4.5,3.9c-0.5,0.7-1.2,1.3-1.9,1.9
			c-0.7,0.4-0.3,7.8-1.9,7.1s-1.3-2.8-4.3-4.3c-1.7-0.8-3.4-1.8-5.1-2.8c0,0-7.6,0.6-7.5,0s0.2,2-0.7,2.8s-0.1,2.2-3,1
			s-2.7-0.4-7.5-1.9s-7.1-3.9-7.5-5.6s-1.3,0.3-3.7-1.9s-2.7-0.9-3.6-3c-0.8-1.7-3.8-4.5-3.8-4.5L546.3,738.5z"/>
		<path class="st4" d="M555,762l1.9-5.6l-0.4-4.4c0,0,1.1,3.8,8.6,6.6c1.7,0.3,3.3,0.5,5,0.6l3.8,1.8l1.7-4.6c0,0,5.6,0,6.3,0.4
			s2.6-0.9,4.9,1.5l3.8,3l1.8,2.6c0,0-4.8,0.9-5.6,1.9s-3.3,4.4-1.9,5.6s1.3,6.2,1.9,7.5s3.7,3.7,3.7,3.7c-1,0.1-1.8,0.9-1.9,1.9
			c-0.2,1.8-0.4,5.2-1.9,5.6s-3.7-3.7-3.7-3.7c-0.7-1.8-1.3-3.7-1.9-5.6c-0.3-1.6-3.7-3.7-3.7-3.7c-1.2,0.1-2.5,0.1-3.7,0
			c-0.7-0.3-5.7,0.2-7.5,1.9s-6.6,2.4-7.5,3.7s-1.9,5.6-1.9,5.6l-3.7,1.9c0,0-3.7-0.6-3.7-3.7s-1.7-6.7-0.3-9c0.9-1.2,1-2.8,0.3-4.1
			c0,0-1-2.8-2.3-3.1s-2.8-2.5-2.8-2.5l5.2-3.7L555,762z"/>
		<path class="st4" d="M476.7,674.3c0,0,3.9-4.7,3.7-5.6s5.6-7.5,5.6-7.5s6.5,4.3,6.9,6.1c0.7,2.9,3.4-0.9,6,0.4
			c1.4,0.5,2.8,0.8,4.3,1l5.9-6.2c1.7-0.8,3.2-2.2,4.1-3.9c1.5-3.4,7.5-4.4,7.5-4.4s2.6-1.5,2.4,0.7c-0.2,2.6,1.3,6.4,1.3,6.4
			s0.9,4.3,2.6,5.6s1.3,4.4,1.9,5.6s1.5,2.3,0,1.9s-5.8,2.6-8,4.3c-3.5,2.9-5.5,3.5-6.9,5s-0.5,3-1.4,6.2s-0.3,2.4,0.5,4.5
			s5.3,4.7,5.3,4.7s3.5,2.1,3.1,1.3s0.7-3.1,1.9-3.7c1.6-0.8,3.7,3.7,3.7,3.7v7.5c0,0-1.1,3.7-1.9,5.6s1.3,0.6,1.6,4.6
			c0.3,4.7,0.3,7.1,0.3,7.1l4.1,3.2l0.5,2.3c0,0,1.3,2.7-1.4,3.5c-3.2,1.1-4.6,2.2-7-0.3s-1.7-2.4-3.7-1.9s-2-0.4-3.7,0
			s-3.8,1-3.8,1s0-0.7-4.2,2.1c-3.9,2.6-3.2,2.5-3.2,2.5s0,4.7-1.9,7.5c-2.3,3.4-1.4,1.6-1.2,5.6c0.2,3.5-0.2,7-1.1,10.4
			c-1.1,2.8-2,5.6-2.7,8.4c-0.7,3-0.8,2.4-6,4.3c-2.8,1-2.3,3.6-5.2,5.8c-2.5,2-5.4,3.2-7,4.4c-1.8,1.4-7.8-1.7-8.5-1.7
			s-2.3,1.4-3.7,1.9s-3.7-4.5-3.7-4.5s0.6-5.4,1.8-6.6c5.6-5.6,5.6-3.5,2.9-8.6c-0.9-1.8-6.9-2.8-5.5-5.1s2.9-4.2,0.8-6.8
			c-0.9-1.1-2-0.6-3.2-4s-1.4-3.4-4.3-5.3c-1.7-1.1-2.5-3.1-1.9-5c0-0.9,0.1-1.8,0.4-2.6c0.6-1.5,1.6-0.5,4.3-2
			c2.1-1.3,4.1-2.9,6-4.5c0,0,2.3-3.5,1.9-5c-0.2-0.9-2.5-2.3-2.5-2.3s-1,0.4-1.2-2.5c-0.1-1.8,1.1-2.8,2.2-6s1-4.9,1.9-5.6
			s2.5-2.3,1.9-3.7s-1.9-3.7-1.9-3.7l-1.2-2.4l3.1-5.8l5.6-4.8c0.6-1.8,1-3.6,1.3-5.4C476.3,680.6,476.7,674.3,476.7,674.3z"/>
		<path class="st4" d="M511.9,776.4c0,0,0.2,5.4,2.1,8s4.6,1.9,5.6,1.9s2-10,1.9-11.2s4.2-4.9,3.7-5.6s1.1,3.3,1.9,3.7
			c1.9,0.5,3.9,1,5.9,1.3c0,0,1.1-2,1.6-3.2s5.6,0,5.6,0l8.7-0.3c0,0-5.5-2.7-4.5-3.7c1.6-1.5,3.6-2.8,5.7-3.6
			c7.2-2.1,4.7-2.5,6.2-5.2c0.3-0.6,0.3-6.5,0.3-6.5s-4.8-1-6.4-3.2c-1.3-1.9-2.8-3.7-4.4-5.4c0,0,1.1-5.1,0.2-4.6
			c-2.5,1.6-9.6-1-9.6-1l-3.9-4.2l-6.7,2.3l-2.5-1.9c-0.6-1.5-2.2-2.3-3.7-1.9c-1.8,0.4-3.8,0.4-5.6,0l-7.5,3.7
			c-1,0-1.9,0.8-1.9,1.9c-0.5,4.3-0.9,5.6-1.9,7.5c-0.4,0.7-2,2.7-1.9,3.7s0,3,0.8,3.7s3.2,3.6,3.2,3.6s-1.8,4.1-0.2,7.7
			s2.3,9.8,2.9,10.7C508.3,776.2,510.2,777,511.9,776.4z"/>
		<path class="st4" d="M424.4,668.7l0.2-5.1c0,0,0.3-1.2,3.5-4.2c2-1.8,4.8-2.5,7.5-1.9l-1.9,7.5c-0.2,1.2-0.2,2.5,0,3.7
			c0.3,1.9,4.1,4.2,5.6,5.6s5.2,2.3,7.5,1.9c2.3-0.4,4.3-1.7,5.6-3.7c1.5-2.2,3.6-2.8,3.7-5.6s-0.5-4.7,1.9-5.6c2-1,3.9-2.3,5.6-3.7
			h5.6c0,0,2.4,3,3.7,3.7c0.9,0.5,0.8,4.1,0.8,4.1c-0.3,1.8,0.1,3.7,1.1,5.2c1.3,1.6,1.9,3.6,1.9,5.6c0,6.1-1.9,11.3-2.6,11.8
			s-5.4,4.3-6.2,6.8s-1,4-4.2,3.8s-6.2,0.1-8.1-1.4c-2-1.4-4.4-2.2-6.8-2.4c-2.3-0.3-6.4-1.4-6.9-0.3s-1.8,1.2-1.9,2.1
			c-1,3.7-2.7,7.3-5.1,10.3c-1.7,2-2.3,2.1-4.7-0.9c-1.1-1.4-2.4-2.6-3.7-3.7c0,0-5.6,6.3-5.6,5.6s-0.4-7.3-0.5-8
			c-0.6-6.8-1.7-12.4-1.4-14.3s1.2-5.2,1.2-5.2c0.7-0.8,1.7-4.8,1.7-4.8l2.6-2L424.4,668.7z"/>
		<path class="st4" d="M467.5,763.7c2.1,3.2,3.7,4.4,1.7,5.8s-2.1,2.3-3,3.3c-1.3,1.5-2.1,4.3-2.4,6.1s-0.5,1.1-3.1,2.2
			c-4,1.7-2.8,1.2-5.6,0.9c-1.8-0.2-1-1.5-4.5-1.4s-6.4,3.5-7.6,2.5c-1.3-1.3-2.5-2.8-3.6-4.3c-1.9-2.5-3.5-7-5.6-7.5
			s-8.3,0.8-10,1.8c-1.9,1.1-4-0.1-4.9,1.9c-0.8,1.8-5,2.8-4.3,5.4c1.5,5.9-1.3,7.7-1.3,7.7c-1.3-0.5-2.6-1.1-3.7-1.9
			c-1.5-1-2.7-2.3-3.7-3.7c0,0-2.9-3.3-3.7-1.9c-1.1,1.4-2.3,2.7-3.7,3.7c0,0-3.2-5.5-1.9-7.5s4.1-3.8,3.7-5.6s0.5-3.4,0-4.6
			s-2-1.3-1.8-2.8c0.1-0.9-0.2-1.9-0.7-2.6c0,0-2.4-1.5-3-3s-1.9-5.6-1.9-5.6s-0.9-2.8,0.7-4.5c0.7-0.7,1.1-1.2,3-3
			c2.2-2.2,2-3,6-2.5s4,1.2,6.5,0.3c2-0.8,4.1-1.4,6.2-1.5c3.5-0.4,4.9-0.6,5.6-1.9s2.7-1.7,1.9-3.7c-1.1-2-2.3-3.9-3.7-5.6
			c0,0-3.7-1.9-2.9-2.2s-1.5-5-0.8-5.3l2.2-0.8c0,0,2-3.7,1.5-4.8s1.9-9.3,1.9-9.3l5.6-5.6c1.1,1.4,2.3,2.6,3.6,3.7
			c1.3,1.1,1.4,4.3,3.7,1.9s2.6-2.4,3.7-5.6c1.5-4.2,2.7-6.5,3.7-7.5s5.6,0,5.6,0c2.5,0.4,5,1,7.5,1.9c1.8,0.8,3.7,1.5,5.6,1.9
			s6.3-0.5,6.3-0.5l3.5,6.8l-1.4,2.3c-1.2,0.2-2,1.3-1.8,2.5c0.1,2.2,0,2.7-1.4,4.9s-2.4,5-1.5,6.4c1,1.2,2.1,2.3,3.3,3.3l-1.4,4.1
			c0,0-0.7,1.6-3.7,3.7c-2.2,1.4-4.6,2.4-7.1,3l-0.4,2.7c-0.4,2.7,0.4,4.4,1.9,5.6s2.9,1.5,3.7,3.7s0.8,3,3.1,4.9
			c1.8,1.2,2.3,3.6,1.1,5.4c0,0.1-0.1,0.1-0.1,0.2c0,0-2.5,2.8-0.3,3.7L467.5,763.7z"/>
		<path class="st4" d="M389,706c0,0,10.5-8.2,11.2-9.3s5-6.3,5.6-7.5s4.8-11.2,5.6-11.2s1.9-3.7,3.7-7.5s4.3-4.4,3.7-5.6
			s-1.9-9.3-1.9-9.3c0.2-1.2,0.2-2.5,0-3.7c-0.4-1.9-4.4-6.6-3.7-7.5s1.7-6.2,1.9-7.5s2.2-6.1,1.9-5.6c-0.1,0.1-0.1,0.2-0.1,0.1
			s0.6-0.9,3.9-2c4.1-1.4,4-0.7,7.5-1.9s5.3-2.8,7.5-3.7s6.9-4.8,9.3-5.6s4.6-2.6,5.6-1.9s3.7,3.7,3.7,3.7s0.1,2.6-1.9,3.7
			s-5.6,3.7-5.6,3.7c0.2,1.2,0.2,2.5,0,3.7c-0.9,1.6-2.2,2.9-3.7,3.7c-1.2,0.6-3.7,0-3.7,0s0.6,2.8-1.9,3.7
			c-1.6,0.8-2.9,2.1-3.7,3.7h-5.6l-1.9,1.9l-1.9,3.7l1.9,1.9c0,0,6.5,1,5.6,0s0-3.7,0-3.7l3.7,1.9v3.7l1.9,3.7l-1.9,1.9H432
			c0,0-3.8,0.9-5.6,3.7s-1.5,3.6-1.9,5.6c-0.2,2.2-0.2,4.4,0,6.7l-1.8,0.8c-0.8,0.4-4.2,9.7-3.7,11.2s1.8,20.6,1.8,20.6
			c0,1-0.1,2-0.3,3c-0.3,0.9-2.1,6.3-1.6,7.3s0,5.2,0,5.2l-3.7,1.3c0,0-4.1,1.6-5.6-1.9s-1.9-3.7-1.9-3.7s-11.5-0.9-11.2,0
			s-2.3-0.1-3.7-1.9c-1.4-1.8-2.6-3.6-3.7-5.6L389,706z"/>
		<path class="st4" d="M474.8,795.5c0,2.7,0.7-11,1.6-11c2.1,0,4.2-0.7,5.9-2l5.6-3.7c0,0,3.1-5.3,5.6-5.6s3.2-0.3,3.7-1.9
			c0.7-1.8,1.3-3.7,1.9-5.6c0.5-1.9,1.1-3.8,1.9-5.6c0,0,0.7-7.7,1.4-7s2.6,2.8,2,4.5c-1.5,4.6,0.4,5.8,1,8.1s1.4,6.1,1.6,6.9
			c0.5,1.9,1.6,3.2,2.4,3.5c1.4,0.5,2.5-0.7,2.8,0.7c0.3,1.4,0.2,6.3,1.3,6.8s0.4,1.7,2.7,2.3c1.9,0.5,2.2,1.2,3.9-0.5
			c1.4-1.5,1.5-10.5,1.5-10.5l3.7-5.6c0,0,0.1,2.7,1.9,3.7s2.4,0.7,5,1.1c1.5,0.3,1.7-2.2,2.5-3s4.9,0.1,5.6,0s4.7,0.5,5.6,0
			c1-0.3,2.1-0.4,3.1-0.3c0,0,1.7,4.5,0.6,5.9c-0.8,1.1-1.1,2.5-0.8,3.8c0.1,1.1,0.9,6.2,0.9,6.2l1.6,2.2c0,0,2.1,0.9,3.9,8.3
			c0.3,1.2,3.7,5.6,3.7,5.6s-0.8,5.1-1.9,5.6s-2.7,3.2-3.7,3.7s-1.9,4.5-3.7,5.6s-1.9,1.5-3.7,3.7s-4.6,6.6-5.6,5.6s-6.1-5-5.6-5.6
			s-2.8-6.5-1.9-7.5s1.7-8.5,1.9-9.3s1.9-5.6,1.9-5.6l3.7-1.9v-5.6c0,0,3.4-1.5-1.9-1.9s-11.2,0-11.2,0s-3.8,0.6-3.7,1.9
			s-3.1,0.8-1.9,3.7s-1.9,5.6-1.9,5.6l-7.5,1.8l-1.9,3.7c0,0,0.6,1-1.9,3.7s-5.6,3.6-5.6,7.5s3.4,6.3,1.9,7.5s-4.6-1.5-5.6-1.9
			s-9-1-11.2-1.9s-4.9,2.6-7.5,1.9s-5.9-1.3-7.5-1.9c-1.3-0.5-2.5-1.1-3.7-1.9c0,0-2.1-1.9-1.9-3.7c0.1-1.2,0.1-2.5,0-3.7
			c0,0-5,0.1-3.7,1.9s-0.5,9.7-1.9,7.5c-1-1.7-1.8-3.5-2.4-5.4l0.9-8.3c0,0,2.2-0.5,7-3.2s7.5-4.5,7.5-5.6S474.8,794.8,474.8,795.5z
			"/>
		<path class="st4" d="M418.8,795.5c0,0-0.9,0.3-1.9-1.9s-4.6-5.8-3.7-5.6s1.9-2.8,1.9-3.7s-1-5.2,0.1-6s1.6-1.9,3.6-3.3
			c2.2-1.5,5.2-2.1,5.6-1.9s3.7-1.9,3.7-1.9s2.8-0.6,3.7,0s2.5-0.3,3.5,1.2s5.6,9.7,6.3,9.3s0.9,2.3,3.3,0.7s6-1.9,7.5-1.9
			s2.7,2,3.7,1.9s6.7-1.9,7.5-2.7s2.8,5.2,3.7,4.5c1.1-0.9,2.4-1.6,3.7-1.9c1.1-0.1,5.3,2,5.3,2l-0.5,1.1c-0.4,4.8-0.3,3.7-0.4,4.8
			c-0.4,4.7-0.3,4.9-0.7,9.2c0,0.4-2.5,1.7-3.6,2.6c-2.5,2-4.1,2.8-5.4,3.7s-6,1.5-5.9,2.6c0.2,1.2,0.2,2.5,0,3.7
			c-0.4,1.8-1,4.1,0,5.6s2.3,4.1,2.3,4.1s-5.9-1.2-7.9-0.4s-6.9,2.9-9.3,3.7c-3.1,0.8-6.2,1.4-9.3,1.9c0,0,0.6-2.8,1.9-3.7
			s8.7-3,9.3-3.7s3.8,0.4,3.7-1.9s2.3-2.3,0-3.7c-1.5-1-2.7-2.3-3.7-3.7c0,0-4.1,1-3.7,1.9s-0.4,4.8-3.7,3.7s-7.5,0.2-7.5-1.9
			s-1.5-6.2-1.9-5.6c-0.5,0.7-1.2,1.3-1.9,1.9c-0.6,1.2-0.6,2.6,0,3.7c1,2,4.6,1.7,3.7,3.7s-3.4,2.3-3.7,1.9s-3.6-2.3-3.7-3.7
			s-2.1-4.4-1.9-5.6s2.6-2.8,1.9-3.7s-4.3-5.1-3.7-5.6s1.5-0.2,1.9-1.9c0.4-1.3,1-2.6,1.9-3.7L418.8,795.5z"/>
		<path class="st4" d="M409.5,808.6c0,0-3.9,4.5-3.7,5.6s0.7,4.7,0,5.6s-0.9,3.3,0,3.7s1.4,1,3.7,3.7s2.6,1.3,5.6,3.7
			s4.3,3.7,5.6,3.7s6.2,0.5,5.6,1.9s1,1.8,0,3.7s-4.5,4.5-3.7,5.6s0.2,3.9,0,3.7s-2.4-1.1-3.7-1.9s-5.3-3.2-5.6-1.9
			s-4.7,4.1-7.5,5.6s-4.5,0.2-7.5,1.9s-5.4,2.2-5.6,3.7s-2.1,3.3-1.9,3.7c0.2,1.9,0.2,3.7,0,5.6c-0.1,0.8,0.2,5.7-1.9,5.6
			s-5.5,0.5-5.6,1.9s-2.6,3.2-3.7,5.6s-1.3,4.9-1.9,5.6s0,3.7,0,3.7c-1.2,0.6-2.5,1-3.7,1.5c-0.9,0,0.7-2.4-2.4-5.4
			c-3.5-3.5-4.8-2.8-5.1-3.5c-0.8-1.5,0-2.3,0-3.7s2.9-5,3.7-5.6c1.8-1.2,1.2,0.5,3.7-1.9c2.1-2,2.1-3.8,3.7-3.7s3.9-1,3.7-1.9
			s-3.3-8.4-1.9-9.3s4.3-3,3.7-3.7c-0.8-1.1-1.5-2.4-1.9-3.7c-0.7-1.8-1.4-3.7-1.9-5.6c-0.2-1.5-0.3-4.4,0.6-4s7.4,0.1,6.8-1.6
			s1.2-2.7,0-3.7s-5.4-3.1-6.2-3.5c-1-0.6-3.9-0.3-3.1-2.1c2.6-6.4,0.8-5.8,1.9-5.6c-0.8-0.2-3.6-2.7-3.3-3.3s-0.7-2.4-0.4-4.1
			c0.4-2.5,3.4-4.5,4-4.7c1.5-0.7,3.7-0.9,4.8-1.6c0.4-0.3-1.1-2.8,5.7-1.2c2.6,0.6,7.2-6.5,7.2-6.5c0.6-0.9,0.9-1.9,1.1-3
			c0-1.9,0.8-4,0.9-5.1s0.5-5.9,0.7-5.7s-0.6-1.5-1.4-1.7s4.1-4.3,4.1-4.3l1.1,0.4l4.4,4.7c0,0,0.7,0,3.3,2.1c3,2.4,3,2.9,3,2.9
			s1.9,2.6,2.4,3.4s0,3.7,0,3.7s-3,2.2-3.7,1.9s-1.3,0.8-1.9,1.9S409.5,808.6,409.5,808.6z"/>
		<path class="st4" d="M379.7,715.3c0.1-1.4,0.8-2.8,1.9-3.7c1.8-1.7,7.5-5.6,7.5-5.6c-0.2,1.2-0.2,2.5,0,3.7c0.4,1.6,2.3,4,3.7,5.6
			c2.5,2.7,2.5,1.7,5.6,1.9s7.5,0,7.5,0c1.1-0.3,2.3,0.3,2.7,1.4c0.7,1.5,1.7,3,2.9,4.2h3.7l0.8,5.3l3.7,3.3c0.4,1.1,1.1,2.1,2,2.8
			c1.3,0.8,0.6,3,0.6,3c-0.1,1.8-1.4,3.3-3.2,3.7c-2.8,0.6-5.7,1.1-8.6,1.4c0,0-3.1,1.9-4.6,1.1s-7-1-7.5,0s-4.5,3.6-3.7,3.7
			c0.1,0,0.2,0,0.2,0s-1.6-0.2-2,1.9c-0.5,2.5,1.3,7.8,0.3,5.1c-0.4-1-5.2-3.6-5.5-4.8s-4.1,1.5-4.1,1.5s2.2,3,1.9,3.7
			c-1.2,2.4-3.2,4.4-5.6,5.6c-2.7,1.2-6,0.7-5.6,1.9s-0.6,0.8-1.9,1.9c-1.4,1.1-2.7,2.3-3.7,3.7c-1.1,1.4-2.3,2.7-3.7,3.7
			c-1.3,1-2.2,2.6-2.6,2s-5.9,3.3-6.7,1.7s-1-4.4-3.7-3.7s-3.7,0-3.7,0l-3.7-3.7c0,0-2.8-3.1-2.1-4.3c0.8-1.5-1.3-1.9,0.3-3.1
			s4.6,4.1,5.6,3.7s3.3-4.6,3.7-3.7s5.6,1.9,5.6,1.9s-1.4,0.8,1.9-1.9s4-1.1,5.6-1.9s-1.7-3.8,1.9-3.7s5.1,1.7,5.6,0s-1.2-7.9,0-7.5
			s5.4,0.4,5.6,1.9s1,5.8,1.9,1.9s1.9-6,1.9-7.5s-3.2-4.7-3.7-5.6s-3.4,1.7-3.7-1.9s-0.6-4-1.9-5.6s-2.6-2.7,0-3.7s4.3-1.1,5.6-3.7
			S379.7,715.3,379.7,715.3z"/>
		<path class="st4" d="M312.1,772.6c0,0,0.8-0.8,2.7-2.8s5.6-3,5.2-5.9s-0.6-4.1-2.6-3.2c-1.9,1-3.7,2.1-5.5,3.4l-1.2-3.9
			c0,0,0.5-6.5,0.1-6.4s-0.6-1.4,1.4-2s5-1,7.8-2.8s3.9-0.9,5.6-1.9s5.6-3.7,5.6-3.7c0,1.5,0.7,2.9,1.9,3.7c2.1,1.5,5.7,2.4,3.7,3.7
			s-5.6-1.5-5.6,1.9s-1.5,6.2,0,7.5s2.8,2.9,3.7,1.9s3-2.9,3.7-3.7s3.7,0,3.7,0c-0.5,1-0.7,2.2-0.4,3.3c0.3,0.8-0.6,3.1,2.7,6.5
			c1.5,1.5,1.3,2.7,3.3,3.3s4.5,0,5.6,0s2.3,4.1,2.3,4.1l7-2.3v3.3l-1.8,4.2l3.7,1.9c0.2,1.6,0.3,3.2,0.1,4.8
			c-0.3,4.7-2.2,6.7-2.3,7.8c-0.1,1.7,1.1,0.9,2.2,2.3c0.7,0.9-0.9,2,0,3.7s0,5.6,0,5.6c1.4,0.3,2.8,0.9,4,1.6
			c4,2.4-0.4,0.4,1.2,1.2l9,0.9c0,0-2.5,1.7-2.9,3.8s2,5.3-1.9,3.7s-7.7,2.2-9.3,1.9c-1.4-0.1-2.8-0.8-3.7-1.9
			c-1.1-1.3-2.8-1.4-3.7-5.6c-0.5-2.8-1.8-5.4-3.7-7.5c-0.7-0.9-1.7-1.6-2.8-1.8c-1.5,0.2-3.1,0.2-4.6-0.1c-1.4-0.5-5.5-5.3-6.8-6.1
			c-0.9-0.6,0.1-3.4-0.7-5.1c-0.7-1.7-2.1-3-3.7-3.7c-1.8-0.9-3.6-1.5-5.6-1.9c-0.9-0.1-0.5-0.6-2.7-1.4c-1.9-0.6-3.7-1.4-5.5-2.3
			c-3.4-2.1-6.4-4.7-8.9-7.8L312.1,772.6z"/>
		<path class="st4" d="M357.3,831c0,0,0.1-0.9,0.3-2.3c0.3-2.3,0.2-4.7-0.3-7c-0.5-2.2-0.6-4.6-0.3-6.8l0.3-2.5c0,0,1.4,4.8,4.5,6.3
			c4,2,3.7,1.1,5.8,0.2c1.3-0.6,2.7-1,4.1-1.3c0,0,4.3-0.3,4.8,0.8c0.2,0.5,0.5,1.1,0.9,1.5c1.6,1.8,2.5,1.8,2.5,1.8l-1.7,6.7
			c0,0,0.3,0.3,1.9,0.7c3.2,0.7,7.6,4.3,7.6,4.3l-0.4,3.2c0,0-0.8,1.8-3.7,1.9c-2.6,0.1-3.8-1.4-3.7,1.9s1.2,4.5,1.3,5.8
			s2,4.7,2,4.7c0.4,0.8,0.3,1.7-0.4,2.3c-1.1,0.9-3.3,1.7-3.2,3.5s2.2,6.8,2.2,8c0.1,1.6-4,0.3-5.2,2.4c-1.8,3.1-4.5,4.8-6,5.1
			c-1.3,0.2-3.4,4.5-3.4,4.5l-9.6-0.8c0,0-3-0.7-3.7-1.9s-1.3-3.4-1.9-7.5s-2.8-8.4-1.9-9.3c1.9-1.9,2.2-3.8,3.6-4.2
			c3.5-0.9,5.8-1.4,5.8-1.4s-4-6-3.7-7.5s0.7-3.2,0.7-3.2c0.7-0.9,1.2-1.9,1.6-2.9C358.1,836.8,357.3,831,357.3,831z"/>
		<path class="st5" d="M325.6,844c2,0.1,4-0.6,5.6-1.9c2.5-2.1,3.7-1.3,5.6-5.6s3.8-2.6,3.7-5.6s0.1-5.6,0-7.5s0-5.6,0-5.6
			s-1.2-3.4-0.6-5.9c0.5-1.7,0.7-3.5,0.6-5.3c-0.2-1.1,0.2-2.9,0-5c-0.2-1.8-0.8-3.4-1.6-5l1.6,0.6c0,0,4.1,5.8,5.6,5.6
			c1.9-0.1,3.7-0.1,5.6,0c0,0,4,4,4.6,6c0.4,2.2,0.6,4.5,0.6,6.8c-0.2,1.6-0.1,3.2,0.1,4.7c0.4,1.4,0.8,1.3,0.6,4s-0.5,5.2-0.4,6.5
			s0.5,6.9,0.5,6.9l-2.4,4.3c0,0-6.6,0-7.5,0c-1.1,0.1-2.2,0.2-3.3,0.5c0,0-3.5,3.1-4.9,3c-1,0-4.2,0.4-4.2,0.4
			c-1.8,0.2-3.6,0.2-5.4,0c-2.7-0.5-4.7,1.2-5.5,1.6s-2.9-1.8-2.9-1.8L325.6,844z"/>
		<path class="st4" d="M333,883.2c0,0,4.5,2.4,5.6,3.7s-0.7,6.5,0,7.5s5.1,2.6,5.6,3.7s2.8,4.2,3.7,3.7s0.8,1.7,3.7,1.9
			s6.7,1.8,7.5,1.9s1.4,0.1,3.7-1.9s3.9-1.6,5.6-3.7s2.9-1.4,3.7-3.7c0.7-2.4,1.2-4.9,1.5-7.4l-2-4l-5.3-3.9l0.1-4.3
			c0,0-10.7-0.3-12.6-2.2c-0.7-0.8-1.2-1.8-1.3-2.8l-1.1-5.7l-1.5-5.3l-0.6-3c0.9-1,1.7-2.1,2.3-3.2c1.2-2.2,7.4-2.7,7.4-2.7
			c-0.5-0.9-1.1-1.8-1.7-2.7c-3.2-4.4-2-6.6-2-6.6l-6.5-0.3c-3.1,0.1-5.9,1.5-7.9,3.9c0,0-2.9-0.4-4.2,0.1s-9.3,0-9.3,0l-5.6,3.7
			c0,0,1.1,3.9,1.9,3.7s0.5,0.7,1.9,1.9s4.7,3.8,3.7,3.7s-3.7,1.9-3.7,1.9s-1.4,2.7,0,3.7s1.9,3.7,1.9,3.7c-1.2,0.7-2.4,1.4-3.7,1.9
			c-1.4,0.4-2-0.6-1.9,1.9s3.8,4.9,3.7,5.6s4,2.5,3.7,3.7S333,883.2,333,883.2z"/>
		<path class="st4" d="M282.7,758.2c0,0,2.9-5.1,3.7-5.6s3.8,1.2,3.7,0s17,0.5,16.8,0s3.4-0.9,3.7,0s0,6.2,0,7.5s0.5,4.8,1.9,3.7
			s5.6-3.7,5.6-3.7c1.2,0.9,1.9,2.3,1.9,3.7c0,1,0.3,2.2-1.9,3.7s-4.6,2.6-4.7,3.6s-2.9,1.2-0.9,3.8s3.8,4.7,5.6,5.6s3.4,2.3,5.6,3
			c1.9,0.6,4.1,1.9,5.6,2.5s4.7,1.3,5.6,1.9c1.4,1.1,2.7,2.3,3.7,3.7c0.7,1.1,0,2.1,0,3.7s1.9,5.6,1.9,5.6c-0.1,1.9-0.1,3.7,0,5.6
			c0.3,1.8-0.8,7.7-1.9,9.3s-0.8,3-3.7,3.7s-7-0.2-7.5,1.9s-4.3,4.3-5.6,3.7s-4.6-1-5.6-1.9s-3.8-1-5.6-3.7c-1.6-2.1-3.5-4-5.6-5.6
			h-7.5c0,0-10.8,0.9-13.1,1.9s-4,4.2-5.6,1.9c-1.4-2.4-2.7-4.9-3.7-7.5c0,0-1.8-2.7-2-8.3c-0.1-2.4,0.8-5.5,3.9-8.5
			c2.7-2.6,5.3-5.7,5.6-7.5c0.5-2.6,0-4.7,1.1-6.6c0.8-1.4,2.1-1.6,3-3.5c1-2.2,2.2-4-0.4-6.7c-2.4-2.4-5.1-5-4.8-6.1
			S282.7,758.2,282.7,758.2z"/>
		<path class="st5" d="M297.6,845.9c1.1-1.9,2.4-3.8,3.7-5.6c1.6-2.1,3.5-4,5.6-5.6c2.3-1.8,7.5-5.6,7.5-5.6l3.7-1.9
			c0,0-3.2,4.1-3.7,5.6s-3.7,5.6-3.7,5.6v3.7c0,1.4,0.2,2.8,1.9,3.7s1.9,3.7,1.9,3.7c-1.3,0.4-2.6,1-3.7,1.9c-1.8,1.3-4.3,1-3.7,1.9
			s-2.7,3.2-3.7,1.9s-3.7-5.6-3.7-5.6h-1.9v-3.7L297.6,845.9L297.6,845.9z"/>
		<path class="st4" d="M217.4,765.7c0,0,10,1.9,11.2,0s1.9-1.9,1.9-1.9h11.2c0,0,0.5,1.6,3.7,1.9s8.3,1.2,9.3,0s-1.2-3.5,1.9-3.7
			c3-0.3,5.2,2.2,7.5,1.9s5.2-0.5,7.5-1.9s6.2-5.6,7.5-5.6s6.2-2.2,6.2-2.2c-1,1.9-1.8,3.9-2.5,6c-0.4,1.2-2.1,3.6,0,5.6
			s5.6,5.6,5.6,5.6s-1.3,4.8-1.9,5.6s-3,2.5-3.7,3.7s-4.3,1.9-7.5,3.7s-7.1,1.4-7.5,0s-1.1-4.5-3.7-5.6s-6.4-4.2-5.6-3.7
			c0,0-3,1.5-3.7,1.9s-2.8,3.2-3.7,3.7s-5.6,0.8-5.6,0s-0.8-4.5-3.7-3.7s-4-0.2-5.6,1.9s-2.8,1.1-5.6,3.7c-1.6,1.6-3.5,2.8-5.6,3.7
			c-0.7,1-1.4,2-2.1,3c-1.2,1-2.4,1.9-3.7,2.8c-0.2,0.8-0.9,1.4-1.6,1.6c-2,0.8-10.1-0.3-9.3,0s-0.1-1.4,0-3.7s0.6-2.4,3.7-5.6
			s5.6-2.4,5.6-5.6s-0.7-3.7,0-5.6S217.4,765.7,217.4,765.7z"/>
		<path class="st4" d="M230.1,833.8l-4.2-8.6c0,0-0.7-1.3-2.9-5.4c-2.6-4.8-1.5-6.6-1.6-8.3s-2.1-4.8-2.1-4.8s-2-4.5-1.9-5.6
			c0.2-2.5,0.2-5,0-7.5l7.5-7.5c1.3-0.5,2.6-1.1,3.7-1.9c2.9-2,8-5.9,8.7-6.3c1.4-0.6,2.9-1,4.4-1.1c2.7-0.5,4,4,4,4h4.8l3.9-3.7
			l4.1-2.2l3.6,2.7c1.4,0.6,2.7,1.5,3.9,2.4c0.8,1.3,1.5,2.7,1.9,4.2c0.3,1.1,1.6,1.5,3.3,1.2c2.8-0.6,5.4-1.7,7.9-3l4.2-2.5
			c0,2.3-0.4,6.2-0.4,6.2s-2.7,4.7-3.7,5.5c-2.4,2.1-4.3,4.6-5.6,7.5c0,0-0.8,1.3,0,5s1.2,5,1.9,6.2s-0.3-0.3,1,2.3s2.7,5.2,2.7,5.2
			s-3.9-1.9-5.6,0s-3.8,4-5.6,5.6s-3,1.9-5.6,3.7s-6.1,4.8-5.6,5.6s-1.1,3.8-5.6,3.7s-9.3,0-9.3,0l-1.9-3.7l-1.9,3.7l-4.1-0.9
			L230.1,833.8z"/>
		<path class="st4" d="M127.8,822.8c0,0,5.6-2.2,7.6-4.8s9.5-11.7,11.2-13.1s5.4-5.4,7.5-7.5c1.7-1.5,3.6-2.7,5.6-3.7l3.7-1.9
			c0,0,6.6-6.4,7.5-7.5s4.3-2.9,5.6-3.7c1.2-0.7,2.5-1.3,3.7-1.9c0.8-0.4-1.1-6.7,0-7.5s3.9-3.2,3.7-3.7s7.5-3.7,7.5-3.7
			s3.1-3.9,5.6-3.7s6.4,2.3,7.5,0s14.9,0,14.9,0l-1.9,5.6c0.3,2.3,0.3,4.6,0.1,6.9c-0.8,4.2,1.2,5.8-0.9,8.3
			c-1.6,1.9-5.1,3.7-5.7,4.3c-1.1,1.2-2,2.4-2.8,3.8c0,0,0.5,4.2-0.2,4.3c-2.6,0.5-9.2,0.2-11.1,0.5c-3,0.5-5.1-1.3-5.6,0
			c-1,2-2.3,3.9-3.7,5.6c-1.1,1.4-1.4,0.1-3.4,1.7s-1.8,2.3-1.8,2.3s5,2.5,4.2,4.3c-0.2,0.5-7,4.2-7,4.2c-1.8,1.1-3.9,1.9-6,2.3
			c-3.5,0.7-9.1-1.6-11.2-1.1c-1.1,0.3-3-0.3-4.6,1.2s-3.3,2.5-3.9,3.4s-0.9,0.1-1.6,2.2c-1.3,3.7,0,4.8-1.2,6.4
			c-1.4,1.9-3.2,3.1-4.9,5.7c-1.4,2.2,0,6.2-1.4,8.4c-1.2,1.9-2.2,5.2-3.7,5.6c-2,0.5-10.5-0.4-10.5-0.4s-3.6-0.9-2.5-2.3
			c0.7-1,1.3-2.1,1.8-3.3c-0.7-0.4-1.3-0.8-1.8-1.4c-1.2-1.1-2.1-2.4-2.8-3.8c-1.1-2.5-1.5-4.7-0.5-5.8S127.8,822.8,127.8,822.8z"/>
		<path class="st4" d="M153.8,852.8c0,0,5-4.1,5.8-5.1s5.6-5.6,5.6-5.6h3.7l3.7,3.7c0,0-1.1,7.3,0,7.5s4,2.2,5.6,1.9s8-3.6,7.5-3.7
			h-0.2c0,0,0.8-0.1,2-1.8c1.5-2.1,6.2-4.6,5.6-3.7s-1-0.9,1.9,0s6.4,0.5,7.5,0s2.8-3,3.7-3.7c0.7-0.6,1.3-1.2,1.9-1.9
			c0,0,4.7-1.7,5.6-1.9s2.3,0.4,3.7,1.9s2.1,2.6,3.7,1.9s4.3-3.2,5.6-3.7s3.7-4.4,3.7-4.4l-3.2-5.9c-1-1.4-1.8-3-2.4-4.6
			c-0.4-1.2-1.7-2.3-1.9-3.7c-0.4-3.5-1.4-1.8-1.9-5.6c-0.1-0.8,0.6-2,0-3.7c-1.4-4.2-2.5-4.5-3.1-6.2c-0.7-1.6-0.9-3.3-0.6-5
			c0.1-1.9,0.1-3.7,0-5.6h-8.6l-2.3-0.5l-12.3,0.5c0,0-1.8-1.4-3,0s-2.4,4.9-3.7,5.6s-6.3,2.8-5.6,3.7s6.8,3.9,3.7,5.6
			c-2.4,1.4-4.9,2.6-7.5,3.7c-2,0.8-5.5,2.6-7.5,1.9c-1.7-0.6-3.5-1-5.4-1.3l-6.6,0.3c0,0-1.5,1.4-2.7,2.3c-1.6,1.1-2.9,2.5-3.9,4.2
			s-0.6,7.1-1.9,7.5s-2.6,2.8-3.7,3.7s-1,4.4-1.2,6.2c-0.2,2-0.4,1.5-0.2,3.4c0.3,2.7,5.4,3.8,5.1,5.4s-0.8,3.6,0,5.6
			c0.3,1.2,1.6,2,2.8,1.7C153.4,853.1,153.6,853,153.8,852.8z"/>
		<path class="st4" d="M81.2,853.4c0,0-5-7.6-3.7-7.5s3.6,1.1,5.6-1.9s2.6-6.5,3.7-5.6c2.4,1.4,4.9,2.6,7.5,3.7c0,0,0.7,4.4,3.7,1.8
			s3.5-2.4,5.6-3.7s4.2-4.5,5.6-5.6s2.7-2.3,3.8-3.7c0,0,3.7-0.4,3.7-1.9s-0.6-3,1.9-5.6s7.9-1.1,7.5-1.9s2,0.2,1.9,1.9
			s-4.1,4.8-3.7,7.5c0.3,2,0.9,3.9,1.9,5.6c0.6,1.3,4,1.9,3.7,3.7s-2.8,1.7-1.9,3.7s7.5,1.9,7.5,1.9l6-0.2l3.4-5.4
			c0.5,0.7,1.2,1.3,1.9,1.9c1,0.7,3.6,2.8,3.7,3.7s-0.7,5.1,0,5.6c0.5,0.4,0.8,2,1.9,1.9s1.6-1.1,2,0.5c0.5,2.2,1,2-0.1,5.1
			s2.4,3.5,1.9,5.6s1.9,4.8,0,5.6s-3.1,0.9-3.7,1.9s-3.1,2.5-1.9,3.7s4.9,3.8,3.7,3.7s-7.5-3.7-7.5-3.7l-5.6-1.9
			c0,0,0.1,0.1-3.7-3.7s-7.7-4.5-9.3-5.6s-3-1.4-3.7,0s-2.2,0.6-3.7,1.9s-9.3,0-9.3,0s1.1,3.3,0,3.7s-5.6-3.7-5.6-3.7v3.7
			c-0.4,0.8-1,1.5-1.9,1.9c-1.4,0.7-5.3,2.2-7.5,0s-1.4-2.5-3.7-3.7s-2.7-3.7-3.7-3.7s-0.5,1.3-1.9,1.9s-4,0.3-3.7,1.9
			s1.1,3.1,0,3.7s-3.5-2.8-3.7-3.7c-0.2-2-0.9-3.9-1.9-5.6c-1.6-2.4-1.6-2.9,0-3.7S80.9,853.2,81.2,853.4z"/>
		<path class="st4" d="M148.4,911.2l9.3-7.5l7.5-1.9c0,0,4.2-4.5,3.7-3.7s2.2-3.6,3.7-3.7c2-0.1,4-0.7,5.6-1.9
			c1.9-1.4,5.7-1.4,5.6-3.7s-1.3-12.8,0-13s4,0.4,3.7-1.9s1.9-5,1.9-5.6s3.7-1.9,3.7-1.9l3.7-7.5c0,0,0.2,0.3,1.9,1.9
			s7.3,8.2,7.5,9.3c0.8,2.3,3.1,3.9,5.6,3.7c3.5-0.2,6.5-4.1,7.5-3.7s7.8,2.3,9.3,1.9s7.5-5.6,7.5-5.6l3.5,1.8
			c1.2,5.8,1.7,5.7,2.6,8.5c0.6,1.8-5.1,1-5.1,1c-3.5-0.2-7.1,0.3-10.5,1.3c-4.3,1.4-8.8,2.2-13.3,2.4c-2.4,0.1-1.8,1.2-3.4,3.7
			c-1.9,3.1-4,7.6-4.4,9.6c-0.4,1.8-1.2,3.4-2.4,4.7c-2,2.6-3.3,2.8-4.3,4.3c-0.8,1.5-2.5,2.3-4.2,2c-1.1-0.2-2.2-0.3-3.2-0.1
			c0.4,1.7,0.9,3.5,1.6,5.2c0.6,1.3,1.4,4.3,0.3,6s-3.6,0.8-4.3,2.3s-1,1.1-2.3,3.3s-5.4,3.3-6.5,3.7s-1.5,5.3-0.9,6.5
			c0.8,1.7,4.3,0.1,4.6,1.1S182,941,182,941s-4.6,1-7.5,0s-5.6-5.6-5.6-5.6c-0.4-0.6-0.4-1.3,0-1.9c0.6-1-1.9-5.6-1.9-5.6l1.9-3.7
			l3.7-3.7l-1.9-3.7c0,0-3,4.6-3.7,1.9c-0.5-1.9-1.1-3.8-1.9-5.6v-3.7l1.9-3.7h-1.9c0,0-2.3-1.8-3.7,0s-4.7,6.2-5.6,5.6
			s-5.6,1.9-5.6,1.9L148.4,911.2z"/>
		<path class="st4" d="M183.8,952.2h-5.6l3.7-5.6V941c0,0,0.8-1.8,1.2-3.2c0.2-0.8,0.7-4.3,0.7-4.3s-5.1,0.3-5-1.5
			c0.1-2,0.1-6.4,1.3-6s5.6-1.9,5.6-1.9s2-4.6,3.7-5.6s2.5-1,3.7-1.9s0.2-6.1,0-5.6s-1.9-5.6-1.9-5.6h5.6l3.7-3.7l3.7-3.7l1.9-5.6
			c0,0,3-6,3.7-7.5s2.1-3.9,3.7-3.7s10.5-1.1,11.2-1.9s11.2-1.9,11.2-1.9h5.6c0,0,4.6,0.2,5.6,1.9s7.5,5.6,7.5,5.6l3.7-3.7h3.7
			c0,0-0.4,6.2,1.9,7.5s6,0.7,5.6,1.9s-0.4,4-0.5,6.1s-1.1,2.8,2.8,2.8c2.4,0,4.8,0.1,7.2,0.4c0,0-2.9,3.8-3.9,5.6s-2.8,6-3.7,7.5
			s-2.1,4.4-1.9,5.6s-1.9,1.9-1.9,1.9s-1.1,0.7-3.7-3.7s-0.9-4.5-3.7-7.5s-4.8-2.7-5.6-3.7s-1.9-4-5.6-3.7c-2.6,0-5.2-0.6-7.5-1.9
			c0,0-5.4,2.3-5.6,1.9s-3.2,0.3-5.6,1.9s-4,2.7-3.7,3.7s-1.1,0.9-1.9,1.9s-7.5,1.9-7.5,1.9s-1.3,2.7-1.9,3.7c-0.3,0.6-0.6,0-0.5,0
			c0.3,0.6,0.4,1.2,0.5,1.8c0.8,3.4,0.1,4.8-1.9,7.5s-4.6,3.9-5.6,5.6s-1.7-0.8-1.9,1.9s1,5.3-1.9,5.6s-4.2,1.9-3.7,3.7
			s0.6,2.8,0,3.7c-0.5,0.7-1.1,1.4-1.9,1.9c0,0-1.3,2.7,0,3.7s7.4,5.2,5.6,5.6s-10.1-1.6-9.3-1.9c0,0-2.9,0.4-3.7,1.9s-5.6,0-5.6,0
			L183.8,952.2z"/>
		<path class="st4" d="M236.1,851.5c0,0,6.6-0.8,7.5-1.9s5.6-2.6,7.5-5.6s2.2,0.1,5.6,0c3.4-0.1,5.9,1.9,7.5,0
			c0.9-1.1,2.3-1.8,3.7-1.9c0,0,6.8,4.8,7.5,5.6s4.1,3.5,5.6,3.7c1.9,0.5,3.8,1.1,5.6,1.9l-1.9,5.6c-1.1-1.3-2.3-2.5-3.6-3.6
			c-0.6-0.5-7,1.4-9,1.6c-3.3,0.2-3.9-0.2-5.4,2.3c-0.7,1.2-1.6,2.4-2.6,3.4l-4.9-1.3l-2-1.2l-7.4,0.9c-1,1.1-2.1,2.1-3.4,2.8
			c-1.6,0.9-5.5,2.9-5.5,2.9l-1.1,1.4l-3.7-1.9c0,0-2.3-3.6,0-5.6s4.5-5.7,3.7-5.6S236.1,851.5,236.1,851.5z"/>
		<path class="st4" d="M295.7,857.1c-0.7,2.1-5.4,5.4-3.7,7.5s2.6,2.2,3.7,3.7s1.6,4.3,1.9,5.6s1,5.7,1.9,5.6s1.9,1.9,1.9,1.9
			s-7.8,1.3-9.3,3.7s-1.6,5.2-3.7,5.6s-4.5,3.1-5.6,3.7s-2.8,6-3.7,5.6s-9.9-0.4-9.9-0.4c0-1.5,0-1.5,0-4.9c0-1.5,0.1-3,0.4-4.4
			c0,0-4.8-0.8-5.5-1.4c-1.1-1-1.6-6.8-1.9-6.9c-1.2-0.5-2.4-0.7-3.7-0.6c0,0-3,4-3.7,3.7s-5.7-3.3-6.6-4.6
			c-0.7-0.8-1.5-1.5-2.4-2.1l-3.6-1.4l-2.7-8.7c1.8-1.5,3.8-2.7,5.9-3.8c3.6-1.8,3.4-3.5,5.6-3.7s6.7-1.2,7.5,0s4.7,1.8,5.6,1.9
			s3.7-5.6,3.7-5.6c1.2,0.1,2.5,0.1,3.7,0c1.4-0.5,9.3-1.9,9.3-1.9l3.7,3.7l1.9-5.6l1.9-1.9l7.5,3.7
			C295.7,855.2,296.4,855,295.7,857.1z"/>
		<path class="st4" d="M32.8,901.9c-0.4-1.2-0.4-2.5,0-3.7c0.6-2.4,7.5-5.6,7.5-5.6s3.5,6.9,5.6,5.6s2.8-3.8,3.7-5.6
			c0.5-1.2,0.5-2.5,0-3.7l3.7-5.6c0,0-0.7-0.6,0-1.9s-0.7-2.3,3.7-3.7s5.9,1.4,7.5,0c1.3-1.2,2.6-2.4,3.7-3.7c1-1.2,6.1-1.3,7.5,0
			s4.9,3.5,5.6,1.9s1.2-0.8,1.9,0s1.3,5.6,1.9,7.5s2,3.3,3.7,5.6s1.1,5.7,3.7,5.6c1.5-0.1,2.9,0.6,3.7,1.9c0,1.4-0.2,2.8-0.5,4.2
			c-0.4,1,0.7,1.7-3.4,1.5s-5.3-0.7-6.5,0.2s-2,4-4.5,5.3s-4.1,2.6-4.3,4.1s1.1,2.3,0.6,3.3s-2.1,2.5-2,4.1s1.4,2.6,2,3.3
			s0.4,7.3,0,9.3c-0.2,0.7-5.9,0-7.5-1.9s-3.4-3.3-3.7-1.9s-5.7,0.7-7.5,3.7s-6.3,8.2-5.6,9.3s-1.9-5.6-1.9-5.6s-2.4-4.4-1.9-5.6
			s-1.9-1.8-1.9-1.8l-1.9-1.9c0.5-1.3,1.1-2.5,1.9-3.7c0.6-0.8,2.2-3.8,3.7-3.7s1,0.1,3.7-1.9s3.3-1.3,3.7-3.7s-1.9-5.6-1.9-5.6
			s-2.3-1.4-3.7,0s-3.7,3.7-3.7,3.7l-3.7-3.7l-1.9-1.9c0,0-4-2.7-3.7-1.9s-1.9,1.9-1.9,1.9l-3.7,1.9c0,0-2.5-0.9-1.9-1.9
			S32.8,901.9,32.8,901.9z"/>
		<path class="st4" d="M107.3,898.1c0,0,7.3-2.2,7.5-3.7s2.4-6.1,3.7-5.6s5.2,2.7,5.6,3.7c0.7,1.8,1.4,3.7,1.9,5.6
			c0.3,1.5-0.6,4.4,0,5.6s2.9,4.3,0,5.6c-1.8,0.8-3.7,1.4-5.6,1.9c0,0-0.4,1.8-1.9,1.9s-5.3,4.8-3.7,5.6c1.8,0.8,3.7,1.4,5.6,1.9
			l5.6-1.9c0.6,0.7,1.2,1.3,1.9,1.9c0.9,0.7,3,1,3.7,0s0.2-5,1.9-3.7s3.6,3,3.7,3.7s-3.6,3.4-3.7,5.6s-0.4,2.8,1.9,3.7
			s3-1.5,3.7,1.9s-1.4,3.2,0,5.6s2.5,4.9,3.7,5.6s1.5,0.9,1.9,1.9s-2.6,4.9-3.7,5.6c-1,0.6-2.1,1.1-3.2,1.6
			c-1.5,0.6-3.2,0.2-4.3-0.9c-0.8-1.1-1.4-2.8-2.3-2.4c-1.8,1.1-3.5,2.3-5.1,3.5c-3.1,0.4-6.3,1.1-9.3,1.9c-2,0.7-1.9-0.1-3.2-1.8
			c-0.5-0.7-2.4-4.5-2.4-3.8s-3.7,3.7-3.7,3.7s-3-0.8-3.7-1.9s-0.4,0.1-1.9-3.7c-1.6-4.3-3-3.1-3.7-7.5s1.1-5.6-1.9-9.3
			c-1.6-2.1-2.1-5.3-3-5.5c-2.1-0.2-4.2-0.2-6.3-0.1c0,0-2-3.2-1.9-0.6c0.4,2.7,1,5.4,1.9,8c0,0,3.1,0.4,2.1,1.1s-6.5,6-7.7,4.5
			s-3.7-5.6-3.7-5.6v-9.3c0,0-2.5-2.1-1.9-3.7s2-4.9,2-4.9s-2.3-2.3,1-4.7c4.3-3.1,1.5-0.6,4.6-3.5c1.9-1.8,2.9-4.2,4.1-4
			s7,0.2,7,0.2l1.2-0.6l0.6-5h7.5L107.3,898.1z"/>
		<path class="st4" d="M14.1,914.9c1.2,0,3.4,0.9,3.7-1.9s-2.6-5.2-1.9-5.6c0.8-0.4-2.5-1,0-3.7s5.5-6.4,5.6-5.6s4.5,0.8,3.7,1.9
			s1.3,4.5,1.9,5.6s0.3,3.3,1.9,1.9c1-0.9,2.2-1.4,3.5-1.4c0.6,0.7,1.3,1.2,2.2,1.5c1.2,0.4,4.6-2.4,4.6-2.4l1.4-1.5
			c0,0,4.6,2.1,5.2,3.8c0.7,1.7,2.1,3,3.7,3.7c0.9,0.2,4.3-4.1,4.3-4.1s3.2,0.4,4.2,2.2s0.8,2,0.8,3.8s-2.7,2.4-4.5,4.1
			s-4.1,1.4-5.4,3.4s-2.2,3.5-2.2,3.5s-0.2,1.7-1.4,2.2s-0.9-0.2-2.3-0.4c-1.1-0.3-2-0.9-2.9-1.6c0,0,0.3,0-1.9,1.9
			s-3.9-0.6-3.7,1.9s-1.3,2.8,0,3.7s3,1.3,3.7,3.7s0,3.7,0,3.7c-1.4-1.3-3.2-2.1-5.1-2c-2.9,0.3-1.9,0.7-4.2-1.7
			c-1.6-1.6-2.9-3.5-3.7-5.6c-0.7-1.5-2.3-4-2.3-4c-1.4-0.2-2.8-0.6-4.2-1.1c-2.7-1.2-5.2-5.4-5.2-5.4S12.9,915,14.1,914.9z"/>
		<path class="st4" d="M36.5,946.6c1.2-0.6,6.8,0.4,9.3,1.9s2.5,3.2,3.7,3.7s1.6,3.9,0,5.6s-9.3,5.6-9.3,5.6s-6.8,0.5-5.6-1.9
			s4.1-1.5,3.7-3.7c-0.4-1.9-1.1-3.8-1.9-5.6c0,0-1-2.5-1.9-1.9s-0.2,2.9-3.7,3.7s-5.2,0.8-5.6,1.9s-4.8,7.4-5.6,7.5
			s-5.4,7.4-5.6,3.7s1.8-5.1,1.9-7.5s1.7-4.8,0-7.5s-4.2-4-5.6-5.6s-6.6-5.3-5.6-5.6s3.7-5.6,3.7-5.6v-3.7c0,0,2.8,3,3.7,3.7
			s-0.4,0.4,1.9,3.7s4.5,4.6,3.7,5.6s1.6,0.7,1.9,1.9s2.6,2.9,3.7,1.9s5.3-0.1,3.7-3.7s-4.5-4.3-3.7-5.6s-1.9-3.7-1.9-3.7
			s-0.9-3.6-3.7-3.7s-3.7-1.9-3.7-1.9c-1.2-0.8-2.4-1.4-3.7-1.8c-1.3-0.5-2.6-1.1-3.7-1.9c0,0-0.7,1-1.9,0s-4.2-3-3.8-3.8
			c0.8-1.8,1.5-3.7,1.9-5.6c0-0.9,1.9-5.6,1.9-5.6l3.7,1.9l5.6,1.9c0,0-1.6,3.5,0,5.6c1.1,1.4,2.3,2.7,3.7,3.7l3.7,1.3
			c0.7-0.1,1.4,0.1,1.9,0.6c0.8,0.8,1.5,3.1,2.4,5.4s5.1,5.8,5.1,5.8c1.2-0.1,2.5-0.1,3.7,0c1.3,0.5,2.5,1.2,3.7,1.9
			c-0.4,0.5-0.4,1.3,0,1.9C39,942.2,35.3,947.2,36.5,946.6z"/>
		<path class="st4" d="M57,982.1c0,0,0.4,3.6-1.9,5.6s-5,1.5-5.6,3.7s-1.9,5.6-1.9,5.6c4.4,0.5,4.1,0.7,7.5,0c1.9-0.4,3.8-1,5.6-1.9
			c1.7-0.8,2.7,1.2,3.7,1.9c0.6,0.3-0.9,0.5,3.7,1.9c3,0.9,6.6,3.7,9.3,1.9s2-4.1,5.6-4.3s5.2-0.8,6.2-1.6s3.1-5.1,3.1-5.1
			s-0.8-3.8-0.9-5.2s-0.7-2.8-1.6-6.3c-0.6-2-1.7-3.9-3-5.6c-0.7-1-2-3.5-2-3.5l4.7-4.5c0,0,1.8-1.8,4-4.1s2.2-3.3,3.1-4.9
			s3.2-5.2,3.2-5.2l1.9-3.7l-1.9-3.7c0,0-2.1-2.8-1.9-3.7c0.2-1.9,0.2-3.7,0-5.6c-0.1-2.4-0.8-1.9-1.9-3.7s-2-5.5-3.7-5.6
			c-2.1-0.1-5.3,0.9-5.6,0s-1.9-1.9-1.9-1.9l1.9,9.3c0,0,3.4-0.2,1.8,1.6s-3,2.1-4.3,3c-1,0.7-2,1.8-2.6,1.3
			c-3.3-2.8-3.3-5.8-4.2-5.9c-1.6,0-3.3-0.1-4.9-0.4c-1-0.1-1.9-0.7-2.6-1.5c-1.2-1.1-1.5-3.1-2.9-2.4c-1.4,0.8-2.8,1.4-4.4,1.9
			c-1.2,0.3-3.5,1.3-4.2,2.8s-0.6,0.2-2.8,4.1c-2.4,4.3-2.6,4.3-2.5,4.8c0.8,2.4,1.8,3.3,3.7,5.6s2,2.7,3.7,3.7s2.7,1.8,1.9,3.7
			s-0.4,4.3-1.9,5.6s-9.3,5.6-9.3,5.6s7.2,1.8,9.3,0s5.9-4.9,5.6-3.7c-0.3,1.4-0.9,2.7-1.9,3.7c-1.3,1.4-3.7,2.2-3.7,3.7
			s-1.2,4-1.9,5.6S57,982.1,57,982.1z"/>
		<path class="st4" d="M42.1,976.5c0.1-1.4,0.7-2.8,1.9-3.7c1.1-0.9,2.4-1.5,3.7-1.9h5.6v3.7c0,0-2.8,3-3.7,3.7s-5.6,1.9-5.6,1.9
			L42.1,976.5z"/>
		<path class="st4" d="M27.1,978.3c-0.4-2.1,0.3-4.2,1.9-5.6c1.7-1.4,3.6-2.7,5.6-3.7c0.6,0.3,1.3,0.3,1.9,0
			c0.8-0.6,1.2,0.4,1.9,1.9s2.3,3.7,1.9,5.6s-1.9,5.6-1.9,5.6s-0.9,3.8-1.9,3.7s-2.2,1.8-3.7,3.7s-5.6,3.7-5.6,3.7s-2.5-2.8-1.9-3.7
			s1.9-5.6,1.9-5.6L27.1,978.3L27.1,978.3z"/>
		<path class="st4" d="M111.1,1023.1c0,0,2.2,8.1,0,9.3s-4.2,2.7-3.7,3.7s0.6,3.1,0,5.6s0.8,4.4-1.9,5.6s-9-2.3-9-2.3
			c-0.3-1.7-0.4-3.4-0.4-5.1c0-2,0-9.3,0-9.3l-9-4.2c0,0,0.4-0.4-0.5-2.1s-4.4-3.5-4.4-3.5l-4.8,0.4l1.9-5.6l-6.7-7.7l-1.6-5.2
			l-2.8-3.9l3.7,1.9l4.8,0.4l4.5-4.1c1.4-1.3,5.7,0.4,7.5-1.9s4.6-4.9,3.7-7.5s-3-13.2-3.7-13S85,969,85,969
			c1.2-1.3,2.4-2.6,3.7-3.7c1.1-0.8,5.5-4.7,5.6-5.6s3.3-4.9,3.7-5.6c1-1.8,1.9-3.7,1.9-3.7l1.9-3.7c0,0,2.8,5.1,3.8,5
			s1.6,1.2,2.6,0.3c1.1-1.1,2.1-2.2,3-3.4l3.7,5.8c0,0,9.5-2.3,11.2-2s5.2-4.2,5.6-3.7s2.5,3.7,3.7,3.7c1.9,0,4-1.2,3.4-0.5
			c-1.1,1.4-4.1,7.7-5.3,7.9s-3.1,2.6-3.7,3.7s-3,5.8-3.7,5.6s1.1,3.1,0,3.7s-5.4,6.7-5.6,9.3s-1.4,3.4-1.9,7.5s-4.2,8.4-3.7,11.2
			s-1.4,3.1-1.9,5.6S111.1,1023.1,111.1,1023.1z"/>
		<path class="st4" d="M38.3,1056.7c-0.6-0.4-1.2-6.3-1.9-7.5c-1.2-1.3-2.4-2.6-3.7-3.7c0,0-0.8-2.5,1.9-1.9l7.5,1.9
			c0,0-1.3-3.2,0-5.6s3.4-1.6,3.7-3.7c0.2-1.9,0.2-3.7,0-5.6c0-0.8-3.9-4.7-3.7-5.6s-2.3-3-3.7-3.7s-3.7-3.7-3.7-3.7
			s3.4-2.3,3.7-3.7s0.7-4.8,0-5.6s-1.9-1.9-1.9-1.9v-3.7l-1.9-3.7c1.2,0.4,2.5,0.4,3.7,0c1.8-0.7,4.4-2,5.6-1.9
			c1.2,0.1,2.5,0.1,3.7,0l4.7,0.5l5.8-1.2c0,0,3.6-2.1,4.5-1.1c1.6,1.6,3.5,2.9,5.6,3.7c0.9,1.1,1.7,2.2,2.5,3.4
			c1,1.5,0.1,1.5,1.3,4c0.8,2.1,2.1,4,3.7,5.6c1.7,1.5,3.7,3.7,3.7,3.7l-1.9,5.6c0,0,5-1.1,5.6,0s3.3,2.5,3.7,3.7
			c0.8,2.3,1.4,1.8,2.8,2.6c0.9,0.6,1.9,1,2.9,1.3l3.6,1.7v7.5c0,0-0.2,5.4,0.4,7c0.3,0.8-4.8-1.4-6-1.4s-3.8,0.9-3.7,1.9
			s0,3.7,0,3.7s3.4,1.2,3.7,1.9c0.5,1.2,0,7.5,0,7.5c-0.6,0.1-1.2,0.1-1.9,0c-1.8-0.1-1.4-0.4-3.7,1.9s-3.2,3.9-5.6,5.6
			s-3.7,0-3.7,0l-3.7,1.9l-3.7,3.7c0,0-2.7,0.6-3.7,0c-0.8-0.4,4.1-8.2,3.7-7.5l-0.1,0.1c0.7-1.2,1.4-2.5,1.9-3.8
			c0.2-0.9,1.9-5.6,1.9-5.6v-7.5c-0.9-1.1-1.5-2.4-1.9-3.7c-0.3-1.9-0.3-3.7,0-5.6h-7.4v-5.6h5.6c0.4,0.8,1,1.5,1.9,1.9
			c1.3,0.4,1.9-1.9,1.9-1.9l1.9-3.7c0,0-2.9,0.6-3.7-1.9s-3.7-3.7-3.7-3.7l-3.7,1.9c0,0-2.2,8.2-1.9,9.3s-1.9,3.7-1.9,3.7
			s-2.7-0.8-1.9,1.9s1.5,4.7,1.9,5.6s-2.2,1.6,0,3.7s0.5,5.5,1.9,5.6s4,1.1,3.7,1.9s1.3,2.5,0,3.7s-6.5,2.5-7.5,1.9
			s-1.9-3.7-1.9-3.7s-0.4-4.6-1.9-3.7S44,1057,44,1057S39,1057.1,38.3,1056.7z"/>
		<path class="st4" d="M792.1,838l7.5-1.9l1.9-3.7l3.7-3.7l-7.5-5.7h5.6c0,0,4.6,4.6,5.6,3.7s5.6-3.7,5.6-3.7l3.7-7.5l3.7-5.6
			c0,0,3.1,1.7,3.7,3.7s-1.5,6.4-1.9,7.5s0,5-1.9,5.6s-4.6,4.3-5.6,3.7s-4.4,0.7-5.6,1.9l-5.6,5.6c0,0-0.9,1.2-3.7,1.9
			s-1.6,0.2-1.9,1.9s1.9,3.7,1.9,3.7s-6.2,0.6-5.6,1.9s-1.9,7.5-1.9,7.5l3.7,1.9l-3.7,3.8h-3.7l-3.7-3.7l3.7-5.6l1.9-3.7l-1.9-5.6
			L792.1,838z"/>
		<polyline class="st6" points="760,880.5 760,787.5 853,787.5 		"/>
	</g>
</g>
</svg>
