<svg xmlns="http://www.w3.org/2000/svg" viewBox="0 0 943.97 1072.83"><defs><style>.cls-1,.cls-3{fill:#fff;}.cls-1{stroke:#fff;stroke-width:0.97px;}.cls-1,.cls-4,.cls-5{stroke-linecap:round;stroke-linejoin:round;}.cls-1,.cls-5{fill-rule:evenodd;}.cls-2{fill:#03abd8;}.cls-4,.cls-5{fill:none;}.cls-4{stroke:#32487b;stroke-width:2px;}.cls-5{stroke:#040000;stroke-width:0.93px;}</style></defs><title>map</title><g id="レイヤー_2" data-name="レイヤー 2"><g id="レイヤー_1-2" data-name="レイヤー 1"><path class="cls-1" d="M609.12,301.29s4.75-8,5.59-11.19,2.67-7.24,0-9.33-3.45-1.47-7.46-5.6-4.23-3-5.59-5.59a6.25,6.25,0,0,0-5.6-3.73c-2.22-.08-1.86-7.46-1.86-7.46a9.71,9.71,0,0,0,3.72-5.6c.62-3.45,0-22.38,0-22.38a19.89,19.89,0,0,1,5.6-1.86,50.76,50.76,0,0,1,7.46,0l3.73-5.6s3.9-5.69,5.6-3.73a5,5,0,0,0,3.73,1.87l5.59-11.2s5.32-2.31,5.6-3.73a35.93,35.93,0,0,0,0-5.59s-5.6-5-5.6-7.46-3.73-11.19-3.73-11.19,2.56-4.48,3.73-3.73,7.46,0,7.46,0l7.47,7.46a14.83,14.83,0,0,0,5.59,5.59c3.54,1.78,13.06-1.86,13.06-1.86s5.65-.49,7.46,1.86,8.63,2.33,9.32,0,8-12,9.33-13.05S691.18,167,691.18,167s-4-7.13-3.73-9.33-3.73-11.19-3.73-11.19,4.25-6.3,5.6-7.46,11.19-5.59,11.19-5.59,4.4-9.8,3.73-11.2-3.66-21.07-1.87-22.38,4.72-6,5.6-7.46,1.86-14.92,1.86-14.92V60.68s-6.52-16.32-9.32-22.38-3.49-8.11-3.73-11.19,5.59-11.19,5.59-11.19l1.87-9.32L708,8.46h7.46L719.16,1s3.9,7.37,5.6,9.33S733.11,17,736,19.65s13.13,20.85,16.78,26.11S760.1,58,762.06,60.68s17.36,21,20.51,22.39S797.5,96.12,797.5,96.12s14,4.87,14.92,7.46,7.59,3.9,7.46,5.6,1.86,5.59,1.86,5.59l9.33,1.87s2.35,1.66,3.73,0,5.59-3.73,5.59-3.73l5.6,3.73-1.87,5.59s5.06,5.92,5.6,3.73,3.73-9.32,3.73-9.32,5,8,5.59,9.32,10.84,6.35,13.06,5.6,11.19-1.87,11.19-1.87l13.06-13s9.58-4.25,9.32-5.6,11.19-11.19,11.19-11.19,2.86,1.74,1.87,3.73-7.46,14.92-7.46,14.92l-3.73,11.19-7.46,11.19,1.86,5.6,5.6,7.46,3.73,3.73,5.59,3.73-7.46,1.87,1.87,7.46,1.86,5.59,3.73,5.6,3.73,1.86,11.19-9.32h9.33l1.86,3.73-11.19,3.73-3.73,9.32s-8.16,1.38-13,1.87a53.05,53.05,0,0,0-9.33,1.86l-3.73,5.6s-9.42,4.66-11.19,5.59-5.59-3.73-5.59-3.73-5.43-.72-3.73,3.73,2.4,3,0,3.73-14.35,2.8-18.65,0-5.6-5.59-5.6-5.59-11,2.31-13.06,3.73-13.3,10.61-16.78,13.06-25.27,27.9-26.12,29.84-1.86,14.92-1.86,14.92v13l-5.59,3.74v5.59s-16.9-15.41-16.85-16.6-18.43-4.72-24.66-10S739,253.09,736,250.93s-13.06-5.6-13.06-5.6l-7.46-7.46s-13.3-3.67-14.92-3.73-9.81,4.2-13.06,5.6-11.71,4.73-13.05,7.46-7.46,7.46-7.46,7.46l-1.87,3.73a33.43,33.43,0,0,0-5.6-7.46c-3.43-3.34-4.23-5.71-5.59-7.46s-3.73-5.6-3.73-5.6-8.11-1.49-9.33,0-5.59-1.86-5.59-1.86L625.9,247.2s-3.35,7.91-1.86,11.19,3.82,4.61,5.59,7.46,6.12,4.81,7.46,5.59,5.95,2.37,7.47,1.87,9.32,3.73,9.32,3.73a84.92,84.92,0,0,1,5.59,7.46,23.61,23.61,0,0,0,5.6,5.6l7.46,3.73s3.58,8.56,0,9.32-8.82,5.52-11.19,3.73-11.19-7.46-11.19-7.46l-3.73-3.73-5.6,5.6s-8.06,7.61-9.32,7.46,2.65,7.64,1.86,9.32-13.05,7.46-13.05,7.46l-3.73,3.73-7.46-3.73s-3.94-5.61-3.73-7.46-1.37-8.6,0-9.32S609.12,301.29,609.12,301.29Z"/><path class="cls-1" d="M601.66,387.08s6.3-11.17,7.46-9.32,11.19-1.87,11.19-1.87l1.86-7.46s3.51-4.18,3.73-5.59,1.87-7.46,1.87-7.46L624,347.91a64.78,64.78,0,0,0,3.73-5.59c.69-1.44,5.59,3.73,5.59,3.73l7.46-3.73,1.87,7.46s1.53,7,1.87,9.33,0,13.05,0,13.05h9.32L657.61,361l7.46,1.87,7.46,5.59s4,.73,3.73-3.73a23.78,23.78,0,0,1,1.87-9.32l3.72-9.33-3.72-5.6s-9.68,2.93-11.19,3.73-10.32.58-11.19,1.87-3.73-5.6-3.73-5.6l1.86-7.46,5.59-11.19h5.6l5.6,1.87,5.59,9.32H680l9.33-5.59-1.87,18.65s-2.24,18.84-1.86,22.38,2.38,12.8,3.73,14.92,3.19,3.79,3.73,5.6,7.46,9.32,7.46,9.32l3.73,3.73-3.73,3.73-9.33,1.87-7,1.4-11.08,6.86s-5,.12-6.17,1.06-9,2.72-9,2.72l2-8.47,3.27-7.3s-5.8,1.57-5.6,0c.23-1.87-1.86-5.6-1.86-5.6l-8.09,7.56a13.69,13.69,0,0,0-5-2c-2.48-.32-5.6,1.86-5.6,1.86l-5.59-5.59-9.33,3.73a34,34,0,0,0-5.32-1.33c-1.6-.12-7.73-2.4-7.73-2.4l-1.69,6.14-3.91-6.14-1.86-7.46-3.74-1.87Z"/><path class="cls-1" d="M698.64,512.05l-5.59-1.87-1.87,9.33s-4.14,6.07-4.45,6.14c-1,.22-5.24-.68-6.17-1S674.4,527,674.4,527c.17-.14-1-1.66-1.35-2.44-1.55-3.73-3.4-7.08-3.4-7.08a14.31,14.31,0,0,0-2.71.19c-1.65.21-6.53.62-7.47,0a40.94,40.94,0,0,1-3.72-3.73l-1.87-1.86-1.33-1.34-.53-6.12-1.87-3.73s1.61-5.63,1-6.88l-1-4.32-3.73-5.59a12.09,12.09,0,0,1-.55-5.36c.29-1.75,1.81-6.4,1.81-6.4s0-4.71.6-5a42.27,42.27,0,0,0,3.74-3.73l1.43-4.91a8.37,8.37,0,0,1-1.43-4.41c-.08-3.5,1.18-5.11,1.86-7.46.52-1.8,1.51-2.81,1.51-4a34,34,0,0,0,.27-4.73c-.06-2,.37-3.66-.15-5.76-.2-.84,0-3.6.65-3.6s.8-4.39.8-4.39a11.5,11.5,0,0,0,.65-3.59c0-1.11,1.86-1.86,1.86-1.86l7.47-1.87s8.07-.93,7.46-1.86,7.92-4.91,7.92-4.91l5.32-1.84,7.82-1.57,5-1,3.73-3.73s10.26,9.65,9.32,11.19.94,6.53,0,7.46-.93,8.4,0,7.46,0,1.87,0,1.87,3.73,5.59,5.6,9.33S721,454.54,721,458s2.18,5.91,1.86,7.46,1.87,6.21,1.87,5.59-.62,0-1.87,1.87-2.48,4.66-1.86,5.59-.32,2.19-1.87,3.73a7.2,7.2,0,0,0-1.87,5.6,20.4,20.4,0,0,0,1.87,3.73c.32.62.62,1.86-1.87,3.73s-1.54,4.34-1.86,5.6,2.18,3.73,0,3.73a4.68,4.68,0,0,0-3.73,1.86c-.62.62.32,4.35-1.87,3.73s-5.28-.32-5.59,1.87-3.73,3.73-3.73,3.73Z"/><path class="cls-1" d="M592.33,437.44s3.11,1.25,5.59,0,7.78-4.34,7.47-7.46.93-5,1.86-7.46a61.64,61.64,0,0,0,1.87-7.46v-3.73l-1.87-5.6,1.87-5.59,5.59,1.86,7.46,1.87,6.72-2.69,2.61-1,5.59,5.59,5.6-1.86s6.21,2.8,5.59,1.86,3.42-2.48,3.74-3.73,3.73-3.73,3.73-3.73l1.86,5.6h5.6s-1,2.33-1.48,3.31c-.68,1.32-2.26,4.15-2.26,4.15L658,419.64l-.34,2.88c-.93.93-1.86,9.32-1.86,9.32v9.33s-1.25,5.91-1.87,5.6-1.55,3.73-1.86,5.59,1.34,6.58,1.34,6.58a54.33,54.33,0,0,0-2.43,5.78c0,.61-2,2.88-2.65,2.56s.94,3.73,0,3.73-.61,5.28-1.86,5.6,0,7.46,0,7.46,3.73,4.66,3.73,5.59,1.24,7.62,1.24,7.62l-1.24,3.58,1.87,3.73.48,5.57-7.17,4.74a3.94,3.94,0,0,1-1.74,2.44c-2,1-6.81,2.78-6.5,2.17s-5.59-2.8-5.59-3.73-3.73-7.46-3.73-7.46l-7.46-1.87-6-.49c-.93,0-4.59-2.17-5.22-3.24s-5.6-.47-5.6-.47l-1.86-1.39L599.79,499v-5.6c0-1.24,2.8-7.77,3.73-7.46s4.35-3.11,3.73-3.73,1.87-9.32,1.87-9.32V461.69s1.86-4.05,1.86-5.6-1.86-5.59-1.86-5.59l-3.73-5.6L601.66,443s-5.91-.62-5.6,0,0,3.73,0,3.73h-5.59l-1.87-1.87v-3.73Z"/><path class="cls-1" d="M640.41,536.19s-4.56,3.06-3.32,7.56c.35,1.24,3.73,3.73,3.73,3.73l-1.57,4.71s-.88,1.78-1.5,2.09-2.24,1.38-3.11,4.73c-1,3.8-1,9.31-1.28,10.85s.17,3.58-1.39,5.13a18.71,18.71,0,0,1-5.07,3.7c-1.4.7-4.26.29-4.73,2.37-.55,2.49.32,5.59,0,5.59H631a16.77,16.77,0,0,1,3.1,1.7,6.54,6.54,0,0,0,3.82,1.8c3.42.54,3-.63,5.44.23,1.88.65,1.25-.86,1.83,1.75A23.48,23.48,0,0,0,647,597l1.33,2.68,6.84-6,4.35-1.45v-9.33c0-.93,2.49-12.44,1.87-13.06s2.8-8.71,3.73-9.32l5.6-3.73,5.59-3.73h5.59s.62-3.12,3.74,0,9.32,11.19,9.32,11.19,2.8-1.55,1.87-3.73-5.6-8.39-5.6-9.33,1.55-1.25,1.87-3.73a56.19,56.19,0,0,0,0-7.46l-1.87-1.86s2.8-3.42,1.87-3.73,2.18-.94,1.86-1.87a40.83,40.83,0,0,0-1.86-3.73s4.05-5.59,3.73-5.59,3.73-3.42,3.73-3.73a14.06,14.06,0,0,1,0-3.73c.32-1.25-1.6-3.21-1.6-3.21l-3.83-1.71-2.13-.19-1,5.14a4.81,4.81,0,0,1-.74,3.7c-1.25,1.86-3.22,5.12-3.73,5.59a4.58,4.58,0,0,1-3.73,0c-1.94-1-5.59,0-5.59,0L674.4,527l-3-5.5-1.7-4-10.18.19s-2.12-3.31-3.06-3-3.11-4.49-4.36-4.18a6.69,6.69,0,0,0-2.61,2s-4.52,2.71-4.88,3.3c-1,1.56-6,4.43-7,3.81s1.39,1.78,1.39,1.78,4,6.53,3.73,7.46a14,14,0,0,0,0,3.73Z"/><path class="cls-1" d="M581.14,543.75c-.32-.93-1.86-7.14,1.86-9.32s7.15-1.55,7.47-3.73,4.34-5.6,3.73-7.46,1.86-6.22,1.86-7.46a43.21,43.21,0,0,1,1.86-7.46c.32-.62,1.87-9.33,1.87-9.33s1.63,2.8,3.73,3.26a20.08,20.08,0,0,0,4.72,0l4.7,3.51,8.76,1,6.07,1.52,3.73,7.46,5.59,3.73,3.73,5.59,1.87,3.73s-.48,6.51-1.41,6.82-3.87,3.12-4.19,4.37a12.92,12.92,0,0,0,0,3.73c0-.61,3.73,3.73,3.73,3.73l-1.86,5.6-3.73,3.73s-2.18,8.08-1.87,7.46,0,5.59,0,5.59v3.74l-4.72,4.22-3.73,1.87c.38-.18-2.74.12-2.74,1.37v16.78s-3.73,3.12-3.73,3.73-5.28,3.12-5.59,1.87-9.33-5.6-9.33-5.6H592.33s-5.28-2.8-5.59-3.73-1.87-9.33-1.87-9.33l1.87-7.46,2.52-4.18a31.07,31.07,0,0,1,3.39-2.66c1.55-.62,5.39-3.73,5.39-3.73s2.07-3.73,1.75-4.34-1.87-5.6-1.87-5.6h-5.59s-1.08-5-1.86-5.6a29.12,29.12,0,0,1-3.08-2.92L584.77,546S581.46,544.69,581.14,543.75Z"/><path class="cls-1" d="M562.49,624s4.64-1.36,6.55-1.71c1.29-.23,9.2-3.16,8.59-2.85s4.44-1.95,4.44-1.95-1.86-4.6.12-8.37c.61-1.16,2.68-5.63,2.68-5.63s1.86-2.32,2.34-3.18c.78-1.4,3.26-3.26,3.26-2.42,0,.62,7.47,0,7.47,0h5.58s7.05,3.27,7.46,3.73c2,2.21,3.38,2.21,4.9,1.58,2-.82,5.16-4.33,5.16-4.33l1.13-1.31V586.65h9.33l5.59,3.73h7.47l1.86,5.6,1.86,3.73,3.16-2.77,4.42-3.49,3.61-1.2s5.28,8.07,5.6,9.32,0,10.58,0,11.19,2.8,14.61,1.87,18.65-.94,12.13-1.87,13.06.93,8.39,0,9.33-5.91,9.64-7.46,9.32-5.28,4.35-5.59,3.73-5.6-3.73-5.6-3.73h-5.6l-5.59,5.6-3.73,1.86a36.2,36.2,0,0,1-3.73-3.73c-1.55-1.86-5.6-7.46-5.6-7.46a40.31,40.31,0,0,1-3.73-3.73c-1.25-1.55-5.91-7.78-5.59-7.46v0s-3.52-4.05-5.61-3.75-9,1.25-9.33,1.87-1.54,4.66-5.59,5.59-10.26,4.35-11.19,5.6-7.46,3.73-7.46,3.73-4.26,1.23-4.94,1c-2-.84-6.25-4.68-6.25-4.68l-1.86-7.47.23-7-2.1-6.06,3.73-3.73.36-3.11Z"/><path class="cls-1" d="M573.68,704.15s-2.8-3.41-1.87-5.59,1.25-9,1.87-9.33,0-3.73,0-3.73l-5-6.23v-3.65l1.29-3.17v-5.6l0-4.7,7.44-2.76s8.08-5.28,9.33-5.59,6.4-2.06,7-2.37a29.24,29.24,0,0,0,2.9-2.62l1.26-2.47,9.33-1.87,2.57,1,12.35,14s-.5,1-.23,4.45c.35,4.53-.05,6.74-1.63,8.61-.45.53-1.87,1.86-1.87,1.86v9.33s1.43,7.14,1.34,9a52.5,52.5,0,0,1-1.34,5.88s-5.92,1.64-7.46,1.86c-1.9.28-5.26,2.4-7.46,3.73-.94.58-4.73,4.14-5.91,4.67-.57.25,0,0-1.55.93s-7.4,2.86-7.46,3.73c0,.6-1.62-1.57-3.18-2.66a16.38,16.38,0,0,0-8-2.94C576.8,707.88,573.68,704.15,573.68,704.15Z"/><path class="cls-1" d="M544.67,664.57a35.3,35.3,0,0,0,3.11-5.73c.94-2.49.81-2.79,4.64-4.27,2.48-1,8.32-4.07,8.32-4.07l1.17,4.71,1.24,2.79,6.8,5.12s.62,6.85,0,9.33-1.61,4.38-1.29,5.93a10.66,10.66,0,0,0,2.21,3.64l2.92,4.2s-.35,6.4-1.1,8.28c-.52,1.29-2.07,5.69-.19,7.85,1.47,1.7,3.69,3.78,4,4.86s2.81.67,2.81.67l7.7,4s-8.32,1.25-9.57,1.57-3.73,1.25-5.6,0-5.88-3.59-7.45-3.73c-2.79-.26-2.73-.43-7.46-1.87a42,42,0,0,1-2.67,5.35c-.93,1.25-2.25,7.46-4.79,7.71a16.42,16.42,0,0,0-5.6,1.87c-.93.31-6.53,2.79-7.46,3.72s-5.6,1.87-5.6,1.87-4-2.48-3.73-3.73-.57-6-.25-6.59-1.53-3-1.53-3.35,1.17-6.85,1.78-8.71-.61-4.67,0-5.6-3.73-3.73-3.73-3.73l-2.27,3.8a9.69,9.69,0,0,1-3.33-1.93c-1.86-1.55-4.66-3.66-5.59-5.6-.31-.62,1.86-9.32,1.86-9.32s7.15-4.67,7.46-5.6,8.08-4,7.47-3.73,2.48.43,3.09-.19,3.93-1.13,3.93-1.13l2.44-3.31,3.13-2.47Z"/><path class="cls-2" d="M639,698.56s-.32,14,0,14.92.93,6.53,1.86,7.46,1.87,5.59,1.87,5.59,3.11,7.47,3.73,7.47,4.05,8.39,5.6,9.32a44.81,44.81,0,0,1,5.06,4.5l-8.8-6.36-8.72-6.87-4.33-2.46s-4.49,2.13-6.81,5.06c-1.35,1.7-10.29,1.15-11.84.54s-13.38-3.12-13.06-3.73-2.51-3-3.73-5.6c-.81-1.71-5.59-5.59-5.59-5.59s-6.21-.62-5.6-1.87,0-3.73,0-3.73v-3.73c0-.93,10.19-5.19,10.19-5.19s3.72-3.28,3-2.73c-.94.7,3.85-1.85,4.46-2.79s6.72-2.3,6.72-2.3l5.5-1.91,1-3.93v-5.18a39.39,39.39,0,0,1-1-7.68c0-3.41-.93-7.14,0-7.46s3.3-2.9,3.73-5.59c.23-1.38,0-9.33,0-9.33s5.87,8.06,6.62,8.61a11.52,11.52,0,0,1,2.71,2.58,12.87,12.87,0,0,0,5-3.16c2.37-2.55,4.29-4.3,5.23-4.3s4.34-.61,4.66,0,5.6,3.73,5.6,3.73,0,7.15-1.87,9.32-5.28,8.08-5.59,9.33-.94,7.78-1.87,7.46S639,698.56,639,698.56Z"/><path class="cls-1" d="M573.68,564.27c.32.62.93-8.71,1.86-9.33s.86-4.58.86-4.58l4.74-6.61a58.33,58.33,0,0,1,5.6,3.73,16.29,16.29,0,0,1,5.24,7.6c.6,2.08,1.55,1.93,3.34,1.73a18.91,18.91,0,0,1,2.6,0l1.87,5.6s-2.48,6.2-5.59,7.45-5.6,4-5.6,3.74-2.39,6.18-2.68,7c-1.55,4.3-.62,6.49-.62,6.49s.5,6.13,1.44,7,5.65,3.57,4.72,3.25-6.91,4.83-6.59,6.08-4.35,7.14-3.73,9.32,1.86,5.28,0,5.6S570,622.09,570,622.09s-7.77,1.25-7.46,1.86.62,8.4,0,9.33S558.6,636,558.76,637c.48,2.81.62,3.73,1.87,5.6s0,6.84,0,7.45-1.25,1.25-1.87,1.87-9.32,3.73-9.32,3.73l-3.73,7.46s0,.93-3.73,3.73-5.28,4-5.6,5.6-8.08,2.18-7.46,1.86-.8-2.61-.59-5.1a4.72,4.72,0,0,0-.61-1.61,12.94,12.94,0,0,1-2.53-4.48c-.94-2.8-1.87-3.11-1.87-5.59s-.32-4.67-1.87-3.73-6.84,1.86-7.46,3.73-4.18,4.24-5.6,5.59c-2.73,2.61-4.43,6-5.59,5.6s-5.6-2.48-5.6-1.87-3.73,2.58-3.73,1.87S491.6,665,491.6,665l-3.73-1.87L486,661.26l-4.28,5.22-5.05,7.83a14.48,14.48,0,0,1-1.86-3.73,19.86,19.86,0,0,1-1-8.49l-2.76-2.7-1.87-1.86s5.92-3.12,7.46-3.73,10.88-2.49,11.2-3.74,5.6-5.59,5.6-5.59l5.59-1.86c.94-.32,8.08,1.54,9.33,0s3.74-5.92,7.47-9.33,9-3.73,9.33-5.6a11.75,11.75,0,0,1,3.73-7.46c3.11-3.11,4-6.52,5.6-7.46s2.48-5,1.86-5.59S538.25,596,538.25,596s7.46-5.92,11.19-7.46,8.39-.62,11.19-3.74,7.77-5,9.32-7.46c1.14-1.82,3.9-4.94,3.73-5.59C573.06,569.25,573.37,563.65,573.68,564.27Z"/><path class="cls-1" d="M504.66,575.46s5.6-3.73,5.6-5.6,3.41-4,3.73-5.59,3.73-5.59,3.73-5.59,1.55,7.77,0,11.18-2.18,7.46-1.86,7.46,1.86,1.26,1.86,1.87,5.28-2.8,5.6-1.87,0,5.6,0,5.6-3.12.32-3.73,1.86-1.25,5.28-3.73,7.47-6.22,6.21-7.47,5.59S502.8,596,502.8,596s3.41-3.73,3.73-5.6.93-1.55,1.86-3.73-.31-6.21,0-5.59-3.73,3.72-3.73,3.72-.93,1.87-1.86,0,2.48-5.59,1.86-5.59S504.66,575.46,504.66,575.46Z"/><path class="cls-2" d="M531.69,728.4c.93,0,6.56-2.8,8.42-3.73s6.85-4,7.46-3.73,2.19,1.25,3.74-1.86l3.72-7.47c.94-1.86.62-4,1.87-3.73s9.27,1.75,10.2,2.68,4.7,3.33,6,3.45c3.38.3,5.46-.43,8.4-.92.68-.11,3.75-1.33,4.36-1l2.73,1.4v7.46s-.4,1.36,2.38,1.36c3.73,0,5.5,3.1,4.77,3.76s-.94,2,.31,4.21S600,737,599.35,738s1.06,4.75.44,5.36-7.4-.88-8.83-.28c-4.38,1.84-7.8-1.38-10.91,1.1a7.57,7.57,0,0,1-8.24,1.05c-2.18-.94-6.84-4.67-9.32-5.6s-8.63-3.72-9.32-3.73c-3.62-.05-6.21,3.12-5.6,1.87l-2.51,1.54c1.13-.09-5.88.56-8.68-1.54a24.86,24.86,0,0,1-3.73-3.73S530.76,728.4,531.69,728.4Z"/><path class="cls-3" d="M642.69,750.78s-7.15,7.78-9.33,9.33-3.41,5-3.73,5.59-.93,4,0,5.6.62,13.37,0,13.05-.31,1.87-3.73,3.74-12.74,3.72-13,3.72-3.42,2.49-5.6,5.6-3.73,5.6-3.73,5.6l-3.73,3.73L594.2,803s-2.3-3.3-1.87-3.73c.78-.78,2.48-.94,3.73-1.87s2.8-5,1.86-9.32-1.24-3.42,0-5.6a3.31,3.31,0,0,0,0-3.73s-4.34-1.55-3.72-1.87,2.18-2.48,3.72-3.73,2.8-5,3.74-5.59a43,43,0,0,0,5.59-3.73c2.18-1.87,6.21-3.12,5.6-5.6s-5.6-5.59-5.6-5.59h-3.73l-1.86,3.73-1.87-9.33c-.32-1.55.8-4.57.18-4.25s-1-8-1-8l.34,1.46a8.27,8.27,0,0,0-2.6-5L595,726.76l1.85-1.67,6.69,8.91s8.65,2.76,10.91,3.12c1.1.17,2.89,1.76,6,1.14s5.15,1.33,7.34-.53,7.46-5.6,7.46-5.6L639,734c-.62-.32,9,7.77,9.32,7.46s7.47,5.59,7.47,5.59v1.87h-1.87c-1.86,0-7.14,2.79-7.46,1.86S642.69,750.78,642.69,750.78Z"/><path class="cls-2" d="M546.33,738.49s4.83-3,6.84-2.63a52.75,52.75,0,0,1,9.32,3.73c1.23.79,5.58,3.36,6.22,3.76a52.19,52.19,0,0,0,4.74,2.6c1.41.72,2.93-.39,4-.76s3-1,3.73-1.87,7,1.59,9.33,0,5.59,0,5.59,0h3.73s-.16,5.43.72,7.33-4.45,3.86-4.45,3.86a10.32,10.32,0,0,1-1.86,1.87c-.71.41-.28,7.8-1.87,7.07s-1.29-2.84-4.27-4.29a56.49,56.49,0,0,1-5.06-2.78s-7.6.61-7.46,0,.18,2-.69,2.78-.08,2.19-3,1-2.72-.42-7.45-1.87-7.11-3.91-7.46-5.59-1.29.33-3.73-1.87-2.69-.94-3.62-3c-.79-1.71-3.84-4.5-3.84-4.5Z"/><path class="cls-2" d="M555,762l1.87-5.59-.42-4.43s1.12,3.81,8.58,6.61a50,50,0,0,0,5,.6l3.83,1.79,1.65-4.57s5.6,0,6.31.41,2.59-.86,4.89,1.45l3.75,3,1.84,2.61s-4.81.86-5.59,1.86-3.31,4.37-1.87,5.6,1.27,6.17,1.87,7.46,3.73,3.73,3.73,3.73a2,2,0,0,0-1.87,1.86c-.24,1.85-.41,5.23-1.86,5.6s-3.74-3.73-3.74-3.73a55,55,0,0,1-1.86-5.59c-.32-1.61-3.73-3.74-3.73-3.74a16.86,16.86,0,0,1-3.73,0c-.73-.26-5.65.23-7.46,1.87s-6.6,2.4-7.46,3.73-1.86,5.6-1.86,5.6L553.17,790s-3.65-.64-3.73-3.73-1.72-6.66-.26-9a3.81,3.81,0,0,0,.26-4.08s-1-2.75-2.3-3.08-2.85-2.52-2.85-2.52l5.15-3.72Z"/><path class="cls-1" d="M476.67,674.31s3.91-4.74,3.74-5.59,5.59-7.46,5.59-7.46,6.49,4.32,6.91,6.07c.7,2.9,3.44-.87,6,.37a21.88,21.88,0,0,0,4.27,1l5.85-6.19a9.27,9.27,0,0,0,4.11-3.93c1.49-3.43,7.48-4.42,7.48-4.42s2.58-1.49,2.44.72c-.18,2.63,1.31,6.37,1.31,6.37s.86,4.26,2.63,5.6,1.27,4.36,1.87,5.6,1.45,2.31,0,1.86-5.85,2.59-8,4.35c-3.52,2.89-5.46,3.55-6.94,5s-.55,3-1.44,6.23-.27,2.42.55,4.53,5.29,4.73,5.29,4.73,3.55,2.06,3.06,1.29.7-3.12,1.87-3.73c1.56-.8,3.73,3.73,3.73,3.73v7.46s-1.06,3.68-1.86,5.6,1.33.6,1.61,4.6c.32,4.72.31,7.08.31,7.08l4.06,3.24.54,2.35s1.26,2.65-1.43,3.54c-3.23,1.08-4.61,2.22-7-.29s-1.68-2.43-3.73-1.87-2-.37-3.73,0-3.76,1-3.76,1,0-.71-4.24,2.11c-3.87,2.59-3.2,2.54-3.2,2.54s0,4.65-1.86,7.46c-2.34,3.42-1.39,1.64-1.2,5.57a30.47,30.47,0,0,1-1.13,10.39,65.76,65.76,0,0,0-2.66,8.44c-.69,3-.75,2.36-6,4.34-2.75,1-2.33,3.59-5.2,5.82-2.52,2-5.42,3.2-7,4.42-1.82,1.38-7.76-1.65-8.52-1.68s-2.26,1.38-3.73,1.86-3.66-4.55-3.66-4.55.58-5.42,1.79-6.64c5.58-5.57,5.56-3.45,2.86-8.61-.93-1.78-6.9-2.8-5.5-5.1s2.87-4.24.77-6.8c-.89-1.09-2-.64-3.16-4s-1.35-3.36-4.3-5.28a4.46,4.46,0,0,1-1.93-5,6.7,6.7,0,0,1,.44-2.58c.64-1.48,1.57-.55,4.32-2a46.67,46.67,0,0,0,6-4.52s2.33-3.48,1.94-5c-.23-.88-2.46-2.35-2.46-2.35s-1,.43-1.16-2.45c-.13-1.76,1.14-2.77,2.22-6s.95-4.91,1.87-5.6,2.46-2.31,1.86-3.73-1.86-3.73-1.86-3.73l-1.2-2.41,3.06-5.82,5.6-4.82a38.23,38.23,0,0,0,1.33-5.4C476.28,680.6,476.67,674.31,476.67,674.31Z"/><path class="cls-1" d="M511.92,776.39s.22,5.43,2.07,8,4.57,1.89,5.6,1.87,2-10.05,1.86-11.19,4.2-4.93,3.74-5.6,1.12,3.34,1.86,3.73a54.91,54.91,0,0,0,5.9,1.3s1.08-2,1.57-3.16,5.59,0,5.59,0l8.7-.34s-5.51-2.71-4.48-3.71a18.29,18.29,0,0,1,5.65-3.59c7.23-2.07,4.74-2.46,6.23-5.16.35-.64.27-6.55.27-6.55s-4.84-1.05-6.37-3.19a46.8,46.8,0,0,0-4.4-5.44s1.1-5.13.24-4.59c-2.54,1.56-9.57-1-9.57-1l-3.88-4.2-6.69,2.29L523.32,734a3.13,3.13,0,0,0-3.73-1.87,12.93,12.93,0,0,1-5.6,0l-7.46,3.73a1.89,1.89,0,0,0-1.87,1.87c-.54,4.29-.93,5.59-1.86,7.46-.35.69-2.05,2.7-1.87,3.73s0,3,.75,3.68,3.16,3.56,3.16,3.56-1.76,4.12-.18,7.68,2.25,9.81,2.85,10.74A3.65,3.65,0,0,0,511.92,776.39Z"/><path class="cls-1" d="M424.43,668.72l.23-5.13s.26-1.17,3.51-4.2a8.49,8.49,0,0,1,7.46-1.86L433.76,665a14.24,14.24,0,0,0,0,3.73c.28,1.88,4.07,4.18,5.6,5.59s5.19,2.32,7.46,1.86a8.22,8.22,0,0,0,5.6-3.72c1.47-2.2,3.6-2.84,3.73-5.6s-.5-4.66,1.87-5.59a26.15,26.15,0,0,0,5.59-3.73h5.6s2.38,3,3.73,3.73c.87.47.75,4.12.75,4.12a7.5,7.5,0,0,0,1.12,5.2,8.26,8.26,0,0,1,1.86,5.59c0,6.07-1.87,11.32-2.6,11.84s-5.44,4.32-6.22,6.76-1,4.05-4.24,3.79-6.16.12-8.09-1.36a14.22,14.22,0,0,0-6.83-2.37c-2.31-.3-6.41-1.37-6.89-.29s-1.75,1.15-1.94,2.06a28.1,28.1,0,0,1-5.09,10.3c-1.73,2-2.29,2.14-4.74-.88a25.53,25.53,0,0,0-3.73-3.73s-5.6,6.28-5.6,5.59-.4-7.26-.46-8c-.56-6.84-1.74-12.41-1.4-14.33s1.24-5.22,1.24-5.22c.69-.76,1.74-4.81,1.74-4.81l2.57-2Z"/><path class="cls-1" d="M467.48,763.68c2.14,3.19,3.71,4.37,1.73,5.75s-2.08,2.29-3,3.34c-1.32,1.47-2.12,4.26-2.4,6.14s-.51,1.14-3.06,2.21c-4,1.68-2.82,1.18-5.63.94-1.76-.16-1-1.55-4.54-1.43s-6.42,3.51-7.59,2.45a28.78,28.78,0,0,1-3.6-4.32c-1.88-2.46-3.49-7-5.6-7.46s-8.34.85-10,1.84c-1.87,1.11-4.05-.13-4.9,1.89-.76,1.79-5,2.81-4.33,5.37,1.53,5.9-1.27,7.69-1.27,7.69a16.84,16.84,0,0,1-3.73-1.87,15,15,0,0,1-3.73-3.73s-2.9-3.34-3.73-1.86a19.9,19.9,0,0,1-3.74,3.72s-3.19-5.48-1.86-7.46,4.08-3.75,3.73-5.59.5-3.42,0-4.61-2-1.29-1.83-2.85a3.79,3.79,0,0,0-.73-2.62s-2.42-1.53-3-3-1.86-5.59-1.86-5.59-.93-2.81.72-4.45c.72-.71,1.14-1.15,3-3,2.23-2.23,2-3,5.95-2.5s4,1.18,6.47.27a19.14,19.14,0,0,1,6.23-1.5c3.55-.4,4.91-.6,5.6-1.87s2.71-1.73,1.87-3.73a34.61,34.61,0,0,0-3.73-5.59s-3.74-1.87-2.93-2.21-1.46-5-.81-5.25l2.23-.78s2-3.7,1.51-4.82,1.86-9.33,1.86-9.33l5.6-5.59A24.27,24.27,0,0,0,430,706c1.31,1.07,1.4,4.27,3.73,1.86s2.59-2.43,3.73-5.59c1.5-4.15,2.71-6.49,3.74-7.46s5.59,0,5.59,0a36,36,0,0,1,7.46,1.86,26.15,26.15,0,0,0,5.6,1.87c1.89.43,6.27-.55,6.27-.55l3.53,6.84-1.35,2.31a2.3,2.3,0,0,0-1.84,2.51c.06,2.24,0,2.72-1.42,4.91s-2.35,5-1.46,6.36a24.44,24.44,0,0,0,3.27,3.32l-1.4,4.14s-.67,1.64-3.73,3.73a23,23,0,0,1-7.07,3l-.4,2.65c-.39,2.65.36,4.43,1.87,5.59s2.88,1.51,3.73,3.73.84,3.05,3.13,4.94a3.92,3.92,0,0,1,.93,5.63s-2.5,2.75-.32,3.7Z"/><path class="cls-1" d="M389,706s10.52-8.19,11.19-9.33,5-6.26,5.6-7.46S410.59,678,411.37,678s1.91-3.71,3.73-7.46,4.26-4.36,3.74-5.59-1.87-9.33-1.87-9.33a10.85,10.85,0,0,0,0-3.73c-.37-1.87-4.35-6.56-3.73-7.46s1.73-6.15,1.86-7.46,2.24-6.12,1.87-5.6c-.07.12-.13.15-.15.13s.62-.89,3.88-2c4.11-1.38,4-.65,7.47-1.87s5.28-2.81,7.46-3.73,6.88-4.81,9.33-5.59,4.64-2.59,5.59-1.87,3.73,3.73,3.73,3.73.08,2.6-1.86,3.73-5.6,3.73-5.6,3.73a9.79,9.79,0,0,1,0,3.73,9.55,9.55,0,0,1-3.73,3.73c-1.17.56-3.73,0-3.73,0s.56,2.8-1.87,3.74a8.05,8.05,0,0,0-3.73,3.73h-5.59l-1.87,1.86-1.87,3.73,1.87,1.86s6.53,1,5.6,0,0-3.72,0-3.72l3.73,1.86v3.73l1.86,3.73-1.86,1.87H431.9s-3.77.89-5.6,3.73-1.55,3.56-1.87,5.59a47,47,0,0,0,0,6.65l-1.82.81c-.81.36-4.24,9.68-3.73,11.19S420.7,706,420.7,706a12.37,12.37,0,0,1-.32,3c-.34.86-2.11,6.25-1.6,7.33s0,5.15,0,5.15l-3.68,1.29s-4.12,1.62-5.59-1.87-1.87-3.73-1.87-3.73-11.49-.93-11.19,0-2.26-.12-3.73-1.87a48.68,48.68,0,0,1-3.73-5.59Z"/><path class="cls-1" d="M474.81,795.55c0,2.65.74-11,1.56-11a10,10,0,0,0,5.9-2l5.6-3.73s3.08-5.3,5.6-5.6,3.23-.35,3.73-1.86a51.54,51.54,0,0,0,1.86-5.6,51.82,51.82,0,0,1,1.87-5.59s.69-7.7,1.4-7,2.56,2.85,2,4.5c-1.45,4.59.44,5.77,1,8.14s1.37,6.1,1.6,6.91c.54,1.89,1.6,3.21,2.35,3.49,1.38.51,2.52-.74,2.81.71s.15,6.29,1.31,6.77.39,1.68,2.69,2.34c1.87.53,2.21,1.23,3.86-.49,1.4-1.46,1.46-10.48,1.46-10.48l3.74-5.6s.09,2.65,1.86,3.73,2.39.65,5,1.13c1.52.28,1.69-2.17,2.52-3s4.9.13,5.59,0,4.68.48,5.6,0a8.2,8.2,0,0,1,3.1-.34s1.73,4.48.63,5.93a4.86,4.86,0,0,0-.8,3.82c.08,1.14.88,6.19.88,6.19l1.58,2.19s2.07.86,3.93,8.32c.31,1.21,3.73,5.6,3.73,5.6s-.82,5.07-1.86,5.59-2.67,3.17-3.73,3.73-1.94,4.48-3.73,5.6-1.9,1.55-3.73,3.73-4.59,6.62-5.6,5.59-6.08-5-5.59-5.59-2.84-6.49-1.87-7.46,1.73-8.45,1.87-9.33,1.86-5.59,1.86-5.59l3.73-1.87v-5.6s3.44-1.54-1.86-1.86-11.2,0-11.2,0-3.77.63-3.73,1.86-3.08.75-1.87,3.74-1.86,5.59-1.86,5.59L512.13,803l-1.87,3.73s.61,1-1.87,3.72-5.63,3.61-5.59,7.47,3.35,6.26,1.86,7.46-4.57-1.49-5.6-1.87-9-1-11.19-1.86-4.91,2.57-7.46,1.86-5.86-1.3-7.47-1.86a24.41,24.41,0,0,1-3.73-1.87s-2.1-1.92-1.86-3.73a16.82,16.82,0,0,0,0-3.73s-5,.09-3.74,1.87-.55,9.68-1.86,7.46a29.26,29.26,0,0,1-2.36-5.37l.91-8.25s2.24-.48,7.05-3.17,7.5-4.49,7.46-5.59S474.8,794.85,474.81,795.55Z"/><path class="cls-1" d="M418.84,795.55s-.9.27-1.87-1.87-4.57-5.8-3.73-5.59,1.86-2.8,1.86-3.74-1-5.16.12-6,1.59-1.91,3.62-3.3c2.21-1.51,5.18-2.09,5.59-1.87s3.66-1.9,3.74-1.86,2.81-.62,3.73,0,2.5-.35,3.52,1.22,5.56,9.66,6.29,9.27.93,2.27,3.25.7,6-1.86,7.46-1.86,2.73,2,3.73,1.86,6.68-1.94,7.54-2.69,2.84,5.19,3.66,4.55a8.53,8.53,0,0,1,3.73-1.86c1.15-.11,5.29,2,5.29,2l-.5,1.12c-.42,4.8-.31,3.66-.42,4.8-.42,4.65-.28,4.9-.67,9.21,0,.38-2.49,1.68-3.63,2.6-2.51,2-4.13,2.77-5.38,3.74s-6,1.54-5.89,2.6a10,10,0,0,1,0,3.73c-.37,1.75-.95,4.12,0,5.6s2.25,4.1,2.25,4.1-5.85-1.21-7.85-.37-6.92,2.93-9.32,3.73a92.53,92.53,0,0,1-9.33,1.86s.65-2.85,1.86-3.73,8.74-3,9.33-3.73,3.77.36,3.73-1.86,2.26-2.3,0-3.73a14.07,14.07,0,0,1-3.73-3.74s-4.06,1-3.73,1.87-.43,4.81-3.73,3.73-7.5.15-7.46-1.86-1.55-6.23-1.87-5.6a9.57,9.57,0,0,1-1.86,1.86,4.35,4.35,0,0,0,0,3.74c.95,2,4.59,1.66,3.73,3.73s-3.36,2.25-3.73,1.86-3.57-2.35-3.74-3.73-2.09-4.36-1.86-5.6,2.63-2.83,1.86-3.72-4.32-5.13-3.73-5.6,1.51-.17,1.87-1.86a11.92,11.92,0,0,1,1.86-3.73Z"/><path class="cls-1" d="M409.51,808.6s-3.92,4.52-3.73,5.6.68,4.66,0,5.59-.93,3.28,0,3.73,1.38,1,3.73,3.73,2.63,1.31,5.59,3.73,4.26,3.71,5.6,3.73,6.16.47,5.6,1.87,1,1.79,0,3.73-4.54,4.53-3.73,5.59.22,3.88,0,3.73-2.37-1.06-3.73-1.86-5.26-3.23-5.6-1.87-4.7,4.09-7.46,5.6-4.5.15-7.47,1.86-5.42,2.2-5.59,3.74-2.09,3.28-1.87,3.72a33.72,33.72,0,0,1,0,5.6c-.07.75.19,5.73-1.86,5.6s-5.47.46-5.6,1.86-2.61,3.15-3.73,5.6-1.28,4.9-1.86,5.59,0,3.73,0,3.73a37.53,37.53,0,0,1-3.73,1.46c-.88,0,.69-2.37-2.36-5.43-3.53-3.55-4.76-2.85-5.1-3.49-.78-1.45,0-2.29,0-3.73s2.89-5,3.73-5.59c1.8-1.23,1.16.52,3.73-1.87,2.13-2,2.11-3.75,3.73-3.73s3.92-.95,3.73-1.87-3.25-8.44-1.87-9.32,4.31-3,3.73-3.73a12.36,12.36,0,0,1-1.86-3.73,46.55,46.55,0,0,1-1.87-5.6c-.19-1.45-.34-4.39.64-4s7.44.06,6.82-1.63,1.22-2.67,0-3.73-5.44-3.07-6.18-3.49c-1.05-.61-3.89-.3-3.14-2.11,2.62-6.36.81-5.83,1.86-5.59-.82-.19-3.65-2.69-3.32-3.33s-.67-2.44-.41-4.13c.39-2.49,3.37-4.47,4-4.74,1.55-.7,3.68-.86,4.82-1.64.43-.3-1.15-2.82,5.69-1.18,2.56.61,7.2-6.51,7.2-6.51a7.69,7.69,0,0,0,1.06-3c-.05-1.93.81-4,.85-5.14s.47-5.88.66-5.73-.59-1.51-1.43-1.69,4.07-4.26,4.07-4.26l1.09.36,4.37,4.66s.74.05,3.29,2.1c3,2.4,3.05,2.86,3.05,2.86s1.85,2.63,2.35,3.43,0,3.73,0,3.73-3,2.24-3.73,1.87-1.33.85-1.87,1.86S409.51,808.6,409.51,808.6Z"/><path class="cls-1" d="M379.66,715.34a5.78,5.78,0,0,1,1.87-3.73C383.34,709.94,389,706,389,706a11.31,11.31,0,0,0,0,3.73c.37,1.6,2.32,4,3.73,5.59,2.45,2.68,2.5,1.7,5.59,1.87s7.47,0,7.47,0a2.22,2.22,0,0,1,2.68,1.4,16.32,16.32,0,0,0,2.91,4.2h3.73l.81,5.25,3.74,3.26a5.94,5.94,0,0,0,2,2.83c1.28.75.6,3,.6,3a4.08,4.08,0,0,1-3.21,3.68,75.68,75.68,0,0,1-8.61,1.36s-3.11,1.9-4.64,1.13-7-1-7.47,0-4.53,3.62-3.73,3.73c.14,0,.17,0,.17,0s-1.58-.24-2,1.87c-.52,2.5,1.33,7.85.28,5.11-.38-1-5.22-3.63-5.46-4.77s-4.15,1.52-4.15,1.52,2.23,3,1.87,3.73a13.17,13.17,0,0,1-5.6,5.6c-2.72,1.23-6,.73-5.59,1.86s-.58.82-1.87,1.87a18.55,18.55,0,0,0-3.73,3.73,18.81,18.81,0,0,1-3.73,3.73c-1.27,1-2.22,2.63-2.59,2s-5.93,3.33-6.73,1.69-1-4.4-3.73-3.73-3.73,0-3.73,0l-3.74-3.73s-2.81-3.07-2.13-4.35c.77-1.47-1.33-1.86.27-3.11s4.61,4.1,5.6,3.73,3.28-4.61,3.73-3.73,5.59,1.86,5.59,1.86-1.4.8,1.87-1.86,4-1.07,5.59-1.87-1.73-3.82,1.87-3.73,5.11,1.68,5.59,0-1.19-7.92,0-7.46,5.39.43,5.6,1.87,1,5.83,1.86,1.86,1.85-6,1.87-7.46-3.23-4.74-3.73-5.59-3.41,1.73-3.73-1.87-.58-4.05-1.87-5.59-2.61-2.73,0-3.74,4.33-1.13,5.6-3.72S379.66,715.34,379.66,715.34Z"/><path class="cls-1" d="M312.13,772.57s.83-.78,2.68-2.85,5.64-3,5.17-5.88-.6-4.12-2.65-3.24a37.41,37.41,0,0,0-5.45,3.4l-1.23-3.89s.49-6.53.14-6.44-.61-1.44,1.42-2,5.05-1,7.77-2.79,3.86-.92,5.59-1.87,5.6-3.73,5.6-3.73a4.4,4.4,0,0,0,1.87,3.73c2.07,1.53,5.74,2.39,3.73,3.73s-5.64-1.51-5.6,1.87-1.45,6.23,0,7.46S334,763,334.9,762s3-2.93,3.73-3.73,3.73,0,3.73,0a4.75,4.75,0,0,0-.41,3.3c.29.78-.6,3.06,2.73,6.48,1.45,1.49,1.26,2.66,3.28,3.28s4.53,0,5.59,0,2.33,4.14,2.33,4.14l7-2.28,0,3.27-1.83,4.2,3.73,1.86a20.37,20.37,0,0,1,.12,4.75c-.33,4.66-2.24,6.66-2.29,7.84-.08,1.71,1.1.86,2.17,2.33.68.94-.86,2.05,0,3.73s0,5.6,0,5.6a13.34,13.34,0,0,1,4,1.63c4.05,2.41-.44.39,1.2,1.16l9,.86s-2.51,1.7-2.92,3.81,2,5.35-1.86,3.73-7.7,2.16-9.33,1.86a5.47,5.47,0,0,1-3.73-1.86c-1.08-1.27-2.83-1.4-3.73-5.6a14.41,14.41,0,0,0-3.73-7.46,4.38,4.38,0,0,0-2.82-1.77,16.57,16.57,0,0,1-4.64-.09c-1.42-.45-5.55-5.31-6.76-6.07-.9-.56.15-3.43-.7-5.13a7.17,7.17,0,0,0-3.73-3.72,20.36,20.36,0,0,0-5.59-1.87c-.94-.06-.47-.62-2.68-1.42a31.08,31.08,0,0,1-5.5-2.32,35.24,35.24,0,0,1-8.89-7.84Z"/><path class="cls-1" d="M357.28,831s.13-.93.26-2.27a23.37,23.37,0,0,0-.26-7.05,18.24,18.24,0,0,1-.29-6.83l.29-2.5s1.38,4.75,4.46,6.31c4,2,3.74,1.06,5.76.21a24.62,24.62,0,0,1,4.08-1.31s4.25-.29,4.76.79a4.13,4.13,0,0,0,.87,1.48c1.65,1.82,2.45,1.85,2.45,1.85l-1.73,6.7s.28.31,1.9.65c3.16.68,7.65,4.34,7.65,4.34l-.36,3.23s-.77,1.78-3.73,1.86c-2.56.07-3.84-1.41-3.73,1.87s1.24,4.55,1.26,5.78,1.95,4.66,1.95,4.66a1.85,1.85,0,0,1-.36,2.31c-1.09.93-3.31,1.7-3.19,3.45s2.17,6.83,2.21,8c.06,1.64-4,.27-5.18,2.41-1.76,3.13-4.54,4.82-6,5.06-1.3.2-3.44,4.54-3.44,4.54l-9.62-.81s-3-.66-3.73-1.87-1.25-3.43-1.86-7.46-2.75-8.44-1.87-9.32c1.93-1.93,2.19-3.84,3.56-4.19,3.55-.9,5.77-1.41,5.77-1.41s-4-6-3.73-7.46.74-3.2.74-3.2a11.14,11.14,0,0,0,1.64-2.92C358.09,836.8,357.28,831,357.28,831Z"/><path class="cls-1" d="M325.57,844a8.37,8.37,0,0,0,5.6-1.87c2.52-2.12,3.71-1.26,5.6-5.59s3.8-2.62,3.73-5.6.07-5.56,0-7.46,0-5.59,0-5.59-1.2-3.44-.57-5.87a14.39,14.39,0,0,0,.57-5.32c-.17-1.09.23-2.86,0-5a14.32,14.32,0,0,0-1.61-5l1.65.62s4.15,5.78,5.59,5.6a53,53,0,0,1,5.6,0s4,4,4.57,6a33.8,33.8,0,0,1,.62,6.77,16.28,16.28,0,0,0,.14,4.74c.41,1.37.83,1.33.64,4s-.45,5.19-.38,6.45.52,6.94.52,6.94l-2.38,4.25s-6.64,0-7.46,0a21.33,21.33,0,0,0-3.26.47s-3.46,3.07-4.88,3c-1,0-4.23.41-4.23.41a27.11,27.11,0,0,1-5.36,0c-2.73-.5-4.72,1.21-5.47,1.64s-2.91-1.79-2.91-1.79Z"/><path class="cls-1" d="M333,883.21s4.51,2.4,5.59,3.73-.73,6.49,0,7.46,5.15,2.59,5.59,3.73,2.75,4.19,3.74,3.73.8,1.71,3.73,1.86,6.67,1.81,7.46,1.87,1.36.11,3.73-1.87,3.86-1.58,5.59-3.73,2.89-1.42,3.73-3.73a50.16,50.16,0,0,0,1.52-7.41l-2-4-5.3-3.92.14-4.35s-10.73-.29-12.63-2.24a4.72,4.72,0,0,1-1.26-2.83l-1.08-5.68-1.45-5.32-.65-3a14.43,14.43,0,0,0,2.3-3.23c1.22-2.17,7.37-2.72,7.37-2.72a30.67,30.67,0,0,0-1.7-2.7c-3.2-4.36-2-6.63-2-6.63l-6.54-.27a10.78,10.78,0,0,0-7.9,3.87s-2.91-.39-4.21.13-9.33,0-9.33,0l-5.59,3.73s1.09,3.92,1.86,3.73.48.73,1.86,1.87,4.67,3.84,3.74,3.73-3.74,1.86-3.74,1.86-1.38,2.71,0,3.73,1.87,3.73,1.87,3.73a20.91,20.91,0,0,1-3.73,1.87c-1.36.39-2-.56-1.86,1.87s3.76,4.86,3.72,5.59,4,2.48,3.74,3.73S333,883.21,333,883.21Z"/><path class="cls-1" d="M282.68,758.24s2.89-5.07,3.73-5.59,3.78,1.23,3.73,0,17,.52,16.78,0,3.38-.9,3.73,0,0,6.23,0,7.46.55,4.81,1.87,3.73,5.59-3.73,5.59-3.73a4.71,4.71,0,0,1,1.87,3.73c0,1,.28,2.16-1.87,3.73s-4.59,2.61-4.68,3.63-2.94,1.2-.91,3.83,3.84,4.66,5.59,5.6,3.36,2.33,5.57,3c1.85.6,4.08,1.89,5.63,2.54s4.68,1.3,5.59,1.87a18.49,18.49,0,0,1,3.73,3.72c.73,1.09,0,2.13,0,3.74s1.87,5.59,1.87,5.59a35.32,35.32,0,0,0,0,5.6c.27,1.75-.82,7.66-1.87,9.32s-.75,3-3.73,3.73-7-.22-7.46,1.87-4.33,4.31-5.59,3.73-4.61-1-5.6-1.87-3.82-.95-5.6-3.73a26.61,26.61,0,0,0-5.59-5.59H297.6s-10.8.91-13.06,1.86-4,4.2-5.59,1.87a52.21,52.21,0,0,1-3.73-7.47s-1.76-2.73-2-8.32c-.12-2.43.75-5.49,3.89-8.46,2.73-2.58,5.26-5.7,5.6-7.46.51-2.64,0-4.65,1.07-6.63.79-1.43,2.15-1.61,3.05-3.5,1-2.21,2.22-4-.39-6.66-2.36-2.38-5.07-5-4.75-6.07S282.68,758.24,282.68,758.24Z"/><path class="cls-1" d="M297.6,845.9a57,57,0,0,1,3.73-5.59,27.47,27.47,0,0,1,5.59-5.6c2.32-1.75,7.46-5.59,7.46-5.59l3.73-1.87s-3.19,4.07-3.73,5.6-3.73,5.59-3.73,5.59v3.73c0,1.42.19,2.85,1.87,3.73s1.86,3.73,1.86,3.73a12.64,12.64,0,0,0-3.73,1.87c-1.77,1.32-4.27,1-3.73,1.86s-2.66,3.21-3.73,1.87-3.73-5.6-3.73-5.6H297.6Z"/><path class="cls-1" d="M217.4,765.7s10,1.89,11.19,0,1.86-1.86,1.86-1.86h11.19s.51,1.62,3.73,1.86,8.34,1.18,9.33,0-1.16-3.45,1.86-3.73,5.17,2.24,7.47,1.87,5.16-.52,7.46-1.87,6.24-5.59,7.46-5.59,6.24-2.24,6.24-2.24a43.7,43.7,0,0,0-2.51,6c-.39,1.23-2.09,3.58,0,5.59s5.59,5.6,5.59,5.6-1.28,4.83-1.86,5.59-3,2.45-3.73,3.74-4.26,1.91-7.46,3.72-7.09,1.39-7.46,0-1.07-4.49-3.73-5.59-6.4-4.23-5.6-3.73c0,0-3,1.45-3.73,1.86s-2.78,3.15-3.73,3.74-5.63.84-5.6,0-.76-4.5-3.73-3.74-4-.22-5.59,1.87-2.82,1.12-5.6,3.73a19.91,19.91,0,0,1-5.59,3.73,29.24,29.24,0,0,1-2.15,3A25.8,25.8,0,0,1,219,792a2.51,2.51,0,0,1-1.64,1.64c-2,.8-10.15-.28-9.33,0s-.11-1.36,0-3.73.62-2.44,3.73-5.6,5.6-2.36,5.6-5.59-.71-3.7,0-5.6S217.4,765.7,217.4,765.7Z"/><path class="cls-2" d="M230.05,833.81l-4.21-8.63s-.7-1.35-2.85-5.39c-2.56-4.81-1.46-6.58-1.65-8.29s-2.08-4.76-2.08-4.76-2-4.46-1.86-5.6a40.4,40.4,0,0,0,0-7.46l7.46-7.46a18.76,18.76,0,0,0,3.73-1.87c2.92-2,8-5.9,8.67-6.34a14.47,14.47,0,0,1,4.38-1.12c2.72-.46,4,4,4,4l4.81,0,3.86-3.7,4.13-2.17,3.6,2.68a18.32,18.32,0,0,1,3.86,2.43,15.1,15.1,0,0,1,1.87,4.21c.33,1.11,1.63,1.45,3.27,1.19a32.14,32.14,0,0,0,7.92-3l4.17-2.47c0,2.35-.44,6.2-.44,6.2S280,791,279,791.81a22.56,22.56,0,0,0-5.6,7.47s-.76,1.25,0,5,1.16,5,1.85,6.22-.31-.25,1,2.31,2.73,5.16,2.73,5.16-3.9-1.92-5.6,0-3.8,4-5.59,5.59-3,1.92-5.6,3.73-6.14,4.78-5.6,5.6-1.1,3.8-5.59,3.73-9.33,0-9.33,0l-1.86-3.73-1.87,3.73-4.13-.9Z"/><path class="cls-1" d="M127.76,822.77s5.63-2.16,7.57-4.84,9.46-11.72,11.19-13.06,5.37-5.43,7.46-7.46a25.65,25.65,0,0,1,5.6-3.73l3.73-1.87s6.56-6.43,7.46-7.46,4.27-2.88,5.59-3.72a34.71,34.71,0,0,1,3.73-1.87c.79-.39-1.13-6.71,0-7.46s3.85-3.17,3.74-3.73,7.46-3.73,7.46-3.73,3.15-3.9,5.59-3.73,6.45,2.31,7.46,0,14.92,0,14.92,0l-1.86,5.59a32.09,32.09,0,0,1,.14,6.91c-.76,4.21,1.2,5.85-.87,8.3-1.6,1.89-5.1,3.68-5.68,4.26a24.53,24.53,0,0,0-2.81,3.75s.52,4.16-.17,4.3c-2.58.5-9.18.16-11.13.46-3,.47-5.11-1.34-5.59,0a26.66,26.66,0,0,1-3.73,5.6c-1.13,1.42-1.44.13-3.42,1.72s-1.82,2.33-1.82,2.33,5,2.48,4.2,4.26c-.24.54-7,4.19-7,4.19a18.22,18.22,0,0,1-6,2.35c-3.54.69-9.1-1.6-11.17-1.08-1.14.29-3-.25-4.59,1.15s-3.34,2.5-3.94,3.36-.92.14-1.65,2.23c-1.29,3.7,0,4.78-1.18,6.39-1.4,1.92-3.2,3.09-4.9,5.71-1.45,2.24,0,6.2-1.38,8.42-1.16,1.88-2.18,5.23-3.73,5.59-2,.46-10.54-.43-10.54-.43s-3.56-.91-2.52-2.35a20.64,20.64,0,0,0,1.84-3.3,7,7,0,0,1-1.84-1.38,11.44,11.44,0,0,1-2.75-3.79c-1.13-2.52-1.53-4.7-.54-5.81S127.76,822.77,127.76,822.77Z"/><path class="cls-1" d="M153.83,852.83s5-4.07,5.75-5.06,5.59-5.6,5.59-5.6h3.73l3.73,3.73s-1.15,7.3,0,7.46,4,2.15,5.6,1.87,8-3.64,7.46-3.73l-.17,0s.84-.13,2-1.85c1.47-2.14,6.17-4.61,5.59-3.73s-1-.88,1.87,0,6.36.55,7.46,0,2.81-3,3.73-3.73a13.93,13.93,0,0,0,1.86-1.86s4.7-1.7,5.6-1.87,2.31.36,3.73,1.87,2.14,2.57,3.73,1.86,4.29-3.2,5.59-3.73,3.73-4.43,3.73-4.43l-3.18-5.9a21.66,21.66,0,0,1-2.41-4.59c-.37-1.18-1.71-2.31-1.87-3.73-.39-3.49-1.38-1.85-1.86-5.59-.1-.75.59-2,0-3.74-1.42-4.17-2.49-4.47-3.13-6.19a9.24,9.24,0,0,1-.6-5,45.77,45.77,0,0,0,0-5.6l-8.55.05-2.26-.47-12.27.47s-1.84-1.39-3-.05-2.37,4.88-3.73,5.6-6.29,2.85-5.6,3.73,6.77,3.93,3.73,5.59a75.17,75.17,0,0,1-7.46,3.73c-2,.79-5.52,2.59-7.46,1.87a36,36,0,0,0-5.35-1.28l-6.65.35s-1.51,1.36-2.73,2.31a13.62,13.62,0,0,0-3.92,4.21c-1,1.73-.58,7.07-1.87,7.46s-2.63,2.82-3.73,3.73-1,4.43-1.2,6.15c-.21,2-.38,1.55-.2,3.41.26,2.67,5.36,3.78,5.13,5.36s-.77,3.56,0,5.6A2.33,2.33,0,0,0,153.83,852.83Z"/><path class="cls-1" d="M81.24,853.36s-5-7.62-3.73-7.46,3.55,1.07,5.6-1.86,2.57-6.49,3.73-5.6a78.51,78.51,0,0,0,7.46,3.73S95,846.61,98,844s3.5-2.41,5.59-3.73,4.15-4.55,5.6-5.6A30,30,0,0,0,113,831s3.71-.39,3.73-1.86-.56-3,1.86-5.6,7.89-1.12,7.47-1.86,2,.22,1.86,1.86-4.1,4.78-3.73,7.46a16.82,16.82,0,0,0,1.87,5.6c.63,1.34,4,1.86,3.73,3.73S127,842,127.87,844s7.46,1.86,7.46,1.86l6-.17,3.35-5.42a9,9,0,0,0,1.86,1.86c1,.71,3.6,2.85,3.73,3.73s-.7,5.13,0,5.6c.54.36.77,2,1.87,1.86s1.61-1.09,2,.48c.52,2.17,1,2-.13,5.12s2.37,3.51,1.87,5.59,1.92,4.85,0,5.6-3.06.86-3.73,1.87-3.06,2.55-1.87,3.73,4.85,3.8,3.73,3.73-7.46-3.73-7.46-3.73l-5.59-1.87s.09.13-3.73-3.73-7.74-4.49-9.33-5.6-3-1.38-3.73,0-2.16.59-3.73,1.87-9.33,0-9.33,0,1.12,3.34,0,3.73-5.59-3.73-5.59-3.73v3.73a3.53,3.53,0,0,1-1.87,1.87c-1.45.65-5.31,2.18-7.46,0s-1.41-2.45-3.73-3.74-2.66-3.69-3.73-3.73-.54,1.29-1.86,1.87-4,.32-3.73,1.86,1.13,3.08,0,3.74-3.47-2.8-3.73-3.74a14.1,14.1,0,0,0-1.87-5.59c-1.58-2.42-1.6-2.91,0-3.73S80.87,853.2,81.24,853.36Z"/><path class="cls-1" d="M148.39,911.18l9.32-7.46,7.46-1.86s4.16-4.52,3.73-3.73,2.22-3.64,3.73-3.73a10.51,10.51,0,0,0,5.6-1.87c1.94-1.42,5.71-1.42,5.6-3.73s-1.31-12.81,0-13,4,.41,3.73-1.87,1.9-5,1.86-5.6,3.73-1.86,3.73-1.86l3.73-7.46s.23.3,1.87,1.86,7.25,8.23,7.46,9.33a5.59,5.59,0,0,0,5.59,3.73c3.47-.15,6.49-4.12,7.46-3.73s7.76,2.28,9.33,1.87,7.46-5.6,7.46-5.6l3.49,1.75c1.24,5.77,1.67,5.7,2.62,8.49.61,1.79-5.07,1-5.07,1a30.3,30.3,0,0,0-10.48,1.3,51.13,51.13,0,0,1-13.29,2.43c-2.39.11-1.82,1.23-3.38,3.73-1.92,3.06-4,7.57-4.45,9.61a10.51,10.51,0,0,1-2.44,4.74c-2,2.6-3.34,2.85-4.3,4.3a4,4,0,0,1-4.22,1.95,8.16,8.16,0,0,0-3.24-.08,47.33,47.33,0,0,0,1.57,5.16c.62,1.27,1.4,4.31.29,6s-3.57.78-4.31,2.31-1,1.13-2.27,3.32-5.39,3.25-6.48,3.69-1.49,5.27-.88,6.54c.83,1.7,4.33.14,4.58,1.11S182,941,182,941s-4.63,1-7.46,0-5.6-5.6-5.6-5.6a1.71,1.71,0,0,1,0-1.86c.64-1-1.86-5.6-1.86-5.6l1.86-3.73,3.73-3.73-1.86-3.73s-3,4.59-3.73,1.86a48.54,48.54,0,0,0-1.87-5.59v-3.73l1.87-3.73h-1.87s-2.25-1.83-3.73,0-4.73,6.17-5.59,5.59-5.6,1.87-5.6,1.87Z"/><path class="cls-1" d="M183.83,952.22h-5.6l3.73-5.6V941s.78-1.78,1.21-3.21c.23-.79.66-4.25.66-4.25s-5.12.3-5-1.5c.13-2,.13-6.41,1.26-6s5.6-1.86,5.6-1.86,2-4.64,3.73-5.6,2.52-1,3.73-1.86.22-6.08,0-5.6-1.86-5.59-1.86-5.59h5.59l3.73-3.73,3.73-3.73,1.87-5.6s3-6,3.73-7.46,2.12-3.91,3.73-3.73,10.5-1.08,11.19-1.86,11.19-1.87,11.19-1.87h5.59s4.59.17,5.6,1.87,7.46,5.59,7.46,5.59l3.73-3.73h3.73s-.43,6.21,1.87,7.46,6,.71,5.59,1.87-.36,4-.5,6.13-1.12,2.75,2.83,2.8a71.84,71.84,0,0,1,7.21.38s-2.86,3.78-3.94,5.61-2.84,6-3.73,7.46-2.13,4.42-1.87,5.59-1.86,1.87-1.86,1.87-1.07.67-3.73-3.73-.9-4.5-3.73-7.46-4.82-2.73-5.6-3.73-1.9-4-5.6-3.73a15.66,15.66,0,0,1-7.46-1.87s-5.39,2.33-5.59,1.87-3.17.3-5.6,1.86-4,2.71-3.73,3.73-1.13.94-1.86,1.87-7.46,1.86-7.46,1.86-1.25,2.72-1.87,3.73c-.33.56-.56,0-.54,0a7.49,7.49,0,0,1,.54,1.85c.8,3.39.08,4.77-1.86,7.46s-4.65,3.9-5.6,5.59-1.71-.8-1.86,1.87,1,5.33-1.87,5.59-4.21,1.89-3.73,3.74.58,2.77,0,3.72a8.17,8.17,0,0,1-1.86,1.87s-1.29,2.71,0,3.73,7.42,5.21,5.59,5.6-10.09-1.64-9.32-1.87c0,0-2.9.41-3.73,1.87s-5.6,0-5.6,0Z"/><path class="cls-1" d="M236.05,851.5s6.62-.78,7.46-1.87S249.09,847,251,844s2.22.09,5.59,0,5.88,1.86,7.47,0a5.29,5.29,0,0,1,3.73-1.87s6.77,4.82,7.46,5.6,4.12,3.47,5.59,3.73a51,51,0,0,1,5.6,1.86l-1.87,5.6a26.51,26.51,0,0,0-3.57-3.57c-.62-.53-7,1.42-9,1.56-3.29.22-3.91-.16-5.35,2.32a21.25,21.25,0,0,1-2.56,3.42l-4.89-1.26-2-1.15-7.37.88a14.22,14.22,0,0,1-3.38,2.81c-1.63.89-5.53,2.87-5.53,2.87l-1.11,1.44-3.73-1.86s-2.28-3.62,0-5.6,4.47-5.67,3.73-5.59S236.05,851.5,236.05,851.5Z"/><path class="cls-1" d="M295.73,857.1c-.69,2.1-5.35,5.37-3.73,7.45s2.65,2.19,3.73,3.73,1.59,4.33,1.87,5.6,1,5.67,1.86,5.6,1.87,1.86,1.87,1.86-7.76,1.25-9.33,3.73-1.64,5.15-3.73,5.6-4.49,3.11-5.59,3.73-2.82,6-3.73,5.59-9.86-.42-9.86-.42c0-1.51,0-1.48.05-4.93a23.13,23.13,0,0,1,.38-4.43s-4.82-.76-5.49-1.41c-1.1-1-1.58-6.76-1.89-6.9a7.87,7.87,0,0,0-3.71-.56s-3,4-3.73,3.73-5.7-3.27-6.59-4.62a14.74,14.74,0,0,0-2.38-2.07L242.17,877l-2.66-8.67a32,32,0,0,1,5.86-3.79c3.59-1.81,3.36-3.52,5.6-3.73s6.66-1.21,7.46,0,4.72,1.82,5.6,1.87,3.73-5.59,3.73-5.59a27.07,27.07,0,0,0,3.73,0c1.37-.53,9.32-1.87,9.32-1.87l3.73,3.73,1.87-5.6,1.86-1.86,7.46,3.73S296.42,855,295.73,857.1Z"/><path class="cls-2" d="M32.75,901.86a5.83,5.83,0,0,1,0-3.73c.63-2.41,7.46-5.6,7.46-5.6s3.47,6.94,5.6,5.6,2.85-3.83,3.73-5.6a4.86,4.86,0,0,0,0-3.73l3.73-5.59s-.69-.64,0-1.87S52.59,879,57,877.61s5.91,1.4,7.46,0a38.42,38.42,0,0,0,3.73-3.73c1-1.21,6.11-1.27,7.46,0s4.87,3.53,5.59,1.87,1.23-.82,1.87,0,1.32,5.59,1.86,7.46,2,3.28,3.73,5.59,1.09,5.69,3.73,5.6a4.09,4.09,0,0,1,3.73,1.86,17.69,17.69,0,0,1-.51,4.15c-.37,1,.66,1.72-3.43,1.51s-5.28-.66-6.51.19-2,4-4.47,5.34-4.14,2.56-4.31,4.11,1.1,2.34.58,3.35-2.14,2.51-2,4.12,1.41,2.61,2,3.34.44,7.28,0,9.33c-.16.74-5.89,0-7.46-1.87s-3.41-3.3-3.73-1.86-5.74.71-7.46,3.73-6.28,8.19-5.59,9.33-1.87-5.6-1.87-5.6S49,931,49.54,929.83,47.67,928,47.67,928l-1.86-1.87a27.77,27.77,0,0,1,1.86-3.73c.62-.78,2.24-3.84,3.73-3.73s1,.06,3.73-1.86,3.32-1.29,3.73-3.73-1.86-5.6-1.86-5.6-2.3-1.38-3.73,0-3.73,3.73-3.73,3.73l-3.73-3.73-1.87-1.86s-4-2.73-3.73-1.87-1.87,1.87-1.87,1.87l-3.72,1.86s-2.5-.86-1.87-1.86S32.75,901.86,32.75,901.86Z"/><path class="cls-1" d="M107.35,898.13s7.35-2.22,7.47-3.73,2.36-6.14,3.72-5.6,5.23,2.67,5.6,3.73a51.62,51.62,0,0,1,1.87,5.6c.28,1.49-.64,4.38,0,5.59s2.91,4.31,0,5.6a32.78,32.78,0,0,1-5.6,1.86s-.37,1.83-1.87,1.87-5.25,4.77-3.72,5.59a36.26,36.26,0,0,0,5.59,1.87l5.6-1.87a17.87,17.87,0,0,0,1.86,1.87c.9.73,3,1,3.73,0s.19-5,1.87-3.73,3.65,3,3.73,3.73-3.64,3.36-3.73,5.59-.43,2.75,1.86,3.73,3-1.51,3.73,1.87-1.4,3.21,0,5.59,2.52,4.91,3.73,5.6,1.46.91,1.87,1.86-2.56,4.93-3.73,5.6a27.45,27.45,0,0,1-3.16,1.61,4,4,0,0,1-4.31-.91c-.8-1.1-1.43-2.76-2.33-2.38a53.52,53.52,0,0,0-5.12,3.55,77.92,77.92,0,0,0-9.33,1.86c-2,.66-1.93-.13-3.18-1.81-.5-.69-2.36-4.55-2.42-3.79s-3.73,3.74-3.73,3.74-3-.77-3.73-1.87-.42.11-1.86-3.73c-1.63-4.35-3-3.11-3.73-7.46s1.09-5.59-1.87-9.33c-1.63-2.06-2.13-5.29-3-5.5a46.35,46.35,0,0,0-6.33-.09s-2-3.24-1.86-.56a49.27,49.27,0,0,0,1.86,8s3.06.38,2.09,1.09-6.46,6-7.69,4.5-3.73-5.59-3.73-5.59v-9.33s-2.5-2.07-1.86-3.73,2-4.86,2-4.86-2.34-2.26,1-4.68c4.26-3.1,1.47-.56,4.56-3.48,1.91-1.8,2.9-4.24,4.05-4s7,.24,7,.24l1.24-.59.62-5h7.46Z"/><path class="cls-1" d="M14.1,914.91c1.21,0,3.41.94,3.73-1.86s-2.63-5.21-1.87-5.6-2.53-1,0-3.73,5.47-6.38,5.6-5.59,4.49.82,3.73,1.86,1.3,4.48,1.86,5.6.34,3.32,1.87,1.86A5.62,5.62,0,0,1,32.47,906a5.41,5.41,0,0,0,2.15,1.48c1.24.42,4.6-2.37,4.6-2.37l1.39-1.45s4.58,2.09,5.2,3.82a7.22,7.22,0,0,0,3.73,3.73c.9.24,4.31-4.13,4.31-4.13s3.15.4,4.2,2.21.75,2,.81,3.79-2.67,2.36-4.53,4.14-4.1,1.4-5.43,3.39-2.18,3.5-2.18,3.5-.23,1.71-1.38,2.16-.94-.16-2.26-.42a8,8,0,0,1-2.87-1.58s.26,0-1.87,1.86-3.91-.63-3.72,1.87-1.25,2.83,0,3.73,3,1.25,3.72,3.73,0,3.73,0,3.73a7,7,0,0,0-5.12-2c-2.91.26-1.94.68-4.2-1.71a17.29,17.29,0,0,1-3.73-5.6c-.69-1.45-2.31-4-2.31-4a26.42,26.42,0,0,1-4.22-1.1c-2.71-1.2-5.2-5.36-5.2-5.36S12.89,915,14.1,914.91Z"/><path class="cls-1" d="M36.48,946.62c1.16-.56,6.84.39,9.33,1.86s2.49,3.16,3.73,3.74,1.6,3.88,0,5.59-9.33,5.6-9.33,5.6-6.84.5-5.59-1.87,4.08-1.55,3.72-3.73a30.06,30.06,0,0,0-1.86-5.59s-1-2.54-1.86-1.87-.21,2.89-3.74,3.73-5.18.76-5.59,1.87-4.76,7.44-5.6,7.46-5.39,7.44-5.59,3.73S15.91,962,16,959.68s1.72-4.85,0-7.46-4.16-4-5.59-5.6S3.8,941.3,4.77,941s3.73-5.6,3.73-5.6V931.7s2.78,3,3.73,3.73-.41.37,1.87,3.73,4.47,4.64,3.73,5.59,1.64.66,1.86,1.87,2.63,2.87,3.73,1.86,5.3-.07,3.73-3.73-4.47-4.34-3.73-5.59-1.86-3.73-1.86-3.73-.86-3.56-3.73-3.73-3.73-1.87-3.73-1.87A15.85,15.85,0,0,0,10.37,928a15.93,15.93,0,0,1-3.73-1.87s-.69,1-1.87,0S.61,923.16,1,922.37a25.7,25.7,0,0,0,1.87-5.59c0-.86,1.86-5.6,1.86-5.6l3.73,1.87,5.6,1.86s-1.57,3.45,0,5.6a19.59,19.59,0,0,0,3.73,3.73l3.68,1.27a2.19,2.19,0,0,1,1.91.59c.75.82,1.47,3.11,2.38,5.42s5.08,5.77,5.08,5.77a17.4,17.4,0,0,1,3.74,0,35.5,35.5,0,0,1,3.72,1.87,1.51,1.51,0,0,0,0,1.87C39.05,942.16,35.32,947.18,36.48,946.62Z"/><path class="cls-1" d="M57,982.06s.37,3.58-1.87,5.59-5.05,1.55-5.59,3.74S47.67,997,47.67,997c4.39.54,4.14.71,7.46,0a20.6,20.6,0,0,0,5.6-1.87c1.73-.84,2.71,1.23,3.73,1.87.55.35-.94.54,3.73,1.86,3,.86,6.64,3.7,9.32,1.87s2-4.08,5.6-4.27,5.16-.79,6.22-1.63,3.12-5.14,3.12-5.14-.79-3.85-.88-5.2-.68-2.78-1.57-6.35a17.39,17.39,0,0,0-3-5.59c-.71-1-2-3.53-2-3.53l4.65-4.47s1.82-1.84,4-4.12,2.19-3.28,3.08-4.87,3.17-5.19,3.17-5.19l1.87-3.73-1.87-3.73s-2.1-2.83-1.86-3.73a28.66,28.66,0,0,0,0-5.59c-.11-2.39-.78-1.89-1.87-3.74s-2-5.54-3.73-5.59c-2.09-.07-5.33.88-5.59,0S85,922.37,85,922.37l1.87,9.33s3.44-.19,1.79,1.63-3,2.13-4.32,3c-1,.74-2,1.79-2.57,1.26-3.27-2.75-3.35-5.77-4.23-5.94a29.85,29.85,0,0,1-4.91-.41,4,4,0,0,1-2.55-1.46c-1.21-1.13-1.53-3.08-2.93-2.41a21.14,21.14,0,0,1-4.36,1.91c-1.17.26-3.53,1.25-4.19,2.85s-.63.18-2.85,4.1c-2.41,4.28-2.61,4.3-2.45,4.75.81,2.36,1.8,3.31,3.73,5.59s2,2.71,3.73,3.73,2.7,1.83,1.86,3.73-.41,4.33-1.86,5.6-9.33,5.59-9.33,5.59,7.24,1.85,9.33,0,5.91-4.9,5.59-3.73a7.5,7.5,0,0,1-1.86,3.73c-1.29,1.37-3.7,2.2-3.73,3.73s-1.22,4-1.87,5.6S57,982.06,57,982.06Z"/><path class="cls-1" d="M42.08,976.46a5.17,5.17,0,0,1,1.86-3.73,9.69,9.69,0,0,1,3.73-1.86h5.6v3.73s-2.84,3-3.73,3.73-5.6,1.86-5.6,1.86Z"/><path class="cls-1" d="M27.15,978.33a6.13,6.13,0,0,1,1.87-5.6,32.88,32.88,0,0,1,5.6-3.73,1.86,1.86,0,0,0,1.86,0c.8-.59,1.16.43,1.86,1.87s2.32,3.73,1.87,5.59-1.87,5.6-1.87,5.6-.89,3.75-1.86,3.73-2.24,1.81-3.73,3.73-5.6,3.73-5.6,3.73-2.51-2.82-1.86-3.73,1.86-5.6,1.86-5.6Z"/><path class="cls-1" d="M111.08,1023.09s2.19,8.12,0,9.33-4.21,2.7-3.73,3.73.58,3.06,0,5.59.75,4.4-1.86,5.6-9-2.34-9-2.34a24.84,24.84,0,0,1-.37-5.12c0-2,0-9.33,0-9.33l-9-4.16s.41-.44-.47-2.05-4.37-3.51-4.37-3.51l-4.82.4,1.87-5.6-6.69-7.73L71,1002.74l-2.77-3.9,3.73,1.87,4.79.38L81.24,997c1.44-1.29,5.69.39,7.46-1.87s4.63-4.86,3.73-7.46-3-13.24-3.73-13S85,969,85,969a43.74,43.74,0,0,1,3.73-3.73c1.07-.76,5.52-4.73,5.6-5.59s3.32-4.86,3.73-5.6c1-1.85,1.86-3.73,1.86-3.73l1.87-3.73s2.83,5.1,3.76,5,1.59,1.17,2.61.31a36.59,36.59,0,0,0,3-3.42l3.69,5.76s9.54-2.25,11.24-2,5.24-4.15,5.59-3.74,2.52,3.74,3.73,3.74c1.87,0,4-1.2,3.42-.45-1.14,1.38-4.13,7.7-5.28,7.91s-3.12,2.63-3.73,3.73-3,5.83-3.73,5.59,1.13,3.1,0,3.73-5.45,6.68-5.6,9.33-1.45,3.41-1.87,7.46-4.19,8.39-3.72,11.19-1.37,3.08-1.87,5.59S111.08,1023.09,111.08,1023.09Z"/><path class="cls-1" d="M38.34,1056.66c-.56-.42-1.16-6.29-1.86-7.46a46.31,46.31,0,0,0-3.73-3.73s-.8-2.53,1.87-1.86l7.46,1.86s-1.25-3.24,0-5.59,3.37-1.57,3.73-3.73a29,29,0,0,0,0-5.6c0-.82-3.92-4.7-3.73-5.59s-2.32-3-3.74-3.73-3.72-3.73-3.72-3.73,3.37-2.33,3.72-3.73.71-4.83,0-5.6-1.86-1.87-1.86-1.87v-3.73l-1.86-3.73a6.17,6.17,0,0,0,3.72,0c1.78-.66,4.44-2,5.6-1.86a33.76,33.76,0,0,0,3.73,0l4.66.45,5.81-1.23s3.6-2.08,4.45-1.09a16.23,16.23,0,0,0,5.6,3.73,39.31,39.31,0,0,1,2.48,3.42c1,1.45.07,1.53,1.25,4a15.38,15.38,0,0,0,3.73,5.6c1.69,1.53,3.73,3.73,3.73,3.73l-1.87,5.6s5-1.07,5.6,0,3.32,2.54,3.73,3.73c.77,2.25,1.39,1.85,2.79,2.57a14.65,14.65,0,0,0,2.9,1.34l3.63,1.68V1038s-.23,5.36.37,7c.28.78-4.8-1.36-6-1.39s-3.82.93-3.73,1.86,0,3.73,0,3.73,3.44,1.15,3.73,1.87c.46,1.16,0,7.46,0,7.46a8.21,8.21,0,0,1-1.87,0c-1.77-.08-1.43-.45-3.73,1.86s-3.21,3.92-5.59,5.6-3.73,0-3.73,0l-3.73,1.86-3.73,3.73s-2.72.55-3.73,0c-.8-.42,4.14-8.16,3.73-7.46l-.06.1a30.4,30.4,0,0,0,1.92-3.83c.21-.87,1.87-5.59,1.87-5.59v-7.46a9.75,9.75,0,0,1-1.87-3.73,19.25,19.25,0,0,1,0-5.6H62.59v-5.59h5.6a3.5,3.5,0,0,0,1.86,1.86c1.27.41,1.87-1.86,1.87-1.86l1.86-3.74s-2.87.55-3.73-1.86-3.73-3.73-3.73-3.73L62.59,1025s-2.18,8.2-1.86,9.32-1.87,3.73-1.87,3.73-2.72-.76-1.86,1.87,1.45,4.66,1.86,5.59-2.18,1.57,0,3.73.49,5.49,1.87,5.6,4,1.13,3.73,1.86,1.28,2.48,0,3.73-6.55,2.48-7.46,1.87-1.87-3.73-1.87-3.73-.43-4.55-1.86-3.73-9.33,1.86-9.33,1.86S39,1057.13,38.34,1056.66Z"/><path class="cls-1" d="M792.08,838l7.46-1.87,1.87-3.73,3.73-3.73L797.68,823h5.59s4.57,4.58,5.6,3.73,5.6-3.73,5.6-3.73l3.72-7.46,3.74-5.6s3.07,1.74,3.73,3.73-1.46,6.36-1.87,7.46,0,5-1.86,5.6-4.63,4.31-5.6,3.73-4.4.65-5.6,1.86l-5.59,5.6s-.92,1.19-3.73,1.86-1.64.15-1.87,1.87,1.87,3.73,1.87,3.73-6.19.63-5.6,1.86-1.86,7.46-1.86,7.46l3.73,1.87L794,860.34h-3.73l-3.73-3.73,3.73-5.6,1.86-3.73-1.86-5.59Z"/><path class="cls-4" d="M609.12,301.29s4.75-8,5.59-11.19,2.67-7.24,0-9.33-3.45-1.47-7.46-5.6-4.23-3-5.59-5.59a6.25,6.25,0,0,0-5.6-3.73c-2.22-.08-1.86-7.46-1.86-7.46a9.71,9.71,0,0,0,3.72-5.6c.62-3.45,0-22.38,0-22.38a19.89,19.89,0,0,1,5.6-1.86,50.76,50.76,0,0,1,7.46,0l3.73-5.6s3.9-5.69,5.6-3.73a5,5,0,0,0,3.73,1.87l5.59-11.2s5.32-2.31,5.6-3.73a35.93,35.93,0,0,0,0-5.59s-5.6-5-5.6-7.46-3.73-11.19-3.73-11.19,2.56-4.48,3.73-3.73,7.46,0,7.46,0l7.47,7.46a14.83,14.83,0,0,0,5.59,5.59c3.54,1.78,13.06-1.86,13.06-1.86s5.65-.49,7.46,1.86,8.63,2.33,9.32,0,8-12,9.33-13.05S691.18,167,691.18,167s-4-7.13-3.73-9.33-3.73-11.19-3.73-11.19,4.25-6.3,5.6-7.46,11.19-5.59,11.19-5.59,4.4-9.8,3.73-11.2-3.66-21.07-1.87-22.38,4.72-6,5.6-7.46,1.86-14.92,1.86-14.92V60.68s-6.52-16.32-9.32-22.38-3.49-8.11-3.73-11.19,5.59-11.19,5.59-11.19l1.87-9.32L708,8.46h7.46L719.16,1s3.9,7.37,5.6,9.33S733.11,17,736,19.65s13.13,20.85,16.78,26.11S760.1,58,762.06,60.68s17.36,21,20.51,22.39S797.5,96.12,797.5,96.12s14,4.87,14.92,7.46,7.59,3.9,7.46,5.6,1.86,5.59,1.86,5.59l9.33,1.87s2.35,1.66,3.73,0,5.59-3.73,5.59-3.73l5.6,3.73-1.87,5.59s5.06,5.92,5.6,3.73,3.73-9.32,3.73-9.32,5,8,5.59,9.32,10.84,6.35,13.06,5.6,11.19-1.87,11.19-1.87l13.06-13s9.58-4.25,9.32-5.6,11.19-11.19,11.19-11.19,2.86,1.74,1.87,3.73-7.46,14.92-7.46,14.92l-3.73,11.19-7.46,11.19,1.86,5.6,5.6,7.46,3.73,3.73,5.59,3.73-7.46,1.87,1.87,7.46,1.86,5.59,3.73,5.6,3.73,1.86,11.19-9.32h9.33l1.86,3.73-11.19,3.73-3.73,9.32s-8.16,1.38-13,1.87a53.05,53.05,0,0,0-9.33,1.86l-3.73,5.6s-9.42,4.66-11.19,5.59-5.59-3.73-5.59-3.73-5.43-.72-3.73,3.73,2.4,3,0,3.73-14.35,2.8-18.65,0-5.6-5.59-5.6-5.59-11,2.31-13.06,3.73-13.3,10.61-16.78,13.06-25.27,27.9-26.12,29.84-1.86,14.92-1.86,14.92v13l-5.59,3.74v5.59s-16.9-15.41-16.85-16.6-18.43-4.72-24.66-10S739,253.09,736,250.93s-13.06-5.6-13.06-5.6l-7.46-7.46s-13.3-3.67-14.92-3.73-9.81,4.2-13.06,5.6-11.71,4.73-13.05,7.46-7.46,7.46-7.46,7.46l-1.87,3.73a33.43,33.43,0,0,0-5.6-7.46c-3.43-3.34-4.23-5.71-5.59-7.46s-3.73-5.6-3.73-5.6-8.11-1.49-9.33,0-5.59-1.86-5.59-1.86L625.9,247.2s-3.35,7.91-1.86,11.19,3.82,4.61,5.59,7.46,6.12,4.81,7.46,5.59,5.95,2.37,7.47,1.87,9.32,3.73,9.32,3.73a84.92,84.92,0,0,1,5.59,7.46,23.61,23.61,0,0,0,5.6,5.6l7.46,3.73s3.58,8.56,0,9.32-8.82,5.52-11.19,3.73-11.19-7.46-11.19-7.46l-3.73-3.73-5.6,5.6s-8.06,7.61-9.32,7.46,2.65,7.64,1.86,9.32-13.05,7.46-13.05,7.46l-3.73,3.73-7.46-3.73s-3.94-5.61-3.73-7.46-1.37-8.6,0-9.32S609.12,301.29,609.12,301.29Z"/><path class="cls-4" d="M601.66,387.08s6.3-11.17,7.46-9.32,11.19-1.87,11.19-1.87l1.86-7.46s3.51-4.18,3.73-5.59,1.87-7.46,1.87-7.46L624,347.91a64.78,64.78,0,0,0,3.73-5.59c.69-1.44,5.59,3.73,5.59,3.73l7.46-3.73,1.87,7.46s1.53,7,1.87,9.33,0,13.05,0,13.05h9.32L657.61,361l7.46,1.87,7.46,5.59s4,.73,3.73-3.73a23.78,23.78,0,0,1,1.87-9.32l3.72-9.33-3.72-5.6s-9.68,2.93-11.19,3.73-10.32.58-11.19,1.87-3.73-5.6-3.73-5.6l1.86-7.46,5.59-11.19h5.6l5.6,1.87,5.59,9.32H680l9.33-5.59-1.87,18.65s-2.24,18.84-1.86,22.38,2.38,12.8,3.73,14.92,3.19,3.79,3.73,5.6,7.46,9.32,7.46,9.32l3.73,3.73-3.73,3.73-9.33,1.87-7,1.4-11.08,6.86s-5,.12-6.17,1.06-9,2.72-9,2.72l2-8.47,3.27-7.3s-5.8,1.57-5.6,0c.23-1.87-1.86-5.6-1.86-5.6l-8.09,7.56a13.69,13.69,0,0,0-5-2c-2.48-.32-5.6,1.86-5.6,1.86l-5.59-5.59-9.33,3.73a34,34,0,0,0-5.32-1.33c-1.6-.12-7.73-2.4-7.73-2.4l-1.69,6.14-3.91-6.14-1.86-7.46-3.74-1.87Z"/><path class="cls-4" d="M698.64,512.05l-5.59-1.87-1.87,9.33s-4.14,6.07-4.45,6.14c-1,.22-5.24-.68-6.17-1S674.4,527,674.4,527c.17-.14-1-1.66-1.35-2.44-1.55-3.73-3.4-7.08-3.4-7.08a14.31,14.31,0,0,0-2.71.19c-1.65.21-6.53.62-7.47,0a40.94,40.94,0,0,1-3.72-3.73l-1.87-1.86-1.33-1.34-.53-6.12-1.87-3.73s1.61-5.63,1-6.88l-1-4.32-3.73-5.59a12.09,12.09,0,0,1-.55-5.36c.29-1.75,1.81-6.4,1.81-6.4s0-4.71.6-5a42.27,42.27,0,0,0,3.74-3.73l1.43-4.91a8.37,8.37,0,0,1-1.43-4.41c-.08-3.5,1.18-5.11,1.86-7.46.52-1.8,1.51-2.81,1.51-4a34,34,0,0,0,.27-4.73c-.06-2,.37-3.66-.15-5.76-.2-.84,0-3.6.65-3.6s.8-4.39.8-4.39a11.5,11.5,0,0,0,.65-3.59c0-1.11,1.86-1.86,1.86-1.86l7.47-1.87s8.07-.93,7.46-1.86,7.92-4.91,7.92-4.91l5.32-1.84,7.82-1.57,5-1,3.73-3.73s10.26,9.65,9.32,11.19.94,6.53,0,7.46-.93,8.4,0,7.46,0,1.87,0,1.87,3.73,5.59,5.6,9.33S721,454.54,721,458s2.18,5.91,1.86,7.46,1.87,6.21,1.87,5.59-.62,0-1.87,1.87-2.48,4.66-1.86,5.59-.32,2.19-1.87,3.73a7.2,7.2,0,0,0-1.87,5.6,20.4,20.4,0,0,0,1.87,3.73c.32.62.62,1.86-1.87,3.73s-1.54,4.34-1.86,5.6,2.18,3.73,0,3.73a4.68,4.68,0,0,0-3.73,1.86c-.62.62.32,4.35-1.87,3.73s-5.28-.32-5.59,1.87-3.73,3.73-3.73,3.73Z"/><path class="cls-4" d="M592.33,437.44s3.11,1.25,5.59,0,7.78-4.34,7.47-7.46.93-5,1.86-7.46a61.64,61.64,0,0,0,1.87-7.46v-3.73l-1.87-5.6,1.87-5.59,5.59,1.86,7.46,1.87,6.72-2.69,2.61-1,5.59,5.59,5.6-1.86s6.21,2.8,5.59,1.86,3.42-2.48,3.74-3.73,3.73-3.73,3.73-3.73l1.86,5.6h5.6s-1,2.33-1.48,3.31c-.68,1.32-2.26,4.15-2.26,4.15L658,419.64l-.34,2.88c-.93.93-1.86,9.32-1.86,9.32v9.33s-1.25,5.91-1.87,5.6-1.55,3.73-1.86,5.59,1.34,6.58,1.34,6.58a54.33,54.33,0,0,0-2.43,5.78c0,.61-2,2.88-2.65,2.56s.94,3.73,0,3.73-.61,5.28-1.86,5.6,0,7.46,0,7.46,3.73,4.66,3.73,5.59,1.24,7.62,1.24,7.62l-1.24,3.58,1.87,3.73.48,5.57-7.17,4.74a3.94,3.94,0,0,1-1.74,2.44c-2,1-6.81,2.78-6.5,2.17s-5.59-2.8-5.59-3.73-3.73-7.46-3.73-7.46l-7.46-1.87-6-.49c-.93,0-4.59-2.17-5.22-3.24s-5.6-.47-5.6-.47l-1.86-1.39L599.79,499v-5.6c0-1.24,2.8-7.77,3.73-7.46s4.35-3.11,3.73-3.73,1.87-9.32,1.87-9.32V461.69s1.86-4.05,1.86-5.6-1.86-5.59-1.86-5.59l-3.73-5.6L601.66,443s-5.91-.62-5.6,0,0,3.73,0,3.73h-5.59l-1.87-1.87v-3.73Z"/><path class="cls-4" d="M640.41,536.19s-4.56,3.06-3.32,7.56c.35,1.24,3.73,3.73,3.73,3.73l-1.57,4.71s-.88,1.78-1.5,2.09-2.24,1.38-3.11,4.73c-1,3.8-1,9.31-1.28,10.85s.17,3.58-1.39,5.13a18.71,18.71,0,0,1-5.07,3.7c-1.4.7-4.26.29-4.73,2.37-.55,2.49.32,5.59,0,5.59H631a16.77,16.77,0,0,1,3.1,1.7,6.54,6.54,0,0,0,3.82,1.8c3.42.54,3-.63,5.44.23,1.88.65,1.25-.86,1.83,1.75A23.48,23.48,0,0,0,647,597l1.33,2.68,6.84-6,4.35-1.45v-9.33c0-.93,2.49-12.44,1.87-13.06s2.8-8.71,3.73-9.32l5.6-3.73,5.59-3.73h5.59s.62-3.12,3.74,0,9.32,11.19,9.32,11.19,2.8-1.55,1.87-3.73-5.6-8.39-5.6-9.33,1.55-1.25,1.87-3.73a56.19,56.19,0,0,0,0-7.46l-1.87-1.86s2.8-3.42,1.87-3.73,2.18-.94,1.86-1.87a40.83,40.83,0,0,0-1.86-3.73s4.05-5.59,3.73-5.59,3.73-3.42,3.73-3.73a14.06,14.06,0,0,1,0-3.73c.32-1.25-1.6-3.21-1.6-3.21l-3.83-1.71-2.13-.19-1,5.14a4.81,4.81,0,0,1-.74,3.7c-1.25,1.86-3.22,5.12-3.73,5.59a4.58,4.58,0,0,1-3.73,0c-1.94-1-5.59,0-5.59,0L674.4,527l-3-5.5-1.7-4-10.18.19s-2.12-3.31-3.06-3-3.11-4.49-4.36-4.18a6.69,6.69,0,0,0-2.61,2s-4.52,2.71-4.88,3.3c-1,1.56-6,4.43-7,3.81s1.39,1.78,1.39,1.78,4,6.53,3.73,7.46a14,14,0,0,0,0,3.73Z"/><path class="cls-4" d="M581.14,543.75c-.32-.93-1.86-7.14,1.86-9.32s7.15-1.55,7.47-3.73,4.34-5.6,3.73-7.46,1.86-6.22,1.86-7.46a43.21,43.21,0,0,1,1.86-7.46c.32-.62,1.87-9.33,1.87-9.33s1.63,2.8,3.73,3.26a20.08,20.08,0,0,0,4.72,0l4.7,3.51,8.76,1,6.07,1.52,3.73,7.46,5.59,3.73,3.73,5.59,1.87,3.73s-.48,6.51-1.41,6.82-3.87,3.12-4.19,4.37a12.92,12.92,0,0,0,0,3.73c0-.61,3.73,3.73,3.73,3.73l-1.86,5.6-3.73,3.73s-2.18,8.08-1.87,7.46,0,5.59,0,5.59v3.74l-4.72,4.22-3.73,1.87c.38-.18-2.74.12-2.74,1.37v16.78s-3.73,3.12-3.73,3.73-5.28,3.12-5.59,1.87-9.33-5.6-9.33-5.6H592.33s-5.28-2.8-5.59-3.73-1.87-9.33-1.87-9.33l1.87-7.46,2.52-4.18a31.07,31.07,0,0,1,3.39-2.66c1.55-.62,5.39-3.73,5.39-3.73s2.07-3.73,1.75-4.34-1.87-5.6-1.87-5.6h-5.59s-1.08-5-1.86-5.6a29.12,29.12,0,0,1-3.08-2.92L584.77,546S581.46,544.69,581.14,543.75Z"/><path class="cls-4" d="M562.49,624s4.64-1.36,6.55-1.71c1.29-.23,9.2-3.16,8.59-2.85s4.44-1.95,4.44-1.95-1.86-4.6.12-8.37c.61-1.16,2.68-5.63,2.68-5.63s1.86-2.32,2.34-3.18c.78-1.4,3.26-3.26,3.26-2.42,0,.62,7.47,0,7.47,0h5.58s7.05,3.27,7.46,3.73c2,2.21,3.38,2.21,4.9,1.58,2-.82,5.16-4.33,5.16-4.33l1.13-1.31V586.65h9.33l5.59,3.73h7.47l1.86,5.6,1.86,3.73,3.16-2.77,4.42-3.49,3.61-1.2s5.28,8.07,5.6,9.32,0,10.58,0,11.19,2.8,14.61,1.87,18.65-.94,12.13-1.87,13.06.93,8.39,0,9.33-5.91,9.64-7.46,9.32-5.28,4.35-5.59,3.73-5.6-3.73-5.6-3.73h-5.6l-5.59,5.6-3.73,1.86a36.2,36.2,0,0,1-3.73-3.73c-1.55-1.86-5.6-7.46-5.6-7.46a40.31,40.31,0,0,1-3.73-3.73c-1.25-1.55-5.91-7.78-5.59-7.46v0s-3.52-4.05-5.61-3.75-9,1.25-9.33,1.87-1.54,4.66-5.59,5.59-10.26,4.35-11.19,5.6-7.46,3.73-7.46,3.73-4.26,1.23-4.94,1c-2-.84-6.25-4.68-6.25-4.68l-1.86-7.47.23-7-2.1-6.06,3.73-3.73.36-3.11Z"/><path class="cls-4" d="M573.68,704.15s-2.8-3.41-1.87-5.59,1.25-9,1.87-9.33,0-3.73,0-3.73l-5-6.23v-3.65l1.29-3.17v-5.6l0-4.7,7.44-2.76s8.08-5.28,9.33-5.59,6.4-2.06,7-2.37a29.24,29.24,0,0,0,2.9-2.62l1.26-2.47,9.33-1.87,2.57,1,12.35,14s-.5,1-.23,4.45c.35,4.53-.05,6.74-1.63,8.61-.45.53-1.87,1.86-1.87,1.86v9.33s1.43,7.14,1.34,9a52.5,52.5,0,0,1-1.34,5.88s-5.92,1.64-7.46,1.86c-1.9.28-5.26,2.4-7.46,3.73-.94.58-4.73,4.14-5.91,4.67-.57.25,0,0-1.55.93s-7.4,2.86-7.46,3.73c0,.6-1.62-1.57-3.18-2.66a16.38,16.38,0,0,0-8-2.94C576.8,707.88,573.68,704.15,573.68,704.15Z"/><path class="cls-4" d="M544.67,664.57a35.3,35.3,0,0,0,3.11-5.73c.94-2.49.81-2.79,4.64-4.27,2.48-1,8.32-4.07,8.32-4.07l1.17,4.71,1.24,2.79,6.8,5.12s.62,6.85,0,9.33-1.61,4.38-1.29,5.93a10.66,10.66,0,0,0,2.21,3.64l2.92,4.2s-.35,6.4-1.1,8.28c-.52,1.29-2.07,5.69-.19,7.85,1.47,1.7,3.69,3.78,4,4.86s2.81.67,2.81.67l7.7,4s-8.32,1.25-9.57,1.57-3.73,1.25-5.6,0-5.88-3.59-7.45-3.73c-2.79-.26-2.73-.43-7.46-1.87a42,42,0,0,1-2.67,5.35c-.93,1.25-2.25,7.46-4.79,7.71a16.42,16.42,0,0,0-5.6,1.87c-.93.31-6.53,2.79-7.46,3.72s-5.6,1.87-5.6,1.87-4-2.48-3.73-3.73-.57-6-.25-6.59-1.53-3-1.53-3.35,1.17-6.85,1.78-8.71-.61-4.67,0-5.6-3.73-3.73-3.73-3.73l-2.27,3.8a9.69,9.69,0,0,1-3.33-1.93c-1.86-1.55-4.66-3.66-5.59-5.6-.31-.62,1.86-9.32,1.86-9.32s7.15-4.67,7.46-5.6,8.08-4,7.47-3.73,2.48.43,3.09-.19,3.93-1.13,3.93-1.13l2.44-3.31,3.13-2.47Z"/><path class="cls-4" d="M639,698.56s-.32,14,0,14.92.93,6.53,1.86,7.46,1.87,5.59,1.87,5.59,3.11,7.47,3.73,7.47,4.05,8.39,5.6,9.32a44.81,44.81,0,0,1,5.06,4.5l-8.8-6.36-8.72-6.87-4.33-2.46s-4.49,2.13-6.81,5.06c-1.35,1.7-10.29,1.15-11.84.54s-13.38-3.12-13.06-3.73-2.51-3-3.73-5.6c-.81-1.71-5.59-5.59-5.59-5.59s-6.21-.62-5.6-1.87,0-3.73,0-3.73v-3.73c0-.93,10.19-5.19,10.19-5.19s3.72-3.28,3-2.73c-.94.7,3.85-1.85,4.46-2.79s6.72-2.3,6.72-2.3l5.5-1.91,1-3.93v-5.18a39.39,39.39,0,0,1-1-7.68c0-3.41-.93-7.14,0-7.46s3.3-2.9,3.73-5.59c.23-1.38,0-9.33,0-9.33s5.87,8.06,6.62,8.61a11.52,11.52,0,0,1,2.71,2.58,12.87,12.87,0,0,0,5-3.16c2.37-2.55,4.29-4.3,5.23-4.3s4.34-.61,4.66,0,5.6,3.73,5.6,3.73,0,7.15-1.87,9.32-5.28,8.08-5.59,9.33-.94,7.78-1.87,7.46S639,698.56,639,698.56Z"/><path class="cls-4" d="M573.68,564.27c.32.62.93-8.71,1.86-9.33s.86-4.58.86-4.58l4.74-6.61a58.33,58.33,0,0,1,5.6,3.73,16.29,16.29,0,0,1,5.24,7.6c.6,2.08,1.55,1.93,3.34,1.73a18.91,18.91,0,0,1,2.6,0l1.87,5.6s-2.48,6.2-5.59,7.45-5.6,4-5.6,3.74-2.39,6.18-2.68,7c-1.55,4.3-.62,6.49-.62,6.49s.5,6.13,1.44,7,5.65,3.57,4.72,3.25-6.91,4.83-6.59,6.08-4.35,7.14-3.73,9.32,1.86,5.28,0,5.6S570,622.09,570,622.09s-7.77,1.25-7.46,1.86.62,8.4,0,9.33S558.6,636,558.76,637c.48,2.81.62,3.73,1.87,5.6s0,6.84,0,7.45-1.25,1.25-1.87,1.87-9.32,3.73-9.32,3.73l-3.73,7.46s0,.93-3.73,3.73-5.28,4-5.6,5.6-8.08,2.18-7.46,1.86-.8-2.61-.59-5.1a4.72,4.72,0,0,0-.61-1.61,12.94,12.94,0,0,1-2.53-4.48c-.94-2.8-1.87-3.11-1.87-5.59s-.32-4.67-1.87-3.73-6.84,1.86-7.46,3.73-4.18,4.24-5.6,5.59c-2.73,2.61-4.43,6-5.59,5.6s-5.6-2.48-5.6-1.87-3.73,2.58-3.73,1.87S491.6,665,491.6,665l-3.73-1.87L486,661.26l-4.28,5.22-5.05,7.83a14.48,14.48,0,0,1-1.86-3.73,19.86,19.86,0,0,1-1-8.49l-2.76-2.7-1.87-1.86s5.92-3.12,7.46-3.73,10.88-2.49,11.2-3.74,5.6-5.59,5.6-5.59l5.59-1.86c.94-.32,8.08,1.54,9.33,0s3.74-5.92,7.47-9.33,9-3.73,9.33-5.6a11.75,11.75,0,0,1,3.73-7.46c3.11-3.11,4-6.52,5.6-7.46s2.48-5,1.86-5.59S538.25,596,538.25,596s7.46-5.92,11.19-7.46,8.39-.62,11.19-3.74,7.77-5,9.32-7.46c1.14-1.82,3.9-4.94,3.73-5.59C573.06,569.25,573.37,563.65,573.68,564.27Z"/><path class="cls-4" d="M504.66,575.46s5.6-3.73,5.6-5.6,3.41-4,3.73-5.59,3.73-5.59,3.73-5.59,1.55,7.77,0,11.18-2.18,7.46-1.86,7.46,1.86,1.26,1.86,1.87,5.28-2.8,5.6-1.87,0,5.6,0,5.6-3.12.32-3.73,1.86-1.25,5.28-3.73,7.47-6.22,6.21-7.47,5.59S502.8,596,502.8,596s3.41-3.73,3.73-5.6.93-1.55,1.86-3.73-.31-6.21,0-5.59-3.73,3.72-3.73,3.72-.93,1.87-1.86,0,2.48-5.59,1.86-5.59S504.66,575.46,504.66,575.46Z"/><path class="cls-4" d="M531.69,728.4c.93,0,6.56-2.8,8.42-3.73s6.85-4,7.46-3.73,2.19,1.25,3.74-1.86l3.72-7.47c.94-1.86.62-4,1.87-3.73s9.27,1.75,10.2,2.68,4.7,3.33,6,3.45c3.38.3,5.46-.43,8.4-.92.68-.11,3.75-1.33,4.36-1l2.73,1.4v7.46s-.4,1.36,2.38,1.36c3.73,0,5.5,3.1,4.77,3.76s-.94,2,.31,4.21S600,737,599.35,738s1.06,4.75.44,5.36-7.4-.88-8.83-.28c-4.38,1.84-7.8-1.38-10.91,1.1a7.57,7.57,0,0,1-8.24,1.05c-2.18-.94-6.84-4.67-9.32-5.6s-8.63-3.72-9.32-3.73c-3.62-.05-6.21,3.12-5.6,1.87l-2.51,1.54c1.13-.09-5.88.56-8.68-1.54a24.86,24.86,0,0,1-3.73-3.73S530.76,728.4,531.69,728.4Z"/><path class="cls-4" d="M642.69,750.78s-7.15,7.78-9.33,9.33-3.41,5-3.73,5.59-.93,4,0,5.6.62,13.37,0,13.05-.31,1.87-3.73,3.74-12.74,3.72-13,3.72-3.42,2.49-5.6,5.6-3.73,5.6-3.73,5.6l-3.73,3.73L594.2,803s-2.3-3.3-1.87-3.73c.78-.78,2.48-.94,3.73-1.87s2.8-5,1.86-9.32-1.24-3.42,0-5.6a3.31,3.31,0,0,0,0-3.73s-4.34-1.55-3.72-1.87,2.18-2.48,3.72-3.73,2.8-5,3.74-5.59a43,43,0,0,0,5.59-3.73c2.18-1.87,6.21-3.12,5.6-5.6s-5.6-5.59-5.6-5.59h-3.73l-1.86,3.73-1.87-9.33c-.32-1.55.8-4.57.18-4.25s-1-8-1-8l.34,1.46a8.27,8.27,0,0,0-2.6-5L595,726.76l1.85-1.67,6.69,8.91s8.65,2.76,10.91,3.12c1.1.17,2.89,1.76,6,1.14s5.15,1.33,7.34-.53,7.46-5.6,7.46-5.6L639,734c-.62-.32,9,7.77,9.32,7.46s7.47,5.59,7.47,5.59v1.87h-1.87c-1.86,0-7.14,2.79-7.46,1.86S642.69,750.78,642.69,750.78Z"/><path class="cls-4" d="M546.33,738.49s4.83-3,6.84-2.63a52.75,52.75,0,0,1,9.32,3.73c1.23.79,5.58,3.36,6.22,3.76a52.19,52.19,0,0,0,4.74,2.6c1.41.72,2.93-.39,4-.76s3-1,3.73-1.87,7,1.59,9.33,0,5.59,0,5.59,0h3.73s-.16,5.43.72,7.33-4.45,3.86-4.45,3.86a10.32,10.32,0,0,1-1.86,1.87c-.71.41-.28,7.8-1.87,7.07s-1.29-2.84-4.27-4.29a56.49,56.49,0,0,1-5.06-2.78s-7.6.61-7.46,0,.18,2-.69,2.78-.08,2.19-3,1-2.72-.42-7.45-1.87-7.11-3.91-7.46-5.59-1.29.33-3.73-1.87-2.69-.94-3.62-3c-.79-1.71-3.84-4.5-3.84-4.5Z"/><path class="cls-4" d="M555,762l1.87-5.59-.42-4.43s1.12,3.81,8.58,6.61a50,50,0,0,0,5,.6l3.83,1.79,1.65-4.57s5.6,0,6.31.41,2.59-.86,4.89,1.45l3.75,3,1.84,2.61s-4.81.86-5.59,1.86-3.31,4.37-1.87,5.6,1.27,6.17,1.87,7.46,3.73,3.73,3.73,3.73a2,2,0,0,0-1.87,1.86c-.24,1.85-.41,5.23-1.86,5.6s-3.74-3.73-3.74-3.73a55,55,0,0,1-1.86-5.59c-.32-1.61-3.73-3.74-3.73-3.74a16.86,16.86,0,0,1-3.73,0c-.73-.26-5.65.23-7.46,1.87s-6.6,2.4-7.46,3.73-1.86,5.6-1.86,5.6L553.17,790s-3.65-.64-3.73-3.73-1.72-6.66-.26-9a3.81,3.81,0,0,0,.26-4.08s-1-2.75-2.3-3.08-2.85-2.52-2.85-2.52l5.15-3.72Z"/><path class="cls-4" d="M476.67,674.31s3.91-4.74,3.74-5.59,5.59-7.46,5.59-7.46,6.49,4.32,6.91,6.07c.7,2.9,3.44-.87,6,.37a21.88,21.88,0,0,0,4.27,1l5.85-6.19a9.27,9.27,0,0,0,4.11-3.93c1.49-3.43,7.48-4.42,7.48-4.42s2.58-1.49,2.44.72c-.18,2.63,1.31,6.37,1.31,6.37s.86,4.26,2.63,5.6,1.27,4.36,1.87,5.6,1.45,2.31,0,1.86-5.85,2.59-8,4.35c-3.52,2.89-5.46,3.55-6.94,5s-.55,3-1.44,6.23-.27,2.42.55,4.53,5.29,4.73,5.29,4.73,3.55,2.06,3.06,1.29.7-3.12,1.87-3.73c1.56-.8,3.73,3.73,3.73,3.73v7.46s-1.06,3.68-1.86,5.6,1.33.6,1.61,4.6c.32,4.72.31,7.08.31,7.08l4.06,3.24.54,2.35s1.26,2.65-1.43,3.54c-3.23,1.08-4.61,2.22-7-.29s-1.68-2.43-3.73-1.87-2-.37-3.73,0-3.76,1-3.76,1,0-.71-4.24,2.11c-3.87,2.59-3.2,2.54-3.2,2.54s0,4.65-1.86,7.46c-2.34,3.42-1.39,1.64-1.2,5.57a30.47,30.47,0,0,1-1.13,10.39,65.76,65.76,0,0,0-2.66,8.44c-.69,3-.75,2.36-6,4.34-2.75,1-2.33,3.59-5.2,5.82-2.52,2-5.42,3.2-7,4.42-1.82,1.38-7.76-1.65-8.52-1.68s-2.26,1.38-3.73,1.86-3.66-4.55-3.66-4.55.58-5.42,1.79-6.64c5.58-5.57,5.56-3.45,2.86-8.61-.93-1.78-6.9-2.8-5.5-5.1s2.87-4.24.77-6.8c-.89-1.09-2-.64-3.16-4s-1.35-3.36-4.3-5.28a4.46,4.46,0,0,1-1.93-5,6.7,6.7,0,0,1,.44-2.58c.64-1.48,1.57-.55,4.32-2a46.67,46.67,0,0,0,6-4.52s2.33-3.48,1.94-5c-.23-.88-2.46-2.35-2.46-2.35s-1,.43-1.16-2.45c-.13-1.76,1.14-2.77,2.22-6s.95-4.91,1.87-5.6,2.46-2.31,1.86-3.73-1.86-3.73-1.86-3.73l-1.2-2.41,3.06-5.82,5.6-4.82a38.23,38.23,0,0,0,1.33-5.4C476.28,680.6,476.67,674.31,476.67,674.31Z"/><path class="cls-4" d="M511.92,776.39s.22,5.43,2.07,8,4.57,1.89,5.6,1.87,2-10.05,1.86-11.19,4.2-4.93,3.74-5.6,1.12,3.34,1.86,3.73a54.91,54.91,0,0,0,5.9,1.3s1.08-2,1.57-3.16,5.59,0,5.59,0l8.7-.34s-5.51-2.71-4.48-3.71a18.29,18.29,0,0,1,5.65-3.59c7.23-2.07,4.74-2.46,6.23-5.16.35-.64.27-6.55.27-6.55s-4.84-1.05-6.37-3.19a46.8,46.8,0,0,0-4.4-5.44s1.1-5.13.24-4.59c-2.54,1.56-9.57-1-9.57-1l-3.88-4.2-6.69,2.29L523.32,734a3.13,3.13,0,0,0-3.73-1.87,12.93,12.93,0,0,1-5.6,0l-7.46,3.73a1.89,1.89,0,0,0-1.87,1.87c-.54,4.29-.93,5.59-1.86,7.46-.35.69-2.05,2.7-1.87,3.73s0,3,.75,3.68,3.16,3.56,3.16,3.56-1.76,4.12-.18,7.68,2.25,9.81,2.85,10.74A3.65,3.65,0,0,0,511.92,776.39Z"/><path class="cls-4" d="M424.43,668.72l.23-5.13s.26-1.17,3.51-4.2a8.49,8.49,0,0,1,7.46-1.86L433.76,665a14.24,14.24,0,0,0,0,3.73c.28,1.88,4.07,4.18,5.6,5.59s5.19,2.32,7.46,1.86a8.22,8.22,0,0,0,5.6-3.72c1.47-2.2,3.6-2.84,3.73-5.6s-.5-4.66,1.87-5.59a26.15,26.15,0,0,0,5.59-3.73h5.6s2.38,3,3.73,3.73c.87.47.75,4.12.75,4.12a7.5,7.5,0,0,0,1.12,5.2,8.26,8.26,0,0,1,1.86,5.59c0,6.07-1.87,11.32-2.6,11.84s-5.44,4.32-6.22,6.76-1,4.05-4.24,3.79-6.16.12-8.09-1.36a14.22,14.22,0,0,0-6.83-2.37c-2.31-.3-6.41-1.37-6.89-.29s-1.75,1.15-1.94,2.06a28.1,28.1,0,0,1-5.09,10.3c-1.73,2-2.29,2.14-4.74-.88a25.53,25.53,0,0,0-3.73-3.73s-5.6,6.28-5.6,5.59-.4-7.26-.46-8c-.56-6.84-1.74-12.41-1.4-14.33s1.24-5.22,1.24-5.22c.69-.76,1.74-4.81,1.74-4.81l2.57-2Z"/><path class="cls-4" d="M467.48,763.68c2.14,3.19,3.71,4.37,1.73,5.75s-2.08,2.29-3,3.34c-1.32,1.47-2.12,4.26-2.4,6.14s-.51,1.14-3.06,2.21c-4,1.68-2.82,1.18-5.63.94-1.76-.16-1-1.55-4.54-1.43s-6.42,3.51-7.59,2.45a28.78,28.78,0,0,1-3.6-4.32c-1.88-2.46-3.49-7-5.6-7.46s-8.34.85-10,1.84c-1.87,1.11-4.05-.13-4.9,1.89-.76,1.79-5,2.81-4.33,5.37,1.53,5.9-1.27,7.69-1.27,7.69a16.84,16.84,0,0,1-3.73-1.87,15,15,0,0,1-3.73-3.73s-2.9-3.34-3.73-1.86a19.9,19.9,0,0,1-3.74,3.72s-3.19-5.48-1.86-7.46,4.08-3.75,3.73-5.59.5-3.42,0-4.61-2-1.29-1.83-2.85a3.79,3.79,0,0,0-.73-2.62s-2.42-1.53-3-3-1.86-5.59-1.86-5.59-.93-2.81.72-4.45c.72-.71,1.14-1.15,3-3,2.23-2.23,2-3,5.95-2.5s4,1.18,6.47.27a19.14,19.14,0,0,1,6.23-1.5c3.55-.4,4.91-.6,5.6-1.87s2.71-1.73,1.87-3.73a34.61,34.61,0,0,0-3.73-5.59s-3.74-1.87-2.93-2.21-1.46-5-.81-5.25l2.23-.78s2-3.7,1.51-4.82,1.86-9.33,1.86-9.33l5.6-5.59A24.27,24.27,0,0,0,430,706c1.31,1.07,1.4,4.27,3.73,1.86s2.59-2.43,3.73-5.59c1.5-4.15,2.71-6.49,3.74-7.46s5.59,0,5.59,0a36,36,0,0,1,7.46,1.86,26.15,26.15,0,0,0,5.6,1.87c1.89.43,6.27-.55,6.27-.55l3.53,6.84-1.35,2.31a2.3,2.3,0,0,0-1.84,2.51c.06,2.24,0,2.72-1.42,4.91s-2.35,5-1.46,6.36a24.44,24.44,0,0,0,3.27,3.32l-1.4,4.14s-.67,1.64-3.73,3.73a23,23,0,0,1-7.07,3l-.4,2.65c-.39,2.65.36,4.43,1.87,5.59s2.88,1.51,3.73,3.73.84,3.05,3.13,4.94a3.92,3.92,0,0,1,.93,5.63s-2.5,2.75-.32,3.7Z"/><path class="cls-4" d="M389,706s10.52-8.19,11.19-9.33,5-6.26,5.6-7.46S410.59,678,411.37,678s1.91-3.71,3.73-7.46,4.26-4.36,3.74-5.59-1.87-9.33-1.87-9.33a10.85,10.85,0,0,0,0-3.73c-.37-1.87-4.35-6.56-3.73-7.46s1.73-6.15,1.86-7.46,2.24-6.12,1.87-5.6c-.07.12-.13.15-.15.13s.62-.89,3.88-2c4.11-1.38,4-.65,7.47-1.87s5.28-2.81,7.46-3.73,6.88-4.81,9.33-5.59,4.64-2.59,5.59-1.87,3.73,3.73,3.73,3.73.08,2.6-1.86,3.73-5.6,3.73-5.6,3.73a9.79,9.79,0,0,1,0,3.73,9.55,9.55,0,0,1-3.73,3.73c-1.17.56-3.73,0-3.73,0s.56,2.8-1.87,3.74a8.05,8.05,0,0,0-3.73,3.73h-5.59l-1.87,1.86-1.87,3.73,1.87,1.86s6.53,1,5.6,0,0-3.72,0-3.72l3.73,1.86v3.73l1.86,3.73-1.86,1.87H431.9s-3.77.89-5.6,3.73-1.55,3.56-1.87,5.59a47,47,0,0,0,0,6.65l-1.82.81c-.81.36-4.24,9.68-3.73,11.19S420.7,706,420.7,706a12.37,12.37,0,0,1-.32,3c-.34.86-2.11,6.25-1.6,7.33s0,5.15,0,5.15l-3.68,1.29s-4.12,1.62-5.59-1.87-1.87-3.73-1.87-3.73-11.49-.93-11.19,0-2.26-.12-3.73-1.87a48.68,48.68,0,0,1-3.73-5.59Z"/><path class="cls-4" d="M474.81,795.55c0,2.65.74-11,1.56-11a10,10,0,0,0,5.9-2l5.6-3.73s3.08-5.3,5.6-5.6,3.23-.35,3.73-1.86a51.54,51.54,0,0,0,1.86-5.6,51.82,51.82,0,0,1,1.87-5.59s.69-7.7,1.4-7,2.56,2.85,2,4.5c-1.45,4.59.44,5.77,1,8.14s1.37,6.1,1.6,6.91c.54,1.89,1.6,3.21,2.35,3.49,1.38.51,2.52-.74,2.81.71s.15,6.29,1.31,6.77.39,1.68,2.69,2.34c1.87.53,2.21,1.23,3.86-.49,1.4-1.46,1.46-10.48,1.46-10.48l3.74-5.6s.09,2.65,1.86,3.73,2.39.65,5,1.13c1.52.28,1.69-2.17,2.52-3s4.9.13,5.59,0,4.68.48,5.6,0a8.2,8.2,0,0,1,3.1-.34s1.73,4.48.63,5.93a4.86,4.86,0,0,0-.8,3.82c.08,1.14.88,6.19.88,6.19l1.58,2.19s2.07.86,3.93,8.32c.31,1.21,3.73,5.6,3.73,5.6s-.82,5.07-1.86,5.59-2.67,3.17-3.73,3.73-1.94,4.48-3.73,5.6-1.9,1.55-3.73,3.73-4.59,6.62-5.6,5.59-6.08-5-5.59-5.59-2.84-6.49-1.87-7.46,1.73-8.45,1.87-9.33,1.86-5.59,1.86-5.59l3.73-1.87v-5.6s3.44-1.54-1.86-1.86-11.2,0-11.2,0-3.77.63-3.73,1.86-3.08.75-1.87,3.74-1.86,5.59-1.86,5.59L512.13,803l-1.87,3.73s.61,1-1.87,3.72-5.63,3.61-5.59,7.47,3.35,6.26,1.86,7.46-4.57-1.49-5.6-1.87-9-1-11.19-1.86-4.91,2.57-7.46,1.86-5.86-1.3-7.47-1.86a24.41,24.41,0,0,1-3.73-1.87s-2.1-1.92-1.86-3.73a16.82,16.82,0,0,0,0-3.73s-5,.09-3.74,1.87-.55,9.68-1.86,7.46a29.26,29.26,0,0,1-2.36-5.37l.91-8.25s2.24-.48,7.05-3.17,7.5-4.49,7.46-5.59S474.8,794.85,474.81,795.55Z"/><path class="cls-4" d="M418.84,795.55s-.9.27-1.87-1.87-4.57-5.8-3.73-5.59,1.86-2.8,1.86-3.74-1-5.16.12-6,1.59-1.91,3.62-3.3c2.21-1.51,5.18-2.09,5.59-1.87s3.66-1.9,3.74-1.86,2.81-.62,3.73,0,2.5-.35,3.52,1.22,5.56,9.66,6.29,9.27.93,2.27,3.25.7,6-1.86,7.46-1.86,2.73,2,3.73,1.86,6.68-1.94,7.54-2.69,2.84,5.19,3.66,4.55a8.53,8.53,0,0,1,3.73-1.86c1.15-.11,5.29,2,5.29,2l-.5,1.12c-.42,4.8-.31,3.66-.42,4.8-.42,4.65-.28,4.9-.67,9.21,0,.38-2.49,1.68-3.63,2.6-2.51,2-4.13,2.77-5.38,3.74s-6,1.54-5.89,2.6a10,10,0,0,1,0,3.73c-.37,1.75-.95,4.12,0,5.6s2.25,4.1,2.25,4.1-5.85-1.21-7.85-.37-6.92,2.93-9.32,3.73a92.53,92.53,0,0,1-9.33,1.86s.65-2.85,1.86-3.73,8.74-3,9.33-3.73,3.77.36,3.73-1.86,2.26-2.3,0-3.73a14.07,14.07,0,0,1-3.73-3.74s-4.06,1-3.73,1.87-.43,4.81-3.73,3.73-7.5.15-7.46-1.86-1.55-6.23-1.87-5.6a9.57,9.57,0,0,1-1.86,1.86,4.35,4.35,0,0,0,0,3.74c.95,2,4.59,1.66,3.73,3.73s-3.36,2.25-3.73,1.86-3.57-2.35-3.74-3.73-2.09-4.36-1.86-5.6,2.63-2.83,1.86-3.72-4.32-5.13-3.73-5.6,1.51-.17,1.87-1.86a11.92,11.92,0,0,1,1.86-3.73Z"/><path class="cls-4" d="M409.51,808.6s-3.92,4.52-3.73,5.6.68,4.66,0,5.59-.93,3.28,0,3.73,1.38,1,3.73,3.73,2.63,1.31,5.59,3.73,4.26,3.71,5.6,3.73,6.16.47,5.6,1.87,1,1.79,0,3.73-4.54,4.53-3.73,5.59.22,3.88,0,3.73-2.37-1.06-3.73-1.86-5.26-3.23-5.6-1.87-4.7,4.09-7.46,5.6-4.5.15-7.47,1.86-5.42,2.2-5.59,3.74-2.09,3.28-1.87,3.72a33.72,33.72,0,0,1,0,5.6c-.07.75.19,5.73-1.86,5.6s-5.47.46-5.6,1.86-2.61,3.15-3.73,5.6-1.28,4.9-1.86,5.59,0,3.73,0,3.73a37.53,37.53,0,0,1-3.73,1.46c-.88,0,.69-2.37-2.36-5.43-3.53-3.55-4.76-2.85-5.1-3.49-.78-1.45,0-2.29,0-3.73s2.89-5,3.73-5.59c1.8-1.23,1.16.52,3.73-1.87,2.13-2,2.11-3.75,3.73-3.73s3.92-.95,3.73-1.87-3.25-8.44-1.87-9.32,4.31-3,3.73-3.73a12.36,12.36,0,0,1-1.86-3.73,46.55,46.55,0,0,1-1.87-5.6c-.19-1.45-.34-4.39.64-4s7.44.06,6.82-1.63,1.22-2.67,0-3.73-5.44-3.07-6.18-3.49c-1.05-.61-3.89-.3-3.14-2.11,2.62-6.36.81-5.83,1.86-5.59-.82-.19-3.65-2.69-3.32-3.33s-.67-2.44-.41-4.13c.39-2.49,3.37-4.47,4-4.74,1.55-.7,3.68-.86,4.82-1.64.43-.3-1.15-2.82,5.69-1.18,2.56.61,7.2-6.51,7.2-6.51a7.69,7.69,0,0,0,1.06-3c-.05-1.93.81-4,.85-5.14s.47-5.88.66-5.73-.59-1.51-1.43-1.69,4.07-4.26,4.07-4.26l1.09.36,4.37,4.66s.74.05,3.29,2.1c3,2.4,3.05,2.86,3.05,2.86s1.85,2.63,2.35,3.43,0,3.73,0,3.73-3,2.24-3.73,1.87-1.33.85-1.87,1.86S409.51,808.6,409.51,808.6Z"/><path class="cls-4" d="M379.66,715.34a5.78,5.78,0,0,1,1.87-3.73C383.34,709.94,389,706,389,706a11.31,11.31,0,0,0,0,3.73c.37,1.6,2.32,4,3.73,5.59,2.45,2.68,2.5,1.7,5.59,1.87s7.47,0,7.47,0a2.22,2.22,0,0,1,2.68,1.4,16.32,16.32,0,0,0,2.91,4.2h3.73l.81,5.25,3.74,3.26a5.94,5.94,0,0,0,2,2.83c1.28.75.6,3,.6,3a4.08,4.08,0,0,1-3.21,3.68,75.68,75.68,0,0,1-8.61,1.36s-3.11,1.9-4.64,1.13-7-1-7.47,0-4.53,3.62-3.73,3.73c.14,0,.17,0,.17,0s-1.58-.24-2,1.87c-.52,2.5,1.33,7.85.28,5.11-.38-1-5.22-3.63-5.46-4.77s-4.15,1.52-4.15,1.52,2.23,3,1.87,3.73a13.17,13.17,0,0,1-5.6,5.6c-2.72,1.23-6,.73-5.59,1.86s-.58.82-1.87,1.87a18.55,18.55,0,0,0-3.73,3.73,18.81,18.81,0,0,1-3.73,3.73c-1.27,1-2.22,2.63-2.59,2s-5.93,3.33-6.73,1.69-1-4.4-3.73-3.73-3.73,0-3.73,0l-3.74-3.73s-2.81-3.07-2.13-4.35c.77-1.47-1.33-1.86.27-3.11s4.61,4.1,5.6,3.73,3.28-4.61,3.73-3.73,5.59,1.86,5.59,1.86-1.4.8,1.87-1.86,4-1.07,5.59-1.87-1.73-3.82,1.87-3.73,5.11,1.68,5.59,0-1.19-7.92,0-7.46,5.39.43,5.6,1.87,1,5.83,1.86,1.86,1.85-6,1.87-7.46-3.23-4.74-3.73-5.59-3.41,1.73-3.73-1.87-.58-4.05-1.87-5.59-2.61-2.73,0-3.74,4.33-1.13,5.6-3.72S379.66,715.34,379.66,715.34Z"/><path class="cls-4" d="M312.13,772.57s.83-.78,2.68-2.85,5.64-3,5.17-5.88-.6-4.12-2.65-3.24a37.41,37.41,0,0,0-5.45,3.4l-1.23-3.89s.49-6.53.14-6.44-.61-1.44,1.42-2,5.05-1,7.77-2.79,3.86-.92,5.59-1.87,5.6-3.73,5.6-3.73a4.4,4.4,0,0,0,1.87,3.73c2.07,1.53,5.74,2.39,3.73,3.73s-5.64-1.51-5.6,1.87-1.45,6.23,0,7.46S334,763,334.9,762s3-2.93,3.73-3.73,3.73,0,3.73,0a4.75,4.75,0,0,0-.41,3.3c.29.78-.6,3.06,2.73,6.48,1.45,1.49,1.26,2.66,3.28,3.28s4.53,0,5.59,0,2.33,4.14,2.33,4.14l7-2.28,0,3.27-1.83,4.2,3.73,1.86a20.37,20.37,0,0,1,.12,4.75c-.33,4.66-2.24,6.66-2.29,7.84-.08,1.71,1.1.86,2.17,2.33.68.94-.86,2.05,0,3.73s0,5.6,0,5.6a13.34,13.34,0,0,1,4,1.63c4.05,2.41-.44.39,1.2,1.16l9,.86s-2.51,1.7-2.92,3.81,2,5.35-1.86,3.73-7.7,2.16-9.33,1.86a5.47,5.47,0,0,1-3.73-1.86c-1.08-1.27-2.83-1.4-3.73-5.6a14.41,14.41,0,0,0-3.73-7.46,4.38,4.38,0,0,0-2.82-1.77,16.57,16.57,0,0,1-4.64-.09c-1.42-.45-5.55-5.31-6.76-6.07-.9-.56.15-3.43-.7-5.13a7.17,7.17,0,0,0-3.73-3.72,20.36,20.36,0,0,0-5.59-1.87c-.94-.06-.47-.62-2.68-1.42a31.08,31.08,0,0,1-5.5-2.32,35.24,35.24,0,0,1-8.89-7.84Z"/><path class="cls-4" d="M357.28,831s.13-.93.26-2.27a23.37,23.37,0,0,0-.26-7.05,18.24,18.24,0,0,1-.29-6.83l.29-2.5s1.38,4.75,4.46,6.31c4,2,3.74,1.06,5.76.21a24.62,24.62,0,0,1,4.08-1.31s4.25-.29,4.76.79a4.13,4.13,0,0,0,.87,1.48c1.65,1.82,2.45,1.85,2.45,1.85l-1.73,6.7s.28.31,1.9.65c3.16.68,7.65,4.34,7.65,4.34l-.36,3.23s-.77,1.78-3.73,1.86c-2.56.07-3.84-1.41-3.73,1.87s1.24,4.55,1.26,5.78,1.95,4.66,1.95,4.66a1.85,1.85,0,0,1-.36,2.31c-1.09.93-3.31,1.7-3.19,3.45s2.17,6.83,2.21,8c.06,1.64-4,.27-5.18,2.41-1.76,3.13-4.54,4.82-6,5.06-1.3.2-3.44,4.54-3.44,4.54l-9.62-.81s-3-.66-3.73-1.87-1.25-3.43-1.86-7.46-2.75-8.44-1.87-9.32c1.93-1.93,2.19-3.84,3.56-4.19,3.55-.9,5.77-1.41,5.77-1.41s-4-6-3.73-7.46.74-3.2.74-3.2a11.14,11.14,0,0,0,1.64-2.92C358.09,836.8,357.28,831,357.28,831Z"/><path class="cls-4" d="M325.57,844a8.37,8.37,0,0,0,5.6-1.87c2.52-2.12,3.71-1.26,5.6-5.59s3.8-2.62,3.73-5.6.07-5.56,0-7.46,0-5.59,0-5.59-1.2-3.44-.57-5.87a14.39,14.39,0,0,0,.57-5.32c-.17-1.09.23-2.86,0-5a14.32,14.32,0,0,0-1.61-5l1.65.62s4.15,5.78,5.59,5.6a53,53,0,0,1,5.6,0s4,4,4.57,6a33.8,33.8,0,0,1,.62,6.77,16.28,16.28,0,0,0,.14,4.74c.41,1.37.83,1.33.64,4s-.45,5.19-.38,6.45.52,6.94.52,6.94l-2.38,4.25s-6.64,0-7.46,0a21.33,21.33,0,0,0-3.26.47s-3.46,3.07-4.88,3c-1,0-4.23.41-4.23.41a27.11,27.11,0,0,1-5.36,0c-2.73-.5-4.72,1.21-5.47,1.64s-2.91-1.79-2.91-1.79Z"/><path class="cls-4" d="M333,883.21s4.51,2.4,5.59,3.73-.73,6.49,0,7.46,5.15,2.59,5.59,3.73,2.75,4.19,3.74,3.73.8,1.71,3.73,1.86,6.67,1.81,7.46,1.87,1.36.11,3.73-1.87,3.86-1.58,5.59-3.73,2.89-1.42,3.73-3.73a50.16,50.16,0,0,0,1.52-7.41l-2-4-5.3-3.92.14-4.35s-10.73-.29-12.63-2.24a4.72,4.72,0,0,1-1.26-2.83l-1.08-5.68-1.45-5.32-.65-3a14.43,14.43,0,0,0,2.3-3.23c1.22-2.17,7.37-2.72,7.37-2.72a30.67,30.67,0,0,0-1.7-2.7c-3.2-4.36-2-6.63-2-6.63l-6.54-.27a10.78,10.78,0,0,0-7.9,3.87s-2.91-.39-4.21.13-9.33,0-9.33,0l-5.59,3.73s1.09,3.92,1.86,3.73.48.73,1.86,1.87,4.67,3.84,3.74,3.73-3.74,1.86-3.74,1.86-1.38,2.71,0,3.73,1.87,3.73,1.87,3.73a20.91,20.91,0,0,1-3.73,1.87c-1.36.39-2-.56-1.86,1.87s3.76,4.86,3.72,5.59,4,2.48,3.74,3.73S333,883.21,333,883.21Z"/><path class="cls-4" d="M282.68,758.24s2.89-5.07,3.73-5.59,3.78,1.23,3.73,0,17,.52,16.78,0,3.38-.9,3.73,0,0,6.23,0,7.46.55,4.81,1.87,3.73,5.59-3.73,5.59-3.73a4.71,4.71,0,0,1,1.87,3.73c0,1,.28,2.16-1.87,3.73s-4.59,2.61-4.68,3.63-2.94,1.2-.91,3.83,3.84,4.66,5.59,5.6,3.36,2.33,5.57,3c1.85.6,4.08,1.89,5.63,2.54s4.68,1.3,5.59,1.87a18.49,18.49,0,0,1,3.73,3.72c.73,1.09,0,2.13,0,3.74s1.87,5.59,1.87,5.59a35.32,35.32,0,0,0,0,5.6c.27,1.75-.82,7.66-1.87,9.32s-.75,3-3.73,3.73-7-.22-7.46,1.87-4.33,4.31-5.59,3.73-4.61-1-5.6-1.87-3.82-.95-5.6-3.73a26.61,26.61,0,0,0-5.59-5.59H297.6s-10.8.91-13.06,1.86-4,4.2-5.59,1.87a52.21,52.21,0,0,1-3.73-7.47s-1.76-2.73-2-8.32c-.12-2.43.75-5.49,3.89-8.46,2.73-2.58,5.26-5.7,5.6-7.46.51-2.64,0-4.65,1.07-6.63.79-1.43,2.15-1.61,3.05-3.5,1-2.21,2.22-4-.39-6.66-2.36-2.38-5.07-5-4.75-6.07S282.68,758.24,282.68,758.24Z"/><path class="cls-4" d="M297.6,845.9a57,57,0,0,1,3.73-5.59,27.47,27.47,0,0,1,5.59-5.6c2.32-1.75,7.46-5.59,7.46-5.59l3.73-1.87s-3.19,4.07-3.73,5.6-3.73,5.59-3.73,5.59v3.73c0,1.42.19,2.85,1.87,3.73s1.86,3.73,1.86,3.73a12.64,12.64,0,0,0-3.73,1.87c-1.77,1.32-4.27,1-3.73,1.86s-2.66,3.21-3.73,1.87-3.73-5.6-3.73-5.6H297.6Z"/><path class="cls-4" d="M217.4,765.7s10,1.89,11.19,0,1.86-1.86,1.86-1.86h11.19s.51,1.62,3.73,1.86,8.34,1.18,9.33,0-1.16-3.45,1.86-3.73,5.17,2.24,7.47,1.87,5.16-.52,7.46-1.87,6.24-5.59,7.46-5.59,6.24-2.24,6.24-2.24a43.7,43.7,0,0,0-2.51,6c-.39,1.23-2.09,3.58,0,5.59s5.59,5.6,5.59,5.6-1.28,4.83-1.86,5.59-3,2.45-3.73,3.74-4.26,1.91-7.46,3.72-7.09,1.39-7.46,0-1.07-4.49-3.73-5.59-6.4-4.23-5.6-3.73c0,0-3,1.45-3.73,1.86s-2.78,3.15-3.73,3.74-5.63.84-5.6,0-.76-4.5-3.73-3.74-4-.22-5.59,1.87-2.82,1.12-5.6,3.73a19.91,19.91,0,0,1-5.59,3.73,29.24,29.24,0,0,1-2.15,3A25.8,25.8,0,0,1,219,792a2.51,2.51,0,0,1-1.64,1.64c-2,.8-10.15-.28-9.33,0s-.11-1.36,0-3.73.62-2.44,3.73-5.6,5.6-2.36,5.6-5.59-.71-3.7,0-5.6S217.4,765.7,217.4,765.7Z"/><path class="cls-4" d="M230.05,833.81l-4.21-8.63s-.7-1.35-2.85-5.39c-2.56-4.81-1.46-6.58-1.65-8.29s-2.08-4.76-2.08-4.76-2-4.46-1.86-5.6a40.4,40.4,0,0,0,0-7.46l7.46-7.46a18.76,18.76,0,0,0,3.73-1.87c2.92-2,8-5.9,8.67-6.34a14.47,14.47,0,0,1,4.38-1.12c2.72-.46,4,4,4,4l4.81,0,3.86-3.7,4.13-2.17,3.6,2.68a18.32,18.32,0,0,1,3.86,2.43,15.1,15.1,0,0,1,1.87,4.21c.33,1.11,1.63,1.45,3.27,1.19a32.14,32.14,0,0,0,7.92-3l4.17-2.47c0,2.35-.44,6.2-.44,6.2S280,791,279,791.81a22.56,22.56,0,0,0-5.6,7.47s-.76,1.25,0,5,1.16,5,1.85,6.22-.31-.25,1,2.31,2.73,5.16,2.73,5.16-3.9-1.92-5.6,0-3.8,4-5.59,5.59-3,1.92-5.6,3.73-6.14,4.78-5.6,5.6-1.1,3.8-5.59,3.73-9.33,0-9.33,0l-1.86-3.73-1.87,3.73-4.13-.9Z"/><path class="cls-4" d="M127.76,822.77s5.63-2.16,7.57-4.84,9.46-11.72,11.19-13.06,5.37-5.43,7.46-7.46a25.65,25.65,0,0,1,5.6-3.73l3.73-1.87s6.56-6.43,7.46-7.46,4.27-2.88,5.59-3.72a34.71,34.71,0,0,1,3.73-1.87c.79-.39-1.13-6.71,0-7.46s3.85-3.17,3.74-3.73,7.46-3.73,7.46-3.73,3.15-3.9,5.59-3.73,6.45,2.31,7.46,0,14.92,0,14.92,0l-1.86,5.59a32.09,32.09,0,0,1,.14,6.91c-.76,4.21,1.2,5.85-.87,8.3-1.6,1.89-5.1,3.68-5.68,4.26a24.53,24.53,0,0,0-2.81,3.75s.52,4.16-.17,4.3c-2.58.5-9.18.16-11.13.46-3,.47-5.11-1.34-5.59,0a26.66,26.66,0,0,1-3.73,5.6c-1.13,1.42-1.44.13-3.42,1.72s-1.82,2.33-1.82,2.33,5,2.48,4.2,4.26c-.24.54-7,4.19-7,4.19a18.22,18.22,0,0,1-6,2.35c-3.54.69-9.1-1.6-11.17-1.08-1.14.29-3-.25-4.59,1.15s-3.34,2.5-3.94,3.36-.92.14-1.65,2.23c-1.29,3.7,0,4.78-1.18,6.39-1.4,1.92-3.2,3.09-4.9,5.71-1.45,2.24,0,6.2-1.38,8.42-1.16,1.88-2.18,5.23-3.73,5.59-2,.46-10.54-.43-10.54-.43s-3.56-.91-2.52-2.35a20.64,20.64,0,0,0,1.84-3.3,7,7,0,0,1-1.84-1.38,11.44,11.44,0,0,1-2.75-3.79c-1.13-2.52-1.53-4.7-.54-5.81S127.76,822.77,127.76,822.77Z"/><path class="cls-4" d="M153.83,852.83s5-4.07,5.75-5.06,5.59-5.6,5.59-5.6h3.73l3.73,3.73s-1.15,7.3,0,7.46,4,2.15,5.6,1.87,8-3.64,7.46-3.73l-.17,0s.84-.13,2-1.85c1.47-2.14,6.17-4.61,5.59-3.73s-1-.88,1.87,0,6.36.55,7.46,0,2.81-3,3.73-3.73a13.93,13.93,0,0,0,1.86-1.86s4.7-1.7,5.6-1.87,2.31.36,3.73,1.87,2.14,2.57,3.73,1.86,4.29-3.2,5.59-3.73,3.73-4.43,3.73-4.43l-3.18-5.9a21.66,21.66,0,0,1-2.41-4.59c-.37-1.18-1.71-2.31-1.87-3.73-.39-3.49-1.38-1.85-1.86-5.59-.1-.75.59-2,0-3.74-1.42-4.17-2.49-4.47-3.13-6.19a9.24,9.24,0,0,1-.6-5,45.77,45.77,0,0,0,0-5.6l-8.55.05-2.26-.47-12.27.47s-1.84-1.39-3-.05-2.37,4.88-3.73,5.6-6.29,2.85-5.6,3.73,6.77,3.93,3.73,5.59a75.17,75.17,0,0,1-7.46,3.73c-2,.79-5.52,2.59-7.46,1.87a36,36,0,0,0-5.35-1.28l-6.65.35s-1.51,1.36-2.73,2.31a13.62,13.62,0,0,0-3.92,4.21c-1,1.73-.58,7.07-1.87,7.46s-2.63,2.82-3.73,3.73-1,4.43-1.2,6.15c-.21,2-.38,1.55-.2,3.41.26,2.67,5.36,3.78,5.13,5.36s-.77,3.56,0,5.6A2.33,2.33,0,0,0,153.83,852.83Z"/><path class="cls-4" d="M81.24,853.36s-5-7.62-3.73-7.46,3.55,1.07,5.6-1.86,2.57-6.49,3.73-5.6a78.51,78.51,0,0,0,7.46,3.73S95,846.61,98,844s3.5-2.41,5.59-3.73,4.15-4.55,5.6-5.6A30,30,0,0,0,113,831s3.71-.39,3.73-1.86-.56-3,1.86-5.6,7.89-1.12,7.47-1.86,2,.22,1.86,1.86-4.1,4.78-3.73,7.46a16.82,16.82,0,0,0,1.87,5.6c.63,1.34,4,1.86,3.73,3.73S127,842,127.87,844s7.46,1.86,7.46,1.86l6-.17,3.35-5.42a9,9,0,0,0,1.86,1.86c1,.71,3.6,2.85,3.73,3.73s-.7,5.13,0,5.6c.54.36.77,2,1.87,1.86s1.61-1.09,2,.48c.52,2.17,1,2-.13,5.12s2.37,3.51,1.87,5.59,1.92,4.85,0,5.6-3.06.86-3.73,1.87-3.06,2.55-1.87,3.73,4.85,3.8,3.73,3.73-7.46-3.73-7.46-3.73l-5.59-1.87s.09.13-3.73-3.73-7.74-4.49-9.33-5.6-3-1.38-3.73,0-2.16.59-3.73,1.87-9.33,0-9.33,0,1.12,3.34,0,3.73-5.59-3.73-5.59-3.73v3.73a3.53,3.53,0,0,1-1.87,1.87c-1.45.65-5.31,2.18-7.46,0s-1.41-2.45-3.73-3.74-2.66-3.69-3.73-3.73-.54,1.29-1.86,1.87-4,.32-3.73,1.86,1.13,3.08,0,3.74-3.47-2.8-3.73-3.74a14.1,14.1,0,0,0-1.87-5.59c-1.58-2.42-1.6-2.91,0-3.73S80.87,853.2,81.24,853.36Z"/><path class="cls-4" d="M148.39,911.18l9.32-7.46,7.46-1.86s4.16-4.52,3.73-3.73,2.22-3.64,3.73-3.73a10.51,10.51,0,0,0,5.6-1.87c1.94-1.42,5.71-1.42,5.6-3.73s-1.31-12.81,0-13,4,.41,3.73-1.87,1.9-5,1.86-5.6,3.73-1.86,3.73-1.86l3.73-7.46s.23.3,1.87,1.86,7.25,8.23,7.46,9.33a5.59,5.59,0,0,0,5.59,3.73c3.47-.15,6.49-4.12,7.46-3.73s7.76,2.28,9.33,1.87,7.46-5.6,7.46-5.6l3.49,1.75c1.24,5.77,1.67,5.7,2.62,8.49.61,1.79-5.07,1-5.07,1a30.3,30.3,0,0,0-10.48,1.3,51.13,51.13,0,0,1-13.29,2.43c-2.39.11-1.82,1.23-3.38,3.73-1.92,3.06-4,7.57-4.45,9.61a10.51,10.51,0,0,1-2.44,4.74c-2,2.6-3.34,2.85-4.3,4.3a4,4,0,0,1-4.22,1.95,8.16,8.16,0,0,0-3.24-.08,47.33,47.33,0,0,0,1.57,5.16c.62,1.27,1.4,4.31.29,6s-3.57.78-4.31,2.31-1,1.13-2.27,3.32-5.39,3.25-6.48,3.69-1.49,5.27-.88,6.54c.83,1.7,4.33.14,4.58,1.11S182,941,182,941s-4.63,1-7.46,0-5.6-5.6-5.6-5.6a1.71,1.71,0,0,1,0-1.86c.64-1-1.86-5.6-1.86-5.6l1.86-3.73,3.73-3.73-1.86-3.73s-3,4.59-3.73,1.86a48.54,48.54,0,0,0-1.87-5.59v-3.73l1.87-3.73h-1.87s-2.25-1.83-3.73,0-4.73,6.17-5.59,5.59-5.6,1.87-5.6,1.87Z"/><path class="cls-4" d="M183.83,952.22h-5.6l3.73-5.6V941s.78-1.78,1.21-3.21c.23-.79.66-4.25.66-4.25s-5.12.3-5-1.5c.13-2,.13-6.41,1.26-6s5.6-1.86,5.6-1.86,2-4.64,3.73-5.6,2.52-1,3.73-1.86.22-6.08,0-5.6-1.86-5.59-1.86-5.59h5.59l3.73-3.73,3.73-3.73,1.87-5.6s3-6,3.73-7.46,2.12-3.91,3.73-3.73,10.5-1.08,11.19-1.86,11.19-1.87,11.19-1.87h5.59s4.59.17,5.6,1.87,7.46,5.59,7.46,5.59l3.73-3.73h3.73s-.43,6.21,1.87,7.46,6,.71,5.59,1.87-.36,4-.5,6.13-1.12,2.75,2.83,2.8a71.84,71.84,0,0,1,7.21.38s-2.86,3.78-3.94,5.61-2.84,6-3.73,7.46-2.13,4.42-1.87,5.59-1.86,1.87-1.86,1.87-1.07.67-3.73-3.73-.9-4.5-3.73-7.46-4.82-2.73-5.6-3.73-1.9-4-5.6-3.73a15.66,15.66,0,0,1-7.46-1.87s-5.39,2.33-5.59,1.87-3.17.3-5.6,1.86-4,2.71-3.73,3.73-1.13.94-1.86,1.87-7.46,1.86-7.46,1.86-1.25,2.72-1.87,3.73c-.33.56-.56,0-.54,0a7.49,7.49,0,0,1,.54,1.85c.8,3.39.08,4.77-1.86,7.46s-4.65,3.9-5.6,5.59-1.71-.8-1.86,1.87,1,5.33-1.87,5.59-4.21,1.89-3.73,3.74.58,2.77,0,3.72a8.17,8.17,0,0,1-1.86,1.87s-1.29,2.71,0,3.73,7.42,5.21,5.59,5.6-10.09-1.64-9.32-1.87c0,0-2.9.41-3.73,1.87s-5.6,0-5.6,0Z"/><path class="cls-4" d="M236.05,851.5s6.62-.78,7.46-1.87S249.09,847,251,844s2.22.09,5.59,0,5.88,1.86,7.47,0a5.29,5.29,0,0,1,3.73-1.87s6.77,4.82,7.46,5.6,4.12,3.47,5.59,3.73a51,51,0,0,1,5.6,1.86l-1.87,5.6a26.51,26.51,0,0,0-3.57-3.57c-.62-.53-7,1.42-9,1.56-3.29.22-3.91-.16-5.35,2.32a21.25,21.25,0,0,1-2.56,3.42l-4.89-1.26-2-1.15-7.37.88a14.22,14.22,0,0,1-3.38,2.81c-1.63.89-5.53,2.87-5.53,2.87l-1.11,1.44-3.73-1.86s-2.28-3.62,0-5.6,4.47-5.67,3.73-5.59S236.05,851.5,236.05,851.5Z"/><path class="cls-4" d="M295.73,857.1c-.69,2.1-5.35,5.37-3.73,7.45s2.65,2.19,3.73,3.73,1.59,4.33,1.87,5.6,1,5.67,1.86,5.6,1.87,1.86,1.87,1.86-7.76,1.25-9.33,3.73-1.64,5.15-3.73,5.6-4.49,3.11-5.59,3.73-2.82,6-3.73,5.59-9.86-.42-9.86-.42c0-1.51,0-1.48.05-4.93a23.13,23.13,0,0,1,.38-4.43s-4.82-.76-5.49-1.41c-1.1-1-1.58-6.76-1.89-6.9a7.87,7.87,0,0,0-3.71-.56s-3,4-3.73,3.73-5.7-3.27-6.59-4.62a14.74,14.74,0,0,0-2.38-2.07L242.17,877l-2.66-8.67a32,32,0,0,1,5.86-3.79c3.59-1.81,3.36-3.52,5.6-3.73s6.66-1.21,7.46,0,4.72,1.82,5.6,1.87,3.73-5.59,3.73-5.59a27.07,27.07,0,0,0,3.73,0c1.37-.53,9.32-1.87,9.32-1.87l3.73,3.73,1.87-5.6,1.86-1.86,7.46,3.73S296.42,855,295.73,857.1Z"/><path class="cls-4" d="M32.75,901.86a5.83,5.83,0,0,1,0-3.73c.63-2.41,7.46-5.6,7.46-5.6s3.47,6.94,5.6,5.6,2.85-3.83,3.73-5.6a4.86,4.86,0,0,0,0-3.73l3.73-5.59s-.69-.64,0-1.87S52.59,879,57,877.61s5.91,1.4,7.46,0a38.42,38.42,0,0,0,3.73-3.73c1-1.21,6.11-1.27,7.46,0s4.87,3.53,5.59,1.87,1.23-.82,1.87,0,1.32,5.59,1.86,7.46,2,3.28,3.73,5.59,1.09,5.69,3.73,5.6a4.09,4.09,0,0,1,3.73,1.86,17.69,17.69,0,0,1-.51,4.15c-.37,1,.66,1.72-3.43,1.51s-5.28-.66-6.51.19-2,4-4.47,5.34-4.14,2.56-4.31,4.11,1.1,2.34.58,3.35-2.14,2.51-2,4.12,1.41,2.61,2,3.34.44,7.28,0,9.33c-.16.74-5.89,0-7.46-1.87s-3.41-3.3-3.73-1.86-5.74.71-7.46,3.73-6.28,8.19-5.59,9.33-1.87-5.6-1.87-5.6S49,931,49.54,929.83,47.67,928,47.67,928l-1.86-1.87a27.77,27.77,0,0,1,1.86-3.73c.62-.78,2.24-3.84,3.73-3.73s1,.06,3.73-1.86,3.32-1.29,3.73-3.73-1.86-5.6-1.86-5.6-2.3-1.38-3.73,0-3.73,3.73-3.73,3.73l-3.73-3.73-1.87-1.86s-4-2.73-3.73-1.87-1.87,1.87-1.87,1.87l-3.72,1.86s-2.5-.86-1.87-1.86S32.75,901.86,32.75,901.86Z"/><path class="cls-4" d="M107.35,898.13s7.35-2.22,7.47-3.73,2.36-6.14,3.72-5.6,5.23,2.67,5.6,3.73a51.62,51.62,0,0,1,1.87,5.6c.28,1.49-.64,4.38,0,5.59s2.91,4.31,0,5.6a32.78,32.78,0,0,1-5.6,1.86s-.37,1.83-1.87,1.87-5.25,4.77-3.72,5.59a36.26,36.26,0,0,0,5.59,1.87l5.6-1.87a17.87,17.87,0,0,0,1.86,1.87c.9.73,3,1,3.73,0s.19-5,1.87-3.73,3.65,3,3.73,3.73-3.64,3.36-3.73,5.59-.43,2.75,1.86,3.73,3-1.51,3.73,1.87-1.4,3.21,0,5.59,2.52,4.91,3.73,5.6,1.46.91,1.87,1.86-2.56,4.93-3.73,5.6a27.45,27.45,0,0,1-3.16,1.61,4,4,0,0,1-4.31-.91c-.8-1.1-1.43-2.76-2.33-2.38a53.52,53.52,0,0,0-5.12,3.55,77.92,77.92,0,0,0-9.33,1.86c-2,.66-1.93-.13-3.18-1.81-.5-.69-2.36-4.55-2.42-3.79s-3.73,3.74-3.73,3.74-3-.77-3.73-1.87-.42.11-1.86-3.73c-1.63-4.35-3-3.11-3.73-7.46s1.09-5.59-1.87-9.33c-1.63-2.06-2.13-5.29-3-5.5a46.35,46.35,0,0,0-6.33-.09s-2-3.24-1.86-.56a49.27,49.27,0,0,0,1.86,8s3.06.38,2.09,1.09-6.46,6-7.69,4.5-3.73-5.59-3.73-5.59v-9.33s-2.5-2.07-1.86-3.73,2-4.86,2-4.86-2.34-2.26,1-4.68c4.26-3.1,1.47-.56,4.56-3.48,1.91-1.8,2.9-4.24,4.05-4s7,.24,7,.24l1.24-.59.62-5h7.46Z"/><path class="cls-4" d="M14.1,914.91c1.21,0,3.41.94,3.73-1.86s-2.63-5.21-1.87-5.6-2.53-1,0-3.73,5.47-6.38,5.6-5.59,4.49.82,3.73,1.86,1.3,4.48,1.86,5.6.34,3.32,1.87,1.86A5.62,5.62,0,0,1,32.47,906a5.41,5.41,0,0,0,2.15,1.48c1.24.42,4.6-2.37,4.6-2.37l1.39-1.45s4.58,2.09,5.2,3.82a7.22,7.22,0,0,0,3.73,3.73c.9.24,4.31-4.13,4.31-4.13s3.15.4,4.2,2.21.75,2,.81,3.79-2.67,2.36-4.53,4.14-4.1,1.4-5.43,3.39-2.18,3.5-2.18,3.5-.23,1.71-1.38,2.16-.94-.16-2.26-.42a8,8,0,0,1-2.87-1.58s.26,0-1.87,1.86-3.91-.63-3.72,1.87-1.25,2.83,0,3.73,3,1.25,3.72,3.73,0,3.73,0,3.73a7,7,0,0,0-5.12-2c-2.91.26-1.94.68-4.2-1.71a17.29,17.29,0,0,1-3.73-5.6c-.69-1.45-2.31-4-2.31-4a26.42,26.42,0,0,1-4.22-1.1c-2.71-1.2-5.2-5.36-5.2-5.36S12.89,915,14.1,914.91Z"/><path class="cls-4" d="M36.48,946.62c1.16-.56,6.84.39,9.33,1.86s2.49,3.16,3.73,3.74,1.6,3.88,0,5.59-9.33,5.6-9.33,5.6-6.84.5-5.59-1.87,4.08-1.55,3.72-3.73a30.06,30.06,0,0,0-1.86-5.59s-1-2.54-1.86-1.87-.21,2.89-3.74,3.73-5.18.76-5.59,1.87-4.76,7.44-5.6,7.46-5.39,7.44-5.59,3.73S15.91,962,16,959.68s1.72-4.85,0-7.46-4.16-4-5.59-5.6S3.8,941.3,4.77,941s3.73-5.6,3.73-5.6V931.7s2.78,3,3.73,3.73-.41.37,1.87,3.73,4.47,4.64,3.73,5.59,1.64.66,1.86,1.87,2.63,2.87,3.73,1.86,5.3-.07,3.73-3.73-4.47-4.34-3.73-5.59-1.86-3.73-1.86-3.73-.86-3.56-3.73-3.73-3.73-1.87-3.73-1.87A15.85,15.85,0,0,0,10.37,928a15.93,15.93,0,0,1-3.73-1.87s-.69,1-1.87,0S.61,923.16,1,922.37a25.7,25.7,0,0,0,1.87-5.59c0-.86,1.86-5.6,1.86-5.6l3.73,1.87,5.6,1.86s-1.57,3.45,0,5.6a19.59,19.59,0,0,0,3.73,3.73l3.68,1.27a2.19,2.19,0,0,1,1.91.59c.75.82,1.47,3.11,2.38,5.42s5.08,5.77,5.08,5.77a17.4,17.4,0,0,1,3.74,0,35.5,35.5,0,0,1,3.72,1.87,1.51,1.51,0,0,0,0,1.87C39.05,942.16,35.32,947.18,36.48,946.62Z"/><path class="cls-4" d="M57,982.06s.37,3.58-1.87,5.59-5.05,1.55-5.59,3.74S47.67,997,47.67,997c4.39.54,4.14.71,7.46,0a20.6,20.6,0,0,0,5.6-1.87c1.73-.84,2.71,1.23,3.73,1.87.55.35-.94.54,3.73,1.86,3,.86,6.64,3.7,9.32,1.87s2-4.08,5.6-4.27,5.16-.79,6.22-1.63,3.12-5.14,3.12-5.14-.79-3.85-.88-5.2-.68-2.78-1.57-6.35a17.39,17.39,0,0,0-3-5.59c-.71-1-2-3.53-2-3.53l4.65-4.47s1.82-1.84,4-4.12,2.19-3.28,3.08-4.87,3.17-5.19,3.17-5.19l1.87-3.73-1.87-3.73s-2.1-2.83-1.86-3.73a28.66,28.66,0,0,0,0-5.59c-.11-2.39-.78-1.89-1.87-3.74s-2-5.54-3.73-5.59c-2.09-.07-5.33.88-5.59,0S85,922.37,85,922.37l1.87,9.33s3.44-.19,1.79,1.63-3,2.13-4.32,3c-1,.74-2,1.79-2.57,1.26-3.27-2.75-3.35-5.77-4.23-5.94a29.85,29.85,0,0,1-4.91-.41,4,4,0,0,1-2.55-1.46c-1.21-1.13-1.53-3.08-2.93-2.41a21.14,21.14,0,0,1-4.36,1.91c-1.17.26-3.53,1.25-4.19,2.85s-.63.18-2.85,4.1c-2.41,4.28-2.61,4.3-2.45,4.75.81,2.36,1.8,3.31,3.73,5.59s2,2.71,3.73,3.73,2.7,1.83,1.86,3.73-.41,4.33-1.86,5.6-9.33,5.59-9.33,5.59,7.24,1.85,9.33,0,5.91-4.9,5.59-3.73a7.5,7.5,0,0,1-1.86,3.73c-1.29,1.37-3.7,2.2-3.73,3.73s-1.22,4-1.87,5.6S57,982.06,57,982.06Z"/><path class="cls-4" d="M42.08,976.46a5.17,5.17,0,0,1,1.86-3.73,9.69,9.69,0,0,1,3.73-1.86h5.6v3.73s-2.84,3-3.73,3.73-5.6,1.86-5.6,1.86Z"/><path class="cls-4" d="M27.15,978.33a6.13,6.13,0,0,1,1.87-5.6,32.88,32.88,0,0,1,5.6-3.73,1.86,1.86,0,0,0,1.86,0c.8-.59,1.16.43,1.86,1.87s2.32,3.73,1.87,5.59-1.87,5.6-1.87,5.6-.89,3.75-1.86,3.73-2.24,1.81-3.73,3.73-5.6,3.73-5.6,3.73-2.51-2.82-1.86-3.73,1.86-5.6,1.86-5.6Z"/><path class="cls-4" d="M111.08,1023.09s2.19,8.12,0,9.33-4.21,2.7-3.73,3.73.58,3.06,0,5.59.75,4.4-1.86,5.6-9-2.34-9-2.34a24.84,24.84,0,0,1-.37-5.12c0-2,0-9.33,0-9.33l-9-4.16s.41-.44-.47-2.05-4.37-3.51-4.37-3.51l-4.82.4,1.87-5.6-6.69-7.73L71,1002.74l-2.77-3.9,3.73,1.87,4.79.38L81.24,997c1.44-1.29,5.69.39,7.46-1.87s4.63-4.86,3.73-7.46-3-13.24-3.73-13S85,969,85,969a43.74,43.74,0,0,1,3.73-3.73c1.07-.76,5.52-4.73,5.6-5.59s3.32-4.86,3.73-5.6c1-1.85,1.86-3.73,1.86-3.73l1.87-3.73s2.83,5.1,3.76,5,1.59,1.17,2.61.31a36.59,36.59,0,0,0,3-3.42l3.69,5.76s9.54-2.25,11.24-2,5.24-4.15,5.59-3.74,2.52,3.74,3.73,3.74c1.87,0,4-1.2,3.42-.45-1.14,1.38-4.13,7.7-5.28,7.91s-3.12,2.63-3.73,3.73-3,5.83-3.73,5.59,1.13,3.1,0,3.73-5.45,6.68-5.6,9.33-1.45,3.41-1.87,7.46-4.19,8.39-3.72,11.19-1.37,3.08-1.87,5.59S111.08,1023.09,111.08,1023.09Z"/><path class="cls-4" d="M38.34,1056.66c-.56-.42-1.16-6.29-1.86-7.46a46.31,46.31,0,0,0-3.73-3.73s-.8-2.53,1.87-1.86l7.46,1.86s-1.25-3.24,0-5.59,3.37-1.57,3.73-3.73a29,29,0,0,0,0-5.6c0-.82-3.92-4.7-3.73-5.59s-2.32-3-3.74-3.73-3.72-3.73-3.72-3.73,3.37-2.33,3.72-3.73.71-4.83,0-5.6-1.86-1.87-1.86-1.87v-3.73l-1.86-3.73a6.17,6.17,0,0,0,3.72,0c1.78-.66,4.44-2,5.6-1.86a33.76,33.76,0,0,0,3.73,0l4.66.45,5.81-1.23s3.6-2.08,4.45-1.09a16.23,16.23,0,0,0,5.6,3.73,39.31,39.31,0,0,1,2.48,3.42c1,1.45.07,1.53,1.25,4a15.38,15.38,0,0,0,3.73,5.6c1.69,1.53,3.73,3.73,3.73,3.73l-1.87,5.6s5-1.07,5.6,0,3.32,2.54,3.73,3.73c.77,2.25,1.39,1.85,2.79,2.57a14.65,14.65,0,0,0,2.9,1.34l3.63,1.68V1038s-.23,5.36.37,7c.28.78-4.8-1.36-6-1.39s-3.82.93-3.73,1.86,0,3.73,0,3.73,3.44,1.15,3.73,1.87c.46,1.16,0,7.46,0,7.46a8.21,8.21,0,0,1-1.87,0c-1.77-.08-1.43-.45-3.73,1.86s-3.21,3.92-5.59,5.6-3.73,0-3.73,0l-3.73,1.86-3.73,3.73s-2.72.55-3.73,0c-.8-.42,4.14-8.16,3.73-7.46l-.06.1a30.4,30.4,0,0,0,1.92-3.83c.21-.87,1.87-5.59,1.87-5.59v-7.46a9.75,9.75,0,0,1-1.87-3.73,19.25,19.25,0,0,1,0-5.6H62.59v-5.59h5.6a3.5,3.5,0,0,0,1.86,1.86c1.27.41,1.87-1.86,1.87-1.86l1.86-3.74s-2.87.55-3.73-1.86-3.73-3.73-3.73-3.73L62.59,1025s-2.18,8.2-1.86,9.32-1.87,3.73-1.87,3.73-2.72-.76-1.86,1.87,1.45,4.66,1.86,5.59-2.18,1.57,0,3.73.49,5.49,1.87,5.6,4,1.13,3.73,1.86,1.28,2.48,0,3.73-6.55,2.48-7.46,1.87-1.87-3.73-1.87-3.73-.43-4.55-1.86-3.73-9.33,1.86-9.33,1.86S39,1057.13,38.34,1056.66Z"/><path class="cls-4" d="M792.08,838l7.46-1.87,1.87-3.73,3.73-3.73L797.68,823h5.59s4.57,4.58,5.6,3.73,5.6-3.73,5.6-3.73l3.72-7.46,3.74-5.6s3.07,1.74,3.73,3.73-1.46,6.36-1.87,7.46,0,5-1.86,5.6-4.63,4.31-5.6,3.73-4.4.65-5.6,1.86l-5.59,5.6s-.92,1.19-3.73,1.86-1.64.15-1.87,1.87,1.87,3.73,1.87,3.73-6.19.63-5.6,1.86-1.86,7.46-1.86,7.46l3.73,1.87L794,860.34h-3.73l-3.73-3.73,3.73-5.6,1.86-3.73-1.86-5.59Z"/><polyline class="cls-5" points="759.95 880.5 759.95 787.5 852.95 787.5"/></g></g></svg>