<svg xmlns="http://www.w3.org/2000/svg" xmlns:xlink="http://www.w3.org/1999/xlink" viewBox="0 0 135 40"><defs><style>.cls-1{fill:#a6a6a6;}.cls-10,.cls-2,.cls-9{fill:#fff;}.cls-3{fill:url(#linear-gradient);}.cls-4{fill:url(#linear-gradient-2);}.cls-5{fill:url(#linear-gradient-3);}.cls-6{fill:url(#linear-gradient-4);}.cls-7{opacity:0.2;}.cls-7,.cls-8,.cls-9{isolation:isolate;}.cls-8{opacity:0.12;}.cls-9{opacity:0.25;}.cls-10{stroke:#fff;stroke-miterlimit:10;stroke-width:0.2px;}</style><linearGradient id="linear-gradient" x1="21.8" y1="185.96" x2="5.02" y2="169.17" gradientTransform="matrix(1, 0, 0, -1, 0, 194.67)" gradientUnits="userSpaceOnUse"><stop offset="0" stop-color="#00a0ff"/><stop offset="0.01" stop-color="#00a1ff"/><stop offset="0.26" stop-color="#00beff"/><stop offset="0.51" stop-color="#00d2ff"/><stop offset="0.76" stop-color="#00dfff"/><stop offset="1" stop-color="#00e3ff"/></linearGradient><linearGradient id="linear-gradient-2" x1="33.83" y1="174.67" x2="9.64" y2="174.67" gradientTransform="matrix(1, 0, 0, -1, 0, 194.67)" gradientUnits="userSpaceOnUse"><stop offset="0" stop-color="#ffe000"/><stop offset="0.41" stop-color="#ffbd00"/><stop offset="0.78" stop-color="orange"/><stop offset="1" stop-color="#ff9c00"/></linearGradient><linearGradient id="linear-gradient-3" x1="24.83" y1="172.37" x2="2.07" y2="149.61" gradientTransform="matrix(1, 0, 0, -1, 0, 194.67)" gradientUnits="userSpaceOnUse"><stop offset="0" stop-color="#ff3a44"/><stop offset="1" stop-color="#c31162"/></linearGradient><linearGradient id="linear-gradient-4" x1="7.3" y1="194.49" x2="17.46" y2="184.33" gradientTransform="matrix(1, 0, 0, -1, 0, 194.67)" gradientUnits="userSpaceOnUse"><stop offset="0" stop-color="#32a071"/><stop offset="0.07" stop-color="#2da771"/><stop offset="0.48" stop-color="#15cf74"/><stop offset="0.8" stop-color="#06e775"/><stop offset="1" stop-color="#00f076"/></linearGradient></defs><title>Google</title><g id="レイヤー_2" data-name="レイヤー 2"><g id="artwork"><rect width="135" height="40" rx="5"/><path class="cls-1" d="M130,.8A4.2,4.2,0,0,1,134.2,5V35a4.2,4.2,0,0,1-4.2,4.2H5A4.2,4.2,0,0,1,.8,35V5A4.2,4.2,0,0,1,5,.8H130m0-.8H5A5,5,0,0,0,0,5V35a5,5,0,0,0,5,5H130a5,5,0,0,0,5-5V5a5,5,0,0,0-5-5Z"/><path class="cls-2" d="M64.72,12.79a3.72,3.72,0,1,0,3.74,3.72A3.67,3.67,0,0,0,64.72,12.79Zm0,6a2.15,2.15,0,0,1-2.09-2.25,2.1,2.1,0,1,1,4.19,0A2.15,2.15,0,0,1,64.72,18.76Zm-8.14-6a3.72,3.72,0,1,0,3.74,3.72A3.67,3.67,0,0,0,56.58,12.79Zm0,6a2.15,2.15,0,0,1-2.09-2.25,2.1,2.1,0,1,1,4.19,0A2.15,2.15,0,0,1,56.58,18.76ZM46.9,13.93v1.58h3.77a3.2,3.2,0,0,1-.86,2,3.83,3.83,0,0,1-2.91,1.16,4.2,4.2,0,0,1,0-8.39,4,4,0,0,1,2.84,1.12l1.12-1.11a5.53,5.53,0,0,0-4-1.59A5.86,5.86,0,0,0,41,14.45a5.86,5.86,0,0,0,5.86,5.78,5.31,5.31,0,0,0,4-1.62,5.23,5.23,0,0,0,1.36-3.69,4.9,4.9,0,0,0-.08-1Zm39.6,1.23a3.46,3.46,0,0,0-3.18-2.37,3.54,3.54,0,0,0-3.51,3.72,3.64,3.64,0,0,0,3.69,3.72,3.71,3.71,0,0,0,3.1-1.65l-1.27-.85a2.12,2.12,0,0,1-1.83,1,1.89,1.89,0,0,1-1.8-1.13l5-2ZM81.43,16.4a2,2,0,0,1,1.95-2.17,1.44,1.44,0,0,1,1.38.79Zm-4,3.6H79V9.07H77.39Zm-2.67-6.38h-.06a2.57,2.57,0,0,0-2-.83,3.72,3.72,0,0,0,0,7.44,2.55,2.55,0,0,0,2-.85h.06v.54a1.9,1.9,0,0,1-2,2.18,2,2,0,0,1-1.87-1.33l-1.42.6a3.53,3.53,0,0,0,3.29,2.19c1.92,0,3.54-1.12,3.54-3.87V13H74.72Zm-1.88,5.14a2.14,2.14,0,0,1-2.07-2.24,2.16,2.16,0,0,1,2.07-2.27,2.1,2.1,0,0,1,2,2.27A2.07,2.07,0,0,1,72.84,18.76ZM94.16,9.07H90.25V20h1.63V15.86h2.28a3.46,3.46,0,0,0,3.58-3.39A3.47,3.47,0,0,0,94.16,9.07Zm0,5.27H91.88V10.59H94.2a1.88,1.88,0,1,1,0,3.75Zm10.08-1.57a3.06,3.06,0,0,0-2.91,1.67l1.44.61a1.77,1.77,0,0,1,3.21.6v.11a3.74,3.74,0,0,0-1.7-.42c-1.56,0-3.15.86-3.15,2.46a2.52,2.52,0,0,0,2.71,2.41A2.31,2.31,0,0,0,106,19.14H106V20h1.57V15.79C107.59,13.85,106.15,12.77,104.28,12.77Zm-.2,6c-.53,0-1.28-.27-1.28-.93,0-.84.93-1.17,1.73-1.17A2.91,2.91,0,0,1,106,17,2,2,0,0,1,104.08,18.76ZM113.33,13l-1.87,4.74h-.06L109.46,13h-1.75l2.91,6.62L109,23.31h1.7L115.14,13ZM98.64,20h1.63V9.07H98.64Z"/><path class="cls-3" d="M10.44,7.54A2,2,0,0,0,10,8.94V31.06a1.94,1.94,0,0,0,.47,1.4l.07.08L22.9,20.15v-.3L10.51,7.47Z"/><path class="cls-4" d="M27,24.28,22.9,20.15v-.3L27,15.72l.09.06L32,18.56c1.4.79,1.4,2.09,0,2.89l-4.89,2.78Z"/><path class="cls-5" d="M27.12,24.22,22.9,20,10.44,32.46a1.62,1.62,0,0,0,2.07.07l14.61-8.31"/><path class="cls-6" d="M27.12,15.78,12.51,7.48a1.61,1.61,0,0,0-2.07.06L22.9,20Z"/><path class="cls-7" d="M27,24.13,12.51,32.38a1.66,1.66,0,0,1-2,0h0l-.07.07h0l.07.08h0a1.66,1.66,0,0,0,2,0l14.61-8.31Z"/><path class="cls-8" d="M10.44,32.32A2,2,0,0,1,10,30.91v.15a1.94,1.94,0,0,0,.47,1.4l.07-.07Z"/><path class="cls-8" d="M32,21.3l-5,2.83.09.09L32,21.44A1.75,1.75,0,0,0,33.06,20h0A1.86,1.86,0,0,1,32,21.3Z"/><path class="cls-9" d="M12.51,7.62,32,18.7A1.86,1.86,0,0,1,33.06,20h0A1.75,1.75,0,0,0,32,18.56L12.51,7.48C11.12,6.68,10,7.34,10,8.94v.15C10,7.49,11.12,6.83,12.51,7.62Z"/></g><g id="Layer_3" data-name="Layer 3"><path class="cls-10" d="M41.8,27c.59-.06,2.27-.22,3.91-.36,1-.08,1.81-.13,2.4-.15v.72a7.06,7.06,0,0,0-1.74.14,3.12,3.12,0,0,0-2,2.82c0,1.73,1.62,2.28,3.07,2.34l-.26.75c-1.65-.07-3.53-.95-3.53-2.94a3.61,3.61,0,0,1,1.66-3c-.79.09-3.22.33-4.18.53l-.08-.8C41.35,27.06,41.63,27.05,41.8,27Zm5.79,2.55-.46.21a8.79,8.79,0,0,0-.74-1.27l.46-.19A9.6,9.6,0,0,1,47.59,29.58Zm1-.39-.47.22a8,8,0,0,0-.77-1.26l.45-.2A12.18,12.18,0,0,1,48.62,29.19Z"/><path class="cls-10" d="M57.56,30.76h-3.7v2c0,.48-.14.68-.47.79a7,7,0,0,1-1.86.11,3.16,3.16,0,0,0-.29-.66c.76,0,1.46,0,1.67,0s.28-.07.28-.25v-2h-3.7V30.1h3.7V28.64h-3.1V28h3.1V26.61c-1,.11-2,.18-2.94.22a2.24,2.24,0,0,0-.17-.59,30.15,30.15,0,0,0,6.09-.76l.5.53a15.49,15.49,0,0,1-2.81.53V28h3.19v.64H53.86V30.1h3.7Z"/><path class="cls-10" d="M60.3,26.25c0,.15-.13.44-.17.6a20.61,20.61,0,0,0-.43,3.41,10.26,10.26,0,0,0,.07,1.23c.15-.41.35-.93.49-1.28l.39.28c-.22.64-.55,1.58-.63,2a2,2,0,0,0,0,.4l0,.31-.64,0A11.14,11.14,0,0,1,59,30.39a24.42,24.42,0,0,1,.4-3.58c0-.2.06-.44.06-.63Zm2,4.32a2.9,2.9,0,0,0-.12.82c0,.4.27.8,1.49.8A9.3,9.3,0,0,0,65.92,32v.76a11.74,11.74,0,0,1-2.23.18c-1.49,0-2.16-.5-2.16-1.33a5.29,5.29,0,0,1,.15-1.06ZM62,26.93a15.53,15.53,0,0,0,3.67,0v.74a22.36,22.36,0,0,1-3.66,0Z"/><path class="cls-10" d="M71.67,26A7.71,7.71,0,0,0,75.4,33.1a3.13,3.13,0,0,0-.54.55,7.75,7.75,0,0,1-3.57-5,8,8,0,0,1-3.59,5,5.4,5.4,0,0,0-.61-.53c2-1,3.1-2.84,3.65-5.36l.4.06A10.48,10.48,0,0,1,71,26.68H68.8V26Z"/><path class="cls-10" d="M84.17,32.28a2.31,2.31,0,0,1-1.64.74c-.58,0-1-.39-1-1.13,0-1,.33-2.46.33-3.32,0-.52-.26-.73-.71-.73a4.85,4.85,0,0,0-2.62,1.72c0,.38,0,.73,0,1,0,.81,0,1.35,0,2.15,0,.16,0,.38,0,.54h-.79c0-.12,0-.38,0-.53,0-.85,0-1.29,0-2.28,0-.09,0-.21,0-.35-.44.66-1,1.52-1.45,2.11L76,31.62c.49-.62,1.52-2,2-2.71,0-.29,0-.58,0-.86l-1.73.23-.08-.75a3.92,3.92,0,0,0,.59,0c.29,0,.81-.07,1.27-.14,0-.42,0-.74,0-.84a3.73,3.73,0,0,0,0-.66l.85,0c0,.22-.12.72-.18,1.34h0l.26.31c-.11.16-.26.41-.4.62s0,.34,0,.51a5,5,0,0,1,2.73-1.5,1.11,1.11,0,0,1,1.25,1.2c0,.89-.33,2.43-.33,3.33,0,.31.15.54.46.54a2,2,0,0,0,1.34-.74Z"/><path class="cls-10" d="M89.19,28.47c0,.58,0,1.45.09,2.22a7.08,7.08,0,0,1,2.77,1.52l-.43.67a6.16,6.16,0,0,0-2.31-1.47c0,.24,0,.43,0,.6,0,.73-.45,1.36-1.64,1.36S85.55,33,85.55,32c0-.8.71-1.46,2.25-1.46a4.73,4.73,0,0,1,.75.05c0-.72-.07-1.54-.07-2.07s0-1.25,0-1.63A6.13,6.13,0,0,0,88.4,26h.86c0,.19-.06.61-.07.88s0,.56,0,.91c.71,0,1.84-.06,2.64-.17l0,.68c-.8.07-1.94.13-2.67.15Zm-.61,2.74a4.27,4.27,0,0,0-.87-.08c-.92,0-1.44.31-1.44.8s.49.76,1.35.76c.65,0,1-.31,1-.92C88.59,31.63,88.58,31.44,88.58,31.21Z"/><path class="cls-10" d="M97.41,28.7a8.36,8.36,0,0,0-2.43.46c-.27.07-.53.18-.75.26L94,28.59c.24,0,.55-.08.81-.13A12.09,12.09,0,0,1,97.48,28a2,2,0,0,1,2.22,2c0,1.93-1.72,3-4,3.37l-.42-.68c2.16-.27,3.69-1.12,3.69-2.72A1.34,1.34,0,0,0,97.41,28.7ZM99,26.38l-.11.69c-1-.06-2.79-.24-3.8-.42L95.2,26A24.48,24.48,0,0,0,99,26.38Z"/></g></g></svg>